%TF.GenerationSoftware,KiCad,Pcbnew,7.0.2*%
%TF.CreationDate,2024-03-07T12:51:36+05:30*%
%TF.ProjectId,helix2403,68656c69-7832-4343-9033-2e6b69636164,rev?*%
%TF.SameCoordinates,Original*%
%TF.FileFunction,Copper,L2,Bot*%
%TF.FilePolarity,Positive*%
%FSLAX46Y46*%
G04 Gerber Fmt 4.6, Leading zero omitted, Abs format (unit mm)*
G04 Created by KiCad (PCBNEW 7.0.2) date 2024-03-07 12:51:36*
%MOMM*%
%LPD*%
G01*
G04 APERTURE LIST*
G04 Aperture macros list*
%AMRoundRect*
0 Rectangle with rounded corners*
0 $1 Rounding radius*
0 $2 $3 $4 $5 $6 $7 $8 $9 X,Y pos of 4 corners*
0 Add a 4 corners polygon primitive as box body*
4,1,4,$2,$3,$4,$5,$6,$7,$8,$9,$2,$3,0*
0 Add four circle primitives for the rounded corners*
1,1,$1+$1,$2,$3*
1,1,$1+$1,$4,$5*
1,1,$1+$1,$6,$7*
1,1,$1+$1,$8,$9*
0 Add four rect primitives between the rounded corners*
20,1,$1+$1,$2,$3,$4,$5,0*
20,1,$1+$1,$4,$5,$6,$7,0*
20,1,$1+$1,$6,$7,$8,$9,0*
20,1,$1+$1,$8,$9,$2,$3,0*%
G04 Aperture macros list end*
%TA.AperFunction,NonConductor*%
%ADD10C,1.500000*%
%TD*%
%TA.AperFunction,NonConductor*%
%ADD11C,0.550000*%
%TD*%
%TA.AperFunction,NonConductor*%
%ADD12C,0.200000*%
%TD*%
%TA.AperFunction,NonConductor*%
%ADD13C,1.600000*%
%TD*%
%ADD14C,0.500000*%
%TA.AperFunction,ComponentPad*%
%ADD15C,2.000000*%
%TD*%
%TA.AperFunction,ComponentPad*%
%ADD16R,1.600000X1.600000*%
%TD*%
%TA.AperFunction,ComponentPad*%
%ADD17O,1.600000X1.600000*%
%TD*%
%TA.AperFunction,ComponentPad*%
%ADD18R,3.000000X3.000000*%
%TD*%
%TA.AperFunction,ComponentPad*%
%ADD19C,3.000000*%
%TD*%
%TA.AperFunction,ComponentPad*%
%ADD20C,1.600000*%
%TD*%
%TA.AperFunction,ComponentPad*%
%ADD21R,1.700000X1.700000*%
%TD*%
%TA.AperFunction,ComponentPad*%
%ADD22O,1.700000X1.700000*%
%TD*%
%TA.AperFunction,ComponentPad*%
%ADD23R,2.200000X2.200000*%
%TD*%
%TA.AperFunction,ComponentPad*%
%ADD24O,2.200000X2.200000*%
%TD*%
%TA.AperFunction,ComponentPad*%
%ADD25R,2.500000X2.500000*%
%TD*%
%TA.AperFunction,ComponentPad*%
%ADD26C,2.500000*%
%TD*%
%TA.AperFunction,ComponentPad*%
%ADD27R,2.000000X2.000000*%
%TD*%
%TA.AperFunction,WasherPad*%
%ADD28O,5.500000X8.000000*%
%TD*%
%TA.AperFunction,ComponentPad*%
%ADD29R,2.400000X1.600000*%
%TD*%
%TA.AperFunction,ComponentPad*%
%ADD30O,2.400000X1.600000*%
%TD*%
%TA.AperFunction,ComponentPad*%
%ADD31C,2.200000*%
%TD*%
%TA.AperFunction,ComponentPad*%
%ADD32R,1.905000X2.000000*%
%TD*%
%TA.AperFunction,ComponentPad*%
%ADD33O,1.905000X2.000000*%
%TD*%
%TA.AperFunction,ComponentPad*%
%ADD34RoundRect,0.675000X0.675000X-0.675000X0.675000X0.675000X-0.675000X0.675000X-0.675000X-0.675000X0*%
%TD*%
%TA.AperFunction,ComponentPad*%
%ADD35C,2.700000*%
%TD*%
%TA.AperFunction,ComponentPad*%
%ADD36R,1.800000X1.800000*%
%TD*%
%TA.AperFunction,ComponentPad*%
%ADD37C,1.800000*%
%TD*%
%TA.AperFunction,ComponentPad*%
%ADD38R,3.200000X3.200000*%
%TD*%
%TA.AperFunction,SMDPad,CuDef*%
%ADD39RoundRect,0.250000X0.625000X-0.400000X0.625000X0.400000X-0.625000X0.400000X-0.625000X-0.400000X0*%
%TD*%
%TA.AperFunction,SMDPad,CuDef*%
%ADD40RoundRect,0.190000X-0.285000X-0.685000X0.285000X-0.685000X0.285000X0.685000X-0.285000X0.685000X0*%
%TD*%
%TA.AperFunction,SMDPad,CuDef*%
%ADD41RoundRect,0.250000X0.400000X0.625000X-0.400000X0.625000X-0.400000X-0.625000X0.400000X-0.625000X0*%
%TD*%
%TA.AperFunction,SMDPad,CuDef*%
%ADD42RoundRect,0.249999X-0.450001X-1.425001X0.450001X-1.425001X0.450001X1.425001X-0.450001X1.425001X0*%
%TD*%
%TA.AperFunction,SMDPad,CuDef*%
%ADD43RoundRect,0.249999X-1.425001X0.450001X-1.425001X-0.450001X1.425001X-0.450001X1.425001X0.450001X0*%
%TD*%
%TA.AperFunction,SMDPad,CuDef*%
%ADD44RoundRect,0.250000X-0.400000X-0.625000X0.400000X-0.625000X0.400000X0.625000X-0.400000X0.625000X0*%
%TD*%
%TA.AperFunction,ViaPad*%
%ADD45C,1.500000*%
%TD*%
%TA.AperFunction,Conductor*%
%ADD46C,1.000000*%
%TD*%
%TA.AperFunction,Conductor*%
%ADD47C,0.750000*%
%TD*%
%TA.AperFunction,Conductor*%
%ADD48C,0.000000*%
%TD*%
%TA.AperFunction,Conductor*%
%ADD49C,0.250000*%
%TD*%
%TA.AperFunction,Conductor*%
%ADD50C,1.500000*%
%TD*%
%TA.AperFunction,Conductor*%
%ADD51C,0.850000*%
%TD*%
%TA.AperFunction,Conductor*%
%ADD52C,0.500000*%
%TD*%
%TA.AperFunction,Conductor*%
%ADD53C,0.800000*%
%TD*%
%TA.AperFunction,Conductor*%
%ADD54C,2.000000*%
%TD*%
%TA.AperFunction,Conductor*%
%ADD55C,0.450000*%
%TD*%
%TA.AperFunction,Conductor*%
%ADD56C,2.500000*%
%TD*%
%TA.AperFunction,Conductor*%
%ADD57C,1.750000*%
%TD*%
G04 APERTURE END LIST*
D10*
X106493000Y-128016000D02*
X108271000Y-128016000D01*
X154880000Y-88646000D02*
X152848000Y-86868000D01*
X139132000Y-43688000D02*
X138878000Y-42926000D01*
X135322000Y-88646000D02*
X134306000Y-88646000D01*
X142688000Y-91694000D02*
X145482000Y-88646000D01*
X142688000Y-95250000D02*
X141672000Y-94742000D01*
X151832000Y-90170000D02*
X153610000Y-91186000D01*
X160214000Y-115824000D02*
X159198000Y-117348000D01*
X158690000Y-88392000D02*
X157674000Y-87122000D01*
X151832000Y-91186000D02*
X153610000Y-91186000D01*
X117034000Y-77216000D02*
X126432000Y-86614000D01*
X177232000Y-98044000D02*
X177232000Y-91948000D01*
X205883200Y-53238400D02*
X205095800Y-53289200D01*
X108271000Y-124460000D02*
X106493000Y-124460000D01*
D11*
X139386000Y-45974000D02*
X139386000Y-47752000D01*
D10*
X102302000Y-125222000D02*
X102302000Y-126746000D01*
X172152000Y-92202000D02*
X167326000Y-87884000D01*
X200981000Y-52882800D02*
X200193600Y-52933600D01*
X185106000Y-88138000D02*
X185614000Y-90932000D01*
X156962800Y-45567600D02*
X154372000Y-48742600D01*
X157928000Y-126238000D02*
X157928000Y-117094000D01*
X146752000Y-86106000D02*
X146752000Y-88900000D01*
X141672000Y-46228000D02*
X139386000Y-49022000D01*
X142815000Y-110744000D02*
X142815000Y-107442000D01*
X178019400Y-52095400D02*
X178019400Y-52679600D01*
X134306000Y-90170000D02*
X135322000Y-88646000D01*
X96333000Y-124460000D02*
X96333000Y-128016000D01*
X144466000Y-91694000D02*
X142688000Y-91694000D01*
X163541400Y-44932600D02*
X156658000Y-45135800D01*
X124400000Y-91440000D02*
X126940000Y-88392000D01*
X162754000Y-89154000D02*
X162754000Y-87630000D01*
X124146000Y-89408000D02*
X123638000Y-95250000D01*
X150816000Y-86868000D02*
X150816000Y-90678000D01*
X71441000Y-124460000D02*
X69663000Y-124460000D01*
D12*
X146498000Y-124460000D02*
X149546000Y-124460000D01*
X149546000Y-128778000D01*
X146498000Y-128778000D01*
X146498000Y-124460000D01*
%TA.AperFunction,NonConductor*%
G36*
X146498000Y-124460000D02*
G01*
X149546000Y-124460000D01*
X149546000Y-128778000D01*
X146498000Y-128778000D01*
X146498000Y-124460000D01*
G37*
%TD.AperFunction*%
D10*
X158182000Y-113792000D02*
X158182000Y-107696000D01*
X142180000Y-86614000D02*
X142434000Y-86106000D01*
X187392000Y-90170000D02*
X187646000Y-90932000D01*
X153610000Y-91186000D02*
X153610000Y-88900000D01*
X157928000Y-86868000D02*
X158944000Y-86868000D01*
X123384000Y-88392000D02*
X122368000Y-84582000D01*
X179264000Y-88900000D02*
X176978000Y-89408000D01*
X162601600Y-43992800D02*
X156378600Y-45516800D01*
X108271000Y-128016000D02*
X108271000Y-124460000D01*
X145075600Y-52374800D02*
X154651400Y-52222400D01*
X136846000Y-64770000D02*
X136338000Y-64262000D01*
D12*
X136084000Y-124460000D02*
X139132000Y-124460000D01*
X139132000Y-128778000D01*
X136084000Y-128778000D01*
X136084000Y-124460000D01*
%TA.AperFunction,NonConductor*%
G36*
X136084000Y-124460000D02*
G01*
X139132000Y-124460000D01*
X139132000Y-128778000D01*
X136084000Y-128778000D01*
X136084000Y-124460000D01*
G37*
%TD.AperFunction*%
D10*
X126432000Y-86614000D02*
X127956000Y-86614000D01*
X187900000Y-91948000D02*
X186376000Y-91440000D01*
X125416000Y-87122000D02*
X124400000Y-87122000D01*
X69663000Y-124460000D02*
X69663000Y-128016000D01*
X141672000Y-44704000D02*
X141672000Y-46228000D01*
X162373000Y-67818000D02*
X162373000Y-69088000D01*
X137100000Y-87630000D02*
X132528000Y-87884000D01*
X113605000Y-124460000D02*
X111827000Y-124460000D01*
X185614000Y-86614000D02*
X184090000Y-88646000D01*
X175454000Y-98044000D02*
X177232000Y-98044000D01*
X74997000Y-128016000D02*
X76775000Y-128016000D01*
X176978000Y-89408000D02*
X178502000Y-87884000D01*
D12*
X177994000Y-124206000D02*
X181042000Y-124206000D01*
X181042000Y-128524000D01*
X177994000Y-128524000D01*
X177994000Y-124206000D01*
%TA.AperFunction,NonConductor*%
G36*
X177994000Y-124206000D02*
G01*
X181042000Y-124206000D01*
X181042000Y-128524000D01*
X177994000Y-128524000D01*
X177994000Y-124206000D01*
G37*
%TD.AperFunction*%
D10*
X93031000Y-124460000D02*
X91253000Y-124460000D01*
X111954000Y-77216000D02*
X117034000Y-77216000D01*
X163541400Y-42951400D02*
X163541400Y-44932600D01*
X154372000Y-48742600D02*
X155540400Y-48234600D01*
X140656000Y-86106000D02*
X140656000Y-97028000D01*
X96333000Y-128016000D02*
X98111000Y-128016000D01*
X137100000Y-97282000D02*
X135068000Y-97282000D01*
X170628000Y-92710000D02*
X170882000Y-94742000D01*
X74997000Y-124460000D02*
X74997000Y-128016000D01*
X165294000Y-71628000D02*
X162119000Y-71628000D01*
X158690000Y-94234000D02*
X158944000Y-95250000D01*
X156912000Y-70866000D02*
X157166000Y-76454000D01*
X86173000Y-128016000D02*
X87951000Y-128016000D01*
X152695600Y-51790600D02*
X153787800Y-48056800D01*
X172152000Y-97536000D02*
X172152000Y-92202000D01*
D12*
X171898000Y-124460000D02*
X174946000Y-124460000D01*
X174946000Y-128778000D01*
X171898000Y-128778000D01*
X171898000Y-124460000D01*
%TA.AperFunction,NonConductor*%
G36*
X171898000Y-124460000D02*
G01*
X174946000Y-124460000D01*
X174946000Y-128778000D01*
X171898000Y-128778000D01*
X171898000Y-124460000D01*
G37*
%TD.AperFunction*%
X121098000Y-124460000D02*
X124146000Y-124460000D01*
X124146000Y-128778000D01*
X121098000Y-128778000D01*
X121098000Y-124460000D01*
%TA.AperFunction,NonConductor*%
G36*
X121098000Y-124460000D02*
G01*
X124146000Y-124460000D01*
X124146000Y-128778000D01*
X121098000Y-128778000D01*
X121098000Y-124460000D01*
G37*
%TD.AperFunction*%
D10*
X155642000Y-46151800D02*
X155642000Y-42951400D01*
X179010000Y-89916000D02*
X179264000Y-88900000D01*
X111827000Y-128016000D02*
X113605000Y-128016000D01*
X167326000Y-87884000D02*
X167072000Y-88392000D01*
X151832000Y-87630000D02*
X151832000Y-90170000D01*
X163262000Y-63754000D02*
X163262000Y-65024000D01*
X137354000Y-107442000D02*
X135068000Y-107442000D01*
X200981000Y-49707800D02*
X200981000Y-52882800D01*
X186122000Y-91694000D02*
X187900000Y-91948000D01*
X86173000Y-124460000D02*
X86173000Y-128016000D01*
X81855000Y-128016000D02*
X81855000Y-124460000D01*
D11*
X139386000Y-47752000D02*
X138878000Y-47752000D01*
D10*
X137100000Y-87122000D02*
X137100000Y-97282000D01*
X175454000Y-88646000D02*
X175454000Y-98044000D01*
X162119000Y-71628000D02*
X162119000Y-73152000D01*
X187646000Y-90932000D02*
X186122000Y-88646000D01*
X135068000Y-97282000D02*
X135068000Y-92202000D01*
X143450000Y-86868000D02*
X142180000Y-86614000D01*
X152594000Y-87630000D02*
X152594000Y-97282000D01*
D12*
X116018000Y-124460000D02*
X119066000Y-124460000D01*
X119066000Y-128778000D01*
X116018000Y-128778000D01*
X116018000Y-124460000D01*
%TA.AperFunction,NonConductor*%
G36*
X116018000Y-124460000D02*
G01*
X119066000Y-124460000D01*
X119066000Y-128778000D01*
X116018000Y-128778000D01*
X116018000Y-124460000D01*
G37*
%TD.AperFunction*%
D10*
X64583000Y-124460000D02*
X64583000Y-128016000D01*
D12*
X128464000Y-92964000D02*
X131512000Y-92964000D01*
X131512000Y-97282000D01*
X128464000Y-97282000D01*
X128464000Y-92964000D01*
%TA.AperFunction,NonConductor*%
G36*
X128464000Y-92964000D02*
G01*
X131512000Y-92964000D01*
X131512000Y-97282000D01*
X128464000Y-97282000D01*
X128464000Y-92964000D01*
G37*
%TD.AperFunction*%
D10*
X136338000Y-64262000D02*
X163008000Y-64516000D01*
X200142800Y-52832000D02*
X198999800Y-52857400D01*
X145736000Y-86868000D02*
X143450000Y-86868000D01*
X164659000Y-68580000D02*
X164659000Y-67818000D01*
X158182000Y-107696000D02*
X160214000Y-107696000D01*
X87951000Y-124460000D02*
X86173000Y-124460000D01*
X97222000Y-125222000D02*
X97222000Y-126746000D01*
X143704000Y-88646000D02*
X143196000Y-89154000D01*
X122622000Y-97790000D02*
X122622000Y-83566000D01*
X178502000Y-87884000D02*
X172660000Y-87884000D01*
X180991200Y-52679600D02*
X181016600Y-52044600D01*
X140529000Y-109220000D02*
X142307000Y-110744000D01*
D13*
X203419400Y-96596200D02*
X206264200Y-96647000D01*
D10*
X160214000Y-96012000D02*
X160214000Y-97790000D01*
X198999800Y-52857400D02*
X198999800Y-49707800D01*
X183836000Y-47904400D02*
X183836000Y-49936400D01*
X122622000Y-83566000D02*
X125416000Y-87122000D01*
X170882000Y-94742000D02*
X168088000Y-90424000D01*
X138649400Y-42875200D02*
X141672000Y-42875200D01*
X139640000Y-44704000D02*
X139132000Y-45212000D01*
X185969600Y-46685200D02*
X183734400Y-46685200D01*
D13*
X206175300Y-117475000D02*
X206200700Y-115544600D01*
D10*
X135068000Y-107442000D02*
X135068000Y-109220000D01*
X153610000Y-88900000D02*
X151832000Y-87630000D01*
X103191000Y-124460000D02*
X101413000Y-124460000D01*
X140148000Y-44704000D02*
X141672000Y-44704000D01*
X205883200Y-50063400D02*
X205883200Y-53238400D01*
X103191000Y-128016000D02*
X103191000Y-124460000D01*
D13*
X205883200Y-91719400D02*
X208753400Y-91719400D01*
D10*
X162373000Y-69088000D02*
X164786000Y-69088000D01*
X163008000Y-64516000D02*
X163262000Y-64135000D01*
X146396400Y-52273200D02*
X145151800Y-52171600D01*
X168088000Y-90424000D02*
X166564000Y-89154000D01*
X137100000Y-86868000D02*
X137100000Y-87630000D01*
X141672000Y-94742000D02*
X141164000Y-87376000D01*
D12*
X166818000Y-124460000D02*
X169866000Y-124460000D01*
X169866000Y-128778000D01*
X166818000Y-128778000D01*
X166818000Y-124460000D01*
%TA.AperFunction,NonConductor*%
G36*
X166818000Y-124460000D02*
G01*
X169866000Y-124460000D01*
X169866000Y-128778000D01*
X166818000Y-128778000D01*
X166818000Y-124460000D01*
G37*
%TD.AperFunction*%
D10*
X135576000Y-63754000D02*
X129480000Y-57404000D01*
X172660000Y-87884000D02*
X177232000Y-87884000D01*
X144110400Y-52171600D02*
X144110400Y-53492400D01*
X150816000Y-90678000D02*
X151832000Y-91186000D01*
X154651400Y-52222400D02*
X154651400Y-50317400D01*
X128972000Y-44958000D02*
X128464000Y-44958000D01*
X141672000Y-42926000D02*
X141672000Y-44704000D01*
X66361000Y-124460000D02*
X64583000Y-124460000D01*
X178248000Y-89916000D02*
X179010000Y-89916000D01*
X185868000Y-88900000D02*
X186884000Y-89154000D01*
X181016600Y-50114200D02*
X181016600Y-52044600D01*
X153610000Y-95504000D02*
X153610000Y-91186000D01*
X187392000Y-92710000D02*
X187392000Y-98298000D01*
X145151800Y-52171600D02*
X144110400Y-52171600D01*
X142815000Y-107442000D02*
X140529000Y-107442000D01*
X186376000Y-91440000D02*
X185868000Y-88900000D01*
D12*
X182820000Y-124206000D02*
X185868000Y-124206000D01*
X185868000Y-128524000D01*
X182820000Y-128524000D01*
X182820000Y-124206000D01*
%TA.AperFunction,NonConductor*%
G36*
X182820000Y-124206000D02*
G01*
X185868000Y-124206000D01*
X185868000Y-128524000D01*
X182820000Y-128524000D01*
X182820000Y-124206000D01*
G37*
%TD.AperFunction*%
D10*
X155540400Y-48234600D02*
X155565800Y-52349400D01*
X205045000Y-53187600D02*
X203902000Y-53213000D01*
X164659000Y-67818000D02*
X162373000Y-67818000D01*
X80077000Y-124460000D02*
X80077000Y-128016000D01*
X134306000Y-88646000D02*
X135576000Y-90170000D01*
X140656000Y-44958000D02*
X139386000Y-46228000D01*
X162119000Y-73152000D02*
X165294000Y-73152000D01*
X141164000Y-43942000D02*
X139386000Y-46228000D01*
X122368000Y-84582000D02*
X115764000Y-77724000D01*
X157928000Y-69850000D02*
X157928000Y-77724000D01*
X81855000Y-124460000D02*
X80077000Y-124460000D01*
X98111000Y-124460000D02*
X96333000Y-124460000D01*
D12*
X161992000Y-124460000D02*
X165040000Y-124460000D01*
X165040000Y-128778000D01*
X161992000Y-128778000D01*
X161992000Y-124460000D01*
%TA.AperFunction,NonConductor*%
G36*
X161992000Y-124460000D02*
G01*
X165040000Y-124460000D01*
X165040000Y-128778000D01*
X161992000Y-128778000D01*
X161992000Y-124460000D01*
G37*
%TD.AperFunction*%
D10*
X123384000Y-86106000D02*
X123384000Y-88392000D01*
X158944000Y-95250000D02*
X158182000Y-87376000D01*
X176724000Y-92964000D02*
X178248000Y-89916000D01*
X156378600Y-45516800D02*
X156962800Y-45567600D01*
X127956000Y-89154000D02*
X124908000Y-92202000D01*
D11*
X138878000Y-47752000D02*
X139132000Y-46482000D01*
D10*
X145482000Y-88646000D02*
X143704000Y-88646000D01*
D12*
X156912000Y-124460000D02*
X159960000Y-124460000D01*
X159960000Y-128778000D01*
X156912000Y-128778000D01*
X156912000Y-124460000D01*
%TA.AperFunction,NonConductor*%
G36*
X156912000Y-124460000D02*
G01*
X159960000Y-124460000D01*
X159960000Y-128778000D01*
X156912000Y-128778000D01*
X156912000Y-124460000D01*
G37*
%TD.AperFunction*%
D10*
X158944000Y-86868000D02*
X158944000Y-93472000D01*
X141926000Y-86106000D02*
X146752000Y-86106000D01*
X135068000Y-109220000D02*
X136846000Y-110744000D01*
X70552000Y-124714000D02*
X70552000Y-126492000D01*
X144974000Y-69850000D02*
X144974000Y-70612000D01*
X139132000Y-45212000D02*
X140148000Y-44704000D01*
X160214000Y-107696000D02*
X160214000Y-115824000D01*
X157928000Y-97790000D02*
X157928000Y-86868000D01*
X140656000Y-97028000D02*
X140656000Y-97790000D01*
X154651400Y-50317400D02*
X154880000Y-46659800D01*
D12*
X151578000Y-124460000D02*
X154626000Y-124460000D01*
X154626000Y-128778000D01*
X151578000Y-128778000D01*
X151578000Y-124460000D01*
%TA.AperFunction,NonConductor*%
G36*
X151578000Y-124460000D02*
G01*
X154626000Y-124460000D01*
X154626000Y-128778000D01*
X151578000Y-128778000D01*
X151578000Y-124460000D01*
G37*
%TD.AperFunction*%
D10*
X142942000Y-90170000D02*
X144085000Y-90170000D01*
D13*
X203330500Y-115544600D02*
X203330500Y-117424200D01*
D10*
X143196000Y-89154000D02*
X142942000Y-90170000D01*
D12*
X146498000Y-93218000D02*
X149546000Y-93218000D01*
X149546000Y-97536000D01*
X146498000Y-97536000D01*
X146498000Y-93218000D01*
%TA.AperFunction,NonConductor*%
G36*
X146498000Y-93218000D02*
G01*
X149546000Y-93218000D01*
X149546000Y-97536000D01*
X146498000Y-97536000D01*
X146498000Y-93218000D01*
G37*
%TD.AperFunction*%
D10*
X64583000Y-128016000D02*
X66361000Y-128016000D01*
D13*
X205908600Y-89789000D02*
X205883200Y-91719400D01*
D10*
X155565800Y-53492400D02*
X155565800Y-52349400D01*
X154880000Y-46659800D02*
X154880000Y-42976800D01*
X180026000Y-90678000D02*
X176724000Y-92964000D01*
X144085000Y-90170000D02*
X145736000Y-86868000D01*
X76775000Y-128016000D02*
X76775000Y-124460000D01*
X166564000Y-88392000D02*
X163770000Y-88392000D01*
X158944000Y-93472000D02*
X160214000Y-96012000D01*
X187392000Y-98298000D02*
X189424000Y-98298000D01*
X156658000Y-45135800D02*
X156632600Y-44399200D01*
X126940000Y-88392000D02*
X124146000Y-89408000D01*
X162754000Y-87630000D02*
X166818000Y-87630000D01*
X124654000Y-107188000D02*
X122114000Y-107188000D01*
X163262000Y-65278000D02*
X136592000Y-65278000D01*
X189424000Y-98298000D02*
X189424000Y-90678000D01*
X152594000Y-97282000D02*
X154880000Y-97282000D01*
X203902000Y-53213000D02*
X203902000Y-50063400D01*
X101413000Y-124460000D02*
X101413000Y-128016000D01*
X137354000Y-110744000D02*
X137354000Y-107442000D01*
X91253000Y-124460000D02*
X91253000Y-128016000D01*
X140402000Y-43688000D02*
X141164000Y-43942000D01*
X155565800Y-52349400D02*
X145075600Y-52374800D01*
X123384000Y-88392000D02*
X126940000Y-88392000D01*
D13*
X203330500Y-117424200D02*
X206175300Y-117475000D01*
D11*
X128718000Y-47498000D02*
X128718000Y-58166000D01*
D10*
X87951000Y-128016000D02*
X87951000Y-124460000D01*
X181016600Y-52044600D02*
X178019400Y-52095400D01*
X113605000Y-128016000D02*
X113605000Y-124460000D01*
X155642000Y-42951400D02*
X163541400Y-42951400D01*
X186884000Y-89154000D02*
X187392000Y-90170000D01*
X131512000Y-88900000D02*
X131512000Y-86868000D01*
X146752000Y-88900000D02*
X144466000Y-91694000D01*
X140529000Y-107442000D02*
X140529000Y-109220000D01*
X166564000Y-89154000D02*
X162754000Y-89154000D01*
X189424000Y-90678000D02*
X185614000Y-86614000D01*
X157928000Y-69850000D02*
X144974000Y-69850000D01*
X169866000Y-93472000D02*
X169866000Y-97536000D01*
X168342000Y-91440000D02*
X169612000Y-92710000D01*
X198999800Y-49707800D02*
X200981000Y-49707800D01*
X157928000Y-70612000D02*
X157928000Y-69850000D01*
X80077000Y-128016000D02*
X81855000Y-128016000D01*
X98111000Y-128016000D02*
X98111000Y-124460000D01*
X160214000Y-97790000D02*
X157928000Y-97790000D01*
X183810600Y-49936400D02*
X183810600Y-52400200D01*
X183810600Y-52400200D02*
X185995000Y-52374800D01*
X163262000Y-64516000D02*
X163262000Y-63754000D01*
D13*
X206289600Y-94716600D02*
X203419400Y-94716600D01*
D10*
X122114000Y-107188000D02*
X122114000Y-115570000D01*
X169612000Y-92710000D02*
X169866000Y-93472000D01*
X101413000Y-128016000D02*
X103191000Y-128016000D01*
X183810600Y-52400200D02*
X185995000Y-52374800D01*
X154880000Y-97282000D02*
X154880000Y-88646000D01*
X144974000Y-70612000D02*
X156912000Y-70866000D01*
X154880000Y-42976800D02*
X155642000Y-42951400D01*
X177943200Y-51333400D02*
X177968600Y-50114200D01*
X124908000Y-92202000D02*
X124908000Y-97790000D01*
X144110400Y-53492400D02*
X155565800Y-53492400D01*
X131512000Y-86868000D02*
X137100000Y-86868000D01*
D12*
X126178000Y-124460000D02*
X129226000Y-124460000D01*
X129226000Y-128778000D01*
X126178000Y-128778000D01*
X126178000Y-124460000D01*
%TA.AperFunction,NonConductor*%
G36*
X126178000Y-124460000D02*
G01*
X129226000Y-124460000D01*
X129226000Y-128778000D01*
X126178000Y-128778000D01*
X126178000Y-124460000D01*
G37*
%TD.AperFunction*%
D10*
X167072000Y-88392000D02*
X170628000Y-92710000D01*
X127956000Y-86614000D02*
X127956000Y-89154000D01*
X132528000Y-87884000D02*
X134306000Y-90170000D01*
X177968600Y-50114200D02*
X181016600Y-50114200D01*
D12*
X163516000Y-92964000D02*
X166564000Y-92964000D01*
X166564000Y-97282000D01*
X163516000Y-97282000D01*
X163516000Y-92964000D01*
%TA.AperFunction,NonConductor*%
G36*
X163516000Y-92964000D02*
G01*
X166564000Y-92964000D01*
X166564000Y-97282000D01*
X163516000Y-97282000D01*
X163516000Y-92964000D01*
G37*
%TD.AperFunction*%
D10*
X123638000Y-95250000D02*
X124400000Y-91440000D01*
X124654000Y-116586000D02*
X124654000Y-107188000D01*
X180026000Y-88138000D02*
X180026000Y-90678000D01*
X128972000Y-48006000D02*
X128972000Y-44958000D01*
X152848000Y-86868000D02*
X150816000Y-86868000D01*
X142688000Y-97790000D02*
X142688000Y-95250000D01*
X111827000Y-124460000D02*
X111827000Y-128016000D01*
X165548000Y-87884000D02*
X168342000Y-91440000D01*
D13*
X206200700Y-115544600D02*
X203330500Y-115544600D01*
D10*
X163262000Y-63754000D02*
X135576000Y-63754000D01*
X106493000Y-124460000D02*
X106493000Y-128016000D01*
X166818000Y-87630000D02*
X166564000Y-88392000D01*
X140656000Y-97790000D02*
X142688000Y-97790000D01*
D13*
X208753400Y-91719400D02*
X208753400Y-89839800D01*
D10*
X156632600Y-44399200D02*
X162601600Y-43992800D01*
X75886000Y-125222000D02*
X75886000Y-126746000D01*
X129226000Y-57404000D02*
X129226000Y-48514000D01*
X66361000Y-128016000D02*
X66361000Y-124460000D01*
D13*
X206264200Y-96647000D02*
X206289600Y-94716600D01*
D10*
X184090000Y-88646000D02*
X187392000Y-94488000D01*
D12*
X131004000Y-124460000D02*
X134052000Y-124460000D01*
X134052000Y-128778000D01*
X131004000Y-128778000D01*
X131004000Y-124460000D01*
%TA.AperFunction,NonConductor*%
G36*
X131004000Y-124460000D02*
G01*
X134052000Y-124460000D01*
X134052000Y-128778000D01*
X131004000Y-128778000D01*
X131004000Y-124460000D01*
G37*
%TD.AperFunction*%
D10*
X76775000Y-124460000D02*
X74997000Y-124460000D01*
X175200000Y-88392000D02*
X176216000Y-89662000D01*
X153787800Y-48056800D02*
X155642000Y-46151800D01*
D13*
X203419400Y-94716600D02*
X203419400Y-96596200D01*
D10*
X185995000Y-52374800D02*
X185969600Y-46685200D01*
X124908000Y-97790000D02*
X122622000Y-97790000D01*
X123384000Y-115062000D02*
X123638000Y-110236000D01*
X177232000Y-91948000D02*
X176470000Y-93726000D01*
X186122000Y-92202000D02*
X187900000Y-92202000D01*
X177232000Y-87884000D02*
X175581000Y-87884000D01*
X135068000Y-92202000D02*
X131512000Y-88900000D01*
D12*
X141418000Y-124460000D02*
X144466000Y-124460000D01*
X144466000Y-128778000D01*
X141418000Y-128778000D01*
X141418000Y-124460000D01*
%TA.AperFunction,NonConductor*%
G36*
X141418000Y-124460000D02*
G01*
X144466000Y-124460000D01*
X144466000Y-128778000D01*
X141418000Y-128778000D01*
X141418000Y-124460000D01*
G37*
%TD.AperFunction*%
D10*
X141164000Y-87376000D02*
X142180000Y-87630000D01*
X93031000Y-128016000D02*
X93031000Y-124460000D01*
X122114000Y-115570000D02*
X123384000Y-115062000D01*
X69663000Y-128016000D02*
X71441000Y-128016000D01*
X91253000Y-128016000D02*
X93031000Y-128016000D01*
X178019400Y-52679600D02*
X180991200Y-52679600D01*
D11*
X139132000Y-46482000D02*
X140148000Y-44704000D01*
D10*
X203902000Y-50063400D02*
X205883200Y-50063400D01*
D13*
X208753400Y-89839800D02*
X205908600Y-89789000D01*
D10*
X169866000Y-97536000D02*
X172152000Y-97536000D01*
X142434000Y-86106000D02*
X140656000Y-86106000D01*
X124400000Y-87122000D02*
X123384000Y-86106000D01*
X71441000Y-128016000D02*
X71441000Y-124460000D01*
D14*
G36*
X220176002Y-90352831D02*
G01*
X220353267Y-90441463D01*
X220414941Y-90503137D01*
X220489452Y-90652158D01*
X220489452Y-90772220D01*
X220414940Y-90921242D01*
X220353266Y-90982917D01*
X220176003Y-91071547D01*
X219756294Y-91176476D01*
X219222611Y-91176476D01*
X218802902Y-91071549D01*
X218625635Y-90982916D01*
X218563964Y-90921244D01*
X218489452Y-90772220D01*
X218489452Y-90652159D01*
X218563963Y-90503136D01*
X218625636Y-90441463D01*
X218802901Y-90352830D01*
X219222608Y-90247905D01*
X219756295Y-90247905D01*
X220176002Y-90352831D01*
G37*
G36*
X222378143Y-111343143D02*
G01*
X216413857Y-111343143D01*
X216413857Y-109677842D01*
X217981550Y-109677842D01*
X218042538Y-109811388D01*
X218166045Y-109890761D01*
X219531098Y-109890761D01*
X219586057Y-109898663D01*
X219603360Y-109890761D01*
X220775396Y-109890761D01*
X220880318Y-109859953D01*
X220976460Y-109748999D01*
X220997354Y-109603680D01*
X220936366Y-109470134D01*
X220812859Y-109390761D01*
X219798976Y-109390761D01*
X219798976Y-108462190D01*
X220775396Y-108462190D01*
X220880318Y-108431382D01*
X220976460Y-108320428D01*
X220997354Y-108175109D01*
X220936366Y-108041563D01*
X220812859Y-107962190D01*
X219566854Y-107962190D01*
X219511895Y-107954288D01*
X219494592Y-107962190D01*
X218203508Y-107962190D01*
X218098586Y-107992998D01*
X218002444Y-108103952D01*
X217981550Y-108249271D01*
X218042538Y-108382817D01*
X218166045Y-108462190D01*
X219298976Y-108462190D01*
X219298976Y-109390761D01*
X218203508Y-109390761D01*
X218098586Y-109421569D01*
X218002444Y-109532523D01*
X217981550Y-109677842D01*
X216413857Y-109677842D01*
X216413857Y-107058794D01*
X217981550Y-107058794D01*
X218004616Y-107109303D01*
X218020260Y-107162579D01*
X218034635Y-107175035D01*
X218042538Y-107192340D01*
X218089253Y-107222362D01*
X218131214Y-107258721D01*
X218150041Y-107261427D01*
X218166045Y-107271713D01*
X218221574Y-107271713D01*
X218276533Y-107279615D01*
X218293836Y-107271713D01*
X219531098Y-107271713D01*
X219586057Y-107279615D01*
X219603360Y-107271713D01*
X220721574Y-107271713D01*
X220776533Y-107279615D01*
X220827042Y-107256548D01*
X220880318Y-107240905D01*
X220892774Y-107226529D01*
X220910079Y-107218627D01*
X220940101Y-107171911D01*
X220976460Y-107129951D01*
X220979166Y-107111123D01*
X220989452Y-107095120D01*
X220989452Y-107039590D01*
X220997354Y-106984632D01*
X220989452Y-106967328D01*
X220989452Y-105795293D01*
X220958644Y-105690371D01*
X220847690Y-105594229D01*
X220702371Y-105573335D01*
X220568825Y-105634323D01*
X220489452Y-105757830D01*
X220489452Y-106771713D01*
X219798976Y-106771713D01*
X219798976Y-106152436D01*
X219768168Y-106047514D01*
X219657214Y-105951372D01*
X219511895Y-105930478D01*
X219378349Y-105991466D01*
X219298976Y-106114973D01*
X219298976Y-106771713D01*
X218489452Y-106771713D01*
X218489452Y-105795293D01*
X218458644Y-105690371D01*
X218347690Y-105594229D01*
X218202371Y-105573335D01*
X218068825Y-105634323D01*
X217989452Y-105757830D01*
X217989452Y-107003835D01*
X217981550Y-107058794D01*
X216413857Y-107058794D01*
X216413857Y-104796889D01*
X217981550Y-104796889D01*
X218004616Y-104847398D01*
X218020260Y-104900674D01*
X218034635Y-104913130D01*
X218042538Y-104930435D01*
X218089253Y-104960457D01*
X218131214Y-104996816D01*
X218150041Y-104999522D01*
X218166045Y-105009808D01*
X218221574Y-105009808D01*
X218276533Y-105017710D01*
X218293836Y-105009808D01*
X220775396Y-105009808D01*
X220880318Y-104979000D01*
X220976460Y-104868046D01*
X220997354Y-104722727D01*
X220936366Y-104589181D01*
X220812859Y-104509808D01*
X218489452Y-104509808D01*
X218489452Y-103533388D01*
X218458644Y-103428466D01*
X218347690Y-103332324D01*
X218202371Y-103311430D01*
X218068825Y-103372418D01*
X217989452Y-103495925D01*
X217989452Y-104741930D01*
X217981550Y-104796889D01*
X216413857Y-104796889D01*
X216413857Y-102773079D01*
X217981550Y-102773079D01*
X218042538Y-102906625D01*
X218166045Y-102985998D01*
X220775396Y-102985998D01*
X220880318Y-102955190D01*
X220976460Y-102844236D01*
X220997354Y-102698917D01*
X220936366Y-102565371D01*
X220812859Y-102485998D01*
X218203508Y-102485998D01*
X218098586Y-102516806D01*
X218002444Y-102627760D01*
X217981550Y-102773079D01*
X216413857Y-102773079D01*
X216413857Y-100149693D01*
X217980963Y-100149693D01*
X218039699Y-100284245D01*
X219038758Y-100950284D01*
X218070870Y-101595544D01*
X218000659Y-101679378D01*
X217982210Y-101825027D01*
X218045433Y-101957530D01*
X218170257Y-102034816D01*
X218317049Y-102032349D01*
X219489451Y-101250747D01*
X220630684Y-102011569D01*
X220735074Y-102044135D01*
X220876615Y-102005146D01*
X220974608Y-101895823D01*
X220997941Y-101750876D01*
X220939205Y-101616324D01*
X219940146Y-100950284D01*
X220908034Y-100305026D01*
X220978245Y-100221191D01*
X220996694Y-100075542D01*
X220933470Y-99943040D01*
X220808647Y-99865753D01*
X220661855Y-99868220D01*
X219489452Y-100649821D01*
X218348220Y-99889000D01*
X218243830Y-99856434D01*
X218102289Y-99895423D01*
X218004296Y-100004746D01*
X217980963Y-100149693D01*
X216413857Y-100149693D01*
X216413857Y-99200514D01*
X218941833Y-99200514D01*
X218972641Y-99305436D01*
X219083595Y-99401578D01*
X219228914Y-99422472D01*
X219362460Y-99361484D01*
X219441833Y-99237977D01*
X219441833Y-97223865D01*
X219411025Y-97118943D01*
X219300071Y-97022801D01*
X219154752Y-97001907D01*
X219021206Y-97062895D01*
X218941833Y-97186402D01*
X218941833Y-99200514D01*
X216413857Y-99200514D01*
X216413857Y-96252043D01*
X217984853Y-96252043D01*
X217989452Y-96316348D01*
X217989452Y-96343372D01*
X217992006Y-96352073D01*
X217995326Y-96398482D01*
X218012286Y-96421138D01*
X218020260Y-96448294D01*
X218055423Y-96478763D01*
X218083308Y-96516013D01*
X218109827Y-96525904D01*
X218131214Y-96544436D01*
X218177264Y-96551057D01*
X218220864Y-96567319D01*
X218248521Y-96561302D01*
X218276533Y-96565330D01*
X218318856Y-96546001D01*
X218364322Y-96536111D01*
X218384333Y-96516099D01*
X218410079Y-96504342D01*
X218435235Y-96465197D01*
X219803069Y-95097363D01*
X220065734Y-95009809D01*
X220204244Y-95009809D01*
X220353266Y-95084319D01*
X220414940Y-95145994D01*
X220489452Y-95295016D01*
X220489452Y-95772219D01*
X220414940Y-95921241D01*
X220299163Y-96037020D01*
X220246757Y-96132996D01*
X220257232Y-96279435D01*
X220345214Y-96396965D01*
X220482770Y-96448271D01*
X220626228Y-96417063D01*
X220775016Y-96268272D01*
X220811182Y-96246793D01*
X220841994Y-96185168D01*
X220875004Y-96124715D01*
X220874655Y-96119846D01*
X220957041Y-95955076D01*
X220989452Y-95904644D01*
X220989452Y-95853553D01*
X220998501Y-95803268D01*
X220989452Y-95781449D01*
X220989452Y-95249461D01*
X220995888Y-95189853D01*
X220973037Y-95144151D01*
X220958644Y-95095133D01*
X220940794Y-95079666D01*
X220858029Y-94914136D01*
X220849088Y-94873035D01*
X220800374Y-94824321D01*
X220753458Y-94773884D01*
X220748727Y-94772674D01*
X220700298Y-94724245D01*
X220678817Y-94688077D01*
X220617185Y-94657261D01*
X220556743Y-94624257D01*
X220551872Y-94624605D01*
X220387101Y-94542220D01*
X220336668Y-94509809D01*
X220285574Y-94509809D01*
X220235291Y-94500761D01*
X220213475Y-94509809D01*
X220056512Y-94509809D01*
X220015750Y-94499425D01*
X219950397Y-94521209D01*
X219884300Y-94540617D01*
X219881102Y-94544306D01*
X219601731Y-94637429D01*
X219543153Y-94650173D01*
X219507026Y-94686299D01*
X219465071Y-94715458D01*
X219456041Y-94737284D01*
X218489452Y-95703874D01*
X218489452Y-94723865D01*
X218458644Y-94618943D01*
X218347690Y-94522801D01*
X218202371Y-94501907D01*
X218068825Y-94562895D01*
X217989452Y-94686402D01*
X217989452Y-96243620D01*
X217984853Y-96252043D01*
X216413857Y-96252043D01*
X216413857Y-92654033D01*
X217981550Y-92654033D01*
X218042538Y-92787579D01*
X218166045Y-92866952D01*
X218822785Y-92866952D01*
X218822785Y-93757760D01*
X218813712Y-93779693D01*
X218822784Y-93829852D01*
X218822785Y-93843372D01*
X218829153Y-93865062D01*
X218839844Y-93924162D01*
X218849572Y-93934601D01*
X218853593Y-93948294D01*
X218898981Y-93987623D01*
X218939933Y-94031569D01*
X218953763Y-94035092D01*
X218964547Y-94044436D01*
X219023992Y-94052983D01*
X219082202Y-94067812D01*
X219095740Y-94063299D01*
X219109866Y-94065330D01*
X219164502Y-94040378D01*
X220971657Y-93437994D01*
X221061452Y-93375588D01*
X221117574Y-93239925D01*
X221091442Y-93095456D01*
X220991352Y-92988049D01*
X220849083Y-92951806D01*
X219322785Y-93460572D01*
X219322785Y-92866952D01*
X219942063Y-92866952D01*
X220046985Y-92836144D01*
X220143127Y-92725190D01*
X220164021Y-92579871D01*
X220103033Y-92446325D01*
X219979526Y-92366952D01*
X219322785Y-92366952D01*
X219322785Y-92223865D01*
X219291977Y-92118943D01*
X219181023Y-92022801D01*
X219035704Y-92001907D01*
X218902158Y-92062895D01*
X218822785Y-92186402D01*
X218822785Y-92366952D01*
X218203508Y-92366952D01*
X218098586Y-92397760D01*
X218002444Y-92508714D01*
X217981550Y-92654033D01*
X216413857Y-92654033D01*
X216413857Y-90621112D01*
X217980404Y-90621112D01*
X217989452Y-90642927D01*
X217989451Y-90817781D01*
X217983017Y-90877385D01*
X218005866Y-90923083D01*
X218020260Y-90972104D01*
X218038110Y-90987571D01*
X218120874Y-91153100D01*
X218129816Y-91194202D01*
X218178527Y-91242913D01*
X218225446Y-91293354D01*
X218230176Y-91294563D01*
X218278607Y-91342995D01*
X218300087Y-91379159D01*
X218361683Y-91409957D01*
X218422161Y-91442981D01*
X218427033Y-91442632D01*
X218564011Y-91511121D01*
X218583793Y-91532160D01*
X218628382Y-91543307D01*
X218635988Y-91547110D01*
X218663127Y-91551993D01*
X219091283Y-91659032D01*
X219118426Y-91676476D01*
X219161058Y-91676476D01*
X219166070Y-91677729D01*
X219196905Y-91676476D01*
X219745929Y-91676476D01*
X219776490Y-91686815D01*
X219817846Y-91676476D01*
X219823015Y-91676476D01*
X219852634Y-91667778D01*
X220280694Y-91560763D01*
X220309406Y-91563864D01*
X220350518Y-91543307D01*
X220358766Y-91541246D01*
X220382546Y-91527294D01*
X220585125Y-91426005D01*
X220626228Y-91417064D01*
X220674937Y-91368354D01*
X220725377Y-91321436D01*
X220726587Y-91316703D01*
X220775016Y-91268273D01*
X220811182Y-91246794D01*
X220841994Y-91185169D01*
X220875004Y-91124716D01*
X220874655Y-91119847D01*
X220957041Y-90955077D01*
X220989452Y-90904645D01*
X220989452Y-90853554D01*
X220998501Y-90803269D01*
X220989452Y-90781450D01*
X220989452Y-90606599D01*
X220995887Y-90546996D01*
X220973037Y-90501297D01*
X220958644Y-90452277D01*
X220940793Y-90436809D01*
X220858028Y-90271278D01*
X220849087Y-90230177D01*
X220800378Y-90181468D01*
X220753458Y-90131027D01*
X220748727Y-90129817D01*
X220700297Y-90081387D01*
X220678817Y-90045222D01*
X220617202Y-90014414D01*
X220556742Y-89981401D01*
X220551871Y-89981749D01*
X220414893Y-89913260D01*
X220395110Y-89892220D01*
X220350516Y-89881071D01*
X220342915Y-89877271D01*
X220315785Y-89872388D01*
X219887620Y-89765348D01*
X219860478Y-89747905D01*
X219817846Y-89747905D01*
X219812834Y-89746652D01*
X219782007Y-89747905D01*
X219232975Y-89747905D01*
X219202414Y-89737566D01*
X219161058Y-89747905D01*
X219155889Y-89747905D01*
X219126272Y-89756601D01*
X218698209Y-89863616D01*
X218669496Y-89860516D01*
X218628382Y-89881072D01*
X218620138Y-89883134D01*
X218596359Y-89897084D01*
X218393777Y-89998375D01*
X218352677Y-90007317D01*
X218303968Y-90056025D01*
X218253527Y-90102946D01*
X218252317Y-90107676D01*
X218203887Y-90156106D01*
X218167722Y-90177587D01*
X218136914Y-90239201D01*
X218103901Y-90299662D01*
X218104249Y-90304532D01*
X218021866Y-90469297D01*
X217989452Y-90519736D01*
X217989452Y-90570831D01*
X217980404Y-90621112D01*
X216413857Y-90621112D01*
X216413857Y-88121111D01*
X217980403Y-88121111D01*
X217989452Y-88142929D01*
X217989452Y-88793972D01*
X217983017Y-88853576D01*
X218005866Y-88899274D01*
X218020260Y-88948295D01*
X218038110Y-88963762D01*
X218120874Y-89129291D01*
X218129816Y-89170393D01*
X218178527Y-89219104D01*
X218225446Y-89269545D01*
X218230176Y-89270754D01*
X218326186Y-89366765D01*
X218422161Y-89419172D01*
X218568600Y-89408698D01*
X218686131Y-89320717D01*
X218737438Y-89183161D01*
X218706231Y-89039703D01*
X218563964Y-88897435D01*
X218489452Y-88748411D01*
X218489452Y-88152160D01*
X218563964Y-88003136D01*
X218625637Y-87941462D01*
X218774658Y-87866953D01*
X219251863Y-87866953D01*
X219400885Y-87941463D01*
X219462559Y-88003138D01*
X219537071Y-88152160D01*
X219537071Y-88377535D01*
X219536720Y-88378088D01*
X219537071Y-88450768D01*
X219537071Y-88486230D01*
X219537245Y-88486822D01*
X219537429Y-88524899D01*
X219557498Y-88555798D01*
X219567879Y-88591152D01*
X219596656Y-88616087D01*
X219617398Y-88648022D01*
X219650988Y-88663166D01*
X219678833Y-88687294D01*
X219716520Y-88692712D01*
X219751237Y-88708365D01*
X219787684Y-88702944D01*
X219824152Y-88708188D01*
X219858787Y-88692370D01*
X219896453Y-88686769D01*
X219924181Y-88662506D01*
X219957698Y-88647200D01*
X219978284Y-88615165D01*
X220489452Y-88167894D01*
X220489452Y-89200516D01*
X220520260Y-89305438D01*
X220631214Y-89401580D01*
X220776533Y-89422474D01*
X220910079Y-89361486D01*
X220989452Y-89237979D01*
X220989452Y-87689703D01*
X220989803Y-87689151D01*
X220989452Y-87616470D01*
X220989452Y-87581009D01*
X220989277Y-87580416D01*
X220989094Y-87542340D01*
X220969024Y-87511440D01*
X220958644Y-87476087D01*
X220929866Y-87451151D01*
X220909125Y-87419217D01*
X220875534Y-87404072D01*
X220847690Y-87379945D01*
X220809999Y-87374525D01*
X220775286Y-87358875D01*
X220738841Y-87364294D01*
X220702371Y-87359051D01*
X220667734Y-87374868D01*
X220630070Y-87380470D01*
X220602341Y-87404732D01*
X220568825Y-87420039D01*
X220548238Y-87452072D01*
X219991347Y-87939352D01*
X219988413Y-87936810D01*
X219905648Y-87771280D01*
X219896707Y-87730179D01*
X219847993Y-87681465D01*
X219801077Y-87631028D01*
X219796346Y-87629818D01*
X219747917Y-87581389D01*
X219726436Y-87545221D01*
X219664804Y-87514405D01*
X219604362Y-87481401D01*
X219599491Y-87481749D01*
X219434720Y-87399364D01*
X219384287Y-87366953D01*
X219333193Y-87366953D01*
X219282910Y-87357905D01*
X219261094Y-87366953D01*
X218729099Y-87366953D01*
X218669496Y-87360518D01*
X218623798Y-87383366D01*
X218574776Y-87397761D01*
X218559308Y-87415611D01*
X218393781Y-87498374D01*
X218352676Y-87507317D01*
X218303949Y-87556044D01*
X218253527Y-87602946D01*
X218252317Y-87607676D01*
X218203885Y-87656108D01*
X218167722Y-87677587D01*
X218136916Y-87739197D01*
X218103900Y-87799664D01*
X218104248Y-87804533D01*
X218021864Y-87969300D01*
X217989452Y-88019736D01*
X217989452Y-88070828D01*
X217980403Y-88121111D01*
X216413857Y-88121111D01*
X216413857Y-85283620D01*
X222378143Y-85283620D01*
X222378143Y-111343143D01*
G37*
D15*
%TO.P,C13,1*%
%TO.N,Net-(C13-Pad1)*%
X170294000Y-116332000D03*
%TO.P,C13,2*%
%TO.N,/NO2*%
X160294000Y-116332000D03*
%TD*%
D16*
%TO.P,U3,1*%
%TO.N,/VCC1 5V*%
X90561800Y-67599760D03*
D17*
%TO.P,U3,2*%
%TO.N,/mc4*%
X90561800Y-70139760D03*
%TO.P,U3,3*%
%TO.N,Net-(U4-I3)*%
X98181800Y-70139760D03*
%TO.P,U3,4*%
%TO.N,/VCC2 12V*%
X98181800Y-67599760D03*
%TD*%
D18*
%TO.P,K4,11*%
%TO.N,/C4*%
X129982400Y-94410400D03*
D19*
%TO.P,K4,12*%
%TO.N,/NC4*%
X135982400Y-108610400D03*
%TO.P,K4,14*%
%TO.N,/NO4*%
X123982400Y-108610400D03*
%TO.P,K4,A1*%
%TO.N,/RL4*%
X123982400Y-96410400D03*
%TO.P,K4,A2*%
%TO.N,/VCC2 12V*%
X135982400Y-96410400D03*
%TD*%
D20*
%TO.P,C9,1*%
%TO.N,/VCC2 12V*%
X151532400Y-87542600D03*
%TO.P,C9,2*%
%TO.N,/RL3*%
X146532400Y-87542600D03*
%TD*%
D21*
%TO.P,J9,1,Pin_1*%
%TO.N,GND1*%
X72609400Y-59740800D03*
D22*
%TO.P,J9,2,Pin_2*%
%TO.N,/VCC1 5V*%
X72609400Y-62280800D03*
%TO.P,J9,3,Pin_3*%
%TO.N,/mc3*%
X72609400Y-64820800D03*
%TO.P,J9,4,Pin_4*%
%TO.N,/mc4*%
X72609400Y-67360800D03*
%TO.P,J9,5,Pin_5*%
%TO.N,/mc5*%
X72609400Y-69900800D03*
%TO.P,J9,6,Pin_6*%
%TO.N,/mc6*%
X72609400Y-72440800D03*
%TO.P,J9,7,Pin_7*%
%TO.N,/pwm MC8*%
X72609400Y-74980800D03*
%TO.P,J9,8,Pin_8*%
%TO.N,/pwm MC7*%
X72609400Y-77520800D03*
%TO.P,J9,9,Pin_9*%
%TO.N,/mc1*%
X72609400Y-80060800D03*
%TO.P,J9,10,Pin_10*%
%TO.N,/mc2*%
X72609400Y-82600800D03*
%TD*%
D23*
%TO.P,D12,1,K*%
%TO.N,/RL4*%
X124586400Y-90855800D03*
D24*
%TO.P,D12,2,A*%
%TO.N,/VCC2 12V*%
X134746400Y-90855800D03*
%TD*%
D20*
%TO.P,C4,1*%
%TO.N,/VCC2 12V*%
X184841200Y-88163400D03*
%TO.P,C4,2*%
%TO.N,/RL1*%
X179841200Y-88163400D03*
%TD*%
D25*
%TO.P,J1,1,Pin_1*%
%TO.N,/Nutral*%
X179365600Y-126619000D03*
D26*
%TO.P,J1,2,Pin_2*%
%TO.N,/Line*%
X184445600Y-126619000D03*
%TD*%
D20*
%TO.P,C12,1*%
%TO.N,Net-(C12-Pad1)*%
X112817600Y-96647000D03*
%TO.P,C12,2*%
%TO.N,GND2*%
X107817600Y-96647000D03*
%TD*%
D27*
%TO.P,C2,1*%
%TO.N,Net-(D15-+)*%
X154067200Y-51937523D03*
D15*
%TO.P,C2,2*%
%TO.N,GND1*%
X154067200Y-56937523D03*
%TD*%
D23*
%TO.P,D11,1,K*%
%TO.N,/RL3*%
X143277800Y-90990800D03*
D24*
%TO.P,D11,2,A*%
%TO.N,/VCC2 12V*%
X153437800Y-90990800D03*
%TD*%
D23*
%TO.P,D6,1,K*%
%TO.N,/RL2*%
X158258200Y-91010200D03*
D24*
%TO.P,D6,2,A*%
%TO.N,/VCC2 12V*%
X168418200Y-91010200D03*
%TD*%
D16*
%TO.P,U7,1*%
%TO.N,Net-(C12-Pad1)*%
X98111000Y-98856800D03*
D17*
%TO.P,U7,2*%
%TO.N,Net-(R12-Pad2)*%
X98111000Y-96316800D03*
%TO.P,U7,3*%
%TO.N,GND1*%
X90491000Y-96316800D03*
%TO.P,U7,4*%
%TO.N,/mc2*%
X90491000Y-98856800D03*
%TD*%
D20*
%TO.P,C8,1*%
%TO.N,/VCC2 12V*%
X145685200Y-65292600D03*
%TO.P,C8,2*%
%TO.N,GND2*%
X145685200Y-70292600D03*
%TD*%
D16*
%TO.P,U6,1*%
%TO.N,/VCC1 5V*%
X90561800Y-81953280D03*
D17*
%TO.P,U6,2*%
%TO.N,/mc6*%
X90561800Y-84493280D03*
%TO.P,U6,3*%
%TO.N,Net-(U4-I7)*%
X98181800Y-84493280D03*
%TO.P,U6,4*%
%TO.N,/VCC2 12V*%
X98181800Y-81953280D03*
%TD*%
D15*
%TO.P,C16,1*%
%TO.N,Net-(C16-Pad1)*%
X134814000Y-116332000D03*
%TO.P,C16,2*%
%TO.N,/NO4*%
X124814000Y-116332000D03*
%TD*%
D28*
%TO.P,REF\u002A\u002A,*%
%TO.N,*%
X219142000Y-61163200D03*
%TD*%
D23*
%TO.P,D4,1,K*%
%TO.N,/RL1*%
X176448400Y-91516200D03*
D24*
%TO.P,D4,2,A*%
%TO.N,/VCC2 12V*%
X186608400Y-91516200D03*
%TD*%
D18*
%TO.P,K1,11*%
%TO.N,/C1*%
X182499200Y-95070800D03*
D19*
%TO.P,K1,12*%
%TO.N,/NC1*%
X188499200Y-109270800D03*
%TO.P,K1,14*%
%TO.N,/NO1*%
X176499200Y-109270800D03*
%TO.P,K1,A1*%
%TO.N,/RL1*%
X176499200Y-97070800D03*
%TO.P,K1,A2*%
%TO.N,/VCC2 12V*%
X188499200Y-97070800D03*
%TD*%
D18*
%TO.P,C5,1*%
%TO.N,/Nutral*%
X207251000Y-90703400D03*
%TO.P,C5,2*%
%TO.N,/Line*%
X197251000Y-90703400D03*
%TD*%
D16*
%TO.P,U2,1*%
%TO.N,/VCC1 5V*%
X90561800Y-60423000D03*
D17*
%TO.P,U2,2*%
%TO.N,/mc3*%
X90561800Y-62963000D03*
%TO.P,U2,3*%
%TO.N,Net-(U4-I1)*%
X98181800Y-62963000D03*
%TO.P,U2,4*%
%TO.N,/VCC2 12V*%
X98181800Y-60423000D03*
%TD*%
D20*
%TO.P,C10,1*%
%TO.N,/VCC2 12V*%
X132414800Y-87553800D03*
%TO.P,C10,2*%
%TO.N,/RL4*%
X127414800Y-87553800D03*
%TD*%
%TO.P,C6,1*%
%TO.N,/VCC2 12V*%
X163196600Y-87632000D03*
%TO.P,C6,2*%
%TO.N,/RL2*%
X158196600Y-87632000D03*
%TD*%
D27*
%TO.P,C7,1*%
%TO.N,/VCC2 12V*%
X154041800Y-65221723D03*
D15*
%TO.P,C7,2*%
%TO.N,GND2*%
X154041800Y-70221723D03*
%TD*%
D21*
%TO.P,J10,1,Pin_1*%
%TO.N,/GREEN*%
X72634800Y-86233000D03*
D22*
%TO.P,J10,2,Pin_2*%
%TO.N,/WHITE*%
X72634800Y-88773000D03*
%TO.P,J10,3,Pin_3*%
%TO.N,/BLACK*%
X72634800Y-91313000D03*
%TO.P,J10,4,Pin_4*%
%TO.N,/RED*%
X72634800Y-93853000D03*
%TD*%
D20*
%TO.P,C3,1*%
%TO.N,Net-(D15-+)*%
X156908200Y-43256200D03*
%TO.P,C3,2*%
%TO.N,GND1*%
X151908200Y-43256200D03*
%TD*%
D16*
%TO.P,U5,1*%
%TO.N,/VCC1 5V*%
X90561800Y-74776520D03*
D17*
%TO.P,U5,2*%
%TO.N,/mc5*%
X90561800Y-77316520D03*
%TO.P,U5,3*%
%TO.N,Net-(U4-I5)*%
X98181800Y-77316520D03*
%TO.P,U5,4*%
%TO.N,/VCC2 12V*%
X98181800Y-74776520D03*
%TD*%
D25*
%TO.P,J2,1,Pin_1*%
%TO.N,/NO3*%
X148098200Y-126619000D03*
D26*
%TO.P,J2,2,Pin_2*%
%TO.N,/C3*%
X153178200Y-126619000D03*
%TO.P,J2,3,Pin_3*%
%TO.N,/NO2*%
X158258200Y-126619000D03*
%TO.P,J2,4,Pin_4*%
%TO.N,/C2*%
X163338200Y-126619000D03*
%TO.P,J2,5,Pin_5*%
%TO.N,/NO1*%
X168418200Y-126619000D03*
%TO.P,J2,6,Pin_6*%
%TO.N,/C1*%
X173498200Y-126619000D03*
%TD*%
D29*
%TO.P,U4,1,I1*%
%TO.N,Net-(U4-I1)*%
X104191600Y-60462000D03*
D30*
%TO.P,U4,2,I2*%
X104191600Y-63002000D03*
%TO.P,U4,3,I3*%
%TO.N,Net-(U4-I3)*%
X104191600Y-65542000D03*
%TO.P,U4,4,I4*%
X104191600Y-68082000D03*
%TO.P,U4,5,I5*%
%TO.N,Net-(U4-I5)*%
X104191600Y-70622000D03*
%TO.P,U4,6,I6*%
X104191600Y-73162000D03*
%TO.P,U4,7,I7*%
%TO.N,Net-(U4-I7)*%
X104191600Y-75702000D03*
%TO.P,U4,8,I8*%
X104191600Y-78242000D03*
%TO.P,U4,9,GND*%
%TO.N,GND2*%
X104191600Y-80782000D03*
%TO.P,U4,10,COM*%
%TO.N,/VCC2 12V*%
X111811600Y-80782000D03*
%TO.P,U4,11,O8*%
%TO.N,/RL4*%
X111811600Y-78242000D03*
%TO.P,U4,12,O7*%
X111811600Y-75702000D03*
%TO.P,U4,13,O6*%
%TO.N,/RL3*%
X111811600Y-73162000D03*
%TO.P,U4,14,O5*%
X111811600Y-70622000D03*
%TO.P,U4,15,O4*%
%TO.N,/RL2*%
X111811600Y-68082000D03*
%TO.P,U4,16,O3*%
X111811600Y-65542000D03*
%TO.P,U4,17,O2*%
%TO.N,/RL1*%
X111811600Y-63002000D03*
%TO.P,U4,18,O1*%
X111811600Y-60462000D03*
%TD*%
D25*
%TO.P,J4,1,Pin_1*%
%TO.N,/RED*%
X87036600Y-126619000D03*
D26*
%TO.P,J4,2,Pin_2*%
%TO.N,/BLACK*%
X92116600Y-126619000D03*
%TO.P,J4,3,Pin_3*%
%TO.N,/WHITE*%
X97196600Y-126619000D03*
%TO.P,J4,4,Pin_4*%
%TO.N,/GREEN*%
X102276600Y-126619000D03*
%TO.P,J4,5,Pin_5*%
%TO.N,/Input1*%
X107356600Y-126619000D03*
%TO.P,J4,6,Pin_6*%
%TO.N,/VCC2 12V*%
X112436600Y-126619000D03*
%TD*%
D20*
%TO.P,C14,1*%
%TO.N,Net-(C14-Pad1)*%
X112676000Y-88239600D03*
%TO.P,C14,2*%
%TO.N,GND2*%
X107676000Y-88239600D03*
%TD*%
D23*
%TO.P,D2,1,+*%
%TO.N,/VCC2 12V*%
X163008000Y-64516000D03*
D31*
%TO.P,D2,2*%
%TO.N,Net-(T1-SD)*%
X163008000Y-68366000D03*
%TO.P,D2,3*%
%TO.N,Net-(T1-SC)*%
X163008000Y-72216000D03*
%TO.P,D2,4,-*%
%TO.N,GND2*%
X163008000Y-76066000D03*
%TD*%
D15*
%TO.P,C15,1*%
%TO.N,Net-(C15-Pad1)*%
X152768000Y-116332000D03*
%TO.P,C15,2*%
%TO.N,/NO3*%
X142768000Y-116332000D03*
%TD*%
D16*
%TO.P,RN1,1,common*%
%TO.N,/VCC1 5V*%
X83465200Y-59395200D03*
D17*
%TO.P,RN1,2,R1*%
X83465200Y-61935200D03*
%TO.P,RN1,3,R2*%
%TO.N,/mc3*%
X83465200Y-64475200D03*
%TO.P,RN1,4,R3*%
%TO.N,/VCC1 5V*%
X83465200Y-67015200D03*
%TO.P,RN1,5,R4*%
%TO.N,/mc4*%
X83465200Y-69555200D03*
%TO.P,RN1,6,R5*%
%TO.N,/VCC1 5V*%
X83465200Y-72095200D03*
%TO.P,RN1,7,R6*%
%TO.N,/mc5*%
X83465200Y-74635200D03*
%TO.P,RN1,8,R7*%
%TO.N,/VCC1 5V*%
X83465200Y-77175200D03*
%TO.P,RN1,9,R8*%
%TO.N,/mc6*%
X83465200Y-79715200D03*
%TO.P,RN1,10,R9*%
%TO.N,unconnected-(RN1-R9-Pad10)*%
X83465200Y-82255200D03*
%TD*%
D16*
%TO.P,C1,1*%
%TO.N,/VCC1 5V*%
X141551175Y-45593000D03*
D20*
%TO.P,C1,2*%
%TO.N,GND1*%
X144051175Y-45593000D03*
%TD*%
D25*
%TO.P,J5,1,Pin_1*%
%TO.N,/0-10 output1*%
X65624400Y-126619000D03*
D26*
%TO.P,J5,2,Pin_2*%
%TO.N,GND2*%
X70704400Y-126619000D03*
%TO.P,J5,3,Pin_3*%
X75784400Y-126619000D03*
%TO.P,J5,4,Pin_4*%
%TO.N,/0-10 output2*%
X80864400Y-126619000D03*
%TD*%
D16*
%TO.P,U8,1*%
%TO.N,Net-(C14-Pad1)*%
X98111000Y-91680040D03*
D17*
%TO.P,U8,2*%
%TO.N,Net-(R17-Pad2)*%
X98111000Y-89140040D03*
%TO.P,U8,3*%
%TO.N,GND1*%
X90491000Y-89140040D03*
%TO.P,U8,4*%
%TO.N,/mc1*%
X90491000Y-91680040D03*
%TD*%
D28*
%TO.P,REF\u002A\u002A,*%
%TO.N,*%
X50359000Y-118186200D03*
%TD*%
%TO.P,REF\u002A\u002A,*%
%TO.N,*%
X218049800Y-118262400D03*
%TD*%
D18*
%TO.P,K2,11*%
%TO.N,/C2*%
X165130932Y-94415600D03*
D19*
%TO.P,K2,12*%
%TO.N,/NC2*%
X171130932Y-108615600D03*
%TO.P,K2,14*%
%TO.N,/NO2*%
X159130932Y-108615600D03*
%TO.P,K2,A1*%
%TO.N,/RL2*%
X159130932Y-96415600D03*
%TO.P,K2,A2*%
%TO.N,/VCC2 12V*%
X171130932Y-96415600D03*
%TD*%
D23*
%TO.P,D15,1,+*%
%TO.N,Net-(D15-+)*%
X163008000Y-44076000D03*
D31*
%TO.P,D15,2*%
%TO.N,Net-(T1-SB)*%
X163008000Y-47926000D03*
%TO.P,D15,3*%
%TO.N,Net-(T1-SA)*%
X163008000Y-51776000D03*
%TO.P,D15,4,-*%
%TO.N,GND1*%
X163008000Y-55626000D03*
%TD*%
D28*
%TO.P,REF\u002A\u002A,*%
%TO.N,*%
X49343000Y-61010800D03*
%TD*%
D25*
%TO.P,J3,1,Pin_1*%
%TO.N,/VCC2 12V*%
X117618200Y-126619000D03*
D26*
%TO.P,J3,2,Pin_2*%
%TO.N,unconnected-(J3-Pin_2-Pad2)*%
X122698200Y-126619000D03*
%TO.P,J3,3,Pin_3*%
%TO.N,GND2*%
X127778200Y-126619000D03*
%TO.P,J3,4,Pin_4*%
%TO.N,/NO4*%
X132858200Y-126619000D03*
%TO.P,J3,5,Pin_5*%
%TO.N,/C4*%
X137938200Y-126619000D03*
%TO.P,J3,6,Pin_6*%
%TO.N,/NC4*%
X143018200Y-126619000D03*
%TD*%
D15*
%TO.P,C11,1*%
%TO.N,Net-(C11-Pad1)*%
X187486000Y-116332000D03*
%TO.P,C11,2*%
%TO.N,/NO1*%
X177486000Y-116332000D03*
%TD*%
D32*
%TO.P,U1,1,VI*%
%TO.N,Net-(D15-+)*%
X144415200Y-52882800D03*
D33*
%TO.P,U1,2,GND*%
%TO.N,GND1*%
X141875200Y-52882800D03*
%TO.P,U1,3,VO*%
%TO.N,/VCC1 5V*%
X139335200Y-52882800D03*
%TD*%
D34*
%TO.P,F2,1*%
%TO.N,/Nutral*%
X204714800Y-116503600D03*
X204714800Y-109743600D03*
D35*
%TO.P,F2,2*%
X204714800Y-102463600D03*
X204714800Y-95703600D03*
%TD*%
D21*
%TO.P,J7,1,Pin_1*%
%TO.N,/pwm MC8*%
X76648000Y-105359200D03*
D22*
%TO.P,J7,2,Pin_2*%
%TO.N,/VCC1 5V*%
X74108000Y-105359200D03*
%TO.P,J7,3,Pin_3*%
%TO.N,/0-10 output2*%
X71568000Y-105359200D03*
%TO.P,J7,4,Pin_4*%
%TO.N,GND2*%
X69028000Y-105359200D03*
%TO.P,J7,5,Pin_5*%
X66488000Y-105359200D03*
%TO.P,J7,6,Pin_6*%
%TO.N,/VCC2 12V*%
X63948000Y-105359200D03*
%TD*%
D18*
%TO.P,K3,11*%
%TO.N,/C3*%
X147915066Y-94545400D03*
D19*
%TO.P,K3,12*%
%TO.N,/NC3*%
X153915066Y-108745400D03*
%TO.P,K3,14*%
%TO.N,/NO3*%
X141915066Y-108745400D03*
%TO.P,K3,A1*%
%TO.N,/RL3*%
X141915066Y-96545400D03*
%TO.P,K3,A2*%
%TO.N,/VCC2 12V*%
X153915066Y-96545400D03*
%TD*%
D36*
%TO.P,D3,1,K*%
%TO.N,Net-(D18-K)*%
X153859000Y-77440000D03*
D37*
%TO.P,D3,2,A*%
%TO.N,GND2*%
X156399000Y-77440000D03*
%TD*%
D21*
%TO.P,J6,1,Pin_1*%
%TO.N,/pwm MC7*%
X76724200Y-113334800D03*
D22*
%TO.P,J6,2,Pin_2*%
%TO.N,/VCC1 5V*%
X74184200Y-113334800D03*
%TO.P,J6,3,Pin_3*%
%TO.N,/0-10 output1*%
X71644200Y-113334800D03*
%TO.P,J6,4,Pin_4*%
%TO.N,GND2*%
X69104200Y-113334800D03*
%TO.P,J6,5,Pin_5*%
X66564200Y-113334800D03*
%TO.P,J6,6,Pin_6*%
%TO.N,/VCC2 12V*%
X64024200Y-113334800D03*
%TD*%
D21*
%TO.P,J8,1,Pin_1*%
%TO.N,/VCC1 5V*%
X59807800Y-76733400D03*
D22*
%TO.P,J8,2,Pin_2*%
%TO.N,GND1*%
X57267800Y-76733400D03*
%TO.P,J8,3,Pin_3*%
%TO.N,/mc5*%
X59807800Y-79273400D03*
%TO.P,J8,4,Pin_4*%
%TO.N,/mc4*%
X57267800Y-79273400D03*
%TO.P,J8,5,Pin_5*%
%TO.N,/mc6*%
X59807800Y-81813400D03*
%TO.P,J8,6,Pin_6*%
%TO.N,/mc3*%
X57267800Y-81813400D03*
%TO.P,J8,7,Pin_7*%
%TO.N,/pwm MC8*%
X59807800Y-84353400D03*
%TO.P,J8,8,Pin_8*%
%TO.N,/RED*%
X57267800Y-84353400D03*
%TO.P,J8,9,Pin_9*%
%TO.N,/pwm MC7*%
X59807800Y-86893400D03*
%TO.P,J8,10,Pin_10*%
%TO.N,/BLACK*%
X57267800Y-86893400D03*
%TO.P,J8,11,Pin_11*%
%TO.N,/mc1*%
X59807800Y-89433400D03*
%TO.P,J8,12,Pin_12*%
%TO.N,/WHITE*%
X57267800Y-89433400D03*
%TO.P,J8,13,Pin_13*%
%TO.N,/mc2*%
X59807800Y-91973400D03*
%TO.P,J8,14,Pin_14*%
%TO.N,/GREEN*%
X57267800Y-91973400D03*
%TD*%
D38*
%TO.P,T1,1*%
%TO.N,N/C*%
X199994200Y-78935000D03*
X204994200Y-78935000D03*
%TO.P,T1,2*%
X199994200Y-78935000D03*
%TO.P,T1,3,AA*%
%TO.N,/Line*%
X194994200Y-78935000D03*
%TO.P,T1,4,AB*%
%TO.N,/Nutral*%
X189994200Y-78935000D03*
%TO.P,T1,5*%
%TO.N,N/C*%
X184994200Y-78935000D03*
%TO.P,T1,6*%
X179944200Y-78935000D03*
%TO.P,T1,7,SA*%
%TO.N,Net-(T1-SA)*%
X179994200Y-51435000D03*
%TO.P,T1,8,SB*%
%TO.N,Net-(T1-SB)*%
X184994200Y-51435000D03*
%TO.P,T1,9*%
%TO.N,N/C*%
X189994200Y-51435000D03*
%TO.P,T1,10*%
X194994200Y-51435000D03*
%TO.P,T1,11,SD*%
%TO.N,Net-(T1-SD)*%
X199994200Y-51435000D03*
%TO.P,T1,12,SC*%
%TO.N,Net-(T1-SC)*%
X204994200Y-51435000D03*
%TD*%
D39*
%TO.P,R13,1*%
%TO.N,/mc1*%
X76978200Y-53314600D03*
%TO.P,R13,2*%
%TO.N,Net-(D14-A)*%
X76978200Y-50214600D03*
%TD*%
%TO.P,R15,1*%
%TO.N,/mc1*%
X74311200Y-53314600D03*
%TO.P,R15,2*%
%TO.N,/VCC1 5V*%
X74311200Y-50214600D03*
%TD*%
D36*
%TO.P,D5,1,K*%
%TO.N,/VCC2 12V*%
X123887000Y-47020000D03*
D37*
%TO.P,D5,2,A*%
%TO.N,Net-(D19-A)*%
X126427000Y-47020000D03*
%TD*%
D40*
%TO.P,D19,1,K*%
%TO.N,/VCC2 12V*%
X123332000Y-50038000D03*
%TO.P,D19,2,A*%
%TO.N,Net-(D19-A)*%
X126432000Y-50038000D03*
%TD*%
D39*
%TO.P,R5,1*%
%TO.N,/RL3*%
X111446000Y-56388000D03*
%TO.P,R5,2*%
%TO.N,Net-(D21-A)*%
X111446000Y-53288000D03*
%TD*%
D40*
%TO.P,D20,1,K*%
%TO.N,/VCC2 12V*%
X116220000Y-50038000D03*
%TO.P,D20,2,A*%
%TO.N,Net-(D20-A)*%
X119320000Y-50038000D03*
%TD*%
%TO.P,D8,1,K*%
%TO.N,/VCC1 5V*%
X74564000Y-47752000D03*
%TO.P,D8,2,A*%
%TO.N,Net-(D14-A)*%
X77664000Y-47752000D03*
%TD*%
D36*
%TO.P,D10,1,K*%
%TO.N,/VCC2 12V*%
X101535000Y-47020000D03*
D37*
%TO.P,D10,2,A*%
%TO.N,Net-(D10-A)*%
X104075000Y-47020000D03*
%TD*%
D36*
%TO.P,D1,1,K*%
%TO.N,Net-(D1-K)*%
X134047000Y-47096200D03*
D37*
%TO.P,D1,2,A*%
%TO.N,GND1*%
X136587000Y-47096200D03*
%TD*%
D39*
%TO.P,R3,1*%
%TO.N,/RL1*%
X126584400Y-56388000D03*
%TO.P,R3,2*%
%TO.N,Net-(D19-A)*%
X126584400Y-53288000D03*
%TD*%
D41*
%TO.P,R17,1*%
%TO.N,GND2*%
X104639400Y-88061800D03*
%TO.P,R17,2*%
%TO.N,Net-(R17-Pad2)*%
X101539400Y-88061800D03*
%TD*%
D36*
%TO.P,D9,1,K*%
%TO.N,/VCC2 12V*%
X109155000Y-47020000D03*
D37*
%TO.P,D9,2,A*%
%TO.N,Net-(D21-A)*%
X111695000Y-47020000D03*
%TD*%
D40*
%TO.P,D18,1,K*%
%TO.N,Net-(D18-K)*%
X154066000Y-80264000D03*
%TO.P,D18,2,A*%
%TO.N,GND2*%
X157166000Y-80264000D03*
%TD*%
D41*
%TO.P,R16,1*%
%TO.N,/Input1*%
X104487000Y-92334600D03*
%TO.P,R16,2*%
%TO.N,Net-(C14-Pad1)*%
X101387000Y-92334600D03*
%TD*%
D42*
%TO.P,R7,1*%
%TO.N,/C1*%
X183582000Y-113284000D03*
%TO.P,R7,2*%
%TO.N,Net-(C11-Pad1)*%
X189682000Y-113284000D03*
%TD*%
D36*
%TO.P,D13,1,K*%
%TO.N,/VCC1 5V*%
X82485000Y-45216600D03*
D37*
%TO.P,D13,2,A*%
%TO.N,Net-(D13-A)*%
X85025000Y-45216600D03*
%TD*%
D40*
%TO.P,D16,1,K*%
%TO.N,/VCC1 5V*%
X82438000Y-48006000D03*
%TO.P,D16,2,A*%
%TO.N,Net-(D13-A)*%
X85538000Y-48006000D03*
%TD*%
%TO.P,D22,1,K*%
%TO.N,/VCC2 12V*%
X101540000Y-50038000D03*
%TO.P,D22,2,A*%
%TO.N,Net-(D10-A)*%
X104640000Y-50038000D03*
%TD*%
D39*
%TO.P,R9,1*%
%TO.N,/mc2*%
X82439200Y-53594000D03*
%TO.P,R9,2*%
%TO.N,/VCC1 5V*%
X82439200Y-50494000D03*
%TD*%
D41*
%TO.P,R10,1*%
%TO.N,/Input2_withproxy*%
X104537800Y-100660200D03*
%TO.P,R10,2*%
%TO.N,Net-(C12-Pad1)*%
X101437800Y-100660200D03*
%TD*%
D39*
%TO.P,R1,1*%
%TO.N,/VCC1 5V*%
X133848800Y-56388000D03*
%TO.P,R1,2*%
%TO.N,Net-(D1-K)*%
X133848800Y-53288000D03*
%TD*%
D36*
%TO.P,D14,1,K*%
%TO.N,/VCC1 5V*%
X74611000Y-45288200D03*
D37*
%TO.P,D14,2,A*%
%TO.N,Net-(D14-A)*%
X77151000Y-45288200D03*
%TD*%
D40*
%TO.P,D21,1,K*%
%TO.N,/VCC2 12V*%
X108906000Y-50038000D03*
%TO.P,D21,2,A*%
%TO.N,Net-(D21-A)*%
X112006000Y-50038000D03*
%TD*%
D43*
%TO.P,R18,1*%
%TO.N,/C4*%
X132172400Y-105662000D03*
%TO.P,R18,2*%
%TO.N,Net-(C16-Pad1)*%
X132172400Y-111762000D03*
%TD*%
D41*
%TO.P,R12,1*%
%TO.N,GND2*%
X104487000Y-96322400D03*
%TO.P,R12,2*%
%TO.N,Net-(R12-Pad2)*%
X101387000Y-96322400D03*
%TD*%
D39*
%TO.P,R6,1*%
%TO.N,/RL4*%
X104080000Y-56388000D03*
%TO.P,R6,2*%
%TO.N,Net-(D10-A)*%
X104080000Y-53288000D03*
%TD*%
%TO.P,R8,1*%
%TO.N,/mc2*%
X84979200Y-53594000D03*
%TO.P,R8,2*%
%TO.N,Net-(D13-A)*%
X84979200Y-50494000D03*
%TD*%
D42*
%TO.P,R11,1*%
%TO.N,/C2*%
X166052000Y-113284000D03*
%TO.P,R11,2*%
%TO.N,Net-(C13-Pad1)*%
X172152000Y-113284000D03*
%TD*%
D39*
%TO.P,R4,1*%
%TO.N,/RL2*%
X119040600Y-56388000D03*
%TO.P,R4,2*%
%TO.N,Net-(D20-A)*%
X119040600Y-53288000D03*
%TD*%
D44*
%TO.P,R2,1*%
%TO.N,/VCC2 12V*%
X148631000Y-73863200D03*
%TO.P,R2,2*%
%TO.N,Net-(D18-K)*%
X151731000Y-73863200D03*
%TD*%
D42*
%TO.P,R14,1*%
%TO.N,/C3*%
X148780000Y-113030000D03*
%TO.P,R14,2*%
%TO.N,Net-(C15-Pad1)*%
X154880000Y-113030000D03*
%TD*%
D36*
%TO.P,D7,1,K*%
%TO.N,/VCC2 12V*%
X116521000Y-47020000D03*
D37*
%TO.P,D7,2,A*%
%TO.N,Net-(D20-A)*%
X119061000Y-47020000D03*
%TD*%
D40*
%TO.P,D17,1,K*%
%TO.N,Net-(D1-K)*%
X133264000Y-50038000D03*
%TO.P,D17,2,A*%
%TO.N,GND1*%
X136364000Y-50038000D03*
%TD*%
D45*
%TO.N,/mc2*%
X82312200Y-55372000D03*
%TO.N,/mc1*%
X76952800Y-55626000D03*
%TD*%
D46*
%TO.N,*%
X177740000Y-66802000D02*
X177494200Y-67047800D01*
X177494200Y-67047800D02*
X177494200Y-68525000D01*
%TO.N,/VCC1 5V*%
X89170200Y-43840400D02*
X89170200Y-53690200D01*
D47*
X85350200Y-61935200D02*
X86862400Y-60423000D01*
D46*
X139335200Y-47808975D02*
X141551175Y-45593000D01*
D47*
X92777000Y-81305400D02*
X92116600Y-81965800D01*
D46*
X81474000Y-48006000D02*
X81474000Y-49528800D01*
X82469600Y-42743200D02*
X82469600Y-45216600D01*
D47*
X71771200Y-62026800D02*
X63226337Y-71363537D01*
X92777000Y-67614800D02*
X92761960Y-67599760D01*
D46*
X74616000Y-44015408D02*
X76010208Y-42621200D01*
D47*
X86862400Y-60423000D02*
X87824000Y-60423000D01*
D46*
X81474000Y-49528800D02*
X82439200Y-50494000D01*
X74616000Y-44043600D02*
X74616000Y-45288200D01*
X90389400Y-42621200D02*
X83734600Y-42621200D01*
X81474000Y-48006000D02*
X82338000Y-48006000D01*
X137354000Y-56388000D02*
X133848800Y-56388000D01*
X138674800Y-42621200D02*
X90389400Y-42621200D01*
D47*
X87824000Y-60423000D02*
X90561800Y-60423000D01*
D46*
X141551175Y-45497575D02*
X138674800Y-42621200D01*
D47*
X72955000Y-61935200D02*
X72609400Y-62280800D01*
D46*
X139335200Y-52882800D02*
X139106600Y-52882800D01*
X74616000Y-43459400D02*
X74616000Y-44043600D01*
X139335200Y-52882800D02*
X139335200Y-54406800D01*
X82469600Y-45216600D02*
X82469600Y-43769200D01*
X89170200Y-53690200D02*
X83465200Y-59395200D01*
X83734600Y-42621200D02*
X82591600Y-42621200D01*
X74616000Y-49909800D02*
X74311200Y-50214600D01*
X90389400Y-42621200D02*
X89170200Y-43840400D01*
X82469600Y-43769200D02*
X81321600Y-42621200D01*
D47*
X85783720Y-77175200D02*
X90561800Y-81953280D01*
X92777000Y-74828400D02*
X92725120Y-74776520D01*
D46*
X76010208Y-42621200D02*
X76267000Y-42621200D01*
D47*
X83465200Y-72095200D02*
X87880480Y-72095200D01*
X92761960Y-67599760D02*
X90561800Y-67599760D01*
D46*
X82469600Y-43886200D02*
X83734600Y-42621200D01*
X139335200Y-52882800D02*
X139335200Y-47808975D01*
X141551175Y-45593000D02*
X141551175Y-45497575D01*
X139335200Y-54406800D02*
X137354000Y-56388000D01*
D47*
X92777000Y-74828400D02*
X92777000Y-81305400D01*
X83465200Y-61935200D02*
X85350200Y-61935200D01*
X92116600Y-81965800D02*
X92104080Y-81953280D01*
D46*
X81321600Y-42621200D02*
X76267000Y-42621200D01*
X75454200Y-42621200D02*
X76267000Y-42621200D01*
X74616000Y-45288200D02*
X74616000Y-43840400D01*
D47*
X83465200Y-61935200D02*
X83465200Y-59395200D01*
D46*
X82469600Y-45216600D02*
X82469600Y-43886200D01*
D48*
X59884000Y-76657200D02*
X59884000Y-75869800D01*
D47*
X92104080Y-81953280D02*
X90561800Y-81953280D01*
D46*
X74616000Y-45288200D02*
X74616000Y-43459400D01*
D47*
X72355400Y-62026800D02*
X71771200Y-62026800D01*
X83465200Y-61935200D02*
X72955000Y-61935200D01*
X89977240Y-67015200D02*
X90561800Y-67599760D01*
X87880480Y-72095200D02*
X90561800Y-74776520D01*
X83465200Y-67015200D02*
X89977240Y-67015200D01*
D46*
X82485000Y-45216600D02*
X81474000Y-46227600D01*
D49*
X82439200Y-50494000D02*
X82469600Y-50463600D01*
D46*
X82591600Y-42621200D02*
X82469600Y-42743200D01*
D47*
X92777000Y-61163200D02*
X92777000Y-67614800D01*
D46*
X74616000Y-45288200D02*
X74616000Y-44015408D01*
D47*
X92777000Y-67614800D02*
X92777000Y-74828400D01*
D46*
X82591600Y-42621200D02*
X81321600Y-42621200D01*
X74616000Y-43459400D02*
X75454200Y-42621200D01*
D47*
X90561800Y-60423000D02*
X92036800Y-60423000D01*
X59807800Y-74782074D02*
X59807800Y-76733400D01*
X63226337Y-71363537D02*
X59807800Y-74782074D01*
D48*
X59884000Y-75869800D02*
X59946600Y-75807200D01*
D47*
X83465200Y-77175200D02*
X85783720Y-77175200D01*
D46*
X74616000Y-45288200D02*
X74616000Y-49909800D01*
D48*
X59946600Y-75807200D02*
X59985600Y-75807200D01*
D47*
X92725120Y-74776520D02*
X90561800Y-74776520D01*
X72609400Y-62280800D02*
X72355400Y-62026800D01*
D46*
X81474000Y-46227600D02*
X81474000Y-48006000D01*
D47*
X92036800Y-60423000D02*
X92777000Y-61163200D01*
D46*
%TO.N,GND1*%
X154067200Y-56937523D02*
X142983523Y-56937523D01*
X57344000Y-75107200D02*
X57267800Y-75183400D01*
X58220300Y-73190100D02*
X57344000Y-74066400D01*
X72609400Y-59740800D02*
X71669600Y-59740800D01*
X144474550Y-43256200D02*
X151908200Y-43256200D01*
X141875200Y-55829200D02*
X141875200Y-52882800D01*
X57318600Y-75107200D02*
X57344000Y-75107200D01*
X136587000Y-49915000D02*
X136464000Y-50038000D01*
X144051175Y-47481025D02*
X141875200Y-49657000D01*
X142983523Y-56937523D02*
X141875200Y-55829200D01*
X154067200Y-56937523D02*
X161696477Y-56937523D01*
X136587000Y-47096200D02*
X136587000Y-49915000D01*
X161696477Y-56937523D02*
X163008000Y-55626000D01*
X144051175Y-45593000D02*
X144051175Y-47481025D01*
X58220300Y-73190100D02*
X57267800Y-74142600D01*
X57267800Y-74142600D02*
X57267800Y-76733400D01*
X141875200Y-49657000D02*
X141875200Y-52882800D01*
X144051175Y-45593000D02*
X144051175Y-43679575D01*
X144051175Y-43679575D02*
X144474550Y-43256200D01*
X71669600Y-59740800D02*
X58220300Y-73190100D01*
X57344000Y-74066400D02*
X57344000Y-75107200D01*
X57267800Y-75183400D02*
X57267800Y-76733400D01*
%TO.N,GND2*%
X66564200Y-113334800D02*
X69104200Y-113334800D01*
D49*
X107585200Y-88290400D02*
X107843000Y-88548200D01*
D46*
X156399000Y-72578923D02*
X154041800Y-70221723D01*
D50*
X107676000Y-88239600D02*
X107676000Y-84266400D01*
D51*
X104487000Y-96322400D02*
X104811600Y-96647000D01*
D50*
X107676000Y-84266400D02*
X104191600Y-80782000D01*
D52*
X157166000Y-78446924D02*
X157179038Y-78459962D01*
D49*
X107636000Y-88239600D02*
X107585200Y-88290400D01*
D53*
X160734000Y-78340000D02*
X163008000Y-76066000D01*
D46*
X69028000Y-105359200D02*
X66488000Y-105359200D01*
X145756077Y-70221723D02*
X145685200Y-70292600D01*
D49*
X107676000Y-88239600D02*
X107636000Y-88239600D01*
D52*
X157166000Y-80264000D02*
X157166000Y-78446924D01*
D46*
X154041800Y-70221723D02*
X145756077Y-70221723D01*
D51*
X104639400Y-88061800D02*
X107356600Y-88061800D01*
D53*
X157299000Y-78340000D02*
X160734000Y-78340000D01*
D51*
X104811600Y-96647000D02*
X107817600Y-96647000D01*
D46*
X66488000Y-105359200D02*
X66488000Y-113258600D01*
X156399000Y-77440000D02*
X156399000Y-72578923D01*
D51*
X107356600Y-88061800D02*
X107585200Y-88290400D01*
D53*
X156399000Y-77440000D02*
X157299000Y-78340000D01*
D54*
%TO.N,/RL1*%
X176499200Y-97070800D02*
X176499200Y-89535000D01*
D50*
X111811600Y-60462000D02*
X111811600Y-63002000D01*
D46*
X146625000Y-76225400D02*
X142865800Y-76225400D01*
X166513200Y-82524600D02*
X152924200Y-82524600D01*
X152924200Y-82524600D02*
X146625000Y-76225400D01*
X172152000Y-88163400D02*
X166513200Y-82524600D01*
X179841200Y-88163400D02*
X172152000Y-88163400D01*
X126559000Y-59436000D02*
X126559000Y-56413400D01*
X126559000Y-56413400D02*
X126584400Y-56388000D01*
X126660600Y-63002000D02*
X111811600Y-63002000D01*
X129642400Y-63002000D02*
X126660600Y-63002000D01*
X126559000Y-62900400D02*
X126660600Y-63002000D01*
D54*
X177870800Y-88163400D02*
X179841200Y-88163400D01*
D46*
X142865800Y-76225400D02*
X129642400Y-63002000D01*
X126559000Y-59436000D02*
X126559000Y-62900400D01*
X126559000Y-58521600D02*
X126559000Y-59436000D01*
D54*
X176499200Y-89535000D02*
X177870800Y-88163400D01*
D46*
%TO.N,/RL3*%
X128676000Y-73162000D02*
X142951000Y-87437000D01*
X142287200Y-88521400D02*
X143297600Y-87511000D01*
D55*
X109109200Y-70622000D02*
X108372600Y-69885400D01*
D46*
X143277800Y-90990800D02*
X142312600Y-90990800D01*
D55*
X109871200Y-56388000D02*
X111446000Y-56388000D01*
D46*
X143329200Y-87542600D02*
X146532400Y-87542600D01*
D55*
X111811600Y-70622000D02*
X109109200Y-70622000D01*
D46*
X143297600Y-87511000D02*
X143329200Y-87542600D01*
X142287200Y-96545400D02*
X142287200Y-90965400D01*
X142287200Y-90965400D02*
X142287200Y-88521400D01*
D55*
X108372600Y-57886600D02*
X109871200Y-56388000D01*
D50*
X111811600Y-70622000D02*
X111811600Y-73162000D01*
D46*
X142312600Y-90990800D02*
X142287200Y-90965400D01*
X111811600Y-73162000D02*
X128676000Y-73162000D01*
D55*
X108372600Y-69885400D02*
X108372600Y-57886600D01*
D46*
%TO.N,/VCC2 12V*%
X168418200Y-88749600D02*
X167275200Y-87606600D01*
D51*
X123100000Y-47020000D02*
X122622000Y-47498000D01*
X95672600Y-74803000D02*
X95672600Y-81457800D01*
X96168080Y-81953280D02*
X98181800Y-81953280D01*
D46*
X188499200Y-91440000D02*
X188499200Y-89470000D01*
D51*
X128997400Y-54051200D02*
X128997400Y-55829200D01*
X99457200Y-59147600D02*
X99457200Y-50292000D01*
X122622000Y-49328000D02*
X123332000Y-50038000D01*
D46*
X143791000Y-65292600D02*
X145685200Y-65292600D01*
X188499200Y-97070800D02*
X188499200Y-91440000D01*
D51*
X136073200Y-65292600D02*
X139614600Y-65292600D01*
X95672600Y-61391800D02*
X95672600Y-67513200D01*
D46*
X108144000Y-48006000D02*
X108144000Y-49530000D01*
D51*
X117618200Y-126619000D02*
X114468699Y-129768501D01*
D46*
X186608400Y-91516200D02*
X188423000Y-91516200D01*
X135982400Y-88154800D02*
X135381400Y-87553800D01*
X135982400Y-90754200D02*
X134848000Y-90754200D01*
D51*
X128286200Y-44678600D02*
X128997400Y-45389800D01*
D46*
X154287200Y-90889200D02*
X154287200Y-88442200D01*
D51*
X99457200Y-50292000D02*
X99457200Y-49107800D01*
X108982200Y-44678600D02*
X116551400Y-44678600D01*
D46*
X170272400Y-91010200D02*
X168418200Y-91010200D01*
D51*
X102256200Y-44678600D02*
X101545000Y-45389800D01*
X98181800Y-60423000D02*
X96641400Y-60423000D01*
X145685200Y-65292600D02*
X139614600Y-65292600D01*
D46*
X171130932Y-91868732D02*
X170272400Y-91010200D01*
X154185600Y-90990800D02*
X154287200Y-90889200D01*
D51*
X154803723Y-64459800D02*
X154041800Y-65221723D01*
X101286000Y-50292000D02*
X101515000Y-50063000D01*
D46*
X134848000Y-90754200D02*
X134746400Y-90855800D01*
D51*
X98181800Y-60423000D02*
X99457200Y-59147600D01*
X128997400Y-45389800D02*
X128997400Y-54051200D01*
D46*
X187192600Y-88163400D02*
X184841200Y-88163400D01*
X153387600Y-87542600D02*
X151532400Y-87542600D01*
D51*
X124019000Y-44678600D02*
X128286200Y-44678600D01*
X128997400Y-58216800D02*
X136073200Y-65292600D01*
D46*
X144272500Y-73726500D02*
X142103800Y-71557800D01*
X115256000Y-47244000D02*
X115256000Y-49784000D01*
X168418200Y-91010200D02*
X168418200Y-88749600D01*
D51*
X102987800Y-44678600D02*
X102256200Y-44678600D01*
X102987800Y-44678600D02*
X108982200Y-44678600D01*
X145756077Y-65221723D02*
X145685200Y-65292600D01*
X61687400Y-128270000D02*
X61687400Y-115671600D01*
D46*
X115256000Y-49784000D02*
X115510000Y-50038000D01*
X108652000Y-50038000D02*
X108806000Y-50038000D01*
D51*
X95759160Y-67599760D02*
X98181800Y-67599760D01*
X124019000Y-44678600D02*
X124024000Y-44683600D01*
X114468699Y-129768501D02*
X63135200Y-129768501D01*
D46*
X154287200Y-88442200D02*
X153387600Y-87542600D01*
X115480000Y-47020000D02*
X115256000Y-47244000D01*
X135982400Y-96410400D02*
X135982400Y-90754200D01*
D51*
X95672600Y-74803000D02*
X95699080Y-74776520D01*
D46*
X142103800Y-66979800D02*
X143791000Y-65292600D01*
D51*
X154041800Y-65221723D02*
X145756077Y-65221723D01*
X116551400Y-44678600D02*
X116531000Y-44699000D01*
X116551400Y-44678600D02*
X124019000Y-44678600D01*
X128997400Y-54051200D02*
X128997400Y-58216800D01*
X63135200Y-129768501D02*
X63135200Y-129717800D01*
D46*
X116521000Y-47020000D02*
X115480000Y-47020000D01*
D51*
X95672600Y-67513200D02*
X95672600Y-74803000D01*
X108982200Y-44678600D02*
X109038000Y-44734400D01*
X122622000Y-47498000D02*
X122622000Y-49328000D01*
X101545000Y-44678600D02*
X101545000Y-45389800D01*
X95672600Y-81457800D02*
X96168080Y-81953280D01*
D46*
X135381400Y-87553800D02*
X132414800Y-87553800D01*
X188423000Y-91516200D02*
X188499200Y-91440000D01*
X144272500Y-73726500D02*
X144409200Y-73863200D01*
D49*
X168545200Y-90883200D02*
X168418200Y-91010200D01*
D51*
X124024000Y-44683600D02*
X124024000Y-47020000D01*
D46*
X167249800Y-87632000D02*
X163196600Y-87632000D01*
X167275200Y-87606600D02*
X167249800Y-87632000D01*
X115510000Y-50038000D02*
X116220000Y-50038000D01*
X142103800Y-71557800D02*
X142103800Y-66979800D01*
X153437800Y-90990800D02*
X154185600Y-90990800D01*
D51*
X95672600Y-67513200D02*
X95759160Y-67599760D01*
D46*
X188499200Y-89470000D02*
X187192600Y-88163400D01*
D51*
X99457200Y-49107800D02*
X101545000Y-47020000D01*
D46*
X144409200Y-73863200D02*
X148631000Y-73863200D01*
D51*
X101545000Y-44678600D02*
X102987800Y-44678600D01*
X99457200Y-50292000D02*
X101286000Y-50292000D01*
X63135200Y-129717800D02*
X61687400Y-128270000D01*
X123887000Y-47020000D02*
X123100000Y-47020000D01*
D46*
X154287200Y-96545400D02*
X154287200Y-90889200D01*
D51*
X163062000Y-64459800D02*
X154803723Y-64459800D01*
X95699080Y-74776520D02*
X98181800Y-74776520D01*
D46*
X135982400Y-90754200D02*
X135982400Y-88154800D01*
X108144000Y-49530000D02*
X108652000Y-50038000D01*
D51*
X116531000Y-44699000D02*
X116531000Y-47020000D01*
X64024200Y-113334800D02*
X64024200Y-105435400D01*
D46*
X109130000Y-47020000D02*
X108144000Y-48006000D01*
D56*
X112436600Y-126619000D02*
X117618200Y-126619000D01*
D51*
X101545000Y-45389800D02*
X101545000Y-47020000D01*
X96641400Y-60423000D02*
X95672600Y-61391800D01*
X101515000Y-50063000D02*
X101515000Y-50038000D01*
X61687400Y-115671600D02*
X64024200Y-113334800D01*
D46*
X171130932Y-96415600D02*
X171130932Y-91868732D01*
X109155000Y-47020000D02*
X109130000Y-47020000D01*
D51*
X109038000Y-44734400D02*
X109038000Y-47020000D01*
D55*
%TO.N,/RL2*%
X109805000Y-65542000D02*
X109515600Y-65252600D01*
X109668000Y-59436000D02*
X110430000Y-58674000D01*
X118050000Y-58674000D02*
X119066000Y-57658000D01*
D46*
X142332400Y-79654400D02*
X146447200Y-79654400D01*
D55*
X109515600Y-59436000D02*
X109668000Y-59436000D01*
D46*
X158196600Y-87632000D02*
X158196600Y-90948600D01*
X146447200Y-79654400D02*
X151351400Y-84558600D01*
D55*
X111811600Y-65542000D02*
X109805000Y-65542000D01*
D46*
X151351400Y-84558600D02*
X154905400Y-84558600D01*
X158258200Y-95542868D02*
X159130932Y-96415600D01*
X158196600Y-90948600D02*
X158258200Y-91010200D01*
X155123200Y-84558600D02*
X158196600Y-87632000D01*
D55*
X109515600Y-65252600D02*
X109515600Y-59436000D01*
D46*
X158258200Y-91010200D02*
X158258200Y-95542868D01*
X154905400Y-84569400D02*
X154905400Y-84558600D01*
D50*
X111811600Y-65542000D02*
X111811600Y-68082000D01*
D46*
X130760000Y-68082000D02*
X142332400Y-79654400D01*
X111811600Y-68082000D02*
X130760000Y-68082000D01*
D55*
X119066000Y-57658000D02*
X119040600Y-57632600D01*
D46*
X154905400Y-84558600D02*
X155123200Y-84558600D01*
D55*
X110430000Y-58674000D02*
X118050000Y-58674000D01*
X119040600Y-57632600D02*
X119040600Y-56388000D01*
D46*
%TO.N,/RL4*%
X122797600Y-83970200D02*
X122393400Y-83566000D01*
X121910800Y-83083400D02*
X122797600Y-83970200D01*
X127414800Y-87553800D02*
X123813600Y-87553800D01*
D55*
X107153400Y-73939400D02*
X107153400Y-57379800D01*
D46*
X117069400Y-78242000D02*
X121910800Y-83083400D01*
D55*
X107153400Y-57379800D02*
X106263800Y-56490200D01*
D46*
X124611800Y-87553800D02*
X127414800Y-87553800D01*
D55*
X106161600Y-56388000D02*
X104080000Y-56388000D01*
D46*
X124586400Y-90855800D02*
X123982400Y-90855800D01*
D55*
X111811600Y-75702000D02*
X108916000Y-75702000D01*
X106263800Y-56490200D02*
X106161600Y-56388000D01*
D46*
X121910800Y-83083400D02*
X122393400Y-83566000D01*
D50*
X111811600Y-75702000D02*
X111811600Y-78242000D01*
D46*
X111811600Y-78242000D02*
X117069400Y-78242000D01*
X122797600Y-89067000D02*
X124586400Y-90855800D01*
X122797600Y-83970200D02*
X122797600Y-86537800D01*
X122393400Y-83566000D02*
X122787100Y-83959700D01*
X122787100Y-83959700D02*
X122797600Y-83970200D01*
X122797600Y-86537800D02*
X122797600Y-89067000D01*
X123982400Y-96410400D02*
X123982400Y-90855800D01*
X123813600Y-87553800D02*
X122797600Y-86537800D01*
D55*
X108916000Y-75702000D02*
X107153400Y-73939400D01*
D54*
%TO.N,/C1*%
X182413600Y-119024400D02*
X183582000Y-117856000D01*
X179518000Y-119024400D02*
X173498200Y-125044200D01*
X176546200Y-121996200D02*
X177435200Y-121107200D01*
X183582000Y-96153600D02*
X182499200Y-95070800D01*
X177435200Y-121107200D02*
X175131058Y-123411342D01*
X182413600Y-119024400D02*
X182499200Y-118938800D01*
X182499200Y-118938800D02*
X182499200Y-95070800D01*
X179518000Y-119024400D02*
X182413600Y-119024400D01*
X183582000Y-113284000D02*
X183582000Y-96153600D01*
X183582000Y-117856000D02*
X183582000Y-113284000D01*
X177435200Y-121107200D02*
X179518000Y-119024400D01*
X173498200Y-125044200D02*
X173498200Y-126619000D01*
%TO.N,Net-(C11-Pad1)*%
X189682000Y-114136000D02*
X187486000Y-116332000D01*
X189682000Y-113284000D02*
X189682000Y-114136000D01*
%TO.N,/C2*%
X165130932Y-109056932D02*
X166310000Y-110236000D01*
X166310000Y-110236000D02*
X166310000Y-121412000D01*
X165130932Y-94415600D02*
X165130932Y-109056932D01*
X163338200Y-124536200D02*
X163338200Y-126619000D01*
X163262000Y-124460000D02*
X163338200Y-124536200D01*
X166310000Y-121412000D02*
X163262000Y-124460000D01*
%TO.N,Net-(C13-Pad1)*%
X172152000Y-113284000D02*
X172152000Y-114474000D01*
X172152000Y-114474000D02*
X170294000Y-116332000D01*
%TO.N,/C3*%
X148780000Y-113030000D02*
X148780000Y-117344000D01*
X147915066Y-94545400D02*
X147915066Y-112165066D01*
X153178200Y-121742200D02*
X153178200Y-126619000D01*
X148780000Y-117344000D02*
X153178200Y-121742200D01*
X147915066Y-112165066D02*
X148780000Y-113030000D01*
%TO.N,/C4*%
X131664967Y-118410853D02*
X137938200Y-124684086D01*
X131971200Y-105460800D02*
X132172400Y-105662000D01*
X128286200Y-105460800D02*
X131971200Y-105460800D01*
X128286200Y-116425706D02*
X130271347Y-118410853D01*
X129982400Y-97586800D02*
X129982400Y-94410400D01*
X129982400Y-97586800D02*
X129982400Y-99410000D01*
X128286200Y-105460800D02*
X128286200Y-116425706D01*
X128286200Y-101106200D02*
X129982400Y-99410000D01*
X128286200Y-105460800D02*
X128286200Y-101106200D01*
X137938200Y-124684086D02*
X137938200Y-126619000D01*
X130271347Y-118410853D02*
X131664967Y-118410853D01*
D57*
%TO.N,Net-(T1-SA)*%
X175367000Y-51776000D02*
X163008000Y-51776000D01*
X175708000Y-51435000D02*
X179994200Y-51435000D01*
X175367000Y-51776000D02*
X175708000Y-51435000D01*
%TO.N,Net-(T1-SB)*%
X168748400Y-46837600D02*
X167660000Y-47926000D01*
X184994200Y-51435000D02*
X184994200Y-48199000D01*
X184994200Y-48199000D02*
X183632800Y-46837600D01*
X167660000Y-47926000D02*
X163008000Y-47926000D01*
X183632800Y-46837600D02*
X168748400Y-46837600D01*
%TO.N,Net-(T1-SC)*%
X204994200Y-55502200D02*
X204994200Y-51435000D01*
X173726800Y-70053200D02*
X173726800Y-62915800D01*
X175225400Y-61417200D02*
X199079200Y-61417200D01*
X173726800Y-62915800D02*
X175225400Y-61417200D01*
X163008000Y-72216000D02*
X171564000Y-72216000D01*
X199079200Y-61417200D02*
X204994200Y-55502200D01*
X171564000Y-72216000D02*
X173726800Y-70053200D01*
%TO.N,Net-(T1-SD)*%
X169180200Y-60452000D02*
X169180200Y-67360800D01*
X173142600Y-56489600D02*
X169180200Y-60452000D01*
X168175000Y-68366000D02*
X163008000Y-68366000D01*
X169180200Y-67360800D02*
X168175000Y-68366000D01*
X194939600Y-56489600D02*
X173142600Y-56489600D01*
X199994200Y-51435000D02*
X194939600Y-56489600D01*
D54*
%TO.N,/NO1*%
X178139400Y-113400200D02*
X176499200Y-111760000D01*
X178502000Y-113037600D02*
X177486000Y-114053600D01*
X177354486Y-115519200D02*
X178139400Y-115519200D01*
X178502000Y-110490000D02*
X178502000Y-108458000D01*
X176499200Y-109270800D02*
X176499200Y-115345200D01*
X176499200Y-112492800D02*
X178502000Y-110490000D01*
X178139400Y-115519200D02*
X178139400Y-113400200D01*
X177312000Y-108458000D02*
X176499200Y-109270800D01*
X178502000Y-113037600D02*
X178502000Y-110490000D01*
X178502000Y-108458000D02*
X177312000Y-108458000D01*
X176499200Y-115345200D02*
X177486000Y-116332000D01*
X168418200Y-126619000D02*
X168418200Y-124455486D01*
X178139400Y-113400200D02*
X178502000Y-113037600D01*
X176499200Y-111760000D02*
X176499200Y-112492800D01*
X177486000Y-114053600D02*
X177486000Y-116332000D01*
X168418200Y-124455486D02*
X177354486Y-115519200D01*
X176499200Y-109270800D02*
X176499200Y-111760000D01*
%TO.N,/NO3*%
X148098200Y-121662200D02*
X148098200Y-126619000D01*
X141915066Y-108745400D02*
X141915066Y-115479066D01*
X142768000Y-116332000D02*
X148098200Y-121662200D01*
X141915066Y-115479066D02*
X142768000Y-116332000D01*
D51*
%TO.N,Net-(C12-Pad1)*%
X98111000Y-98856800D02*
X99634400Y-98856800D01*
X101437800Y-100660200D02*
X103546000Y-98552000D01*
X103546000Y-98552000D02*
X110912600Y-98552000D01*
X99634400Y-98856800D02*
X101437800Y-100660200D01*
X110912600Y-98552000D02*
X112817600Y-96647000D01*
D54*
%TO.N,/NO2*%
X159130932Y-115138200D02*
X159130932Y-125746268D01*
X159130932Y-108615600D02*
X159130932Y-115138200D01*
%TO.N,/NC4*%
X135982400Y-108610400D02*
X138116000Y-110744000D01*
X143018200Y-123520200D02*
X143018200Y-126619000D01*
X138116000Y-118618000D02*
X143018200Y-123520200D01*
X138116000Y-110744000D02*
X138116000Y-118618000D01*
%TO.N,/NO4*%
X123982400Y-108610400D02*
X122401000Y-110191800D01*
X128985414Y-120735100D02*
X132858200Y-124607886D01*
X122401000Y-110191800D02*
X122401000Y-115265200D01*
X122401000Y-115265200D02*
X127870900Y-120735100D01*
X127870900Y-120735100D02*
X128985414Y-120735100D01*
X132858200Y-124607886D02*
X132858200Y-126619000D01*
D47*
%TO.N,/mc3*%
X83465200Y-64475200D02*
X72955000Y-64475200D01*
X86786200Y-62963000D02*
X90561800Y-62963000D01*
X83465200Y-64475200D02*
X85274000Y-64475200D01*
X72955000Y-64475200D02*
X72609400Y-64820800D01*
X85274000Y-64475200D02*
X86786200Y-62963000D01*
%TO.N,/mc4*%
X88520160Y-70139760D02*
X87935600Y-69555200D01*
X90561800Y-70139760D02*
X88520160Y-70139760D01*
X76140000Y-67335400D02*
X76114600Y-67360800D01*
X78359800Y-69555200D02*
X76140000Y-67335400D01*
X76114600Y-67360800D02*
X72609400Y-67360800D01*
X83465200Y-69555200D02*
X78359800Y-69555200D01*
X83465200Y-69555200D02*
X87935600Y-69555200D01*
D51*
%TO.N,/mc5*%
X70806000Y-69900800D02*
X61433400Y-79273400D01*
D47*
X88305520Y-77316520D02*
X85624200Y-74635200D01*
D51*
X72609400Y-69900800D02*
X70806000Y-69900800D01*
D47*
X85624200Y-74635200D02*
X83465200Y-74635200D01*
D51*
X75596600Y-69900800D02*
X80331000Y-74635200D01*
X80331000Y-74635200D02*
X83465200Y-74635200D01*
X72609400Y-69900800D02*
X75596600Y-69900800D01*
X61433400Y-79273400D02*
X59807800Y-79273400D01*
D47*
X90561800Y-77316520D02*
X88305520Y-77316520D01*
%TO.N,/mc6*%
X88382800Y-83515200D02*
X88372800Y-83515200D01*
D51*
X61535000Y-81813400D02*
X59807800Y-81813400D01*
X70907600Y-72440800D02*
X61535000Y-81813400D01*
D47*
X90561800Y-84493280D02*
X89360880Y-84493280D01*
D51*
X72609400Y-72440800D02*
X70907600Y-72440800D01*
D47*
X84572800Y-79715200D02*
X83465200Y-79715200D01*
D51*
X74260400Y-72440800D02*
X81534800Y-79715200D01*
X81534800Y-79715200D02*
X83465200Y-79715200D01*
D47*
X89360880Y-84493280D02*
X88382800Y-83515200D01*
X88372800Y-83515200D02*
X84572800Y-79715200D01*
D51*
X72609400Y-72440800D02*
X74260400Y-72440800D01*
D46*
%TO.N,Net-(U4-I1)*%
X104191600Y-63002000D02*
X98220800Y-63002000D01*
X98220800Y-63002000D02*
X98181800Y-62963000D01*
D50*
X104191600Y-60462000D02*
X104191600Y-63002000D01*
D46*
%TO.N,Net-(U4-I3)*%
X102266600Y-68082000D02*
X100208840Y-70139760D01*
D50*
X104191600Y-65542000D02*
X104191600Y-68082000D01*
D46*
X104191600Y-68082000D02*
X102266600Y-68082000D01*
X100208840Y-70139760D02*
X98181800Y-70139760D01*
%TO.N,Net-(U4-I5)*%
X100879600Y-74650600D02*
X100879600Y-76784200D01*
X100347280Y-77316520D02*
X98181800Y-77316520D01*
X100879600Y-76784200D02*
X100347280Y-77316520D01*
D50*
X104191600Y-70622000D02*
X104191600Y-73162000D01*
D46*
X102368200Y-73162000D02*
X100879600Y-74650600D01*
X104191600Y-73162000D02*
X102368200Y-73162000D01*
%TO.N,Net-(U4-I7)*%
X102698400Y-78242000D02*
X101057400Y-79883000D01*
X101057400Y-79883000D02*
X101057400Y-83769200D01*
X100333320Y-84493280D02*
X98181800Y-84493280D01*
X104191600Y-78242000D02*
X102698400Y-78242000D01*
D50*
X104191600Y-75702000D02*
X104191600Y-78242000D01*
D46*
X101057400Y-83769200D02*
X100333320Y-84493280D01*
D51*
%TO.N,Net-(R12-Pad2)*%
X101381400Y-96316800D02*
X98111000Y-96316800D01*
X101387000Y-96322400D02*
X101381400Y-96316800D01*
D47*
%TO.N,/mc2*%
X71339400Y-82600800D02*
X61966800Y-91973400D01*
D51*
X82439200Y-53594000D02*
X84979200Y-53594000D01*
D47*
X76673400Y-82575400D02*
X76648000Y-82600800D01*
X88865400Y-98856800D02*
X90491000Y-98856800D01*
X82312200Y-55372000D02*
X82312200Y-53721000D01*
X78121200Y-84023200D02*
X76673400Y-82575400D01*
X78121200Y-88112600D02*
X88865400Y-98856800D01*
X78121200Y-88112600D02*
X78121200Y-84023200D01*
X61966800Y-91973400D02*
X59807800Y-91973400D01*
X82312200Y-53721000D02*
X82439200Y-53594000D01*
X76648000Y-82600800D02*
X72609400Y-82600800D01*
X72609400Y-82600800D02*
X71339400Y-82600800D01*
%TO.N,/mc1*%
X71237800Y-80060800D02*
X61865200Y-89433400D01*
X76952800Y-53340000D02*
X76978200Y-53314600D01*
X76952800Y-55626000D02*
X76952800Y-53340000D01*
X85828840Y-91680040D02*
X80000800Y-85852000D01*
X80000800Y-85852000D02*
X80000800Y-83286600D01*
X90491000Y-91680040D02*
X85828840Y-91680040D01*
X72609400Y-80060800D02*
X71237800Y-80060800D01*
X61865200Y-89433400D02*
X59807800Y-89433400D01*
X76724200Y-80010000D02*
X76673400Y-80060800D01*
X80000800Y-83286600D02*
X76724200Y-80010000D01*
D51*
X76978200Y-53314600D02*
X74311200Y-53314600D01*
D47*
X76673400Y-80060800D02*
X72609400Y-80060800D01*
D46*
%TO.N,Net-(D1-K)*%
X132528000Y-47498000D02*
X132528000Y-51967200D01*
X132528000Y-51967200D02*
X133848800Y-53288000D01*
X134047000Y-47096200D02*
X132929800Y-47096200D01*
X132929800Y-47096200D02*
X132528000Y-47498000D01*
D51*
%TO.N,/pwm MC7*%
X61636600Y-86893400D02*
X59807800Y-86893400D01*
X71009200Y-77520800D02*
X61636600Y-86893400D01*
X72609400Y-77520800D02*
X71009200Y-77520800D01*
D46*
%TO.N,/0-10 output1*%
X71644200Y-116967000D02*
X71644200Y-113334800D01*
X65624400Y-122986800D02*
X71644200Y-116967000D01*
X65624400Y-126619000D02*
X65624400Y-122986800D01*
D51*
%TO.N,/pwm MC8*%
X72609400Y-74980800D02*
X70806000Y-74980800D01*
X61433400Y-84353400D02*
X59807800Y-84353400D01*
X70806000Y-74980800D02*
X61433400Y-84353400D01*
D46*
%TO.N,/0-10 output2*%
X79162600Y-109702600D02*
X72380800Y-109702600D01*
X80864400Y-111404400D02*
X79162600Y-109702600D01*
X80864400Y-126619000D02*
X80864400Y-111404400D01*
X72380800Y-109702600D02*
X71568000Y-108889800D01*
X71568000Y-108889800D02*
X71568000Y-105359200D01*
%TO.N,/Input2_withproxy*%
X122698200Y-121361200D02*
X107636000Y-106299000D01*
X122698200Y-126619000D02*
X122698200Y-121361200D01*
X106620000Y-100609400D02*
X104588600Y-100609400D01*
X107636000Y-106299000D02*
X107636000Y-101625400D01*
X107636000Y-101625400D02*
X106620000Y-100609400D01*
X104588600Y-100609400D02*
X104537800Y-100660200D01*
D51*
%TO.N,/Input1*%
X107356600Y-118237000D02*
X95825000Y-106705400D01*
X104487000Y-93522200D02*
X104487000Y-92334600D01*
X95825000Y-106705400D02*
X95825000Y-95072200D01*
X103749800Y-94259400D02*
X104487000Y-93522200D01*
X107356600Y-126619000D02*
X107356600Y-118237000D01*
X95825000Y-95072200D02*
X96637800Y-94259400D01*
X96637800Y-94259400D02*
X103749800Y-94259400D01*
D46*
%TO.N,/RED*%
X87036600Y-105384600D02*
X75505000Y-93853000D01*
X72634800Y-93853000D02*
X65548200Y-100939600D01*
X75505000Y-93853000D02*
X72634800Y-93853000D01*
X51324200Y-84353400D02*
X57267800Y-84353400D01*
X49470000Y-98018600D02*
X49470000Y-86207600D01*
X87036600Y-126619000D02*
X87036600Y-105384600D01*
X49470000Y-86207600D02*
X51324200Y-84353400D01*
X52391000Y-100939600D02*
X49470000Y-98018600D01*
X65548200Y-100939600D02*
X52391000Y-100939600D01*
%TO.N,/BLACK*%
X64760800Y-99187000D02*
X53407000Y-99187000D01*
X92116600Y-126619000D02*
X92192800Y-126542800D01*
X77308400Y-91313000D02*
X72634800Y-91313000D01*
X92243600Y-106248200D02*
X77308400Y-91313000D01*
X51527400Y-97307400D02*
X51527400Y-88138000D01*
X51527400Y-88138000D02*
X52848200Y-86817200D01*
X92192800Y-126542800D02*
X92243600Y-126542800D01*
X92243600Y-126542800D02*
X92243600Y-106248200D01*
X52848200Y-86817200D02*
X54956400Y-86817200D01*
X53407000Y-99187000D02*
X51527400Y-97307400D01*
X55032600Y-86893400D02*
X57267800Y-86893400D01*
X72634800Y-91313000D02*
X64760800Y-99187000D01*
X54956400Y-86817200D02*
X55032600Y-86893400D01*
%TO.N,/WHITE*%
X55820000Y-89433400D02*
X57267800Y-89433400D01*
X72634800Y-88773000D02*
X71237800Y-88773000D01*
X53381600Y-96926400D02*
X53381600Y-91871800D01*
X53381600Y-91871800D02*
X55820000Y-89433400D01*
X53635600Y-97180400D02*
X53381600Y-96926400D01*
X62830400Y-97180400D02*
X53635600Y-97180400D01*
X71237800Y-88773000D02*
X62830400Y-97180400D01*
%TO.N,/GREEN*%
X70780600Y-86233000D02*
X61839800Y-95173800D01*
X61839800Y-95173800D02*
X55921600Y-95173800D01*
X72634800Y-86233000D02*
X70780600Y-86233000D01*
X55921600Y-95173800D02*
X55921600Y-93319600D01*
X55921600Y-93319600D02*
X57267800Y-91973400D01*
%TO.N,Net-(C14-Pad1)*%
X110664000Y-90251600D02*
X112676000Y-88239600D01*
X102160880Y-90251600D02*
X100732440Y-91680040D01*
X100732440Y-91680040D02*
X101387000Y-92334600D01*
X110664000Y-90251600D02*
X102160880Y-90251600D01*
X98111000Y-91680040D02*
X100732440Y-91680040D01*
D54*
%TO.N,Net-(C15-Pad1)*%
X152768000Y-116332000D02*
X152768000Y-115142000D01*
X152768000Y-115142000D02*
X154880000Y-113030000D01*
D46*
%TO.N,Net-(R17-Pad2)*%
X98111000Y-89140040D02*
X100461160Y-89140040D01*
X100461160Y-89140040D02*
X101539400Y-88061800D01*
D54*
%TO.N,Net-(C16-Pad1)*%
X132401000Y-111990600D02*
X132401000Y-115265200D01*
X132401000Y-115265200D02*
X134814000Y-115265200D01*
D46*
%TO.N,Net-(D15-+)*%
X154067200Y-51937523D02*
X154067200Y-50012600D01*
X145360477Y-51937523D02*
X144415200Y-52882800D01*
X159406600Y-44673200D02*
X163062000Y-44673200D01*
X154067200Y-51937523D02*
X145360477Y-51937523D01*
X158325200Y-44673200D02*
X156908200Y-43256200D01*
X163062000Y-44673200D02*
X158325200Y-44673200D01*
X154067200Y-50012600D02*
X159406600Y-44673200D01*
D52*
%TO.N,Net-(D18-K)*%
X153859000Y-80057000D02*
X153859000Y-77440000D01*
D46*
X153859000Y-77440000D02*
X153859000Y-75991200D01*
X153859000Y-75991200D02*
X151731000Y-73863200D01*
D52*
X154066000Y-80264000D02*
X153859000Y-80057000D01*
D46*
%TO.N,Net-(D19-A)*%
X126427000Y-47020000D02*
X126427000Y-50033000D01*
X126427000Y-50033000D02*
X126432000Y-50038000D01*
X126432000Y-50038000D02*
X126432000Y-53135600D01*
X126551200Y-53254800D02*
X126584400Y-53254800D01*
X126432000Y-53135600D02*
X126551200Y-53254800D01*
%TO.N,Net-(D10-A)*%
X104075000Y-47020000D02*
X105604000Y-48549000D01*
X105604000Y-50038000D02*
X104740000Y-50038000D01*
X105604000Y-48549000D02*
X105604000Y-50038000D01*
X105604000Y-50038000D02*
X105604000Y-53086000D01*
X105604000Y-53086000D02*
X105350000Y-53340000D01*
X105298000Y-53288000D02*
X104080000Y-53288000D01*
X105350000Y-53340000D02*
X105298000Y-53288000D01*
%TO.N,Net-(D13-A)*%
X85542600Y-45216600D02*
X86300000Y-45974000D01*
X86300000Y-45974000D02*
X86300000Y-49173200D01*
X85025000Y-45216600D02*
X85542600Y-45216600D01*
X86300000Y-49173200D02*
X84979200Y-50494000D01*
%TO.N,Net-(D14-A)*%
X77408800Y-49784000D02*
X76978200Y-50214600D01*
D49*
X77156000Y-49414600D02*
X76978200Y-49592400D01*
D46*
X78426000Y-46563200D02*
X78426000Y-49784000D01*
X77151000Y-45288200D02*
X78426000Y-46563200D01*
X78426000Y-49784000D02*
X77408800Y-49784000D01*
%TO.N,Net-(D20-A)*%
X119096000Y-47020000D02*
X119828000Y-47752000D01*
X119061000Y-47020000D02*
X119096000Y-47020000D01*
X119828000Y-49530000D02*
X119828000Y-52500600D01*
X119828000Y-49530000D02*
X119320000Y-50038000D01*
X119828000Y-47752000D02*
X119828000Y-49530000D01*
X119828000Y-52500600D02*
X119040600Y-53288000D01*
%TO.N,Net-(D21-A)*%
X112716000Y-53086000D02*
X112522201Y-53279799D01*
X112716000Y-48041000D02*
X112716000Y-53086000D01*
X111695000Y-47020000D02*
X112716000Y-48041000D01*
X112522201Y-53279799D02*
X111446000Y-53279799D01*
%TD*%
M02*
