M48
; DRILL file {KiCad 7.0.2} date Thu Mar  7 12:51:41 2024
; FORMAT={-:-/ absolute / metric / decimal}
; #@! TF.CreationDate,2024-03-07T12:51:41+05:30
; #@! TF.GenerationSoftware,Kicad,Pcbnew,7.0.2
; #@! TF.FileFunction,NonPlated,1,2,NPTH
FMAT,2
METRIC
; #@! TA.AperFunction,NonPlated,NPTH,ComponentDrill
T1C1.800
; #@! TA.AperFunction,NonPlated,NPTH,ComponentDrill
T2C3.500
%
G90
G05
T1
G00X76.114Y-47.452
M15
G01X76.114Y-48.052
M16
G05
G00X83.988Y-47.706
M15
G01X83.988Y-48.306
M16
G05
G00X103.09Y-49.738
M15
G01X103.09Y-50.338
M16
G05
G00X110.456Y-49.738
M15
G01X110.456Y-50.338
M16
G05
G00X117.77Y-49.738
M15
G01X117.77Y-50.338
M16
G05
G00X124.882Y-49.738
M15
G01X124.882Y-50.338
M16
G05
G00X134.814Y-49.738
M15
G01X134.814Y-50.338
M16
G05
G00X155.616Y-79.964
M15
G01X155.616Y-80.564
M16
G05
T2
G00X49.343Y-59.761
M15
G01X49.343Y-62.261
M16
G05
G00X50.359Y-116.936
M15
G01X50.359Y-119.436
M16
G05
G00X218.05Y-117.012
M15
G01X218.05Y-119.512
M16
G05
G00X219.142Y-59.913
M15
G01X219.142Y-62.413
M16
G05
T0
M30
