%TF.GenerationSoftware,KiCad,Pcbnew,7.0.2*%
%TF.CreationDate,2024-03-07T12:51:37+05:30*%
%TF.ProjectId,helix2403,68656c69-7832-4343-9033-2e6b69636164,rev?*%
%TF.SameCoordinates,Original*%
%TF.FileFunction,Paste,Bot*%
%TF.FilePolarity,Positive*%
%FSLAX46Y46*%
G04 Gerber Fmt 4.6, Leading zero omitted, Abs format (unit mm)*
G04 Created by KiCad (PCBNEW 7.0.2) date 2024-03-07 12:51:37*
%MOMM*%
%LPD*%
G01*
G04 APERTURE LIST*
G04 Aperture macros list*
%AMRoundRect*
0 Rectangle with rounded corners*
0 $1 Rounding radius*
0 $2 $3 $4 $5 $6 $7 $8 $9 X,Y pos of 4 corners*
0 Add a 4 corners polygon primitive as box body*
4,1,4,$2,$3,$4,$5,$6,$7,$8,$9,$2,$3,0*
0 Add four circle primitives for the rounded corners*
1,1,$1+$1,$2,$3*
1,1,$1+$1,$4,$5*
1,1,$1+$1,$6,$7*
1,1,$1+$1,$8,$9*
0 Add four rect primitives between the rounded corners*
20,1,$1+$1,$2,$3,$4,$5,0*
20,1,$1+$1,$4,$5,$6,$7,0*
20,1,$1+$1,$6,$7,$8,$9,0*
20,1,$1+$1,$8,$9,$2,$3,0*%
G04 Aperture macros list end*
%ADD10RoundRect,0.250000X0.625000X-0.400000X0.625000X0.400000X-0.625000X0.400000X-0.625000X-0.400000X0*%
%ADD11RoundRect,0.190000X-0.285000X-0.685000X0.285000X-0.685000X0.285000X0.685000X-0.285000X0.685000X0*%
%ADD12RoundRect,0.250000X0.400000X0.625000X-0.400000X0.625000X-0.400000X-0.625000X0.400000X-0.625000X0*%
%ADD13RoundRect,0.249999X-0.450001X-1.425001X0.450001X-1.425001X0.450001X1.425001X-0.450001X1.425001X0*%
%ADD14RoundRect,0.249999X-1.425001X0.450001X-1.425001X-0.450001X1.425001X-0.450001X1.425001X0.450001X0*%
%ADD15RoundRect,0.250000X-0.400000X-0.625000X0.400000X-0.625000X0.400000X0.625000X-0.400000X0.625000X0*%
G04 APERTURE END LIST*
D10*
%TO.C,R13*%
X76978200Y-53314600D03*
X76978200Y-50214600D03*
%TD*%
%TO.C,R15*%
X74311200Y-53314600D03*
X74311200Y-50214600D03*
%TD*%
D11*
%TO.C,D19*%
X123332000Y-50038000D03*
X126432000Y-50038000D03*
%TD*%
D10*
%TO.C,R5*%
X111446000Y-56388000D03*
X111446000Y-53288000D03*
%TD*%
D11*
%TO.C,D20*%
X116220000Y-50038000D03*
X119320000Y-50038000D03*
%TD*%
%TO.C,D8*%
X74564000Y-47752000D03*
X77664000Y-47752000D03*
%TD*%
D10*
%TO.C,R3*%
X126584400Y-56388000D03*
X126584400Y-53288000D03*
%TD*%
D12*
%TO.C,R17*%
X104639400Y-88061800D03*
X101539400Y-88061800D03*
%TD*%
D11*
%TO.C,D18*%
X154066000Y-80264000D03*
X157166000Y-80264000D03*
%TD*%
D12*
%TO.C,R16*%
X104487000Y-92334600D03*
X101387000Y-92334600D03*
%TD*%
D13*
%TO.C,R7*%
X183582000Y-113284000D03*
X189682000Y-113284000D03*
%TD*%
D11*
%TO.C,D16*%
X82438000Y-48006000D03*
X85538000Y-48006000D03*
%TD*%
%TO.C,D22*%
X101540000Y-50038000D03*
X104640000Y-50038000D03*
%TD*%
D10*
%TO.C,R9*%
X82439200Y-53594000D03*
X82439200Y-50494000D03*
%TD*%
D12*
%TO.C,R10*%
X104537800Y-100660200D03*
X101437800Y-100660200D03*
%TD*%
D10*
%TO.C,R1*%
X133848800Y-56388000D03*
X133848800Y-53288000D03*
%TD*%
D11*
%TO.C,D21*%
X108906000Y-50038000D03*
X112006000Y-50038000D03*
%TD*%
D14*
%TO.C,R18*%
X132172400Y-105662000D03*
X132172400Y-111762000D03*
%TD*%
D12*
%TO.C,R12*%
X104487000Y-96322400D03*
X101387000Y-96322400D03*
%TD*%
D10*
%TO.C,R6*%
X104080000Y-56388000D03*
X104080000Y-53288000D03*
%TD*%
%TO.C,R8*%
X84979200Y-53594000D03*
X84979200Y-50494000D03*
%TD*%
D13*
%TO.C,R11*%
X166052000Y-113284000D03*
X172152000Y-113284000D03*
%TD*%
D10*
%TO.C,R4*%
X119040600Y-56388000D03*
X119040600Y-53288000D03*
%TD*%
D15*
%TO.C,R2*%
X148631000Y-73863200D03*
X151731000Y-73863200D03*
%TD*%
D13*
%TO.C,R14*%
X148780000Y-113030000D03*
X154880000Y-113030000D03*
%TD*%
D11*
%TO.C,D17*%
X133264000Y-50038000D03*
X136364000Y-50038000D03*
%TD*%
M02*
