%TF.GenerationSoftware,KiCad,Pcbnew,7.0.2*%
%TF.CreationDate,2024-03-07T12:51:36+05:30*%
%TF.ProjectId,helix2403,68656c69-7832-4343-9033-2e6b69636164,rev?*%
%TF.SameCoordinates,Original*%
%TF.FileFunction,Copper,L1,Top*%
%TF.FilePolarity,Positive*%
%FSLAX46Y46*%
G04 Gerber Fmt 4.6, Leading zero omitted, Abs format (unit mm)*
G04 Created by KiCad (PCBNEW 7.0.2) date 2024-03-07 12:51:36*
%MOMM*%
%LPD*%
G01*
G04 APERTURE LIST*
G04 Aperture macros list*
%AMRoundRect*
0 Rectangle with rounded corners*
0 $1 Rounding radius*
0 $2 $3 $4 $5 $6 $7 $8 $9 X,Y pos of 4 corners*
0 Add a 4 corners polygon primitive as box body*
4,1,4,$2,$3,$4,$5,$6,$7,$8,$9,$2,$3,0*
0 Add four circle primitives for the rounded corners*
1,1,$1+$1,$2,$3*
1,1,$1+$1,$4,$5*
1,1,$1+$1,$6,$7*
1,1,$1+$1,$8,$9*
0 Add four rect primitives between the rounded corners*
20,1,$1+$1,$2,$3,$4,$5,0*
20,1,$1+$1,$4,$5,$6,$7,0*
20,1,$1+$1,$6,$7,$8,$9,0*
20,1,$1+$1,$8,$9,$2,$3,0*%
G04 Aperture macros list end*
%TA.AperFunction,NonConductor*%
%ADD10C,1.600000*%
%TD*%
%TA.AperFunction,NonConductor*%
%ADD11C,1.500000*%
%TD*%
%TA.AperFunction,NonConductor*%
%ADD12C,0.200000*%
%TD*%
%ADD13C,0.500000*%
%TA.AperFunction,ComponentPad*%
%ADD14C,2.000000*%
%TD*%
%TA.AperFunction,ComponentPad*%
%ADD15R,1.600000X1.600000*%
%TD*%
%TA.AperFunction,ComponentPad*%
%ADD16O,1.600000X1.600000*%
%TD*%
%TA.AperFunction,ComponentPad*%
%ADD17R,3.000000X3.000000*%
%TD*%
%TA.AperFunction,ComponentPad*%
%ADD18C,3.000000*%
%TD*%
%TA.AperFunction,ComponentPad*%
%ADD19C,1.600000*%
%TD*%
%TA.AperFunction,ComponentPad*%
%ADD20R,1.700000X1.700000*%
%TD*%
%TA.AperFunction,ComponentPad*%
%ADD21O,1.700000X1.700000*%
%TD*%
%TA.AperFunction,ComponentPad*%
%ADD22R,2.200000X2.200000*%
%TD*%
%TA.AperFunction,ComponentPad*%
%ADD23O,2.200000X2.200000*%
%TD*%
%TA.AperFunction,ComponentPad*%
%ADD24R,2.500000X2.500000*%
%TD*%
%TA.AperFunction,ComponentPad*%
%ADD25C,2.500000*%
%TD*%
%TA.AperFunction,ComponentPad*%
%ADD26R,2.000000X2.000000*%
%TD*%
%TA.AperFunction,WasherPad*%
%ADD27O,5.500000X8.000000*%
%TD*%
%TA.AperFunction,ComponentPad*%
%ADD28R,2.400000X1.600000*%
%TD*%
%TA.AperFunction,ComponentPad*%
%ADD29O,2.400000X1.600000*%
%TD*%
%TA.AperFunction,ComponentPad*%
%ADD30C,2.200000*%
%TD*%
%TA.AperFunction,ComponentPad*%
%ADD31R,1.905000X2.000000*%
%TD*%
%TA.AperFunction,ComponentPad*%
%ADD32O,1.905000X2.000000*%
%TD*%
%TA.AperFunction,ComponentPad*%
%ADD33RoundRect,0.675000X0.675000X-0.675000X0.675000X0.675000X-0.675000X0.675000X-0.675000X-0.675000X0*%
%TD*%
%TA.AperFunction,ComponentPad*%
%ADD34C,2.700000*%
%TD*%
%TA.AperFunction,ComponentPad*%
%ADD35R,1.800000X1.800000*%
%TD*%
%TA.AperFunction,ComponentPad*%
%ADD36C,1.800000*%
%TD*%
%TA.AperFunction,ComponentPad*%
%ADD37R,3.200000X3.200000*%
%TD*%
%TA.AperFunction,ViaPad*%
%ADD38C,1.500000*%
%TD*%
%TA.AperFunction,Conductor*%
%ADD39C,0.750000*%
%TD*%
%TA.AperFunction,Conductor*%
%ADD40C,0.250000*%
%TD*%
%TA.AperFunction,Conductor*%
%ADD41C,0.850000*%
%TD*%
%TA.AperFunction,Conductor*%
%ADD42C,1.000000*%
%TD*%
%TA.AperFunction,Conductor*%
%ADD43C,2.000000*%
%TD*%
%TA.AperFunction,Conductor*%
%ADD44C,1.500000*%
%TD*%
%TA.AperFunction,Conductor*%
%ADD45C,2.500000*%
%TD*%
G04 APERTURE END LIST*
D10*
X190160600Y-76073000D02*
X188712800Y-76073000D01*
D11*
X107255000Y-126746000D02*
X107255000Y-125222000D01*
X76648000Y-128016000D02*
X76648000Y-124460000D01*
D10*
X196078800Y-88569800D02*
X198212400Y-89916000D01*
D12*
X131004000Y-124460000D02*
X134052000Y-124460000D01*
X134052000Y-128778000D01*
X131004000Y-128778000D01*
X131004000Y-124460000D01*
%TA.AperFunction,NonConductor*%
G36*
X131004000Y-124460000D02*
G01*
X134052000Y-124460000D01*
X134052000Y-128778000D01*
X131004000Y-128778000D01*
X131004000Y-124460000D01*
G37*
%TD.AperFunction*%
D11*
X76648000Y-124460000D02*
X74870000Y-124460000D01*
D12*
X146498000Y-124460000D02*
X149546000Y-124460000D01*
X149546000Y-128778000D01*
X146498000Y-128778000D01*
X146498000Y-124460000D01*
%TA.AperFunction,NonConductor*%
G36*
X146498000Y-124460000D02*
G01*
X149546000Y-124460000D01*
X149546000Y-128778000D01*
X146498000Y-128778000D01*
X146498000Y-124460000D01*
G37*
%TD.AperFunction*%
X116018000Y-124460000D02*
X119066000Y-124460000D01*
X119066000Y-128778000D01*
X116018000Y-128778000D01*
X116018000Y-124460000D01*
%TA.AperFunction,NonConductor*%
G36*
X116018000Y-124460000D02*
G01*
X119066000Y-124460000D01*
X119066000Y-128778000D01*
X116018000Y-128778000D01*
X116018000Y-124460000D01*
G37*
%TD.AperFunction*%
D11*
X66234000Y-124460000D02*
X64456000Y-124460000D01*
X86046000Y-128016000D02*
X87824000Y-128016000D01*
X74870000Y-128016000D02*
X76648000Y-128016000D01*
X101286000Y-128016000D02*
X103064000Y-128016000D01*
X106366000Y-124460000D02*
X106366000Y-128016000D01*
D12*
X161992000Y-124460000D02*
X165040000Y-124460000D01*
X165040000Y-128778000D01*
X161992000Y-128778000D01*
X161992000Y-124460000D01*
%TA.AperFunction,NonConductor*%
G36*
X161992000Y-124460000D02*
G01*
X165040000Y-124460000D01*
X165040000Y-128778000D01*
X161992000Y-128778000D01*
X161992000Y-124460000D01*
G37*
%TD.AperFunction*%
X151578000Y-124460000D02*
X154626000Y-124460000D01*
X154626000Y-128778000D01*
X151578000Y-128778000D01*
X151578000Y-124460000D01*
%TA.AperFunction,NonConductor*%
G36*
X151578000Y-124460000D02*
G01*
X154626000Y-124460000D01*
X154626000Y-128778000D01*
X151578000Y-128778000D01*
X151578000Y-124460000D01*
G37*
%TD.AperFunction*%
D11*
X64456000Y-124460000D02*
X64456000Y-128016000D01*
D12*
X182820000Y-124206000D02*
X185868000Y-124206000D01*
X185868000Y-128524000D01*
X182820000Y-128524000D01*
X182820000Y-124206000D01*
%TA.AperFunction,NonConductor*%
G36*
X182820000Y-124206000D02*
G01*
X185868000Y-124206000D01*
X185868000Y-128524000D01*
X182820000Y-128524000D01*
X182820000Y-124206000D01*
G37*
%TD.AperFunction*%
D10*
X195799400Y-81483200D02*
X194046800Y-81432400D01*
D11*
X87824000Y-128016000D02*
X87824000Y-124460000D01*
X86935000Y-126746000D02*
X86935000Y-125222000D01*
D10*
X195977200Y-80670400D02*
X194783400Y-80416400D01*
X196231200Y-77939900D02*
X196231200Y-81368900D01*
X198212400Y-89852500D02*
X198212400Y-91909900D01*
D11*
X92904000Y-128016000D02*
X92904000Y-124460000D01*
X91126000Y-124460000D02*
X91126000Y-128016000D01*
X79950000Y-128016000D02*
X81728000Y-128016000D01*
X97984000Y-128016000D02*
X97984000Y-124460000D01*
D12*
X177994000Y-124206000D02*
X181042000Y-124206000D01*
X181042000Y-128524000D01*
X177994000Y-128524000D01*
X177994000Y-124206000D01*
%TA.AperFunction,NonConductor*%
G36*
X177994000Y-124206000D02*
G01*
X181042000Y-124206000D01*
X181042000Y-128524000D01*
X177994000Y-128524000D01*
X177994000Y-124206000D01*
G37*
%TD.AperFunction*%
D10*
X206200700Y-117424200D02*
X206200700Y-115544600D01*
D12*
X128464000Y-92964000D02*
X131512000Y-92964000D01*
X131512000Y-97282000D01*
X128464000Y-97282000D01*
X128464000Y-92964000D01*
%TA.AperFunction,NonConductor*%
G36*
X128464000Y-92964000D02*
G01*
X131512000Y-92964000D01*
X131512000Y-97282000D01*
X128464000Y-97282000D01*
X128464000Y-92964000D01*
G37*
%TD.AperFunction*%
D11*
X81728000Y-124460000D02*
X79950000Y-124460000D01*
X80839000Y-126746000D02*
X80839000Y-125222000D01*
X70425000Y-126746000D02*
X70425000Y-125222000D01*
D12*
X146498000Y-93218000D02*
X149546000Y-93218000D01*
X149546000Y-97536000D01*
X146498000Y-97536000D01*
X146498000Y-93218000D01*
%TA.AperFunction,NonConductor*%
G36*
X146498000Y-93218000D02*
G01*
X149546000Y-93218000D01*
X149546000Y-97536000D01*
X146498000Y-97536000D01*
X146498000Y-93218000D01*
G37*
%TD.AperFunction*%
D11*
X69536000Y-124460000D02*
X69536000Y-128016000D01*
X87824000Y-124460000D02*
X86046000Y-124460000D01*
D10*
X206289600Y-94716600D02*
X203419400Y-94716600D01*
D11*
X113732000Y-128016000D02*
X113732000Y-124460000D01*
D10*
X188712800Y-76073000D02*
X188712800Y-79984600D01*
D11*
X81728000Y-128016000D02*
X81728000Y-124460000D01*
X103064000Y-128016000D02*
X103064000Y-124460000D01*
D10*
X208753400Y-91719400D02*
X208728000Y-89789000D01*
D11*
X64456000Y-128016000D02*
X66234000Y-128016000D01*
X108144000Y-128016000D02*
X108144000Y-124460000D01*
X97984000Y-124460000D02*
X96206000Y-124460000D01*
D10*
X203419400Y-94716600D02*
X203444800Y-96647000D01*
X203355900Y-117475000D02*
X206200700Y-117424200D01*
D11*
X92015000Y-126746000D02*
X92015000Y-125222000D01*
X112462000Y-126746000D02*
X112462000Y-124968000D01*
X103064000Y-124460000D02*
X101286000Y-124460000D01*
D12*
X126178000Y-124460000D02*
X129226000Y-124460000D01*
X129226000Y-128778000D01*
X126178000Y-128778000D01*
X126178000Y-124460000D01*
%TA.AperFunction,NonConductor*%
G36*
X126178000Y-124460000D02*
G01*
X129226000Y-124460000D01*
X129226000Y-128778000D01*
X126178000Y-128778000D01*
X126178000Y-124460000D01*
G37*
%TD.AperFunction*%
X141418000Y-124460000D02*
X144466000Y-124460000D01*
X144466000Y-128778000D01*
X141418000Y-128778000D01*
X141418000Y-124460000D01*
%TA.AperFunction,NonConductor*%
G36*
X141418000Y-124460000D02*
G01*
X144466000Y-124460000D01*
X144466000Y-128778000D01*
X141418000Y-128778000D01*
X141418000Y-124460000D01*
G37*
%TD.AperFunction*%
X121098000Y-124460000D02*
X124146000Y-124460000D01*
X124146000Y-128778000D01*
X121098000Y-128778000D01*
X121098000Y-124460000D01*
%TA.AperFunction,NonConductor*%
G36*
X121098000Y-124460000D02*
G01*
X124146000Y-124460000D01*
X124146000Y-128778000D01*
X121098000Y-128778000D01*
X121098000Y-124460000D01*
G37*
%TD.AperFunction*%
D11*
X102175000Y-126746000D02*
X102175000Y-125222000D01*
X91126000Y-128016000D02*
X92904000Y-128016000D01*
X113732000Y-124460000D02*
X111954000Y-124460000D01*
X71314000Y-124460000D02*
X69536000Y-124460000D01*
D10*
X194021400Y-77927200D02*
X196231200Y-77939900D01*
X206289600Y-96596200D02*
X206289600Y-94716600D01*
D11*
X108144000Y-124460000D02*
X106366000Y-124460000D01*
X74870000Y-124460000D02*
X74870000Y-128016000D01*
X69536000Y-128016000D02*
X71314000Y-128016000D01*
D10*
X205883200Y-91719400D02*
X208753400Y-91719400D01*
D11*
X65345000Y-126746000D02*
X65345000Y-125222000D01*
D10*
X205883200Y-89839800D02*
X205883200Y-91719400D01*
D11*
X111700000Y-124460000D02*
X111700000Y-128016000D01*
X106366000Y-128016000D02*
X108144000Y-128016000D01*
X117415000Y-126746000D02*
X117415000Y-125222000D01*
X66234000Y-128016000D02*
X66234000Y-124460000D01*
D12*
X116018000Y-124460000D02*
X119066000Y-124460000D01*
X119066000Y-128778000D01*
X116018000Y-128778000D01*
X116018000Y-124460000D01*
%TA.AperFunction,NonConductor*%
G36*
X116018000Y-124460000D02*
G01*
X119066000Y-124460000D01*
X119066000Y-128778000D01*
X116018000Y-128778000D01*
X116018000Y-124460000D01*
G37*
%TD.AperFunction*%
D10*
X206200700Y-115544600D02*
X203330500Y-115544600D01*
X188712800Y-79984600D02*
X190973400Y-79984600D01*
D11*
X92904000Y-124460000D02*
X91126000Y-124460000D01*
X96206000Y-128016000D02*
X97984000Y-128016000D01*
X86046000Y-124460000D02*
X86046000Y-128016000D01*
D10*
X208728000Y-89789000D02*
X205883200Y-89839800D01*
X194046800Y-81432400D02*
X194072200Y-78232000D01*
X203330500Y-115544600D02*
X203355900Y-117475000D01*
D11*
X101286000Y-124460000D02*
X101286000Y-128016000D01*
X71314000Y-128016000D02*
X71314000Y-124460000D01*
D10*
X190973400Y-79984600D02*
X190948000Y-75844400D01*
D11*
X79950000Y-124460000D02*
X79950000Y-128016000D01*
D12*
X166818000Y-124460000D02*
X169866000Y-124460000D01*
X169866000Y-128778000D01*
X166818000Y-128778000D01*
X166818000Y-124460000D01*
%TA.AperFunction,NonConductor*%
G36*
X166818000Y-124460000D02*
G01*
X169866000Y-124460000D01*
X169866000Y-128778000D01*
X166818000Y-128778000D01*
X166818000Y-124460000D01*
G37*
%TD.AperFunction*%
D11*
X75759000Y-126746000D02*
X75759000Y-125222000D01*
D12*
X171898000Y-124460000D02*
X174946000Y-124460000D01*
X174946000Y-128778000D01*
X171898000Y-128778000D01*
X171898000Y-124460000D01*
%TA.AperFunction,NonConductor*%
G36*
X171898000Y-124460000D02*
G01*
X174946000Y-124460000D01*
X174946000Y-128778000D01*
X171898000Y-128778000D01*
X171898000Y-124460000D01*
G37*
%TD.AperFunction*%
D10*
X203444800Y-96647000D02*
X206289600Y-96596200D01*
D12*
X156912000Y-124460000D02*
X159960000Y-124460000D01*
X159960000Y-128778000D01*
X156912000Y-128778000D01*
X156912000Y-124460000D01*
%TA.AperFunction,NonConductor*%
G36*
X156912000Y-124460000D02*
G01*
X159960000Y-124460000D01*
X159960000Y-128778000D01*
X156912000Y-128778000D01*
X156912000Y-124460000D01*
G37*
%TD.AperFunction*%
D11*
X96206000Y-124460000D02*
X96206000Y-128016000D01*
D12*
X163516000Y-92964000D02*
X166564000Y-92964000D01*
X166564000Y-97282000D01*
X163516000Y-97282000D01*
X163516000Y-92964000D01*
%TA.AperFunction,NonConductor*%
G36*
X163516000Y-92964000D02*
G01*
X166564000Y-92964000D01*
X166564000Y-97282000D01*
X163516000Y-97282000D01*
X163516000Y-92964000D01*
G37*
%TD.AperFunction*%
D11*
X111954000Y-128016000D02*
X113732000Y-128016000D01*
X97095000Y-126746000D02*
X97095000Y-125222000D01*
D10*
X198136200Y-91897200D02*
X196637600Y-92862400D01*
D13*
G36*
X219989097Y-90352830D02*
G01*
X220166363Y-90441464D01*
X220228035Y-90503136D01*
X220302547Y-90652160D01*
X220302547Y-90772220D01*
X220228034Y-90921245D01*
X220166362Y-90982917D01*
X219989103Y-91071547D01*
X219569389Y-91176476D01*
X219035706Y-91176476D01*
X218615997Y-91071549D01*
X218438731Y-90982916D01*
X218377059Y-90921244D01*
X218302547Y-90772220D01*
X218302547Y-90652159D01*
X218377058Y-90503136D01*
X218438731Y-90441463D01*
X218615995Y-90352831D01*
X219035704Y-90247905D01*
X219569390Y-90247905D01*
X219989097Y-90352830D01*
G37*
G36*
X222378143Y-111343143D02*
G01*
X216413857Y-111343143D01*
X216413857Y-109677842D01*
X217794645Y-109677842D01*
X217855633Y-109811388D01*
X217979140Y-109890761D01*
X219225145Y-109890761D01*
X219280104Y-109898663D01*
X219297407Y-109890761D01*
X220588491Y-109890761D01*
X220693413Y-109859953D01*
X220789555Y-109748999D01*
X220810449Y-109603680D01*
X220749461Y-109470134D01*
X220625954Y-109390761D01*
X219493023Y-109390761D01*
X219493023Y-108462190D01*
X220588491Y-108462190D01*
X220693413Y-108431382D01*
X220789555Y-108320428D01*
X220810449Y-108175109D01*
X220749461Y-108041563D01*
X220625954Y-107962190D01*
X219260901Y-107962190D01*
X219205942Y-107954288D01*
X219188639Y-107962190D01*
X218016603Y-107962190D01*
X217911681Y-107992998D01*
X217815539Y-108103952D01*
X217794645Y-108249271D01*
X217855633Y-108382817D01*
X217979140Y-108462190D01*
X218993023Y-108462190D01*
X218993023Y-109390761D01*
X218016603Y-109390761D01*
X217911681Y-109421569D01*
X217815539Y-109532523D01*
X217794645Y-109677842D01*
X216413857Y-109677842D01*
X216413857Y-107058794D01*
X217794645Y-107058794D01*
X217817711Y-107109303D01*
X217833355Y-107162579D01*
X217847730Y-107175035D01*
X217855633Y-107192340D01*
X217902348Y-107222362D01*
X217944309Y-107258721D01*
X217963136Y-107261427D01*
X217979140Y-107271713D01*
X218034669Y-107271713D01*
X218089628Y-107279615D01*
X218106931Y-107271713D01*
X219225145Y-107271713D01*
X219280104Y-107279615D01*
X219297407Y-107271713D01*
X220534669Y-107271713D01*
X220589628Y-107279615D01*
X220640137Y-107256548D01*
X220693413Y-107240905D01*
X220705869Y-107226529D01*
X220723174Y-107218627D01*
X220753196Y-107171911D01*
X220789555Y-107129951D01*
X220792261Y-107111123D01*
X220802547Y-107095120D01*
X220802547Y-107039590D01*
X220810449Y-106984632D01*
X220802547Y-106967328D01*
X220802547Y-105795293D01*
X220771739Y-105690371D01*
X220660785Y-105594229D01*
X220515466Y-105573335D01*
X220381920Y-105634323D01*
X220302547Y-105757830D01*
X220302547Y-106771713D01*
X219493023Y-106771713D01*
X219493023Y-106152436D01*
X219462215Y-106047514D01*
X219351261Y-105951372D01*
X219205942Y-105930478D01*
X219072396Y-105991466D01*
X218993023Y-106114973D01*
X218993023Y-106771713D01*
X218302547Y-106771713D01*
X218302547Y-105795293D01*
X218271739Y-105690371D01*
X218160785Y-105594229D01*
X218015466Y-105573335D01*
X217881920Y-105634323D01*
X217802547Y-105757830D01*
X217802547Y-107003835D01*
X217794645Y-107058794D01*
X216413857Y-107058794D01*
X216413857Y-104796889D01*
X217794645Y-104796889D01*
X217855633Y-104930435D01*
X217979140Y-105009808D01*
X220534669Y-105009808D01*
X220589628Y-105017710D01*
X220640137Y-104994643D01*
X220693413Y-104979000D01*
X220705869Y-104964624D01*
X220723174Y-104956722D01*
X220753196Y-104910006D01*
X220789555Y-104868046D01*
X220792261Y-104849218D01*
X220802547Y-104833215D01*
X220802547Y-104777685D01*
X220810449Y-104722727D01*
X220802547Y-104705423D01*
X220802547Y-103533388D01*
X220771739Y-103428466D01*
X220660785Y-103332324D01*
X220515466Y-103311430D01*
X220381920Y-103372418D01*
X220302547Y-103495925D01*
X220302547Y-104509808D01*
X218016603Y-104509808D01*
X217911681Y-104540616D01*
X217815539Y-104651570D01*
X217794645Y-104796889D01*
X216413857Y-104796889D01*
X216413857Y-102773079D01*
X217794645Y-102773079D01*
X217855633Y-102906625D01*
X217979140Y-102985998D01*
X220588491Y-102985998D01*
X220693413Y-102955190D01*
X220789555Y-102844236D01*
X220810449Y-102698917D01*
X220749461Y-102565371D01*
X220625954Y-102485998D01*
X218016603Y-102485998D01*
X217911681Y-102516806D01*
X217815539Y-102627760D01*
X217794645Y-102773079D01*
X216413857Y-102773079D01*
X216413857Y-100149693D01*
X217794058Y-100149693D01*
X217852794Y-100284245D01*
X218851853Y-100950284D01*
X217883965Y-101595544D01*
X217813754Y-101679378D01*
X217795305Y-101825027D01*
X217858528Y-101957530D01*
X217983352Y-102034816D01*
X218130144Y-102032349D01*
X219302546Y-101250747D01*
X220443779Y-102011569D01*
X220548169Y-102044135D01*
X220689710Y-102005146D01*
X220787703Y-101895823D01*
X220811036Y-101750876D01*
X220752300Y-101616324D01*
X219753241Y-100950284D01*
X220721129Y-100305026D01*
X220791340Y-100221191D01*
X220809789Y-100075542D01*
X220746565Y-99943040D01*
X220621742Y-99865753D01*
X220474950Y-99868220D01*
X219302547Y-100649821D01*
X218161315Y-99889000D01*
X218056925Y-99856434D01*
X217915384Y-99895423D01*
X217817391Y-100004746D01*
X217794058Y-100149693D01*
X216413857Y-100149693D01*
X216413857Y-99200514D01*
X219350166Y-99200514D01*
X219380974Y-99305436D01*
X219491928Y-99401578D01*
X219637247Y-99422472D01*
X219770793Y-99361484D01*
X219850166Y-99237977D01*
X219850166Y-97223865D01*
X219819358Y-97118943D01*
X219708404Y-97022801D01*
X219563085Y-97001907D01*
X219429539Y-97062895D01*
X219350166Y-97186402D01*
X219350166Y-99200514D01*
X216413857Y-99200514D01*
X216413857Y-95263967D01*
X217793498Y-95263967D01*
X217802547Y-95285785D01*
X217802547Y-95817780D01*
X217796112Y-95877384D01*
X217818961Y-95923082D01*
X217833355Y-95972103D01*
X217851205Y-95987570D01*
X217933969Y-96153099D01*
X217942911Y-96194201D01*
X217991622Y-96242912D01*
X218038541Y-96293353D01*
X218043271Y-96294562D01*
X218139281Y-96390573D01*
X218235256Y-96442980D01*
X218381695Y-96432506D01*
X218499226Y-96344525D01*
X218550533Y-96206969D01*
X218519326Y-96063511D01*
X218377059Y-95921243D01*
X218302547Y-95772219D01*
X218302547Y-95295016D01*
X218377059Y-95145992D01*
X218438731Y-95084320D01*
X218587755Y-95009809D01*
X218726262Y-95009809D01*
X218988932Y-95097365D01*
X220330651Y-96439086D01*
X220333355Y-96448294D01*
X220382075Y-96490510D01*
X220401186Y-96509621D01*
X220409146Y-96513967D01*
X220444309Y-96544436D01*
X220472322Y-96548463D01*
X220497162Y-96562027D01*
X220543571Y-96558707D01*
X220589628Y-96565330D01*
X220615372Y-96553572D01*
X220643601Y-96551554D01*
X220680846Y-96523671D01*
X220723174Y-96504342D01*
X220738476Y-96480531D01*
X220761131Y-96463572D01*
X220777390Y-96419978D01*
X220802547Y-96380835D01*
X220802547Y-96352534D01*
X220812438Y-96326016D01*
X220802547Y-96280548D01*
X220802547Y-94723865D01*
X220771739Y-94618943D01*
X220660785Y-94522801D01*
X220515466Y-94501907D01*
X220381920Y-94562895D01*
X220302547Y-94686402D01*
X220302547Y-95703874D01*
X219310269Y-94711596D01*
X219272673Y-94664898D01*
X219224199Y-94648740D01*
X219179361Y-94624257D01*
X219155803Y-94625941D01*
X218875626Y-94532550D01*
X218840240Y-94509809D01*
X218771335Y-94509809D01*
X218702510Y-94507320D01*
X218698311Y-94509809D01*
X218542201Y-94509809D01*
X218482593Y-94503373D01*
X218436891Y-94526223D01*
X218387872Y-94540617D01*
X218372405Y-94558466D01*
X218206873Y-94641231D01*
X218165771Y-94650173D01*
X218117058Y-94698885D01*
X218066622Y-94745801D01*
X218065412Y-94750532D01*
X218016980Y-94798964D01*
X217980817Y-94820443D01*
X217950011Y-94882053D01*
X217916995Y-94942520D01*
X217917343Y-94947389D01*
X217834959Y-95112156D01*
X217802547Y-95162592D01*
X217802547Y-95213684D01*
X217793498Y-95263967D01*
X216413857Y-95263967D01*
X216413857Y-93165812D01*
X217677107Y-93165812D01*
X217692734Y-93311791D01*
X217784803Y-93426147D01*
X219593036Y-94028891D01*
X219610976Y-94044436D01*
X219661435Y-94051691D01*
X219674257Y-94055965D01*
X219696843Y-94056782D01*
X219756295Y-94065330D01*
X219769275Y-94059402D01*
X219783537Y-94059918D01*
X219835204Y-94029293D01*
X219889841Y-94004342D01*
X219897556Y-93992335D01*
X219909832Y-93985060D01*
X219936740Y-93931364D01*
X219969214Y-93880835D01*
X219969214Y-93866565D01*
X219975608Y-93853806D01*
X219969214Y-93794080D01*
X219969214Y-92866952D01*
X220588491Y-92866952D01*
X220693413Y-92836144D01*
X220789555Y-92725190D01*
X220810449Y-92579871D01*
X220749461Y-92446325D01*
X220625954Y-92366952D01*
X219969214Y-92366952D01*
X219969214Y-92223865D01*
X219938406Y-92118943D01*
X219827452Y-92022801D01*
X219682133Y-92001907D01*
X219548587Y-92062895D01*
X219469214Y-92186402D01*
X219469214Y-92366952D01*
X218849936Y-92366952D01*
X218745014Y-92397760D01*
X218648872Y-92508714D01*
X218627978Y-92654033D01*
X218688966Y-92787579D01*
X218812473Y-92866952D01*
X219469214Y-92866952D01*
X219469214Y-93460572D01*
X217978457Y-92963653D01*
X217869177Y-92959700D01*
X217742882Y-93034558D01*
X217677107Y-93165812D01*
X216413857Y-93165812D01*
X216413857Y-90621112D01*
X217793499Y-90621112D01*
X217802547Y-90642927D01*
X217802546Y-90817781D01*
X217796112Y-90877385D01*
X217818961Y-90923083D01*
X217833355Y-90972104D01*
X217851205Y-90987571D01*
X217933969Y-91153100D01*
X217942911Y-91194202D01*
X217991622Y-91242913D01*
X218038541Y-91293354D01*
X218043271Y-91294563D01*
X218091701Y-91342993D01*
X218113182Y-91379160D01*
X218174791Y-91409964D01*
X218235256Y-91442981D01*
X218240128Y-91442632D01*
X218377107Y-91511121D01*
X218396889Y-91532160D01*
X218441480Y-91543307D01*
X218449085Y-91547110D01*
X218476220Y-91551992D01*
X218904377Y-91659032D01*
X218931521Y-91676476D01*
X218974153Y-91676476D01*
X218979165Y-91677729D01*
X219009999Y-91676476D01*
X219559024Y-91676476D01*
X219589585Y-91686815D01*
X219630941Y-91676476D01*
X219636110Y-91676476D01*
X219665729Y-91667778D01*
X220093792Y-91560763D01*
X220122503Y-91563863D01*
X220163612Y-91543308D01*
X220171862Y-91541246D01*
X220195650Y-91527289D01*
X220398218Y-91426005D01*
X220439322Y-91417064D01*
X220488037Y-91368348D01*
X220538472Y-91321436D01*
X220539681Y-91316704D01*
X220588114Y-91268272D01*
X220624278Y-91246793D01*
X220655082Y-91185184D01*
X220688099Y-91124718D01*
X220687750Y-91119847D01*
X220770136Y-90955076D01*
X220802547Y-90904645D01*
X220802547Y-90853551D01*
X220811595Y-90803269D01*
X220802547Y-90781453D01*
X220802547Y-90606606D01*
X220808983Y-90546998D01*
X220786132Y-90501296D01*
X220771739Y-90452277D01*
X220753889Y-90436810D01*
X220671124Y-90271278D01*
X220662183Y-90230176D01*
X220613470Y-90181463D01*
X220566555Y-90131027D01*
X220561823Y-90129817D01*
X220513391Y-90081385D01*
X220491913Y-90045222D01*
X220430302Y-90014416D01*
X220369836Y-89981400D01*
X220364966Y-89981748D01*
X220227988Y-89913259D01*
X220208206Y-89892220D01*
X220163614Y-89881072D01*
X220156012Y-89877271D01*
X220128874Y-89872387D01*
X219700715Y-89765348D01*
X219673573Y-89747905D01*
X219630941Y-89747905D01*
X219625929Y-89746652D01*
X219595101Y-89747905D01*
X219046070Y-89747905D01*
X219015509Y-89737566D01*
X218974153Y-89747905D01*
X218968984Y-89747905D01*
X218939366Y-89756601D01*
X218511302Y-89863616D01*
X218482591Y-89860517D01*
X218441479Y-89881072D01*
X218433234Y-89883134D01*
X218409452Y-89897086D01*
X218206873Y-89998375D01*
X218165772Y-90007317D01*
X218117063Y-90056025D01*
X218066622Y-90102946D01*
X218065412Y-90107676D01*
X218016982Y-90156106D01*
X217980817Y-90177587D01*
X217950009Y-90239201D01*
X217916996Y-90299662D01*
X217917344Y-90304532D01*
X217834961Y-90469297D01*
X217802547Y-90519736D01*
X217802547Y-90570831D01*
X217793499Y-90621112D01*
X216413857Y-90621112D01*
X216413857Y-87615694D01*
X217791995Y-87615694D01*
X217802547Y-87652283D01*
X217802547Y-89200516D01*
X217833355Y-89305438D01*
X217944309Y-89401580D01*
X218089628Y-89422474D01*
X218223174Y-89361486D01*
X218302547Y-89237979D01*
X218302547Y-88167894D01*
X218785551Y-88590523D01*
X218785736Y-88591152D01*
X218840696Y-88638775D01*
X218867352Y-88662099D01*
X218867912Y-88662358D01*
X218896690Y-88687294D01*
X218933160Y-88692537D01*
X218966601Y-88708005D01*
X219004315Y-88702768D01*
X219042009Y-88708188D01*
X219075527Y-88692880D01*
X219112019Y-88687814D01*
X219140914Y-88663019D01*
X219175555Y-88647200D01*
X219195476Y-88616200D01*
X219223437Y-88592209D01*
X219234340Y-88555727D01*
X219254928Y-88523693D01*
X219254928Y-88486846D01*
X219265479Y-88451545D01*
X219254928Y-88414958D01*
X219254928Y-88152160D01*
X219329440Y-88003136D01*
X219391112Y-87941464D01*
X219540136Y-87866953D01*
X220017341Y-87866953D01*
X220166362Y-87941464D01*
X220228037Y-88003139D01*
X220302547Y-88152158D01*
X220302547Y-88748411D01*
X220228034Y-88897436D01*
X220112259Y-89013212D01*
X220059853Y-89109187D01*
X220070326Y-89255626D01*
X220158308Y-89373156D01*
X220295864Y-89424463D01*
X220439322Y-89393255D01*
X220588114Y-89244463D01*
X220624278Y-89222984D01*
X220655082Y-89161375D01*
X220688099Y-89100909D01*
X220687750Y-89096038D01*
X220770136Y-88931267D01*
X220802547Y-88880836D01*
X220802547Y-88829742D01*
X220811595Y-88779460D01*
X220802547Y-88757644D01*
X220802547Y-88106600D01*
X220808982Y-88046997D01*
X220786133Y-88001299D01*
X220771739Y-87952277D01*
X220753888Y-87936809D01*
X220671124Y-87771281D01*
X220662183Y-87730178D01*
X220613465Y-87681460D01*
X220566554Y-87631028D01*
X220561823Y-87629818D01*
X220513393Y-87581388D01*
X220491912Y-87545221D01*
X220430278Y-87514404D01*
X220369837Y-87481401D01*
X220364968Y-87481749D01*
X220200194Y-87399362D01*
X220149764Y-87366953D01*
X220098671Y-87366953D01*
X220048388Y-87357905D01*
X220026572Y-87366953D01*
X219494582Y-87366953D01*
X219434974Y-87360517D01*
X219389272Y-87383367D01*
X219340253Y-87397761D01*
X219324786Y-87415610D01*
X219159254Y-87498375D01*
X219118152Y-87507317D01*
X219069439Y-87556029D01*
X219019003Y-87602945D01*
X219017793Y-87607676D01*
X218969361Y-87656108D01*
X218933198Y-87677587D01*
X218902392Y-87739197D01*
X218869376Y-87799664D01*
X218869724Y-87804533D01*
X218801808Y-87940364D01*
X218271923Y-87476716D01*
X218271739Y-87476087D01*
X218216678Y-87428376D01*
X218190122Y-87405140D01*
X218189563Y-87404881D01*
X218160785Y-87379945D01*
X218124314Y-87374701D01*
X218090873Y-87359233D01*
X218053156Y-87364470D01*
X218015466Y-87359051D01*
X217981948Y-87374357D01*
X217945455Y-87379425D01*
X217916559Y-87404219D01*
X217881920Y-87420039D01*
X217861998Y-87451037D01*
X217834038Y-87475030D01*
X217823133Y-87511512D01*
X217802547Y-87543546D01*
X217802547Y-87580389D01*
X217791995Y-87615694D01*
X216413857Y-87615694D01*
X216413857Y-85283620D01*
X222378143Y-85283620D01*
X222378143Y-111343143D01*
G37*
D14*
%TO.P,C13,1*%
%TO.N,Net-(C13-Pad1)*%
X170294000Y-116332000D03*
%TO.P,C13,2*%
%TO.N,/NO2*%
X160294000Y-116332000D03*
%TD*%
D15*
%TO.P,U3,1*%
%TO.N,/VCC1 5V*%
X90561800Y-67599760D03*
D16*
%TO.P,U3,2*%
%TO.N,/mc4*%
X90561800Y-70139760D03*
%TO.P,U3,3*%
%TO.N,Net-(U4-I3)*%
X98181800Y-70139760D03*
%TO.P,U3,4*%
%TO.N,/VCC2 12V*%
X98181800Y-67599760D03*
%TD*%
D17*
%TO.P,K4,11*%
%TO.N,/C4*%
X129982400Y-94410400D03*
D18*
%TO.P,K4,12*%
%TO.N,/NC4*%
X135982400Y-108610400D03*
%TO.P,K4,14*%
%TO.N,/NO4*%
X123982400Y-108610400D03*
%TO.P,K4,A1*%
%TO.N,/RL4*%
X123982400Y-96410400D03*
%TO.P,K4,A2*%
%TO.N,/VCC2 12V*%
X135982400Y-96410400D03*
%TD*%
D19*
%TO.P,C9,1*%
%TO.N,/VCC2 12V*%
X151532400Y-87542600D03*
%TO.P,C9,2*%
%TO.N,/RL3*%
X146532400Y-87542600D03*
%TD*%
D20*
%TO.P,J9,1,Pin_1*%
%TO.N,GND1*%
X72609400Y-59740800D03*
D21*
%TO.P,J9,2,Pin_2*%
%TO.N,/VCC1 5V*%
X72609400Y-62280800D03*
%TO.P,J9,3,Pin_3*%
%TO.N,/mc3*%
X72609400Y-64820800D03*
%TO.P,J9,4,Pin_4*%
%TO.N,/mc4*%
X72609400Y-67360800D03*
%TO.P,J9,5,Pin_5*%
%TO.N,/mc5*%
X72609400Y-69900800D03*
%TO.P,J9,6,Pin_6*%
%TO.N,/mc6*%
X72609400Y-72440800D03*
%TO.P,J9,7,Pin_7*%
%TO.N,/pwm MC8*%
X72609400Y-74980800D03*
%TO.P,J9,8,Pin_8*%
%TO.N,/pwm MC7*%
X72609400Y-77520800D03*
%TO.P,J9,9,Pin_9*%
%TO.N,/mc1*%
X72609400Y-80060800D03*
%TO.P,J9,10,Pin_10*%
%TO.N,/mc2*%
X72609400Y-82600800D03*
%TD*%
D22*
%TO.P,D12,1,K*%
%TO.N,/RL4*%
X124586400Y-90855800D03*
D23*
%TO.P,D12,2,A*%
%TO.N,/VCC2 12V*%
X134746400Y-90855800D03*
%TD*%
D19*
%TO.P,C4,1*%
%TO.N,/VCC2 12V*%
X184841200Y-88163400D03*
%TO.P,C4,2*%
%TO.N,/RL1*%
X179841200Y-88163400D03*
%TD*%
D24*
%TO.P,J1,1,Pin_1*%
%TO.N,/Nutral*%
X179365600Y-126619000D03*
D25*
%TO.P,J1,2,Pin_2*%
%TO.N,/Line*%
X184445600Y-126619000D03*
%TD*%
D19*
%TO.P,C12,1*%
%TO.N,Net-(C12-Pad1)*%
X112817600Y-96647000D03*
%TO.P,C12,2*%
%TO.N,GND2*%
X107817600Y-96647000D03*
%TD*%
D26*
%TO.P,C2,1*%
%TO.N,Net-(D15-+)*%
X154067200Y-51937523D03*
D14*
%TO.P,C2,2*%
%TO.N,GND1*%
X154067200Y-56937523D03*
%TD*%
D22*
%TO.P,D11,1,K*%
%TO.N,/RL3*%
X143277800Y-90990800D03*
D23*
%TO.P,D11,2,A*%
%TO.N,/VCC2 12V*%
X153437800Y-90990800D03*
%TD*%
D22*
%TO.P,D6,1,K*%
%TO.N,/RL2*%
X158258200Y-91010200D03*
D23*
%TO.P,D6,2,A*%
%TO.N,/VCC2 12V*%
X168418200Y-91010200D03*
%TD*%
D15*
%TO.P,U7,1*%
%TO.N,Net-(C12-Pad1)*%
X98111000Y-98856800D03*
D16*
%TO.P,U7,2*%
%TO.N,Net-(R12-Pad2)*%
X98111000Y-96316800D03*
%TO.P,U7,3*%
%TO.N,GND1*%
X90491000Y-96316800D03*
%TO.P,U7,4*%
%TO.N,/mc2*%
X90491000Y-98856800D03*
%TD*%
D19*
%TO.P,C8,1*%
%TO.N,/VCC2 12V*%
X145685200Y-65292600D03*
%TO.P,C8,2*%
%TO.N,GND2*%
X145685200Y-70292600D03*
%TD*%
D15*
%TO.P,U6,1*%
%TO.N,/VCC1 5V*%
X90561800Y-81953280D03*
D16*
%TO.P,U6,2*%
%TO.N,/mc6*%
X90561800Y-84493280D03*
%TO.P,U6,3*%
%TO.N,Net-(U4-I7)*%
X98181800Y-84493280D03*
%TO.P,U6,4*%
%TO.N,/VCC2 12V*%
X98181800Y-81953280D03*
%TD*%
D14*
%TO.P,C16,1*%
%TO.N,Net-(C16-Pad1)*%
X134814000Y-116332000D03*
%TO.P,C16,2*%
%TO.N,/NO4*%
X124814000Y-116332000D03*
%TD*%
D27*
%TO.P,REF\u002A\u002A,*%
%TO.N,*%
X219142000Y-61163200D03*
%TD*%
D22*
%TO.P,D4,1,K*%
%TO.N,/RL1*%
X176448400Y-91516200D03*
D23*
%TO.P,D4,2,A*%
%TO.N,/VCC2 12V*%
X186608400Y-91516200D03*
%TD*%
D17*
%TO.P,K1,11*%
%TO.N,/C1*%
X182499200Y-95070800D03*
D18*
%TO.P,K1,12*%
%TO.N,/NC1*%
X188499200Y-109270800D03*
%TO.P,K1,14*%
%TO.N,/NO1*%
X176499200Y-109270800D03*
%TO.P,K1,A1*%
%TO.N,/RL1*%
X176499200Y-97070800D03*
%TO.P,K1,A2*%
%TO.N,/VCC2 12V*%
X188499200Y-97070800D03*
%TD*%
D17*
%TO.P,C5,1*%
%TO.N,/Nutral*%
X207251000Y-90703400D03*
%TO.P,C5,2*%
%TO.N,/Line*%
X197251000Y-90703400D03*
%TD*%
D15*
%TO.P,U2,1*%
%TO.N,/VCC1 5V*%
X90561800Y-60423000D03*
D16*
%TO.P,U2,2*%
%TO.N,/mc3*%
X90561800Y-62963000D03*
%TO.P,U2,3*%
%TO.N,Net-(U4-I1)*%
X98181800Y-62963000D03*
%TO.P,U2,4*%
%TO.N,/VCC2 12V*%
X98181800Y-60423000D03*
%TD*%
D19*
%TO.P,C10,1*%
%TO.N,/VCC2 12V*%
X132414800Y-87553800D03*
%TO.P,C10,2*%
%TO.N,/RL4*%
X127414800Y-87553800D03*
%TD*%
%TO.P,C6,1*%
%TO.N,/VCC2 12V*%
X163196600Y-87632000D03*
%TO.P,C6,2*%
%TO.N,/RL2*%
X158196600Y-87632000D03*
%TD*%
D26*
%TO.P,C7,1*%
%TO.N,/VCC2 12V*%
X154041800Y-65221723D03*
D14*
%TO.P,C7,2*%
%TO.N,GND2*%
X154041800Y-70221723D03*
%TD*%
D20*
%TO.P,J10,1,Pin_1*%
%TO.N,/GREEN*%
X72634800Y-86233000D03*
D21*
%TO.P,J10,2,Pin_2*%
%TO.N,/WHITE*%
X72634800Y-88773000D03*
%TO.P,J10,3,Pin_3*%
%TO.N,/BLACK*%
X72634800Y-91313000D03*
%TO.P,J10,4,Pin_4*%
%TO.N,/RED*%
X72634800Y-93853000D03*
%TD*%
D19*
%TO.P,C3,1*%
%TO.N,Net-(D15-+)*%
X156908200Y-43256200D03*
%TO.P,C3,2*%
%TO.N,GND1*%
X151908200Y-43256200D03*
%TD*%
D15*
%TO.P,U5,1*%
%TO.N,/VCC1 5V*%
X90561800Y-74776520D03*
D16*
%TO.P,U5,2*%
%TO.N,/mc5*%
X90561800Y-77316520D03*
%TO.P,U5,3*%
%TO.N,Net-(U4-I5)*%
X98181800Y-77316520D03*
%TO.P,U5,4*%
%TO.N,/VCC2 12V*%
X98181800Y-74776520D03*
%TD*%
D24*
%TO.P,J2,1,Pin_1*%
%TO.N,/NO3*%
X148098200Y-126619000D03*
D25*
%TO.P,J2,2,Pin_2*%
%TO.N,/C3*%
X153178200Y-126619000D03*
%TO.P,J2,3,Pin_3*%
%TO.N,/NO2*%
X158258200Y-126619000D03*
%TO.P,J2,4,Pin_4*%
%TO.N,/C2*%
X163338200Y-126619000D03*
%TO.P,J2,5,Pin_5*%
%TO.N,/NO1*%
X168418200Y-126619000D03*
%TO.P,J2,6,Pin_6*%
%TO.N,/C1*%
X173498200Y-126619000D03*
%TD*%
D28*
%TO.P,U4,1,I1*%
%TO.N,Net-(U4-I1)*%
X104191600Y-60462000D03*
D29*
%TO.P,U4,2,I2*%
X104191600Y-63002000D03*
%TO.P,U4,3,I3*%
%TO.N,Net-(U4-I3)*%
X104191600Y-65542000D03*
%TO.P,U4,4,I4*%
X104191600Y-68082000D03*
%TO.P,U4,5,I5*%
%TO.N,Net-(U4-I5)*%
X104191600Y-70622000D03*
%TO.P,U4,6,I6*%
X104191600Y-73162000D03*
%TO.P,U4,7,I7*%
%TO.N,Net-(U4-I7)*%
X104191600Y-75702000D03*
%TO.P,U4,8,I8*%
X104191600Y-78242000D03*
%TO.P,U4,9,GND*%
%TO.N,GND2*%
X104191600Y-80782000D03*
%TO.P,U4,10,COM*%
%TO.N,/VCC2 12V*%
X111811600Y-80782000D03*
%TO.P,U4,11,O8*%
%TO.N,/RL4*%
X111811600Y-78242000D03*
%TO.P,U4,12,O7*%
X111811600Y-75702000D03*
%TO.P,U4,13,O6*%
%TO.N,/RL3*%
X111811600Y-73162000D03*
%TO.P,U4,14,O5*%
X111811600Y-70622000D03*
%TO.P,U4,15,O4*%
%TO.N,/RL2*%
X111811600Y-68082000D03*
%TO.P,U4,16,O3*%
X111811600Y-65542000D03*
%TO.P,U4,17,O2*%
%TO.N,/RL1*%
X111811600Y-63002000D03*
%TO.P,U4,18,O1*%
X111811600Y-60462000D03*
%TD*%
D24*
%TO.P,J4,1,Pin_1*%
%TO.N,/RED*%
X87036600Y-126619000D03*
D25*
%TO.P,J4,2,Pin_2*%
%TO.N,/BLACK*%
X92116600Y-126619000D03*
%TO.P,J4,3,Pin_3*%
%TO.N,/WHITE*%
X97196600Y-126619000D03*
%TO.P,J4,4,Pin_4*%
%TO.N,/GREEN*%
X102276600Y-126619000D03*
%TO.P,J4,5,Pin_5*%
%TO.N,/Input1*%
X107356600Y-126619000D03*
%TO.P,J4,6,Pin_6*%
%TO.N,/VCC2 12V*%
X112436600Y-126619000D03*
%TD*%
D19*
%TO.P,C14,1*%
%TO.N,Net-(C14-Pad1)*%
X112676000Y-88239600D03*
%TO.P,C14,2*%
%TO.N,GND2*%
X107676000Y-88239600D03*
%TD*%
D22*
%TO.P,D2,1,+*%
%TO.N,/VCC2 12V*%
X163008000Y-64516000D03*
D30*
%TO.P,D2,2*%
%TO.N,Net-(T1-SD)*%
X163008000Y-68366000D03*
%TO.P,D2,3*%
%TO.N,Net-(T1-SC)*%
X163008000Y-72216000D03*
%TO.P,D2,4,-*%
%TO.N,GND2*%
X163008000Y-76066000D03*
%TD*%
D14*
%TO.P,C15,1*%
%TO.N,Net-(C15-Pad1)*%
X152768000Y-116332000D03*
%TO.P,C15,2*%
%TO.N,/NO3*%
X142768000Y-116332000D03*
%TD*%
D15*
%TO.P,RN1,1,common*%
%TO.N,/VCC1 5V*%
X83465200Y-59395200D03*
D16*
%TO.P,RN1,2,R1*%
X83465200Y-61935200D03*
%TO.P,RN1,3,R2*%
%TO.N,/mc3*%
X83465200Y-64475200D03*
%TO.P,RN1,4,R3*%
%TO.N,/VCC1 5V*%
X83465200Y-67015200D03*
%TO.P,RN1,5,R4*%
%TO.N,/mc4*%
X83465200Y-69555200D03*
%TO.P,RN1,6,R5*%
%TO.N,/VCC1 5V*%
X83465200Y-72095200D03*
%TO.P,RN1,7,R6*%
%TO.N,/mc5*%
X83465200Y-74635200D03*
%TO.P,RN1,8,R7*%
%TO.N,/VCC1 5V*%
X83465200Y-77175200D03*
%TO.P,RN1,9,R8*%
%TO.N,/mc6*%
X83465200Y-79715200D03*
%TO.P,RN1,10,R9*%
%TO.N,unconnected-(RN1-R9-Pad10)*%
X83465200Y-82255200D03*
%TD*%
D15*
%TO.P,C1,1*%
%TO.N,/VCC1 5V*%
X141551175Y-45593000D03*
D19*
%TO.P,C1,2*%
%TO.N,GND1*%
X144051175Y-45593000D03*
%TD*%
D24*
%TO.P,J5,1,Pin_1*%
%TO.N,/0-10 output1*%
X65624400Y-126619000D03*
D25*
%TO.P,J5,2,Pin_2*%
%TO.N,GND2*%
X70704400Y-126619000D03*
%TO.P,J5,3,Pin_3*%
X75784400Y-126619000D03*
%TO.P,J5,4,Pin_4*%
%TO.N,/0-10 output2*%
X80864400Y-126619000D03*
%TD*%
D15*
%TO.P,U8,1*%
%TO.N,Net-(C14-Pad1)*%
X98111000Y-91680040D03*
D16*
%TO.P,U8,2*%
%TO.N,Net-(R17-Pad2)*%
X98111000Y-89140040D03*
%TO.P,U8,3*%
%TO.N,GND1*%
X90491000Y-89140040D03*
%TO.P,U8,4*%
%TO.N,/mc1*%
X90491000Y-91680040D03*
%TD*%
D27*
%TO.P,REF\u002A\u002A,*%
%TO.N,*%
X50359000Y-118186200D03*
%TD*%
%TO.P,REF\u002A\u002A,*%
%TO.N,*%
X218049800Y-118262400D03*
%TD*%
D17*
%TO.P,K2,11*%
%TO.N,/C2*%
X165130932Y-94415600D03*
D18*
%TO.P,K2,12*%
%TO.N,/NC2*%
X171130932Y-108615600D03*
%TO.P,K2,14*%
%TO.N,/NO2*%
X159130932Y-108615600D03*
%TO.P,K2,A1*%
%TO.N,/RL2*%
X159130932Y-96415600D03*
%TO.P,K2,A2*%
%TO.N,/VCC2 12V*%
X171130932Y-96415600D03*
%TD*%
D22*
%TO.P,D15,1,+*%
%TO.N,Net-(D15-+)*%
X163008000Y-44076000D03*
D30*
%TO.P,D15,2*%
%TO.N,Net-(T1-SB)*%
X163008000Y-47926000D03*
%TO.P,D15,3*%
%TO.N,Net-(T1-SA)*%
X163008000Y-51776000D03*
%TO.P,D15,4,-*%
%TO.N,GND1*%
X163008000Y-55626000D03*
%TD*%
D27*
%TO.P,REF\u002A\u002A,*%
%TO.N,*%
X49343000Y-61010800D03*
%TD*%
D24*
%TO.P,J3,1,Pin_1*%
%TO.N,/VCC2 12V*%
X117618200Y-126619000D03*
D25*
%TO.P,J3,2,Pin_2*%
%TO.N,unconnected-(J3-Pin_2-Pad2)*%
X122698200Y-126619000D03*
%TO.P,J3,3,Pin_3*%
%TO.N,GND2*%
X127778200Y-126619000D03*
%TO.P,J3,4,Pin_4*%
%TO.N,/NO4*%
X132858200Y-126619000D03*
%TO.P,J3,5,Pin_5*%
%TO.N,/C4*%
X137938200Y-126619000D03*
%TO.P,J3,6,Pin_6*%
%TO.N,/NC4*%
X143018200Y-126619000D03*
%TD*%
D14*
%TO.P,C11,1*%
%TO.N,Net-(C11-Pad1)*%
X187486000Y-116332000D03*
%TO.P,C11,2*%
%TO.N,/NO1*%
X177486000Y-116332000D03*
%TD*%
D31*
%TO.P,U1,1,VI*%
%TO.N,Net-(D15-+)*%
X144415200Y-52882800D03*
D32*
%TO.P,U1,2,GND*%
%TO.N,GND1*%
X141875200Y-52882800D03*
%TO.P,U1,3,VO*%
%TO.N,/VCC1 5V*%
X139335200Y-52882800D03*
%TD*%
D33*
%TO.P,F2,1*%
%TO.N,/Nutral*%
X204714800Y-116503600D03*
X204714800Y-109743600D03*
D34*
%TO.P,F2,2*%
X204714800Y-102463600D03*
X204714800Y-95703600D03*
%TD*%
D20*
%TO.P,J7,1,Pin_1*%
%TO.N,/pwm MC8*%
X76648000Y-105359200D03*
D21*
%TO.P,J7,2,Pin_2*%
%TO.N,/VCC1 5V*%
X74108000Y-105359200D03*
%TO.P,J7,3,Pin_3*%
%TO.N,/0-10 output2*%
X71568000Y-105359200D03*
%TO.P,J7,4,Pin_4*%
%TO.N,GND2*%
X69028000Y-105359200D03*
%TO.P,J7,5,Pin_5*%
X66488000Y-105359200D03*
%TO.P,J7,6,Pin_6*%
%TO.N,/VCC2 12V*%
X63948000Y-105359200D03*
%TD*%
D17*
%TO.P,K3,11*%
%TO.N,/C3*%
X147915066Y-94545400D03*
D18*
%TO.P,K3,12*%
%TO.N,/NC3*%
X153915066Y-108745400D03*
%TO.P,K3,14*%
%TO.N,/NO3*%
X141915066Y-108745400D03*
%TO.P,K3,A1*%
%TO.N,/RL3*%
X141915066Y-96545400D03*
%TO.P,K3,A2*%
%TO.N,/VCC2 12V*%
X153915066Y-96545400D03*
%TD*%
D35*
%TO.P,D3,1,K*%
%TO.N,Net-(D18-K)*%
X153859000Y-77440000D03*
D36*
%TO.P,D3,2,A*%
%TO.N,GND2*%
X156399000Y-77440000D03*
%TD*%
D20*
%TO.P,J6,1,Pin_1*%
%TO.N,/pwm MC7*%
X76724200Y-113334800D03*
D21*
%TO.P,J6,2,Pin_2*%
%TO.N,/VCC1 5V*%
X74184200Y-113334800D03*
%TO.P,J6,3,Pin_3*%
%TO.N,/0-10 output1*%
X71644200Y-113334800D03*
%TO.P,J6,4,Pin_4*%
%TO.N,GND2*%
X69104200Y-113334800D03*
%TO.P,J6,5,Pin_5*%
X66564200Y-113334800D03*
%TO.P,J6,6,Pin_6*%
%TO.N,/VCC2 12V*%
X64024200Y-113334800D03*
%TD*%
D20*
%TO.P,J8,1,Pin_1*%
%TO.N,/VCC1 5V*%
X59807800Y-76733400D03*
D21*
%TO.P,J8,2,Pin_2*%
%TO.N,GND1*%
X57267800Y-76733400D03*
%TO.P,J8,3,Pin_3*%
%TO.N,/mc5*%
X59807800Y-79273400D03*
%TO.P,J8,4,Pin_4*%
%TO.N,/mc4*%
X57267800Y-79273400D03*
%TO.P,J8,5,Pin_5*%
%TO.N,/mc6*%
X59807800Y-81813400D03*
%TO.P,J8,6,Pin_6*%
%TO.N,/mc3*%
X57267800Y-81813400D03*
%TO.P,J8,7,Pin_7*%
%TO.N,/pwm MC8*%
X59807800Y-84353400D03*
%TO.P,J8,8,Pin_8*%
%TO.N,/RED*%
X57267800Y-84353400D03*
%TO.P,J8,9,Pin_9*%
%TO.N,/pwm MC7*%
X59807800Y-86893400D03*
%TO.P,J8,10,Pin_10*%
%TO.N,/BLACK*%
X57267800Y-86893400D03*
%TO.P,J8,11,Pin_11*%
%TO.N,/mc1*%
X59807800Y-89433400D03*
%TO.P,J8,12,Pin_12*%
%TO.N,/WHITE*%
X57267800Y-89433400D03*
%TO.P,J8,13,Pin_13*%
%TO.N,/mc2*%
X59807800Y-91973400D03*
%TO.P,J8,14,Pin_14*%
%TO.N,/GREEN*%
X57267800Y-91973400D03*
%TD*%
D37*
%TO.P,T1,1*%
%TO.N,N/C*%
X199994200Y-78935000D03*
X204994200Y-78935000D03*
%TO.P,T1,2*%
X199994200Y-78935000D03*
%TO.P,T1,3,AA*%
%TO.N,/Line*%
X194994200Y-78935000D03*
%TO.P,T1,4,AB*%
%TO.N,/Nutral*%
X189994200Y-78935000D03*
%TO.P,T1,5*%
%TO.N,N/C*%
X184994200Y-78935000D03*
%TO.P,T1,6*%
X179944200Y-78935000D03*
%TO.P,T1,7,SA*%
%TO.N,Net-(T1-SA)*%
X179994200Y-51435000D03*
%TO.P,T1,8,SB*%
%TO.N,Net-(T1-SB)*%
X184994200Y-51435000D03*
%TO.P,T1,9*%
%TO.N,N/C*%
X189994200Y-51435000D03*
%TO.P,T1,10*%
X194994200Y-51435000D03*
%TO.P,T1,11,SD*%
%TO.N,Net-(T1-SD)*%
X199994200Y-51435000D03*
%TO.P,T1,12,SC*%
%TO.N,Net-(T1-SC)*%
X204994200Y-51435000D03*
%TD*%
D35*
%TO.P,D5,1,K*%
%TO.N,/VCC2 12V*%
X123887000Y-47020000D03*
D36*
%TO.P,D5,2,A*%
%TO.N,Net-(D19-A)*%
X126427000Y-47020000D03*
%TD*%
D35*
%TO.P,D10,1,K*%
%TO.N,/VCC2 12V*%
X101535000Y-47020000D03*
D36*
%TO.P,D10,2,A*%
%TO.N,Net-(D10-A)*%
X104075000Y-47020000D03*
%TD*%
D35*
%TO.P,D1,1,K*%
%TO.N,Net-(D1-K)*%
X134047000Y-47096200D03*
D36*
%TO.P,D1,2,A*%
%TO.N,GND1*%
X136587000Y-47096200D03*
%TD*%
D35*
%TO.P,D9,1,K*%
%TO.N,/VCC2 12V*%
X109155000Y-47020000D03*
D36*
%TO.P,D9,2,A*%
%TO.N,Net-(D21-A)*%
X111695000Y-47020000D03*
%TD*%
D35*
%TO.P,D13,1,K*%
%TO.N,/VCC1 5V*%
X82485000Y-45216600D03*
D36*
%TO.P,D13,2,A*%
%TO.N,Net-(D13-A)*%
X85025000Y-45216600D03*
%TD*%
D35*
%TO.P,D14,1,K*%
%TO.N,/VCC1 5V*%
X74611000Y-45288200D03*
D36*
%TO.P,D14,2,A*%
%TO.N,Net-(D14-A)*%
X77151000Y-45288200D03*
%TD*%
D35*
%TO.P,D7,1,K*%
%TO.N,/VCC2 12V*%
X116521000Y-47020000D03*
D36*
%TO.P,D7,2,A*%
%TO.N,Net-(D20-A)*%
X119061000Y-47020000D03*
%TD*%
D38*
%TO.N,/mc2*%
X82312200Y-55372000D03*
%TO.N,/mc1*%
X76952800Y-55626000D03*
%TD*%
D39*
%TO.N,/VCC1 5V*%
X49038200Y-96926400D02*
X49038200Y-72694800D01*
D40*
X74184200Y-105435400D02*
X74108000Y-105359200D01*
D41*
X74184200Y-113334800D02*
X74184200Y-107391200D01*
X74184200Y-107391200D02*
X74184200Y-105435400D01*
D39*
X59452200Y-62280800D02*
X72609400Y-62280800D01*
X49038200Y-72694800D02*
X59452200Y-62280800D01*
X74184200Y-107391200D02*
X72634800Y-108940600D01*
X61052400Y-108940600D02*
X49038200Y-96926400D01*
X72634800Y-108940600D02*
X61052400Y-108940600D01*
D42*
%TO.N,GND1*%
X136592000Y-43129200D02*
X136587000Y-43134200D01*
X86909600Y-95148400D02*
X86909600Y-89738200D01*
X70704400Y-58267600D02*
X72177600Y-59740800D01*
X136587000Y-43134200D02*
X136587000Y-47096200D01*
X88001800Y-89140040D02*
X90491000Y-89140040D01*
X71542600Y-43129200D02*
X70704400Y-43967400D01*
X151908200Y-43256200D02*
X151908200Y-43230800D01*
X151806600Y-43129200D02*
X136592000Y-43129200D01*
X136592000Y-43129200D02*
X91634000Y-43129200D01*
X70704400Y-43967400D02*
X70704400Y-58267600D01*
X86909600Y-89738200D02*
X87507760Y-89140040D01*
X88078000Y-96316800D02*
X86909600Y-95148400D01*
X151908200Y-43230800D02*
X151806600Y-43129200D01*
X72177600Y-59740800D02*
X72609400Y-59740800D01*
X87507760Y-89140040D02*
X88001800Y-89140040D01*
X90491000Y-96316800D02*
X88078000Y-96316800D01*
X86909600Y-56159400D02*
X91634000Y-51435000D01*
X91634000Y-43129200D02*
X71542600Y-43129200D01*
X91634000Y-51435000D02*
X91634000Y-43129200D01*
X86909600Y-89738200D02*
X86909600Y-56159400D01*
%TO.N,GND2*%
X70704400Y-122783600D02*
X69104200Y-121183400D01*
D43*
X145685200Y-70292600D02*
X125227400Y-70292600D01*
D42*
X124400000Y-121412000D02*
X127778200Y-124790200D01*
X69104200Y-121183400D02*
X69104200Y-113334800D01*
X121199600Y-120040400D02*
X122596600Y-121437400D01*
X107817600Y-106658400D02*
X121199600Y-120040400D01*
D41*
X75784400Y-126619000D02*
X75784400Y-129108200D01*
D42*
X107817600Y-96647000D02*
X107817600Y-106658400D01*
D43*
X110938000Y-93472000D02*
X110938000Y-93526600D01*
D41*
X75784400Y-129108200D02*
X76597200Y-129921000D01*
D42*
X107676000Y-93472000D02*
X107676000Y-96505400D01*
D41*
X127778200Y-128752600D02*
X127778200Y-126619000D01*
D42*
X122622000Y-121412000D02*
X124400000Y-121412000D01*
D41*
X126609800Y-129921000D02*
X127778200Y-128752600D01*
D43*
X117288000Y-90932000D02*
X114748000Y-93472000D01*
D42*
X127778200Y-124790200D02*
X127778200Y-126619000D01*
D41*
X76597200Y-129921000D02*
X126609800Y-129921000D01*
D42*
X66488000Y-113258600D02*
X66564200Y-113334800D01*
D43*
X114748000Y-93472000D02*
X110938000Y-93472000D01*
D42*
X107676000Y-88239600D02*
X107676000Y-93472000D01*
D43*
X110938000Y-93526600D02*
X107817600Y-96647000D01*
D42*
X107676000Y-96505400D02*
X107817600Y-96647000D01*
X70704400Y-126619000D02*
X70704400Y-122783600D01*
X75784400Y-126619000D02*
X70704400Y-126619000D01*
X122596600Y-121437400D02*
X122622000Y-121412000D01*
D41*
X107817600Y-96647000D02*
X107817600Y-94966800D01*
D43*
X125227400Y-70292600D02*
X117288000Y-78232000D01*
X117288000Y-78232000D02*
X117288000Y-90932000D01*
D44*
%TO.N,/VCC2 12V*%
X111811600Y-82768600D02*
X111811600Y-80782000D01*
D45*
X184841200Y-86704800D02*
X183023200Y-84886800D01*
X149800000Y-84886800D02*
X132375600Y-84886800D01*
X154041800Y-65221723D02*
X151126277Y-65221723D01*
X132375600Y-84886800D02*
X132414800Y-84926000D01*
X151552600Y-84886800D02*
X149800000Y-84886800D01*
D44*
X112436600Y-118364000D02*
X103038600Y-108966000D01*
D45*
X184841200Y-88163400D02*
X184841200Y-86704800D01*
D44*
X103038600Y-108966000D02*
X103038600Y-85242400D01*
D45*
X151532400Y-84907000D02*
X151532400Y-87542600D01*
D44*
X103038600Y-85242400D02*
X109337800Y-85242400D01*
D45*
X150054000Y-66294000D02*
X150054000Y-84632800D01*
X151126277Y-65221723D02*
X150054000Y-66294000D01*
X151552600Y-84886800D02*
X151532400Y-84907000D01*
X163196600Y-84926800D02*
X163196600Y-87632000D01*
D44*
X109337800Y-85242400D02*
X111811600Y-82768600D01*
D45*
X183023200Y-84886800D02*
X163236600Y-84886800D01*
X150054000Y-84632800D02*
X149800000Y-84886800D01*
D44*
X112436600Y-126619000D02*
X112436600Y-118364000D01*
X99749480Y-81953280D02*
X98181800Y-81953280D01*
D45*
X163236600Y-84886800D02*
X151552600Y-84886800D01*
X132414800Y-84926000D02*
X132414800Y-87553800D01*
D44*
X103038600Y-85242400D02*
X99749480Y-81953280D01*
D45*
X163236600Y-84886800D02*
X163196600Y-84926800D01*
D41*
X64024200Y-105435400D02*
X63948000Y-105359200D01*
D39*
%TO.N,/mc3*%
X52822800Y-81813400D02*
X52797400Y-81838800D01*
X60188800Y-64820800D02*
X72609400Y-64820800D01*
X51603600Y-73406000D02*
X60188800Y-64820800D01*
X52797400Y-81838800D02*
X52619600Y-81838800D01*
X52619600Y-81838800D02*
X51603600Y-80822800D01*
X51603600Y-80822800D02*
X51603600Y-73406000D01*
X57267800Y-81813400D02*
X52822800Y-81813400D01*
%TO.N,/mc4*%
X53711800Y-78155800D02*
X54829400Y-79273400D01*
X54829400Y-79273400D02*
X57267800Y-79273400D01*
X53711800Y-74447400D02*
X53711800Y-78155800D01*
X72609400Y-67360800D02*
X60798400Y-67360800D01*
X60798400Y-67360800D02*
X53711800Y-74447400D01*
%TO.N,/mc2*%
X77460800Y-82600800D02*
X79899200Y-80162400D01*
X79899200Y-56642000D02*
X79950000Y-56642000D01*
X79899200Y-80162400D02*
X79899200Y-56642000D01*
X81220000Y-55372000D02*
X82312200Y-55372000D01*
X79950000Y-56642000D02*
X81220000Y-55372000D01*
X72609400Y-82600800D02*
X77460800Y-82600800D01*
%TO.N,/mc1*%
X74971600Y-80060800D02*
X72609400Y-80060800D01*
X76952800Y-78079600D02*
X74971600Y-80060800D01*
X76952800Y-55626000D02*
X76952800Y-78079600D01*
D41*
%TO.N,/pwm MC7*%
X71923600Y-99872800D02*
X78451400Y-99872800D01*
X72609400Y-77520800D02*
X71288600Y-77520800D01*
X78451400Y-99872800D02*
X80686600Y-102108000D01*
X69612200Y-79197200D02*
X69612200Y-97561400D01*
X71288600Y-77520800D02*
X69612200Y-79197200D01*
X80686600Y-111937800D02*
X79289600Y-113334800D01*
X80686600Y-102108000D02*
X80686600Y-111937800D01*
X69612200Y-97561400D02*
X71923600Y-99872800D01*
X79289600Y-113334800D02*
X76724200Y-113334800D01*
%TO.N,/pwm MC8*%
X76013000Y-102235000D02*
X76648000Y-102870000D01*
X72609400Y-74980800D02*
X69917000Y-74980800D01*
X76648000Y-102870000D02*
X76648000Y-105359200D01*
X67631000Y-98831400D02*
X71034600Y-102235000D01*
X67631000Y-77266800D02*
X67631000Y-98831400D01*
X71034600Y-102235000D02*
X76013000Y-102235000D01*
X69917000Y-74980800D02*
X67631000Y-77266800D01*
D43*
%TO.N,/Line*%
X186853800Y-126619000D02*
X184445600Y-126619000D01*
X196251800Y-117221000D02*
X196251800Y-80192600D01*
X188911200Y-124561600D02*
X196251800Y-117221000D01*
X188911200Y-124561600D02*
X186853800Y-126619000D01*
X196251800Y-80192600D02*
X194994200Y-78935000D01*
%TO.N,/Nutral*%
X191735400Y-74625200D02*
X206518200Y-74625200D01*
X206547200Y-95703600D02*
X207432600Y-94818200D01*
D44*
X179365600Y-126619000D02*
X179365600Y-128721600D01*
D43*
X206518200Y-74625200D02*
X208791500Y-76898500D01*
X204714800Y-95703600D02*
X206547200Y-95703600D01*
X207432600Y-84582000D02*
X207432600Y-94818200D01*
D44*
X189055000Y-130036000D02*
X202587400Y-116503600D01*
D43*
X204714800Y-102463600D02*
X204714800Y-95703600D01*
X208791500Y-83223100D02*
X207432600Y-84582000D01*
D44*
X180680000Y-130036000D02*
X189055000Y-130036000D01*
D43*
X204714800Y-109743600D02*
X204714800Y-102463600D01*
D44*
X179365600Y-128721600D02*
X180680000Y-130036000D01*
D43*
X189994200Y-76366400D02*
X191735400Y-74625200D01*
X208791500Y-76898500D02*
X208791500Y-83223100D01*
D44*
X202587400Y-116503600D02*
X204714800Y-116503600D01*
D43*
X189994200Y-78935000D02*
X189994200Y-76366400D01*
X204714800Y-116503600D02*
X204714800Y-109743600D01*
D42*
%TO.N,/WHITE*%
X72634800Y-88773000D02*
X80940600Y-88773000D01*
X81855000Y-89687400D02*
X81855000Y-98298000D01*
X97196600Y-113639600D02*
X97196600Y-126619000D01*
X81855000Y-98298000D02*
X97196600Y-113639600D01*
X80940600Y-88773000D02*
X81855000Y-89687400D01*
%TO.N,/GREEN*%
X81880400Y-86233000D02*
X72634800Y-86233000D01*
X84090200Y-97053400D02*
X84090200Y-88392000D01*
X102276600Y-126619000D02*
X102276600Y-115239800D01*
X81905800Y-86207600D02*
X81880400Y-86233000D01*
X102276600Y-115239800D02*
X84090200Y-97053400D01*
X84090200Y-88392000D02*
X81905800Y-86207600D01*
%TD*%
M02*
