%TF.GenerationSoftware,KiCad,Pcbnew,7.0.2*%
%TF.CreationDate,2024-03-07T12:51:37+05:30*%
%TF.ProjectId,helix2403,68656c69-7832-4343-9033-2e6b69636164,rev?*%
%TF.SameCoordinates,Original*%
%TF.FileFunction,Legend,Top*%
%TF.FilePolarity,Positive*%
%FSLAX46Y46*%
G04 Gerber Fmt 4.6, Leading zero omitted, Abs format (unit mm)*
G04 Created by KiCad (PCBNEW 7.0.2) date 2024-03-07 12:51:37*
%MOMM*%
%LPD*%
G01*
G04 APERTURE LIST*
%ADD10C,0.500000*%
%ADD11C,0.150000*%
%ADD12C,0.120000*%
G04 APERTURE END LIST*
D10*
G36*
X139179624Y-75943058D02*
G01*
X139241298Y-76004732D01*
X139329929Y-76181995D01*
X139434856Y-76601703D01*
X139434856Y-77135389D01*
X139329929Y-77555097D01*
X139241297Y-77732361D01*
X139179623Y-77794036D01*
X139030601Y-77868547D01*
X138910541Y-77868547D01*
X138761515Y-77794034D01*
X138699843Y-77732362D01*
X138611213Y-77555103D01*
X138506285Y-77135388D01*
X138506285Y-76601705D01*
X138611211Y-76181997D01*
X138699843Y-76004732D01*
X138761518Y-75943058D01*
X138910540Y-75868547D01*
X139030601Y-75868547D01*
X139179624Y-75943058D01*
G37*
G36*
X146303904Y-79944143D02*
G01*
X116434857Y-79944143D01*
X116434857Y-76846104D01*
X119784098Y-76846104D01*
X119791999Y-76863407D01*
X119792000Y-78154491D01*
X119822808Y-78259413D01*
X119933762Y-78355555D01*
X120079081Y-78376449D01*
X120212627Y-78315461D01*
X120292000Y-78191954D01*
X120292000Y-77059023D01*
X121220571Y-77059023D01*
X121220571Y-78154491D01*
X121251379Y-78259413D01*
X121362333Y-78355555D01*
X121507652Y-78376449D01*
X121641198Y-78315461D01*
X121720571Y-78191954D01*
X121720571Y-78155628D01*
X122403146Y-78155628D01*
X122426212Y-78206137D01*
X122441856Y-78259413D01*
X122456231Y-78271869D01*
X122464134Y-78289174D01*
X122510849Y-78319196D01*
X122552810Y-78355555D01*
X122571637Y-78358261D01*
X122587641Y-78368547D01*
X122643170Y-78368547D01*
X122698129Y-78376449D01*
X122715432Y-78368547D01*
X123887468Y-78368547D01*
X123992390Y-78337739D01*
X124088532Y-78226785D01*
X124098763Y-78155628D01*
X124665051Y-78155628D01*
X124688117Y-78206137D01*
X124703761Y-78259413D01*
X124718136Y-78271869D01*
X124726039Y-78289174D01*
X124772754Y-78319196D01*
X124814715Y-78355555D01*
X124833542Y-78358261D01*
X124849546Y-78368547D01*
X124905075Y-78368547D01*
X124960034Y-78376449D01*
X124977337Y-78368547D01*
X126149373Y-78368547D01*
X126254295Y-78337739D01*
X126350437Y-78226785D01*
X126360831Y-78154491D01*
X126696763Y-78154491D01*
X126727571Y-78259413D01*
X126838525Y-78355555D01*
X126983844Y-78376449D01*
X127117390Y-78315461D01*
X127196763Y-78191954D01*
X127196763Y-78114169D01*
X127638626Y-78114169D01*
X127677615Y-78255710D01*
X127786938Y-78353703D01*
X127931885Y-78377036D01*
X128066437Y-78318300D01*
X128732476Y-77319241D01*
X129377735Y-78287129D01*
X129461570Y-78357340D01*
X129607219Y-78375789D01*
X129739721Y-78312565D01*
X129817008Y-78187742D01*
X129816468Y-78155628D01*
X133117431Y-78155628D01*
X133129188Y-78181372D01*
X133131207Y-78209601D01*
X133159089Y-78246846D01*
X133178419Y-78289174D01*
X133202229Y-78304476D01*
X133219189Y-78327131D01*
X133262782Y-78343390D01*
X133301926Y-78368547D01*
X133330227Y-78368547D01*
X133356745Y-78378438D01*
X133402212Y-78368547D01*
X134958896Y-78368547D01*
X135063818Y-78337739D01*
X135159960Y-78226785D01*
X135180854Y-78081466D01*
X135119866Y-77947920D01*
X134996359Y-77868547D01*
X133978887Y-77868547D01*
X134525138Y-77322295D01*
X135617431Y-77322295D01*
X135623358Y-77335275D01*
X135622843Y-77349537D01*
X135653467Y-77401204D01*
X135678419Y-77455841D01*
X135690425Y-77463556D01*
X135697701Y-77475832D01*
X135751393Y-77502738D01*
X135801926Y-77535214D01*
X135816198Y-77535214D01*
X135828955Y-77541607D01*
X135888675Y-77535214D01*
X136815809Y-77535214D01*
X136815809Y-78154491D01*
X136846617Y-78259413D01*
X136957571Y-78355555D01*
X137102890Y-78376449D01*
X137236436Y-78315461D01*
X137315809Y-78191954D01*
X137315809Y-77535214D01*
X137458896Y-77535214D01*
X137563818Y-77504406D01*
X137659960Y-77393452D01*
X137680854Y-77248133D01*
X137638589Y-77155585D01*
X137995946Y-77155585D01*
X138006285Y-77196941D01*
X138006285Y-77202110D01*
X138014982Y-77231729D01*
X138121997Y-77659792D01*
X138118898Y-77688503D01*
X138139452Y-77729612D01*
X138141515Y-77737862D01*
X138155471Y-77761650D01*
X138256755Y-77964218D01*
X138265697Y-78005322D01*
X138314412Y-78054037D01*
X138361325Y-78104472D01*
X138366056Y-78105681D01*
X138414488Y-78154114D01*
X138435968Y-78190278D01*
X138497576Y-78221082D01*
X138558043Y-78254099D01*
X138562913Y-78253750D01*
X138727684Y-78336136D01*
X138778116Y-78368547D01*
X138829209Y-78368547D01*
X138879492Y-78377595D01*
X138901308Y-78368547D01*
X139076155Y-78368547D01*
X139135763Y-78374983D01*
X139181464Y-78352132D01*
X139230484Y-78337739D01*
X139245950Y-78319889D01*
X139411482Y-78237124D01*
X139452585Y-78228183D01*
X139501294Y-78179473D01*
X139551734Y-78132555D01*
X139552944Y-78127822D01*
X139601373Y-78079392D01*
X139637539Y-78057913D01*
X139668351Y-77996288D01*
X139701361Y-77935835D01*
X139701012Y-77930966D01*
X139735563Y-77861864D01*
X140258298Y-77861864D01*
X140289506Y-78005322D01*
X140438297Y-78154114D01*
X140459777Y-78190278D01*
X140521385Y-78221082D01*
X140581852Y-78254099D01*
X140586722Y-78253750D01*
X140751493Y-78336136D01*
X140801925Y-78368547D01*
X140853018Y-78368547D01*
X140903301Y-78377595D01*
X140925117Y-78368547D01*
X141576161Y-78368547D01*
X141635764Y-78374982D01*
X141681461Y-78352133D01*
X141730484Y-78337739D01*
X141745951Y-78319888D01*
X141911479Y-78237124D01*
X141952583Y-78228183D01*
X142001298Y-78179467D01*
X142051733Y-78132555D01*
X142052942Y-78127823D01*
X142101375Y-78079391D01*
X142137539Y-78057912D01*
X142168343Y-77996303D01*
X142201360Y-77935837D01*
X142201011Y-77930966D01*
X142283397Y-77766195D01*
X142315808Y-77715764D01*
X142315808Y-77664670D01*
X142324856Y-77614388D01*
X142315808Y-77592572D01*
X142315808Y-77060582D01*
X142322244Y-77000974D01*
X142299393Y-76955272D01*
X142285000Y-76906253D01*
X142267150Y-76890786D01*
X142184385Y-76725254D01*
X142175444Y-76684152D01*
X142126731Y-76635439D01*
X142079816Y-76585003D01*
X142075084Y-76583793D01*
X142026652Y-76535361D01*
X142005174Y-76499198D01*
X141943563Y-76468392D01*
X141883097Y-76435376D01*
X141878227Y-76435724D01*
X141742396Y-76367808D01*
X142206045Y-75837923D01*
X142206674Y-75837739D01*
X142254297Y-75782778D01*
X142277621Y-75756123D01*
X142277880Y-75755562D01*
X142302816Y-75726785D01*
X142308059Y-75690314D01*
X142323527Y-75656874D01*
X142318290Y-75619159D01*
X142323710Y-75581466D01*
X142308402Y-75547947D01*
X142303336Y-75511456D01*
X142278541Y-75482560D01*
X142262722Y-75447920D01*
X142231722Y-75427998D01*
X142207731Y-75400038D01*
X142171249Y-75389134D01*
X142139215Y-75368547D01*
X142102369Y-75368547D01*
X142067067Y-75357996D01*
X142030480Y-75368547D01*
X140482245Y-75368547D01*
X140377323Y-75399355D01*
X140281181Y-75510309D01*
X140260287Y-75655628D01*
X140321275Y-75789174D01*
X140444782Y-75868547D01*
X141514866Y-75868547D01*
X141092238Y-76351551D01*
X141091609Y-76351736D01*
X141043898Y-76406796D01*
X141020662Y-76433353D01*
X141020403Y-76433911D01*
X140995467Y-76462690D01*
X140990223Y-76499160D01*
X140974755Y-76532602D01*
X140979992Y-76570318D01*
X140974573Y-76608009D01*
X140989879Y-76641526D01*
X140994947Y-76678020D01*
X141019741Y-76706915D01*
X141035561Y-76741555D01*
X141066559Y-76761476D01*
X141090552Y-76789437D01*
X141127034Y-76800341D01*
X141159068Y-76820928D01*
X141195912Y-76820928D01*
X141231216Y-76831480D01*
X141267806Y-76820928D01*
X141530600Y-76820928D01*
X141679624Y-76895440D01*
X141741296Y-76957112D01*
X141815808Y-77106136D01*
X141815808Y-77583339D01*
X141741295Y-77732364D01*
X141679623Y-77794036D01*
X141530602Y-77868547D01*
X140934350Y-77868547D01*
X140785324Y-77794034D01*
X140669549Y-77678259D01*
X140573574Y-77625853D01*
X140427135Y-77636326D01*
X140309605Y-77724308D01*
X140258298Y-77861864D01*
X139735563Y-77861864D01*
X139769502Y-77793987D01*
X139790541Y-77774206D01*
X139801688Y-77729616D01*
X139805491Y-77722011D01*
X139810375Y-77694866D01*
X139917412Y-77266715D01*
X139934856Y-77239573D01*
X139934856Y-77196941D01*
X139936109Y-77191929D01*
X139934856Y-77161101D01*
X139934856Y-76612070D01*
X139945195Y-76581509D01*
X139934856Y-76540152D01*
X139934856Y-76534984D01*
X139926159Y-76505366D01*
X139819144Y-76077302D01*
X139822244Y-76048591D01*
X139801688Y-76007479D01*
X139799627Y-75999234D01*
X139785674Y-75975452D01*
X139684385Y-75772873D01*
X139675444Y-75731772D01*
X139626735Y-75683063D01*
X139579815Y-75632622D01*
X139575084Y-75631412D01*
X139526654Y-75582982D01*
X139505174Y-75546817D01*
X139443559Y-75516009D01*
X139383099Y-75482996D01*
X139378228Y-75483344D01*
X139213463Y-75400961D01*
X139163025Y-75368547D01*
X139111929Y-75368547D01*
X139061649Y-75359499D01*
X139039833Y-75368547D01*
X138864986Y-75368547D01*
X138805377Y-75362111D01*
X138759675Y-75384961D01*
X138710657Y-75399355D01*
X138695190Y-75417204D01*
X138529660Y-75499969D01*
X138488559Y-75508911D01*
X138439845Y-75557624D01*
X138389408Y-75604541D01*
X138388198Y-75609271D01*
X138339769Y-75657700D01*
X138303601Y-75679182D01*
X138272785Y-75740813D01*
X138239781Y-75801256D01*
X138240129Y-75806126D01*
X138171640Y-75943105D01*
X138150601Y-75962888D01*
X138139452Y-76007481D01*
X138135651Y-76015085D01*
X138130768Y-76042216D01*
X138023728Y-76470378D01*
X138006285Y-76497521D01*
X138006285Y-76540152D01*
X138005032Y-76545165D01*
X138006285Y-76575999D01*
X138006285Y-77125023D01*
X137995946Y-77155585D01*
X137638589Y-77155585D01*
X137619866Y-77114587D01*
X137496359Y-77035214D01*
X137315809Y-77035214D01*
X137315809Y-76415936D01*
X137285001Y-76311014D01*
X137174047Y-76214872D01*
X137028728Y-76193978D01*
X136895182Y-76254966D01*
X136815809Y-76378473D01*
X136815809Y-77035214D01*
X136222189Y-77035214D01*
X136719108Y-75544457D01*
X136723061Y-75435177D01*
X136648203Y-75308882D01*
X136516949Y-75243106D01*
X136370970Y-75258734D01*
X136256614Y-75350803D01*
X135653869Y-77159036D01*
X135638325Y-77176976D01*
X135631069Y-77227435D01*
X135626796Y-77240257D01*
X135625978Y-77262843D01*
X135617431Y-77322295D01*
X134525138Y-77322295D01*
X134971164Y-76876269D01*
X135017863Y-76838673D01*
X135034020Y-76790199D01*
X135058504Y-76745361D01*
X135056819Y-76721803D01*
X135150212Y-76441624D01*
X135172952Y-76406240D01*
X135172952Y-76337363D01*
X135175442Y-76268510D01*
X135172952Y-76264309D01*
X135172952Y-76108201D01*
X135179388Y-76048593D01*
X135156537Y-76002891D01*
X135142144Y-75953872D01*
X135124294Y-75938405D01*
X135041529Y-75772873D01*
X135032588Y-75731771D01*
X134983875Y-75683058D01*
X134936960Y-75632622D01*
X134932228Y-75631412D01*
X134883796Y-75582980D01*
X134862318Y-75546817D01*
X134800707Y-75516011D01*
X134740241Y-75482995D01*
X134735371Y-75483343D01*
X134570604Y-75400959D01*
X134520169Y-75368547D01*
X134469077Y-75368547D01*
X134418794Y-75359498D01*
X134396976Y-75368547D01*
X133864987Y-75368547D01*
X133805378Y-75362111D01*
X133759676Y-75384961D01*
X133710658Y-75399355D01*
X133695191Y-75417204D01*
X133529661Y-75499969D01*
X133488560Y-75508911D01*
X133439846Y-75557624D01*
X133389409Y-75604541D01*
X133388199Y-75609271D01*
X133292189Y-75705281D01*
X133239782Y-75801256D01*
X133250255Y-75947695D01*
X133338236Y-76065226D01*
X133475792Y-76116533D01*
X133619250Y-76085326D01*
X133761519Y-75943058D01*
X133910541Y-75868547D01*
X134387744Y-75868547D01*
X134536768Y-75943059D01*
X134598440Y-76004731D01*
X134672952Y-76153755D01*
X134672952Y-76292263D01*
X134585397Y-76554930D01*
X133243674Y-77896651D01*
X133234467Y-77899355D01*
X133192250Y-77948075D01*
X133173140Y-77967186D01*
X133168793Y-77975146D01*
X133138325Y-78010309D01*
X133134297Y-78038322D01*
X133120734Y-78063162D01*
X133124053Y-78109571D01*
X133117431Y-78155628D01*
X129816468Y-78155628D01*
X129814541Y-78040950D01*
X129256072Y-77203247D01*
X130260289Y-77203247D01*
X130321277Y-77336793D01*
X130444784Y-77416166D01*
X132458897Y-77416166D01*
X132563819Y-77385358D01*
X132659961Y-77274404D01*
X132680855Y-77129085D01*
X132619867Y-76995539D01*
X132496360Y-76916166D01*
X130482247Y-76916166D01*
X130377325Y-76946974D01*
X130281183Y-77057928D01*
X130260289Y-77203247D01*
X129256072Y-77203247D01*
X129032939Y-76868547D01*
X129793761Y-75727315D01*
X129826327Y-75622925D01*
X129787338Y-75481384D01*
X129678015Y-75383391D01*
X129533068Y-75360058D01*
X129398516Y-75418794D01*
X128732476Y-76417853D01*
X128087217Y-75449965D01*
X128003383Y-75379754D01*
X127857734Y-75361305D01*
X127725231Y-75424528D01*
X127647945Y-75549352D01*
X127650412Y-75696144D01*
X128432013Y-76868546D01*
X127671192Y-78009779D01*
X127638626Y-78114169D01*
X127196763Y-78114169D01*
X127196763Y-75582603D01*
X127165955Y-75477681D01*
X127055001Y-75381539D01*
X126909682Y-75360645D01*
X126776136Y-75421633D01*
X126696763Y-75545140D01*
X126696763Y-78154491D01*
X126360831Y-78154491D01*
X126371331Y-78081466D01*
X126310343Y-77947920D01*
X126186836Y-77868547D01*
X125172953Y-77868547D01*
X125172953Y-75582603D01*
X125142145Y-75477681D01*
X125031191Y-75381539D01*
X124885872Y-75360645D01*
X124752326Y-75421633D01*
X124672953Y-75545140D01*
X124672953Y-78100669D01*
X124665051Y-78155628D01*
X124098763Y-78155628D01*
X124109426Y-78081466D01*
X124048438Y-77947920D01*
X123924931Y-77868547D01*
X122911048Y-77868547D01*
X122911048Y-77059023D01*
X123530325Y-77059023D01*
X123635247Y-77028215D01*
X123731389Y-76917261D01*
X123752283Y-76771942D01*
X123691295Y-76638396D01*
X123567788Y-76559023D01*
X122911048Y-76559023D01*
X122911048Y-75868547D01*
X123887468Y-75868547D01*
X123992390Y-75837739D01*
X124088532Y-75726785D01*
X124109426Y-75581466D01*
X124048438Y-75447920D01*
X123924931Y-75368547D01*
X122678926Y-75368547D01*
X122623967Y-75360645D01*
X122573457Y-75383711D01*
X122520182Y-75399355D01*
X122507725Y-75413730D01*
X122490421Y-75421633D01*
X122460398Y-75468348D01*
X122424040Y-75510309D01*
X122421333Y-75529136D01*
X122411048Y-75545140D01*
X122411048Y-75600669D01*
X122403146Y-75655628D01*
X122411048Y-75672931D01*
X122411048Y-76791145D01*
X122403146Y-76846104D01*
X122411048Y-76863407D01*
X122411048Y-78100669D01*
X122403146Y-78155628D01*
X121720571Y-78155628D01*
X121720571Y-76826900D01*
X121728473Y-76771942D01*
X121720571Y-76754638D01*
X121720571Y-75582603D01*
X121689763Y-75477681D01*
X121578809Y-75381539D01*
X121433490Y-75360645D01*
X121299944Y-75421633D01*
X121220571Y-75545140D01*
X121220571Y-76559023D01*
X120292000Y-76559023D01*
X120292000Y-75582603D01*
X120261192Y-75477681D01*
X120150238Y-75381539D01*
X120004919Y-75360645D01*
X119871373Y-75421633D01*
X119792000Y-75545140D01*
X119792000Y-76791145D01*
X119784098Y-76846104D01*
X116434857Y-76846104D01*
X116434857Y-73979857D01*
X146303904Y-73979857D01*
X146303904Y-79944143D01*
G37*
D11*
%TO.C,C13*%
X164651142Y-120449380D02*
X164603523Y-120497000D01*
X164603523Y-120497000D02*
X164460666Y-120544619D01*
X164460666Y-120544619D02*
X164365428Y-120544619D01*
X164365428Y-120544619D02*
X164222571Y-120497000D01*
X164222571Y-120497000D02*
X164127333Y-120401761D01*
X164127333Y-120401761D02*
X164079714Y-120306523D01*
X164079714Y-120306523D02*
X164032095Y-120116047D01*
X164032095Y-120116047D02*
X164032095Y-119973190D01*
X164032095Y-119973190D02*
X164079714Y-119782714D01*
X164079714Y-119782714D02*
X164127333Y-119687476D01*
X164127333Y-119687476D02*
X164222571Y-119592238D01*
X164222571Y-119592238D02*
X164365428Y-119544619D01*
X164365428Y-119544619D02*
X164460666Y-119544619D01*
X164460666Y-119544619D02*
X164603523Y-119592238D01*
X164603523Y-119592238D02*
X164651142Y-119639857D01*
X165603523Y-120544619D02*
X165032095Y-120544619D01*
X165317809Y-120544619D02*
X165317809Y-119544619D01*
X165317809Y-119544619D02*
X165222571Y-119687476D01*
X165222571Y-119687476D02*
X165127333Y-119782714D01*
X165127333Y-119782714D02*
X165032095Y-119830333D01*
X165936857Y-119544619D02*
X166555904Y-119544619D01*
X166555904Y-119544619D02*
X166222571Y-119925571D01*
X166222571Y-119925571D02*
X166365428Y-119925571D01*
X166365428Y-119925571D02*
X166460666Y-119973190D01*
X166460666Y-119973190D02*
X166508285Y-120020809D01*
X166508285Y-120020809D02*
X166555904Y-120116047D01*
X166555904Y-120116047D02*
X166555904Y-120354142D01*
X166555904Y-120354142D02*
X166508285Y-120449380D01*
X166508285Y-120449380D02*
X166460666Y-120497000D01*
X166460666Y-120497000D02*
X166365428Y-120544619D01*
X166365428Y-120544619D02*
X166079714Y-120544619D01*
X166079714Y-120544619D02*
X165984476Y-120497000D01*
X165984476Y-120497000D02*
X165936857Y-120449380D01*
%TO.C,U3*%
X93609895Y-64732379D02*
X93609895Y-65541902D01*
X93609895Y-65541902D02*
X93657514Y-65637140D01*
X93657514Y-65637140D02*
X93705133Y-65684760D01*
X93705133Y-65684760D02*
X93800371Y-65732379D01*
X93800371Y-65732379D02*
X93990847Y-65732379D01*
X93990847Y-65732379D02*
X94086085Y-65684760D01*
X94086085Y-65684760D02*
X94133704Y-65637140D01*
X94133704Y-65637140D02*
X94181323Y-65541902D01*
X94181323Y-65541902D02*
X94181323Y-64732379D01*
X94562276Y-64732379D02*
X95181323Y-64732379D01*
X95181323Y-64732379D02*
X94847990Y-65113331D01*
X94847990Y-65113331D02*
X94990847Y-65113331D01*
X94990847Y-65113331D02*
X95086085Y-65160950D01*
X95086085Y-65160950D02*
X95133704Y-65208569D01*
X95133704Y-65208569D02*
X95181323Y-65303807D01*
X95181323Y-65303807D02*
X95181323Y-65541902D01*
X95181323Y-65541902D02*
X95133704Y-65637140D01*
X95133704Y-65637140D02*
X95086085Y-65684760D01*
X95086085Y-65684760D02*
X94990847Y-65732379D01*
X94990847Y-65732379D02*
X94705133Y-65732379D01*
X94705133Y-65732379D02*
X94609895Y-65684760D01*
X94609895Y-65684760D02*
X94562276Y-65637140D01*
%TO.C,K4*%
X119851905Y-94188619D02*
X119851905Y-93188619D01*
X120423333Y-94188619D02*
X119994762Y-93617190D01*
X120423333Y-93188619D02*
X119851905Y-93760047D01*
X121280476Y-93521952D02*
X121280476Y-94188619D01*
X121042381Y-93141000D02*
X120804286Y-93855285D01*
X120804286Y-93855285D02*
X121423333Y-93855285D01*
%TO.C,C9*%
X153824333Y-87802180D02*
X153776714Y-87849800D01*
X153776714Y-87849800D02*
X153633857Y-87897419D01*
X153633857Y-87897419D02*
X153538619Y-87897419D01*
X153538619Y-87897419D02*
X153395762Y-87849800D01*
X153395762Y-87849800D02*
X153300524Y-87754561D01*
X153300524Y-87754561D02*
X153252905Y-87659323D01*
X153252905Y-87659323D02*
X153205286Y-87468847D01*
X153205286Y-87468847D02*
X153205286Y-87325990D01*
X153205286Y-87325990D02*
X153252905Y-87135514D01*
X153252905Y-87135514D02*
X153300524Y-87040276D01*
X153300524Y-87040276D02*
X153395762Y-86945038D01*
X153395762Y-86945038D02*
X153538619Y-86897419D01*
X153538619Y-86897419D02*
X153633857Y-86897419D01*
X153633857Y-86897419D02*
X153776714Y-86945038D01*
X153776714Y-86945038D02*
X153824333Y-86992657D01*
X154300524Y-87897419D02*
X154491000Y-87897419D01*
X154491000Y-87897419D02*
X154586238Y-87849800D01*
X154586238Y-87849800D02*
X154633857Y-87802180D01*
X154633857Y-87802180D02*
X154729095Y-87659323D01*
X154729095Y-87659323D02*
X154776714Y-87468847D01*
X154776714Y-87468847D02*
X154776714Y-87087895D01*
X154776714Y-87087895D02*
X154729095Y-86992657D01*
X154729095Y-86992657D02*
X154681476Y-86945038D01*
X154681476Y-86945038D02*
X154586238Y-86897419D01*
X154586238Y-86897419D02*
X154395762Y-86897419D01*
X154395762Y-86897419D02*
X154300524Y-86945038D01*
X154300524Y-86945038D02*
X154252905Y-86992657D01*
X154252905Y-86992657D02*
X154205286Y-87087895D01*
X154205286Y-87087895D02*
X154205286Y-87325990D01*
X154205286Y-87325990D02*
X154252905Y-87421228D01*
X154252905Y-87421228D02*
X154300524Y-87468847D01*
X154300524Y-87468847D02*
X154395762Y-87516466D01*
X154395762Y-87516466D02*
X154586238Y-87516466D01*
X154586238Y-87516466D02*
X154681476Y-87468847D01*
X154681476Y-87468847D02*
X154729095Y-87421228D01*
X154729095Y-87421228D02*
X154776714Y-87325990D01*
%TO.C,J9*%
X72276066Y-56873419D02*
X72276066Y-57587704D01*
X72276066Y-57587704D02*
X72228447Y-57730561D01*
X72228447Y-57730561D02*
X72133209Y-57825800D01*
X72133209Y-57825800D02*
X71990352Y-57873419D01*
X71990352Y-57873419D02*
X71895114Y-57873419D01*
X72799876Y-57873419D02*
X72990352Y-57873419D01*
X72990352Y-57873419D02*
X73085590Y-57825800D01*
X73085590Y-57825800D02*
X73133209Y-57778180D01*
X73133209Y-57778180D02*
X73228447Y-57635323D01*
X73228447Y-57635323D02*
X73276066Y-57444847D01*
X73276066Y-57444847D02*
X73276066Y-57063895D01*
X73276066Y-57063895D02*
X73228447Y-56968657D01*
X73228447Y-56968657D02*
X73180828Y-56921038D01*
X73180828Y-56921038D02*
X73085590Y-56873419D01*
X73085590Y-56873419D02*
X72895114Y-56873419D01*
X72895114Y-56873419D02*
X72799876Y-56921038D01*
X72799876Y-56921038D02*
X72752257Y-56968657D01*
X72752257Y-56968657D02*
X72704638Y-57063895D01*
X72704638Y-57063895D02*
X72704638Y-57301990D01*
X72704638Y-57301990D02*
X72752257Y-57397228D01*
X72752257Y-57397228D02*
X72799876Y-57444847D01*
X72799876Y-57444847D02*
X72895114Y-57492466D01*
X72895114Y-57492466D02*
X73085590Y-57492466D01*
X73085590Y-57492466D02*
X73180828Y-57444847D01*
X73180828Y-57444847D02*
X73228447Y-57397228D01*
X73228447Y-57397228D02*
X73276066Y-57301990D01*
%TO.C,D12*%
X128452114Y-88848419D02*
X128452114Y-87848419D01*
X128452114Y-87848419D02*
X128690209Y-87848419D01*
X128690209Y-87848419D02*
X128833066Y-87896038D01*
X128833066Y-87896038D02*
X128928304Y-87991276D01*
X128928304Y-87991276D02*
X128975923Y-88086514D01*
X128975923Y-88086514D02*
X129023542Y-88276990D01*
X129023542Y-88276990D02*
X129023542Y-88419847D01*
X129023542Y-88419847D02*
X128975923Y-88610323D01*
X128975923Y-88610323D02*
X128928304Y-88705561D01*
X128928304Y-88705561D02*
X128833066Y-88800800D01*
X128833066Y-88800800D02*
X128690209Y-88848419D01*
X128690209Y-88848419D02*
X128452114Y-88848419D01*
X129975923Y-88848419D02*
X129404495Y-88848419D01*
X129690209Y-88848419D02*
X129690209Y-87848419D01*
X129690209Y-87848419D02*
X129594971Y-87991276D01*
X129594971Y-87991276D02*
X129499733Y-88086514D01*
X129499733Y-88086514D02*
X129404495Y-88134133D01*
X130356876Y-87943657D02*
X130404495Y-87896038D01*
X130404495Y-87896038D02*
X130499733Y-87848419D01*
X130499733Y-87848419D02*
X130737828Y-87848419D01*
X130737828Y-87848419D02*
X130833066Y-87896038D01*
X130833066Y-87896038D02*
X130880685Y-87943657D01*
X130880685Y-87943657D02*
X130928304Y-88038895D01*
X130928304Y-88038895D02*
X130928304Y-88134133D01*
X130928304Y-88134133D02*
X130880685Y-88276990D01*
X130880685Y-88276990D02*
X130309257Y-88848419D01*
X130309257Y-88848419D02*
X130928304Y-88848419D01*
X124324495Y-89218419D02*
X124324495Y-88218419D01*
X124895923Y-89218419D02*
X124467352Y-88646990D01*
X124895923Y-88218419D02*
X124324495Y-88789847D01*
%TO.C,J1*%
X181572266Y-121021619D02*
X181572266Y-121735904D01*
X181572266Y-121735904D02*
X181524647Y-121878761D01*
X181524647Y-121878761D02*
X181429409Y-121974000D01*
X181429409Y-121974000D02*
X181286552Y-122021619D01*
X181286552Y-122021619D02*
X181191314Y-122021619D01*
X182572266Y-122021619D02*
X182000838Y-122021619D01*
X182286552Y-122021619D02*
X182286552Y-121021619D01*
X182286552Y-121021619D02*
X182191314Y-121164476D01*
X182191314Y-121164476D02*
X182096076Y-121259714D01*
X182096076Y-121259714D02*
X182000838Y-121307333D01*
%TO.C,C12*%
X109674742Y-103764880D02*
X109627123Y-103812500D01*
X109627123Y-103812500D02*
X109484266Y-103860119D01*
X109484266Y-103860119D02*
X109389028Y-103860119D01*
X109389028Y-103860119D02*
X109246171Y-103812500D01*
X109246171Y-103812500D02*
X109150933Y-103717261D01*
X109150933Y-103717261D02*
X109103314Y-103622023D01*
X109103314Y-103622023D02*
X109055695Y-103431547D01*
X109055695Y-103431547D02*
X109055695Y-103288690D01*
X109055695Y-103288690D02*
X109103314Y-103098214D01*
X109103314Y-103098214D02*
X109150933Y-103002976D01*
X109150933Y-103002976D02*
X109246171Y-102907738D01*
X109246171Y-102907738D02*
X109389028Y-102860119D01*
X109389028Y-102860119D02*
X109484266Y-102860119D01*
X109484266Y-102860119D02*
X109627123Y-102907738D01*
X109627123Y-102907738D02*
X109674742Y-102955357D01*
X110627123Y-103860119D02*
X110055695Y-103860119D01*
X110341409Y-103860119D02*
X110341409Y-102860119D01*
X110341409Y-102860119D02*
X110246171Y-103002976D01*
X110246171Y-103002976D02*
X110150933Y-103098214D01*
X110150933Y-103098214D02*
X110055695Y-103145833D01*
X111008076Y-102955357D02*
X111055695Y-102907738D01*
X111055695Y-102907738D02*
X111150933Y-102860119D01*
X111150933Y-102860119D02*
X111389028Y-102860119D01*
X111389028Y-102860119D02*
X111484266Y-102907738D01*
X111484266Y-102907738D02*
X111531885Y-102955357D01*
X111531885Y-102955357D02*
X111579504Y-103050595D01*
X111579504Y-103050595D02*
X111579504Y-103145833D01*
X111579504Y-103145833D02*
X111531885Y-103288690D01*
X111531885Y-103288690D02*
X110960457Y-103860119D01*
X110960457Y-103860119D02*
X111579504Y-103860119D01*
%TO.C,C2*%
X160684580Y-54604189D02*
X160732200Y-54651808D01*
X160732200Y-54651808D02*
X160779819Y-54794665D01*
X160779819Y-54794665D02*
X160779819Y-54889903D01*
X160779819Y-54889903D02*
X160732200Y-55032760D01*
X160732200Y-55032760D02*
X160636961Y-55127998D01*
X160636961Y-55127998D02*
X160541723Y-55175617D01*
X160541723Y-55175617D02*
X160351247Y-55223236D01*
X160351247Y-55223236D02*
X160208390Y-55223236D01*
X160208390Y-55223236D02*
X160017914Y-55175617D01*
X160017914Y-55175617D02*
X159922676Y-55127998D01*
X159922676Y-55127998D02*
X159827438Y-55032760D01*
X159827438Y-55032760D02*
X159779819Y-54889903D01*
X159779819Y-54889903D02*
X159779819Y-54794665D01*
X159779819Y-54794665D02*
X159827438Y-54651808D01*
X159827438Y-54651808D02*
X159875057Y-54604189D01*
X159875057Y-54223236D02*
X159827438Y-54175617D01*
X159827438Y-54175617D02*
X159779819Y-54080379D01*
X159779819Y-54080379D02*
X159779819Y-53842284D01*
X159779819Y-53842284D02*
X159827438Y-53747046D01*
X159827438Y-53747046D02*
X159875057Y-53699427D01*
X159875057Y-53699427D02*
X159970295Y-53651808D01*
X159970295Y-53651808D02*
X160065533Y-53651808D01*
X160065533Y-53651808D02*
X160208390Y-53699427D01*
X160208390Y-53699427D02*
X160779819Y-54270855D01*
X160779819Y-54270855D02*
X160779819Y-53651808D01*
%TO.C,D11*%
X147188714Y-88913419D02*
X147188714Y-87913419D01*
X147188714Y-87913419D02*
X147426809Y-87913419D01*
X147426809Y-87913419D02*
X147569666Y-87961038D01*
X147569666Y-87961038D02*
X147664904Y-88056276D01*
X147664904Y-88056276D02*
X147712523Y-88151514D01*
X147712523Y-88151514D02*
X147760142Y-88341990D01*
X147760142Y-88341990D02*
X147760142Y-88484847D01*
X147760142Y-88484847D02*
X147712523Y-88675323D01*
X147712523Y-88675323D02*
X147664904Y-88770561D01*
X147664904Y-88770561D02*
X147569666Y-88865800D01*
X147569666Y-88865800D02*
X147426809Y-88913419D01*
X147426809Y-88913419D02*
X147188714Y-88913419D01*
X148712523Y-88913419D02*
X148141095Y-88913419D01*
X148426809Y-88913419D02*
X148426809Y-87913419D01*
X148426809Y-87913419D02*
X148331571Y-88056276D01*
X148331571Y-88056276D02*
X148236333Y-88151514D01*
X148236333Y-88151514D02*
X148141095Y-88199133D01*
X149664904Y-88913419D02*
X149093476Y-88913419D01*
X149379190Y-88913419D02*
X149379190Y-87913419D01*
X149379190Y-87913419D02*
X149283952Y-88056276D01*
X149283952Y-88056276D02*
X149188714Y-88151514D01*
X149188714Y-88151514D02*
X149093476Y-88199133D01*
X143015895Y-89353419D02*
X143015895Y-88353419D01*
X143587323Y-89353419D02*
X143158752Y-88781990D01*
X143587323Y-88353419D02*
X143015895Y-88924847D01*
%TO.C,D6*%
X162422305Y-89085219D02*
X162422305Y-88085219D01*
X162422305Y-88085219D02*
X162660400Y-88085219D01*
X162660400Y-88085219D02*
X162803257Y-88132838D01*
X162803257Y-88132838D02*
X162898495Y-88228076D01*
X162898495Y-88228076D02*
X162946114Y-88323314D01*
X162946114Y-88323314D02*
X162993733Y-88513790D01*
X162993733Y-88513790D02*
X162993733Y-88656647D01*
X162993733Y-88656647D02*
X162946114Y-88847123D01*
X162946114Y-88847123D02*
X162898495Y-88942361D01*
X162898495Y-88942361D02*
X162803257Y-89037600D01*
X162803257Y-89037600D02*
X162660400Y-89085219D01*
X162660400Y-89085219D02*
X162422305Y-89085219D01*
X163850876Y-88085219D02*
X163660400Y-88085219D01*
X163660400Y-88085219D02*
X163565162Y-88132838D01*
X163565162Y-88132838D02*
X163517543Y-88180457D01*
X163517543Y-88180457D02*
X163422305Y-88323314D01*
X163422305Y-88323314D02*
X163374686Y-88513790D01*
X163374686Y-88513790D02*
X163374686Y-88894742D01*
X163374686Y-88894742D02*
X163422305Y-88989980D01*
X163422305Y-88989980D02*
X163469924Y-89037600D01*
X163469924Y-89037600D02*
X163565162Y-89085219D01*
X163565162Y-89085219D02*
X163755638Y-89085219D01*
X163755638Y-89085219D02*
X163850876Y-89037600D01*
X163850876Y-89037600D02*
X163898495Y-88989980D01*
X163898495Y-88989980D02*
X163946114Y-88894742D01*
X163946114Y-88894742D02*
X163946114Y-88656647D01*
X163946114Y-88656647D02*
X163898495Y-88561409D01*
X163898495Y-88561409D02*
X163850876Y-88513790D01*
X163850876Y-88513790D02*
X163755638Y-88466171D01*
X163755638Y-88466171D02*
X163565162Y-88466171D01*
X163565162Y-88466171D02*
X163469924Y-88513790D01*
X163469924Y-88513790D02*
X163422305Y-88561409D01*
X163422305Y-88561409D02*
X163374686Y-88656647D01*
X157996295Y-89372819D02*
X157996295Y-88372819D01*
X158567723Y-89372819D02*
X158139152Y-88801390D01*
X158567723Y-88372819D02*
X157996295Y-88944247D01*
%TO.C,U7*%
X93539095Y-100649419D02*
X93539095Y-101458942D01*
X93539095Y-101458942D02*
X93586714Y-101554180D01*
X93586714Y-101554180D02*
X93634333Y-101601800D01*
X93634333Y-101601800D02*
X93729571Y-101649419D01*
X93729571Y-101649419D02*
X93920047Y-101649419D01*
X93920047Y-101649419D02*
X94015285Y-101601800D01*
X94015285Y-101601800D02*
X94062904Y-101554180D01*
X94062904Y-101554180D02*
X94110523Y-101458942D01*
X94110523Y-101458942D02*
X94110523Y-100649419D01*
X94491476Y-100649419D02*
X95158142Y-100649419D01*
X95158142Y-100649419D02*
X94729571Y-101649419D01*
%TO.C,C8*%
X148552580Y-67959266D02*
X148600200Y-68006885D01*
X148600200Y-68006885D02*
X148647819Y-68149742D01*
X148647819Y-68149742D02*
X148647819Y-68244980D01*
X148647819Y-68244980D02*
X148600200Y-68387837D01*
X148600200Y-68387837D02*
X148504961Y-68483075D01*
X148504961Y-68483075D02*
X148409723Y-68530694D01*
X148409723Y-68530694D02*
X148219247Y-68578313D01*
X148219247Y-68578313D02*
X148076390Y-68578313D01*
X148076390Y-68578313D02*
X147885914Y-68530694D01*
X147885914Y-68530694D02*
X147790676Y-68483075D01*
X147790676Y-68483075D02*
X147695438Y-68387837D01*
X147695438Y-68387837D02*
X147647819Y-68244980D01*
X147647819Y-68244980D02*
X147647819Y-68149742D01*
X147647819Y-68149742D02*
X147695438Y-68006885D01*
X147695438Y-68006885D02*
X147743057Y-67959266D01*
X148076390Y-67387837D02*
X148028771Y-67483075D01*
X148028771Y-67483075D02*
X147981152Y-67530694D01*
X147981152Y-67530694D02*
X147885914Y-67578313D01*
X147885914Y-67578313D02*
X147838295Y-67578313D01*
X147838295Y-67578313D02*
X147743057Y-67530694D01*
X147743057Y-67530694D02*
X147695438Y-67483075D01*
X147695438Y-67483075D02*
X147647819Y-67387837D01*
X147647819Y-67387837D02*
X147647819Y-67197361D01*
X147647819Y-67197361D02*
X147695438Y-67102123D01*
X147695438Y-67102123D02*
X147743057Y-67054504D01*
X147743057Y-67054504D02*
X147838295Y-67006885D01*
X147838295Y-67006885D02*
X147885914Y-67006885D01*
X147885914Y-67006885D02*
X147981152Y-67054504D01*
X147981152Y-67054504D02*
X148028771Y-67102123D01*
X148028771Y-67102123D02*
X148076390Y-67197361D01*
X148076390Y-67197361D02*
X148076390Y-67387837D01*
X148076390Y-67387837D02*
X148124009Y-67483075D01*
X148124009Y-67483075D02*
X148171628Y-67530694D01*
X148171628Y-67530694D02*
X148266866Y-67578313D01*
X148266866Y-67578313D02*
X148457342Y-67578313D01*
X148457342Y-67578313D02*
X148552580Y-67530694D01*
X148552580Y-67530694D02*
X148600200Y-67483075D01*
X148600200Y-67483075D02*
X148647819Y-67387837D01*
X148647819Y-67387837D02*
X148647819Y-67197361D01*
X148647819Y-67197361D02*
X148600200Y-67102123D01*
X148600200Y-67102123D02*
X148552580Y-67054504D01*
X148552580Y-67054504D02*
X148457342Y-67006885D01*
X148457342Y-67006885D02*
X148266866Y-67006885D01*
X148266866Y-67006885D02*
X148171628Y-67054504D01*
X148171628Y-67054504D02*
X148124009Y-67102123D01*
X148124009Y-67102123D02*
X148076390Y-67197361D01*
%TO.C,U6*%
X93609895Y-79085899D02*
X93609895Y-79895422D01*
X93609895Y-79895422D02*
X93657514Y-79990660D01*
X93657514Y-79990660D02*
X93705133Y-80038280D01*
X93705133Y-80038280D02*
X93800371Y-80085899D01*
X93800371Y-80085899D02*
X93990847Y-80085899D01*
X93990847Y-80085899D02*
X94086085Y-80038280D01*
X94086085Y-80038280D02*
X94133704Y-79990660D01*
X94133704Y-79990660D02*
X94181323Y-79895422D01*
X94181323Y-79895422D02*
X94181323Y-79085899D01*
X95086085Y-79085899D02*
X94895609Y-79085899D01*
X94895609Y-79085899D02*
X94800371Y-79133518D01*
X94800371Y-79133518D02*
X94752752Y-79181137D01*
X94752752Y-79181137D02*
X94657514Y-79323994D01*
X94657514Y-79323994D02*
X94609895Y-79514470D01*
X94609895Y-79514470D02*
X94609895Y-79895422D01*
X94609895Y-79895422D02*
X94657514Y-79990660D01*
X94657514Y-79990660D02*
X94705133Y-80038280D01*
X94705133Y-80038280D02*
X94800371Y-80085899D01*
X94800371Y-80085899D02*
X94990847Y-80085899D01*
X94990847Y-80085899D02*
X95086085Y-80038280D01*
X95086085Y-80038280D02*
X95133704Y-79990660D01*
X95133704Y-79990660D02*
X95181323Y-79895422D01*
X95181323Y-79895422D02*
X95181323Y-79657327D01*
X95181323Y-79657327D02*
X95133704Y-79562089D01*
X95133704Y-79562089D02*
X95086085Y-79514470D01*
X95086085Y-79514470D02*
X94990847Y-79466851D01*
X94990847Y-79466851D02*
X94800371Y-79466851D01*
X94800371Y-79466851D02*
X94705133Y-79514470D01*
X94705133Y-79514470D02*
X94657514Y-79562089D01*
X94657514Y-79562089D02*
X94609895Y-79657327D01*
%TO.C,C16*%
X129171142Y-120449380D02*
X129123523Y-120497000D01*
X129123523Y-120497000D02*
X128980666Y-120544619D01*
X128980666Y-120544619D02*
X128885428Y-120544619D01*
X128885428Y-120544619D02*
X128742571Y-120497000D01*
X128742571Y-120497000D02*
X128647333Y-120401761D01*
X128647333Y-120401761D02*
X128599714Y-120306523D01*
X128599714Y-120306523D02*
X128552095Y-120116047D01*
X128552095Y-120116047D02*
X128552095Y-119973190D01*
X128552095Y-119973190D02*
X128599714Y-119782714D01*
X128599714Y-119782714D02*
X128647333Y-119687476D01*
X128647333Y-119687476D02*
X128742571Y-119592238D01*
X128742571Y-119592238D02*
X128885428Y-119544619D01*
X128885428Y-119544619D02*
X128980666Y-119544619D01*
X128980666Y-119544619D02*
X129123523Y-119592238D01*
X129123523Y-119592238D02*
X129171142Y-119639857D01*
X130123523Y-120544619D02*
X129552095Y-120544619D01*
X129837809Y-120544619D02*
X129837809Y-119544619D01*
X129837809Y-119544619D02*
X129742571Y-119687476D01*
X129742571Y-119687476D02*
X129647333Y-119782714D01*
X129647333Y-119782714D02*
X129552095Y-119830333D01*
X130980666Y-119544619D02*
X130790190Y-119544619D01*
X130790190Y-119544619D02*
X130694952Y-119592238D01*
X130694952Y-119592238D02*
X130647333Y-119639857D01*
X130647333Y-119639857D02*
X130552095Y-119782714D01*
X130552095Y-119782714D02*
X130504476Y-119973190D01*
X130504476Y-119973190D02*
X130504476Y-120354142D01*
X130504476Y-120354142D02*
X130552095Y-120449380D01*
X130552095Y-120449380D02*
X130599714Y-120497000D01*
X130599714Y-120497000D02*
X130694952Y-120544619D01*
X130694952Y-120544619D02*
X130885428Y-120544619D01*
X130885428Y-120544619D02*
X130980666Y-120497000D01*
X130980666Y-120497000D02*
X131028285Y-120449380D01*
X131028285Y-120449380D02*
X131075904Y-120354142D01*
X131075904Y-120354142D02*
X131075904Y-120116047D01*
X131075904Y-120116047D02*
X131028285Y-120020809D01*
X131028285Y-120020809D02*
X130980666Y-119973190D01*
X130980666Y-119973190D02*
X130885428Y-119925571D01*
X130885428Y-119925571D02*
X130694952Y-119925571D01*
X130694952Y-119925571D02*
X130599714Y-119973190D01*
X130599714Y-119973190D02*
X130552095Y-120020809D01*
X130552095Y-120020809D02*
X130504476Y-120116047D01*
%TO.C,D4*%
X180790305Y-89508819D02*
X180790305Y-88508819D01*
X180790305Y-88508819D02*
X181028400Y-88508819D01*
X181028400Y-88508819D02*
X181171257Y-88556438D01*
X181171257Y-88556438D02*
X181266495Y-88651676D01*
X181266495Y-88651676D02*
X181314114Y-88746914D01*
X181314114Y-88746914D02*
X181361733Y-88937390D01*
X181361733Y-88937390D02*
X181361733Y-89080247D01*
X181361733Y-89080247D02*
X181314114Y-89270723D01*
X181314114Y-89270723D02*
X181266495Y-89365961D01*
X181266495Y-89365961D02*
X181171257Y-89461200D01*
X181171257Y-89461200D02*
X181028400Y-89508819D01*
X181028400Y-89508819D02*
X180790305Y-89508819D01*
X182218876Y-88842152D02*
X182218876Y-89508819D01*
X181980781Y-88461200D02*
X181742686Y-89175485D01*
X181742686Y-89175485D02*
X182361733Y-89175485D01*
X176186495Y-89878819D02*
X176186495Y-88878819D01*
X176757923Y-89878819D02*
X176329352Y-89307390D01*
X176757923Y-88878819D02*
X176186495Y-89450247D01*
%TO.C,K1*%
X189193905Y-92156619D02*
X189193905Y-91156619D01*
X189765333Y-92156619D02*
X189336762Y-91585190D01*
X189765333Y-91156619D02*
X189193905Y-91728047D01*
X190717714Y-92156619D02*
X190146286Y-92156619D01*
X190432000Y-92156619D02*
X190432000Y-91156619D01*
X190432000Y-91156619D02*
X190336762Y-91299476D01*
X190336762Y-91299476D02*
X190241524Y-91394714D01*
X190241524Y-91394714D02*
X190146286Y-91442333D01*
%TO.C,C5*%
X202084333Y-94820780D02*
X202036714Y-94868400D01*
X202036714Y-94868400D02*
X201893857Y-94916019D01*
X201893857Y-94916019D02*
X201798619Y-94916019D01*
X201798619Y-94916019D02*
X201655762Y-94868400D01*
X201655762Y-94868400D02*
X201560524Y-94773161D01*
X201560524Y-94773161D02*
X201512905Y-94677923D01*
X201512905Y-94677923D02*
X201465286Y-94487447D01*
X201465286Y-94487447D02*
X201465286Y-94344590D01*
X201465286Y-94344590D02*
X201512905Y-94154114D01*
X201512905Y-94154114D02*
X201560524Y-94058876D01*
X201560524Y-94058876D02*
X201655762Y-93963638D01*
X201655762Y-93963638D02*
X201798619Y-93916019D01*
X201798619Y-93916019D02*
X201893857Y-93916019D01*
X201893857Y-93916019D02*
X202036714Y-93963638D01*
X202036714Y-93963638D02*
X202084333Y-94011257D01*
X202989095Y-93916019D02*
X202512905Y-93916019D01*
X202512905Y-93916019D02*
X202465286Y-94392209D01*
X202465286Y-94392209D02*
X202512905Y-94344590D01*
X202512905Y-94344590D02*
X202608143Y-94296971D01*
X202608143Y-94296971D02*
X202846238Y-94296971D01*
X202846238Y-94296971D02*
X202941476Y-94344590D01*
X202941476Y-94344590D02*
X202989095Y-94392209D01*
X202989095Y-94392209D02*
X203036714Y-94487447D01*
X203036714Y-94487447D02*
X203036714Y-94725542D01*
X203036714Y-94725542D02*
X202989095Y-94820780D01*
X202989095Y-94820780D02*
X202941476Y-94868400D01*
X202941476Y-94868400D02*
X202846238Y-94916019D01*
X202846238Y-94916019D02*
X202608143Y-94916019D01*
X202608143Y-94916019D02*
X202512905Y-94868400D01*
X202512905Y-94868400D02*
X202465286Y-94820780D01*
%TO.C,U2*%
X93609895Y-57555619D02*
X93609895Y-58365142D01*
X93609895Y-58365142D02*
X93657514Y-58460380D01*
X93657514Y-58460380D02*
X93705133Y-58508000D01*
X93705133Y-58508000D02*
X93800371Y-58555619D01*
X93800371Y-58555619D02*
X93990847Y-58555619D01*
X93990847Y-58555619D02*
X94086085Y-58508000D01*
X94086085Y-58508000D02*
X94133704Y-58460380D01*
X94133704Y-58460380D02*
X94181323Y-58365142D01*
X94181323Y-58365142D02*
X94181323Y-57555619D01*
X94609895Y-57650857D02*
X94657514Y-57603238D01*
X94657514Y-57603238D02*
X94752752Y-57555619D01*
X94752752Y-57555619D02*
X94990847Y-57555619D01*
X94990847Y-57555619D02*
X95086085Y-57603238D01*
X95086085Y-57603238D02*
X95133704Y-57650857D01*
X95133704Y-57650857D02*
X95181323Y-57746095D01*
X95181323Y-57746095D02*
X95181323Y-57841333D01*
X95181323Y-57841333D02*
X95133704Y-57984190D01*
X95133704Y-57984190D02*
X94562276Y-58555619D01*
X94562276Y-58555619D02*
X95181323Y-58555619D01*
%TO.C,C10*%
X134428142Y-87997380D02*
X134380523Y-88045000D01*
X134380523Y-88045000D02*
X134237666Y-88092619D01*
X134237666Y-88092619D02*
X134142428Y-88092619D01*
X134142428Y-88092619D02*
X133999571Y-88045000D01*
X133999571Y-88045000D02*
X133904333Y-87949761D01*
X133904333Y-87949761D02*
X133856714Y-87854523D01*
X133856714Y-87854523D02*
X133809095Y-87664047D01*
X133809095Y-87664047D02*
X133809095Y-87521190D01*
X133809095Y-87521190D02*
X133856714Y-87330714D01*
X133856714Y-87330714D02*
X133904333Y-87235476D01*
X133904333Y-87235476D02*
X133999571Y-87140238D01*
X133999571Y-87140238D02*
X134142428Y-87092619D01*
X134142428Y-87092619D02*
X134237666Y-87092619D01*
X134237666Y-87092619D02*
X134380523Y-87140238D01*
X134380523Y-87140238D02*
X134428142Y-87187857D01*
X135380523Y-88092619D02*
X134809095Y-88092619D01*
X135094809Y-88092619D02*
X135094809Y-87092619D01*
X135094809Y-87092619D02*
X134999571Y-87235476D01*
X134999571Y-87235476D02*
X134904333Y-87330714D01*
X134904333Y-87330714D02*
X134809095Y-87378333D01*
X135999571Y-87092619D02*
X136094809Y-87092619D01*
X136094809Y-87092619D02*
X136190047Y-87140238D01*
X136190047Y-87140238D02*
X136237666Y-87187857D01*
X136237666Y-87187857D02*
X136285285Y-87283095D01*
X136285285Y-87283095D02*
X136332904Y-87473571D01*
X136332904Y-87473571D02*
X136332904Y-87711666D01*
X136332904Y-87711666D02*
X136285285Y-87902142D01*
X136285285Y-87902142D02*
X136237666Y-87997380D01*
X136237666Y-87997380D02*
X136190047Y-88045000D01*
X136190047Y-88045000D02*
X136094809Y-88092619D01*
X136094809Y-88092619D02*
X135999571Y-88092619D01*
X135999571Y-88092619D02*
X135904333Y-88045000D01*
X135904333Y-88045000D02*
X135856714Y-87997380D01*
X135856714Y-87997380D02*
X135809095Y-87902142D01*
X135809095Y-87902142D02*
X135761476Y-87711666D01*
X135761476Y-87711666D02*
X135761476Y-87473571D01*
X135761476Y-87473571D02*
X135809095Y-87283095D01*
X135809095Y-87283095D02*
X135856714Y-87187857D01*
X135856714Y-87187857D02*
X135904333Y-87140238D01*
X135904333Y-87140238D02*
X135999571Y-87092619D01*
%TO.C,C6*%
X165406733Y-87973980D02*
X165359114Y-88021600D01*
X165359114Y-88021600D02*
X165216257Y-88069219D01*
X165216257Y-88069219D02*
X165121019Y-88069219D01*
X165121019Y-88069219D02*
X164978162Y-88021600D01*
X164978162Y-88021600D02*
X164882924Y-87926361D01*
X164882924Y-87926361D02*
X164835305Y-87831123D01*
X164835305Y-87831123D02*
X164787686Y-87640647D01*
X164787686Y-87640647D02*
X164787686Y-87497790D01*
X164787686Y-87497790D02*
X164835305Y-87307314D01*
X164835305Y-87307314D02*
X164882924Y-87212076D01*
X164882924Y-87212076D02*
X164978162Y-87116838D01*
X164978162Y-87116838D02*
X165121019Y-87069219D01*
X165121019Y-87069219D02*
X165216257Y-87069219D01*
X165216257Y-87069219D02*
X165359114Y-87116838D01*
X165359114Y-87116838D02*
X165406733Y-87164457D01*
X166263876Y-87069219D02*
X166073400Y-87069219D01*
X166073400Y-87069219D02*
X165978162Y-87116838D01*
X165978162Y-87116838D02*
X165930543Y-87164457D01*
X165930543Y-87164457D02*
X165835305Y-87307314D01*
X165835305Y-87307314D02*
X165787686Y-87497790D01*
X165787686Y-87497790D02*
X165787686Y-87878742D01*
X165787686Y-87878742D02*
X165835305Y-87973980D01*
X165835305Y-87973980D02*
X165882924Y-88021600D01*
X165882924Y-88021600D02*
X165978162Y-88069219D01*
X165978162Y-88069219D02*
X166168638Y-88069219D01*
X166168638Y-88069219D02*
X166263876Y-88021600D01*
X166263876Y-88021600D02*
X166311495Y-87973980D01*
X166311495Y-87973980D02*
X166359114Y-87878742D01*
X166359114Y-87878742D02*
X166359114Y-87640647D01*
X166359114Y-87640647D02*
X166311495Y-87545409D01*
X166311495Y-87545409D02*
X166263876Y-87497790D01*
X166263876Y-87497790D02*
X166168638Y-87450171D01*
X166168638Y-87450171D02*
X165978162Y-87450171D01*
X165978162Y-87450171D02*
X165882924Y-87497790D01*
X165882924Y-87497790D02*
X165835305Y-87545409D01*
X165835305Y-87545409D02*
X165787686Y-87640647D01*
%TO.C,C7*%
X160659180Y-67888389D02*
X160706800Y-67936008D01*
X160706800Y-67936008D02*
X160754419Y-68078865D01*
X160754419Y-68078865D02*
X160754419Y-68174103D01*
X160754419Y-68174103D02*
X160706800Y-68316960D01*
X160706800Y-68316960D02*
X160611561Y-68412198D01*
X160611561Y-68412198D02*
X160516323Y-68459817D01*
X160516323Y-68459817D02*
X160325847Y-68507436D01*
X160325847Y-68507436D02*
X160182990Y-68507436D01*
X160182990Y-68507436D02*
X159992514Y-68459817D01*
X159992514Y-68459817D02*
X159897276Y-68412198D01*
X159897276Y-68412198D02*
X159802038Y-68316960D01*
X159802038Y-68316960D02*
X159754419Y-68174103D01*
X159754419Y-68174103D02*
X159754419Y-68078865D01*
X159754419Y-68078865D02*
X159802038Y-67936008D01*
X159802038Y-67936008D02*
X159849657Y-67888389D01*
X159754419Y-67555055D02*
X159754419Y-66888389D01*
X159754419Y-66888389D02*
X160754419Y-67316960D01*
%TO.C,J10*%
X71825276Y-83365619D02*
X71825276Y-84079904D01*
X71825276Y-84079904D02*
X71777657Y-84222761D01*
X71777657Y-84222761D02*
X71682419Y-84318000D01*
X71682419Y-84318000D02*
X71539562Y-84365619D01*
X71539562Y-84365619D02*
X71444324Y-84365619D01*
X72825276Y-84365619D02*
X72253848Y-84365619D01*
X72539562Y-84365619D02*
X72539562Y-83365619D01*
X72539562Y-83365619D02*
X72444324Y-83508476D01*
X72444324Y-83508476D02*
X72349086Y-83603714D01*
X72349086Y-83603714D02*
X72253848Y-83651333D01*
X73444324Y-83365619D02*
X73539562Y-83365619D01*
X73539562Y-83365619D02*
X73634800Y-83413238D01*
X73634800Y-83413238D02*
X73682419Y-83460857D01*
X73682419Y-83460857D02*
X73730038Y-83556095D01*
X73730038Y-83556095D02*
X73777657Y-83746571D01*
X73777657Y-83746571D02*
X73777657Y-83984666D01*
X73777657Y-83984666D02*
X73730038Y-84175142D01*
X73730038Y-84175142D02*
X73682419Y-84270380D01*
X73682419Y-84270380D02*
X73634800Y-84318000D01*
X73634800Y-84318000D02*
X73539562Y-84365619D01*
X73539562Y-84365619D02*
X73444324Y-84365619D01*
X73444324Y-84365619D02*
X73349086Y-84318000D01*
X73349086Y-84318000D02*
X73301467Y-84270380D01*
X73301467Y-84270380D02*
X73253848Y-84175142D01*
X73253848Y-84175142D02*
X73206229Y-83984666D01*
X73206229Y-83984666D02*
X73206229Y-83746571D01*
X73206229Y-83746571D02*
X73253848Y-83556095D01*
X73253848Y-83556095D02*
X73301467Y-83460857D01*
X73301467Y-83460857D02*
X73349086Y-83413238D01*
X73349086Y-83413238D02*
X73444324Y-83365619D01*
%TO.C,U5*%
X93609895Y-71909139D02*
X93609895Y-72718662D01*
X93609895Y-72718662D02*
X93657514Y-72813900D01*
X93657514Y-72813900D02*
X93705133Y-72861520D01*
X93705133Y-72861520D02*
X93800371Y-72909139D01*
X93800371Y-72909139D02*
X93990847Y-72909139D01*
X93990847Y-72909139D02*
X94086085Y-72861520D01*
X94086085Y-72861520D02*
X94133704Y-72813900D01*
X94133704Y-72813900D02*
X94181323Y-72718662D01*
X94181323Y-72718662D02*
X94181323Y-71909139D01*
X95133704Y-71909139D02*
X94657514Y-71909139D01*
X94657514Y-71909139D02*
X94609895Y-72385329D01*
X94609895Y-72385329D02*
X94657514Y-72337710D01*
X94657514Y-72337710D02*
X94752752Y-72290091D01*
X94752752Y-72290091D02*
X94990847Y-72290091D01*
X94990847Y-72290091D02*
X95086085Y-72337710D01*
X95086085Y-72337710D02*
X95133704Y-72385329D01*
X95133704Y-72385329D02*
X95181323Y-72480567D01*
X95181323Y-72480567D02*
X95181323Y-72718662D01*
X95181323Y-72718662D02*
X95133704Y-72813900D01*
X95133704Y-72813900D02*
X95086085Y-72861520D01*
X95086085Y-72861520D02*
X94990847Y-72909139D01*
X94990847Y-72909139D02*
X94752752Y-72909139D01*
X94752752Y-72909139D02*
X94657514Y-72861520D01*
X94657514Y-72861520D02*
X94609895Y-72813900D01*
%TO.C,J2*%
X146875866Y-116892819D02*
X146875866Y-117607104D01*
X146875866Y-117607104D02*
X146828247Y-117749961D01*
X146828247Y-117749961D02*
X146733009Y-117845200D01*
X146733009Y-117845200D02*
X146590152Y-117892819D01*
X146590152Y-117892819D02*
X146494914Y-117892819D01*
X147304438Y-116988057D02*
X147352057Y-116940438D01*
X147352057Y-116940438D02*
X147447295Y-116892819D01*
X147447295Y-116892819D02*
X147685390Y-116892819D01*
X147685390Y-116892819D02*
X147780628Y-116940438D01*
X147780628Y-116940438D02*
X147828247Y-116988057D01*
X147828247Y-116988057D02*
X147875866Y-117083295D01*
X147875866Y-117083295D02*
X147875866Y-117178533D01*
X147875866Y-117178533D02*
X147828247Y-117321390D01*
X147828247Y-117321390D02*
X147256819Y-117892819D01*
X147256819Y-117892819D02*
X147875866Y-117892819D01*
%TO.C,U4*%
X107239695Y-57594619D02*
X107239695Y-58404142D01*
X107239695Y-58404142D02*
X107287314Y-58499380D01*
X107287314Y-58499380D02*
X107334933Y-58547000D01*
X107334933Y-58547000D02*
X107430171Y-58594619D01*
X107430171Y-58594619D02*
X107620647Y-58594619D01*
X107620647Y-58594619D02*
X107715885Y-58547000D01*
X107715885Y-58547000D02*
X107763504Y-58499380D01*
X107763504Y-58499380D02*
X107811123Y-58404142D01*
X107811123Y-58404142D02*
X107811123Y-57594619D01*
X108715885Y-57927952D02*
X108715885Y-58594619D01*
X108477790Y-57547000D02*
X108239695Y-58261285D01*
X108239695Y-58261285D02*
X108858742Y-58261285D01*
%TO.C,C14*%
X109533142Y-95255880D02*
X109485523Y-95303500D01*
X109485523Y-95303500D02*
X109342666Y-95351119D01*
X109342666Y-95351119D02*
X109247428Y-95351119D01*
X109247428Y-95351119D02*
X109104571Y-95303500D01*
X109104571Y-95303500D02*
X109009333Y-95208261D01*
X109009333Y-95208261D02*
X108961714Y-95113023D01*
X108961714Y-95113023D02*
X108914095Y-94922547D01*
X108914095Y-94922547D02*
X108914095Y-94779690D01*
X108914095Y-94779690D02*
X108961714Y-94589214D01*
X108961714Y-94589214D02*
X109009333Y-94493976D01*
X109009333Y-94493976D02*
X109104571Y-94398738D01*
X109104571Y-94398738D02*
X109247428Y-94351119D01*
X109247428Y-94351119D02*
X109342666Y-94351119D01*
X109342666Y-94351119D02*
X109485523Y-94398738D01*
X109485523Y-94398738D02*
X109533142Y-94446357D01*
X110485523Y-95351119D02*
X109914095Y-95351119D01*
X110199809Y-95351119D02*
X110199809Y-94351119D01*
X110199809Y-94351119D02*
X110104571Y-94493976D01*
X110104571Y-94493976D02*
X110009333Y-94589214D01*
X110009333Y-94589214D02*
X109914095Y-94636833D01*
X111342666Y-94684452D02*
X111342666Y-95351119D01*
X111104571Y-94303500D02*
X110866476Y-95017785D01*
X110866476Y-95017785D02*
X111485523Y-95017785D01*
%TO.C,D2*%
X166970619Y-71029094D02*
X165970619Y-71029094D01*
X165970619Y-71029094D02*
X165970619Y-70790999D01*
X165970619Y-70790999D02*
X166018238Y-70648142D01*
X166018238Y-70648142D02*
X166113476Y-70552904D01*
X166113476Y-70552904D02*
X166208714Y-70505285D01*
X166208714Y-70505285D02*
X166399190Y-70457666D01*
X166399190Y-70457666D02*
X166542047Y-70457666D01*
X166542047Y-70457666D02*
X166732523Y-70505285D01*
X166732523Y-70505285D02*
X166827761Y-70552904D01*
X166827761Y-70552904D02*
X166923000Y-70648142D01*
X166923000Y-70648142D02*
X166970619Y-70790999D01*
X166970619Y-70790999D02*
X166970619Y-71029094D01*
X166065857Y-70076713D02*
X166018238Y-70029094D01*
X166018238Y-70029094D02*
X165970619Y-69933856D01*
X165970619Y-69933856D02*
X165970619Y-69695761D01*
X165970619Y-69695761D02*
X166018238Y-69600523D01*
X166018238Y-69600523D02*
X166065857Y-69552904D01*
X166065857Y-69552904D02*
X166161095Y-69505285D01*
X166161095Y-69505285D02*
X166256333Y-69505285D01*
X166256333Y-69505285D02*
X166399190Y-69552904D01*
X166399190Y-69552904D02*
X166970619Y-70124332D01*
X166970619Y-70124332D02*
X166970619Y-69505285D01*
%TO.C,C15*%
X147125142Y-120449380D02*
X147077523Y-120497000D01*
X147077523Y-120497000D02*
X146934666Y-120544619D01*
X146934666Y-120544619D02*
X146839428Y-120544619D01*
X146839428Y-120544619D02*
X146696571Y-120497000D01*
X146696571Y-120497000D02*
X146601333Y-120401761D01*
X146601333Y-120401761D02*
X146553714Y-120306523D01*
X146553714Y-120306523D02*
X146506095Y-120116047D01*
X146506095Y-120116047D02*
X146506095Y-119973190D01*
X146506095Y-119973190D02*
X146553714Y-119782714D01*
X146553714Y-119782714D02*
X146601333Y-119687476D01*
X146601333Y-119687476D02*
X146696571Y-119592238D01*
X146696571Y-119592238D02*
X146839428Y-119544619D01*
X146839428Y-119544619D02*
X146934666Y-119544619D01*
X146934666Y-119544619D02*
X147077523Y-119592238D01*
X147077523Y-119592238D02*
X147125142Y-119639857D01*
X148077523Y-120544619D02*
X147506095Y-120544619D01*
X147791809Y-120544619D02*
X147791809Y-119544619D01*
X147791809Y-119544619D02*
X147696571Y-119687476D01*
X147696571Y-119687476D02*
X147601333Y-119782714D01*
X147601333Y-119782714D02*
X147506095Y-119830333D01*
X148982285Y-119544619D02*
X148506095Y-119544619D01*
X148506095Y-119544619D02*
X148458476Y-120020809D01*
X148458476Y-120020809D02*
X148506095Y-119973190D01*
X148506095Y-119973190D02*
X148601333Y-119925571D01*
X148601333Y-119925571D02*
X148839428Y-119925571D01*
X148839428Y-119925571D02*
X148934666Y-119973190D01*
X148934666Y-119973190D02*
X148982285Y-120020809D01*
X148982285Y-120020809D02*
X149029904Y-120116047D01*
X149029904Y-120116047D02*
X149029904Y-120354142D01*
X149029904Y-120354142D02*
X148982285Y-120449380D01*
X148982285Y-120449380D02*
X148934666Y-120497000D01*
X148934666Y-120497000D02*
X148839428Y-120544619D01*
X148839428Y-120544619D02*
X148601333Y-120544619D01*
X148601333Y-120544619D02*
X148506095Y-120497000D01*
X148506095Y-120497000D02*
X148458476Y-120449380D01*
%TO.C,RN1*%
X86327819Y-72785676D02*
X85851628Y-73119009D01*
X86327819Y-73357104D02*
X85327819Y-73357104D01*
X85327819Y-73357104D02*
X85327819Y-72976152D01*
X85327819Y-72976152D02*
X85375438Y-72880914D01*
X85375438Y-72880914D02*
X85423057Y-72833295D01*
X85423057Y-72833295D02*
X85518295Y-72785676D01*
X85518295Y-72785676D02*
X85661152Y-72785676D01*
X85661152Y-72785676D02*
X85756390Y-72833295D01*
X85756390Y-72833295D02*
X85804009Y-72880914D01*
X85804009Y-72880914D02*
X85851628Y-72976152D01*
X85851628Y-72976152D02*
X85851628Y-73357104D01*
X86327819Y-72357104D02*
X85327819Y-72357104D01*
X85327819Y-72357104D02*
X86327819Y-71785676D01*
X86327819Y-71785676D02*
X85327819Y-71785676D01*
X86327819Y-70785676D02*
X86327819Y-71357104D01*
X86327819Y-71071390D02*
X85327819Y-71071390D01*
X85327819Y-71071390D02*
X85470676Y-71166628D01*
X85470676Y-71166628D02*
X85565914Y-71261866D01*
X85565914Y-71261866D02*
X85613533Y-71357104D01*
%TO.C,C1*%
X146331333Y-48627380D02*
X146283714Y-48675000D01*
X146283714Y-48675000D02*
X146140857Y-48722619D01*
X146140857Y-48722619D02*
X146045619Y-48722619D01*
X146045619Y-48722619D02*
X145902762Y-48675000D01*
X145902762Y-48675000D02*
X145807524Y-48579761D01*
X145807524Y-48579761D02*
X145759905Y-48484523D01*
X145759905Y-48484523D02*
X145712286Y-48294047D01*
X145712286Y-48294047D02*
X145712286Y-48151190D01*
X145712286Y-48151190D02*
X145759905Y-47960714D01*
X145759905Y-47960714D02*
X145807524Y-47865476D01*
X145807524Y-47865476D02*
X145902762Y-47770238D01*
X145902762Y-47770238D02*
X146045619Y-47722619D01*
X146045619Y-47722619D02*
X146140857Y-47722619D01*
X146140857Y-47722619D02*
X146283714Y-47770238D01*
X146283714Y-47770238D02*
X146331333Y-47817857D01*
X147283714Y-48722619D02*
X146712286Y-48722619D01*
X146998000Y-48722619D02*
X146998000Y-47722619D01*
X146998000Y-47722619D02*
X146902762Y-47865476D01*
X146902762Y-47865476D02*
X146807524Y-47960714D01*
X146807524Y-47960714D02*
X146712286Y-48008333D01*
%TO.C,J5*%
X62979666Y-120849219D02*
X62979666Y-121563504D01*
X62979666Y-121563504D02*
X62932047Y-121706361D01*
X62932047Y-121706361D02*
X62836809Y-121801600D01*
X62836809Y-121801600D02*
X62693952Y-121849219D01*
X62693952Y-121849219D02*
X62598714Y-121849219D01*
X63932047Y-120849219D02*
X63455857Y-120849219D01*
X63455857Y-120849219D02*
X63408238Y-121325409D01*
X63408238Y-121325409D02*
X63455857Y-121277790D01*
X63455857Y-121277790D02*
X63551095Y-121230171D01*
X63551095Y-121230171D02*
X63789190Y-121230171D01*
X63789190Y-121230171D02*
X63884428Y-121277790D01*
X63884428Y-121277790D02*
X63932047Y-121325409D01*
X63932047Y-121325409D02*
X63979666Y-121420647D01*
X63979666Y-121420647D02*
X63979666Y-121658742D01*
X63979666Y-121658742D02*
X63932047Y-121753980D01*
X63932047Y-121753980D02*
X63884428Y-121801600D01*
X63884428Y-121801600D02*
X63789190Y-121849219D01*
X63789190Y-121849219D02*
X63551095Y-121849219D01*
X63551095Y-121849219D02*
X63455857Y-121801600D01*
X63455857Y-121801600D02*
X63408238Y-121753980D01*
%TO.C,U8*%
X93539095Y-93472659D02*
X93539095Y-94282182D01*
X93539095Y-94282182D02*
X93586714Y-94377420D01*
X93586714Y-94377420D02*
X93634333Y-94425040D01*
X93634333Y-94425040D02*
X93729571Y-94472659D01*
X93729571Y-94472659D02*
X93920047Y-94472659D01*
X93920047Y-94472659D02*
X94015285Y-94425040D01*
X94015285Y-94425040D02*
X94062904Y-94377420D01*
X94062904Y-94377420D02*
X94110523Y-94282182D01*
X94110523Y-94282182D02*
X94110523Y-93472659D01*
X94729571Y-93901230D02*
X94634333Y-93853611D01*
X94634333Y-93853611D02*
X94586714Y-93805992D01*
X94586714Y-93805992D02*
X94539095Y-93710754D01*
X94539095Y-93710754D02*
X94539095Y-93663135D01*
X94539095Y-93663135D02*
X94586714Y-93567897D01*
X94586714Y-93567897D02*
X94634333Y-93520278D01*
X94634333Y-93520278D02*
X94729571Y-93472659D01*
X94729571Y-93472659D02*
X94920047Y-93472659D01*
X94920047Y-93472659D02*
X95015285Y-93520278D01*
X95015285Y-93520278D02*
X95062904Y-93567897D01*
X95062904Y-93567897D02*
X95110523Y-93663135D01*
X95110523Y-93663135D02*
X95110523Y-93710754D01*
X95110523Y-93710754D02*
X95062904Y-93805992D01*
X95062904Y-93805992D02*
X95015285Y-93853611D01*
X95015285Y-93853611D02*
X94920047Y-93901230D01*
X94920047Y-93901230D02*
X94729571Y-93901230D01*
X94729571Y-93901230D02*
X94634333Y-93948849D01*
X94634333Y-93948849D02*
X94586714Y-93996468D01*
X94586714Y-93996468D02*
X94539095Y-94091706D01*
X94539095Y-94091706D02*
X94539095Y-94282182D01*
X94539095Y-94282182D02*
X94586714Y-94377420D01*
X94586714Y-94377420D02*
X94634333Y-94425040D01*
X94634333Y-94425040D02*
X94729571Y-94472659D01*
X94729571Y-94472659D02*
X94920047Y-94472659D01*
X94920047Y-94472659D02*
X95015285Y-94425040D01*
X95015285Y-94425040D02*
X95062904Y-94377420D01*
X95062904Y-94377420D02*
X95110523Y-94282182D01*
X95110523Y-94282182D02*
X95110523Y-94091706D01*
X95110523Y-94091706D02*
X95062904Y-93996468D01*
X95062904Y-93996468D02*
X95015285Y-93948849D01*
X95015285Y-93948849D02*
X94920047Y-93901230D01*
%TO.C,K2*%
X170651905Y-91648619D02*
X170651905Y-90648619D01*
X171223333Y-91648619D02*
X170794762Y-91077190D01*
X171223333Y-90648619D02*
X170651905Y-91220047D01*
X171604286Y-90743857D02*
X171651905Y-90696238D01*
X171651905Y-90696238D02*
X171747143Y-90648619D01*
X171747143Y-90648619D02*
X171985238Y-90648619D01*
X171985238Y-90648619D02*
X172080476Y-90696238D01*
X172080476Y-90696238D02*
X172128095Y-90743857D01*
X172128095Y-90743857D02*
X172175714Y-90839095D01*
X172175714Y-90839095D02*
X172175714Y-90934333D01*
X172175714Y-90934333D02*
X172128095Y-91077190D01*
X172128095Y-91077190D02*
X171556667Y-91648619D01*
X171556667Y-91648619D02*
X172175714Y-91648619D01*
%TO.C,D15*%
X166970619Y-51065285D02*
X165970619Y-51065285D01*
X165970619Y-51065285D02*
X165970619Y-50827190D01*
X165970619Y-50827190D02*
X166018238Y-50684333D01*
X166018238Y-50684333D02*
X166113476Y-50589095D01*
X166113476Y-50589095D02*
X166208714Y-50541476D01*
X166208714Y-50541476D02*
X166399190Y-50493857D01*
X166399190Y-50493857D02*
X166542047Y-50493857D01*
X166542047Y-50493857D02*
X166732523Y-50541476D01*
X166732523Y-50541476D02*
X166827761Y-50589095D01*
X166827761Y-50589095D02*
X166923000Y-50684333D01*
X166923000Y-50684333D02*
X166970619Y-50827190D01*
X166970619Y-50827190D02*
X166970619Y-51065285D01*
X166970619Y-49541476D02*
X166970619Y-50112904D01*
X166970619Y-49827190D02*
X165970619Y-49827190D01*
X165970619Y-49827190D02*
X166113476Y-49922428D01*
X166113476Y-49922428D02*
X166208714Y-50017666D01*
X166208714Y-50017666D02*
X166256333Y-50112904D01*
X165970619Y-48636714D02*
X165970619Y-49112904D01*
X165970619Y-49112904D02*
X166446809Y-49160523D01*
X166446809Y-49160523D02*
X166399190Y-49112904D01*
X166399190Y-49112904D02*
X166351571Y-49017666D01*
X166351571Y-49017666D02*
X166351571Y-48779571D01*
X166351571Y-48779571D02*
X166399190Y-48684333D01*
X166399190Y-48684333D02*
X166446809Y-48636714D01*
X166446809Y-48636714D02*
X166542047Y-48589095D01*
X166542047Y-48589095D02*
X166780142Y-48589095D01*
X166780142Y-48589095D02*
X166875380Y-48636714D01*
X166875380Y-48636714D02*
X166923000Y-48684333D01*
X166923000Y-48684333D02*
X166970619Y-48779571D01*
X166970619Y-48779571D02*
X166970619Y-49017666D01*
X166970619Y-49017666D02*
X166923000Y-49112904D01*
X166923000Y-49112904D02*
X166875380Y-49160523D01*
%TO.C,J3*%
X115913266Y-120849219D02*
X115913266Y-121563504D01*
X115913266Y-121563504D02*
X115865647Y-121706361D01*
X115865647Y-121706361D02*
X115770409Y-121801600D01*
X115770409Y-121801600D02*
X115627552Y-121849219D01*
X115627552Y-121849219D02*
X115532314Y-121849219D01*
X116294219Y-120849219D02*
X116913266Y-120849219D01*
X116913266Y-120849219D02*
X116579933Y-121230171D01*
X116579933Y-121230171D02*
X116722790Y-121230171D01*
X116722790Y-121230171D02*
X116818028Y-121277790D01*
X116818028Y-121277790D02*
X116865647Y-121325409D01*
X116865647Y-121325409D02*
X116913266Y-121420647D01*
X116913266Y-121420647D02*
X116913266Y-121658742D01*
X116913266Y-121658742D02*
X116865647Y-121753980D01*
X116865647Y-121753980D02*
X116818028Y-121801600D01*
X116818028Y-121801600D02*
X116722790Y-121849219D01*
X116722790Y-121849219D02*
X116437076Y-121849219D01*
X116437076Y-121849219D02*
X116341838Y-121801600D01*
X116341838Y-121801600D02*
X116294219Y-121753980D01*
%TO.C,C11*%
X181843142Y-120449380D02*
X181795523Y-120497000D01*
X181795523Y-120497000D02*
X181652666Y-120544619D01*
X181652666Y-120544619D02*
X181557428Y-120544619D01*
X181557428Y-120544619D02*
X181414571Y-120497000D01*
X181414571Y-120497000D02*
X181319333Y-120401761D01*
X181319333Y-120401761D02*
X181271714Y-120306523D01*
X181271714Y-120306523D02*
X181224095Y-120116047D01*
X181224095Y-120116047D02*
X181224095Y-119973190D01*
X181224095Y-119973190D02*
X181271714Y-119782714D01*
X181271714Y-119782714D02*
X181319333Y-119687476D01*
X181319333Y-119687476D02*
X181414571Y-119592238D01*
X181414571Y-119592238D02*
X181557428Y-119544619D01*
X181557428Y-119544619D02*
X181652666Y-119544619D01*
X181652666Y-119544619D02*
X181795523Y-119592238D01*
X181795523Y-119592238D02*
X181843142Y-119639857D01*
X182795523Y-120544619D02*
X182224095Y-120544619D01*
X182509809Y-120544619D02*
X182509809Y-119544619D01*
X182509809Y-119544619D02*
X182414571Y-119687476D01*
X182414571Y-119687476D02*
X182319333Y-119782714D01*
X182319333Y-119782714D02*
X182224095Y-119830333D01*
X183747904Y-120544619D02*
X183176476Y-120544619D01*
X183462190Y-120544619D02*
X183462190Y-119544619D01*
X183462190Y-119544619D02*
X183366952Y-119687476D01*
X183366952Y-119687476D02*
X183271714Y-119782714D01*
X183271714Y-119782714D02*
X183176476Y-119830333D01*
%TO.C,F2*%
X200153609Y-106436933D02*
X200153609Y-106770266D01*
X200677419Y-106770266D02*
X199677419Y-106770266D01*
X199677419Y-106770266D02*
X199677419Y-106294076D01*
X199772657Y-105960742D02*
X199725038Y-105913123D01*
X199725038Y-105913123D02*
X199677419Y-105817885D01*
X199677419Y-105817885D02*
X199677419Y-105579790D01*
X199677419Y-105579790D02*
X199725038Y-105484552D01*
X199725038Y-105484552D02*
X199772657Y-105436933D01*
X199772657Y-105436933D02*
X199867895Y-105389314D01*
X199867895Y-105389314D02*
X199963133Y-105389314D01*
X199963133Y-105389314D02*
X200105990Y-105436933D01*
X200105990Y-105436933D02*
X200677419Y-106008361D01*
X200677419Y-106008361D02*
X200677419Y-105389314D01*
%TO.C,J7*%
X78440619Y-105692533D02*
X79154904Y-105692533D01*
X79154904Y-105692533D02*
X79297761Y-105740152D01*
X79297761Y-105740152D02*
X79393000Y-105835390D01*
X79393000Y-105835390D02*
X79440619Y-105978247D01*
X79440619Y-105978247D02*
X79440619Y-106073485D01*
X78440619Y-105311580D02*
X78440619Y-104644914D01*
X78440619Y-104644914D02*
X79440619Y-105073485D01*
%TO.C,K3*%
X139917905Y-91394619D02*
X139917905Y-90394619D01*
X140489333Y-91394619D02*
X140060762Y-90823190D01*
X140489333Y-90394619D02*
X139917905Y-90966047D01*
X140822667Y-90394619D02*
X141441714Y-90394619D01*
X141441714Y-90394619D02*
X141108381Y-90775571D01*
X141108381Y-90775571D02*
X141251238Y-90775571D01*
X141251238Y-90775571D02*
X141346476Y-90823190D01*
X141346476Y-90823190D02*
X141394095Y-90870809D01*
X141394095Y-90870809D02*
X141441714Y-90966047D01*
X141441714Y-90966047D02*
X141441714Y-91204142D01*
X141441714Y-91204142D02*
X141394095Y-91299380D01*
X141394095Y-91299380D02*
X141346476Y-91347000D01*
X141346476Y-91347000D02*
X141251238Y-91394619D01*
X141251238Y-91394619D02*
X140965524Y-91394619D01*
X140965524Y-91394619D02*
X140870286Y-91347000D01*
X140870286Y-91347000D02*
X140822667Y-91299380D01*
%TO.C,D3*%
X154390905Y-73942619D02*
X154390905Y-72942619D01*
X154390905Y-72942619D02*
X154629000Y-72942619D01*
X154629000Y-72942619D02*
X154771857Y-72990238D01*
X154771857Y-72990238D02*
X154867095Y-73085476D01*
X154867095Y-73085476D02*
X154914714Y-73180714D01*
X154914714Y-73180714D02*
X154962333Y-73371190D01*
X154962333Y-73371190D02*
X154962333Y-73514047D01*
X154962333Y-73514047D02*
X154914714Y-73704523D01*
X154914714Y-73704523D02*
X154867095Y-73799761D01*
X154867095Y-73799761D02*
X154771857Y-73895000D01*
X154771857Y-73895000D02*
X154629000Y-73942619D01*
X154629000Y-73942619D02*
X154390905Y-73942619D01*
X155295667Y-72942619D02*
X155914714Y-72942619D01*
X155914714Y-72942619D02*
X155581381Y-73323571D01*
X155581381Y-73323571D02*
X155724238Y-73323571D01*
X155724238Y-73323571D02*
X155819476Y-73371190D01*
X155819476Y-73371190D02*
X155867095Y-73418809D01*
X155867095Y-73418809D02*
X155914714Y-73514047D01*
X155914714Y-73514047D02*
X155914714Y-73752142D01*
X155914714Y-73752142D02*
X155867095Y-73847380D01*
X155867095Y-73847380D02*
X155819476Y-73895000D01*
X155819476Y-73895000D02*
X155724238Y-73942619D01*
X155724238Y-73942619D02*
X155438524Y-73942619D01*
X155438524Y-73942619D02*
X155343286Y-73895000D01*
X155343286Y-73895000D02*
X155295667Y-73847380D01*
%TO.C,J6*%
X78516819Y-113668133D02*
X79231104Y-113668133D01*
X79231104Y-113668133D02*
X79373961Y-113715752D01*
X79373961Y-113715752D02*
X79469200Y-113810990D01*
X79469200Y-113810990D02*
X79516819Y-113953847D01*
X79516819Y-113953847D02*
X79516819Y-114049085D01*
X78516819Y-112763371D02*
X78516819Y-112953847D01*
X78516819Y-112953847D02*
X78564438Y-113049085D01*
X78564438Y-113049085D02*
X78612057Y-113096704D01*
X78612057Y-113096704D02*
X78754914Y-113191942D01*
X78754914Y-113191942D02*
X78945390Y-113239561D01*
X78945390Y-113239561D02*
X79326342Y-113239561D01*
X79326342Y-113239561D02*
X79421580Y-113191942D01*
X79421580Y-113191942D02*
X79469200Y-113144323D01*
X79469200Y-113144323D02*
X79516819Y-113049085D01*
X79516819Y-113049085D02*
X79516819Y-112858609D01*
X79516819Y-112858609D02*
X79469200Y-112763371D01*
X79469200Y-112763371D02*
X79421580Y-112715752D01*
X79421580Y-112715752D02*
X79326342Y-112668133D01*
X79326342Y-112668133D02*
X79088247Y-112668133D01*
X79088247Y-112668133D02*
X78993009Y-112715752D01*
X78993009Y-112715752D02*
X78945390Y-112763371D01*
X78945390Y-112763371D02*
X78897771Y-112858609D01*
X78897771Y-112858609D02*
X78897771Y-113049085D01*
X78897771Y-113049085D02*
X78945390Y-113144323D01*
X78945390Y-113144323D02*
X78993009Y-113191942D01*
X78993009Y-113191942D02*
X79088247Y-113239561D01*
%TO.C,J8*%
X58204466Y-73426019D02*
X58204466Y-74140304D01*
X58204466Y-74140304D02*
X58156847Y-74283161D01*
X58156847Y-74283161D02*
X58061609Y-74378400D01*
X58061609Y-74378400D02*
X57918752Y-74426019D01*
X57918752Y-74426019D02*
X57823514Y-74426019D01*
X58823514Y-73854590D02*
X58728276Y-73806971D01*
X58728276Y-73806971D02*
X58680657Y-73759352D01*
X58680657Y-73759352D02*
X58633038Y-73664114D01*
X58633038Y-73664114D02*
X58633038Y-73616495D01*
X58633038Y-73616495D02*
X58680657Y-73521257D01*
X58680657Y-73521257D02*
X58728276Y-73473638D01*
X58728276Y-73473638D02*
X58823514Y-73426019D01*
X58823514Y-73426019D02*
X59013990Y-73426019D01*
X59013990Y-73426019D02*
X59109228Y-73473638D01*
X59109228Y-73473638D02*
X59156847Y-73521257D01*
X59156847Y-73521257D02*
X59204466Y-73616495D01*
X59204466Y-73616495D02*
X59204466Y-73664114D01*
X59204466Y-73664114D02*
X59156847Y-73759352D01*
X59156847Y-73759352D02*
X59109228Y-73806971D01*
X59109228Y-73806971D02*
X59013990Y-73854590D01*
X59013990Y-73854590D02*
X58823514Y-73854590D01*
X58823514Y-73854590D02*
X58728276Y-73902209D01*
X58728276Y-73902209D02*
X58680657Y-73949828D01*
X58680657Y-73949828D02*
X58633038Y-74045066D01*
X58633038Y-74045066D02*
X58633038Y-74235542D01*
X58633038Y-74235542D02*
X58680657Y-74330780D01*
X58680657Y-74330780D02*
X58728276Y-74378400D01*
X58728276Y-74378400D02*
X58823514Y-74426019D01*
X58823514Y-74426019D02*
X59013990Y-74426019D01*
X59013990Y-74426019D02*
X59109228Y-74378400D01*
X59109228Y-74378400D02*
X59156847Y-74330780D01*
X59156847Y-74330780D02*
X59204466Y-74235542D01*
X59204466Y-74235542D02*
X59204466Y-74045066D01*
X59204466Y-74045066D02*
X59156847Y-73949828D01*
X59156847Y-73949828D02*
X59109228Y-73902209D01*
X59109228Y-73902209D02*
X59013990Y-73854590D01*
%TO.C,T1*%
X165456819Y-65196904D02*
X165456819Y-64625476D01*
X166456819Y-64911190D02*
X165456819Y-64911190D01*
X166456819Y-63768333D02*
X166456819Y-64339761D01*
X166456819Y-64054047D02*
X165456819Y-64054047D01*
X165456819Y-64054047D02*
X165599676Y-64149285D01*
X165599676Y-64149285D02*
X165694914Y-64244523D01*
X165694914Y-64244523D02*
X165742533Y-64339761D01*
X191563276Y-87895619D02*
X191563276Y-86895619D01*
X191563276Y-86895619D02*
X191944228Y-86895619D01*
X191944228Y-86895619D02*
X192039466Y-86943238D01*
X192039466Y-86943238D02*
X192087085Y-86990857D01*
X192087085Y-86990857D02*
X192134704Y-87086095D01*
X192134704Y-87086095D02*
X192134704Y-87228952D01*
X192134704Y-87228952D02*
X192087085Y-87324190D01*
X192087085Y-87324190D02*
X192039466Y-87371809D01*
X192039466Y-87371809D02*
X191944228Y-87419428D01*
X191944228Y-87419428D02*
X191563276Y-87419428D01*
X192563276Y-87895619D02*
X192563276Y-87228952D01*
X192563276Y-87419428D02*
X192610895Y-87324190D01*
X192610895Y-87324190D02*
X192658514Y-87276571D01*
X192658514Y-87276571D02*
X192753752Y-87228952D01*
X192753752Y-87228952D02*
X192848990Y-87228952D01*
X193182324Y-87895619D02*
X193182324Y-87228952D01*
X193182324Y-86895619D02*
X193134705Y-86943238D01*
X193134705Y-86943238D02*
X193182324Y-86990857D01*
X193182324Y-86990857D02*
X193229943Y-86943238D01*
X193229943Y-86943238D02*
X193182324Y-86895619D01*
X193182324Y-86895619D02*
X193182324Y-86990857D01*
X207956819Y-75899285D02*
X207956819Y-76470713D01*
X207956819Y-76184999D02*
X206956819Y-76184999D01*
X206956819Y-76184999D02*
X207099676Y-76280237D01*
X207099676Y-76280237D02*
X207194914Y-76375475D01*
X207194914Y-76375475D02*
X207242533Y-76470713D01*
D12*
%TO.C,C13*%
X172664000Y-118952000D02*
X172664000Y-113712000D01*
X172664000Y-118952000D02*
X157924000Y-118952000D01*
X172664000Y-113712000D02*
X157924000Y-113712000D01*
X157924000Y-118952000D02*
X157924000Y-113712000D01*
%TO.C,U3*%
X91721800Y-66269760D02*
X91721800Y-71469760D01*
X91721800Y-71469760D02*
X97021800Y-71469760D01*
X93371800Y-66269760D02*
X91721800Y-66269760D01*
X97021800Y-66269760D02*
X95371800Y-66269760D01*
X97021800Y-71469760D02*
X97021800Y-66269760D01*
X93371800Y-66269760D02*
G75*
G03*
X95371800Y-66269760I1000000J0D01*
G01*
%TO.C,K4*%
X137682400Y-92910400D02*
X131182400Y-92910400D01*
X137682400Y-92910400D02*
X137682400Y-112110400D01*
X128782400Y-92910400D02*
X122282400Y-92910400D01*
X129982400Y-97010400D02*
X129982400Y-96110400D01*
X129982400Y-97010400D02*
X126282400Y-97010400D01*
X131482400Y-97910400D02*
X131482400Y-102910400D01*
X128482400Y-97910400D02*
X131482400Y-97910400D01*
X123982400Y-98110400D02*
X123982400Y-100410400D01*
X135982400Y-100410400D02*
X135982400Y-98110400D01*
X135982400Y-100410400D02*
X131482400Y-100410400D01*
X128482400Y-100410400D02*
X123982400Y-100410400D01*
X131482400Y-102910400D02*
X128482400Y-102910400D01*
X128482400Y-102910400D02*
X131482400Y-97910400D01*
X128482400Y-102910400D02*
X128482400Y-97910400D01*
X129982400Y-103910400D02*
X126282400Y-103910400D01*
X129982400Y-103910400D02*
X129982400Y-105410400D01*
X126282400Y-103910400D02*
X126282400Y-97010400D01*
X129982400Y-105410400D02*
X132682400Y-109910400D01*
X134282400Y-108610400D02*
X131982400Y-108610400D01*
X125682400Y-108610400D02*
X127982400Y-108610400D01*
X137682400Y-112110400D02*
X122282400Y-112110400D01*
X122282400Y-112110400D02*
X122282400Y-92910400D01*
%TO.C,C9*%
X152652400Y-88912600D02*
X152652400Y-86172600D01*
X152652400Y-88912600D02*
X145412400Y-88912600D01*
X152652400Y-86172600D02*
X145412400Y-86172600D01*
X145412400Y-88912600D02*
X145412400Y-86172600D01*
%TO.C,J9*%
X71279400Y-58410800D02*
X72609400Y-58410800D01*
X71279400Y-59740800D02*
X71279400Y-58410800D01*
X71279400Y-61010800D02*
X71279400Y-83930800D01*
X71279400Y-61010800D02*
X73939400Y-61010800D01*
X71279400Y-83930800D02*
X73939400Y-83930800D01*
X73939400Y-61010800D02*
X73939400Y-83930800D01*
%TO.C,D12*%
X125926400Y-90855800D02*
X126946400Y-90855800D01*
X126946400Y-89385800D02*
X126946400Y-92325800D01*
X126946400Y-92325800D02*
X132386400Y-92325800D01*
X127726400Y-89385800D02*
X127726400Y-92325800D01*
X127846400Y-89385800D02*
X127846400Y-92325800D01*
X127966400Y-89385800D02*
X127966400Y-92325800D01*
X132386400Y-89385800D02*
X126946400Y-89385800D01*
X132386400Y-92325800D02*
X132386400Y-89385800D01*
X133406400Y-90855800D02*
X132386400Y-90855800D01*
%TO.C,C4*%
X185961200Y-89533400D02*
X185961200Y-86793400D01*
X185961200Y-89533400D02*
X178721200Y-89533400D01*
X185961200Y-86793400D02*
X178721200Y-86793400D01*
X178721200Y-89533400D02*
X178721200Y-86793400D01*
%TO.C,J1*%
X176525600Y-128679000D02*
X176525600Y-130919000D01*
X176525600Y-130919000D02*
X178525600Y-130919000D01*
X176765600Y-122559000D02*
X176765600Y-130679000D01*
X176765600Y-122559000D02*
X187045600Y-122559000D01*
X176765600Y-124619000D02*
X187045600Y-124619000D01*
X176765600Y-128619000D02*
X187045600Y-128619000D01*
X176765600Y-130679000D02*
X187045600Y-130679000D01*
X183265600Y-127595000D02*
X183171600Y-127688000D01*
X183435600Y-127835000D02*
X183376600Y-127893000D01*
X185515600Y-125344000D02*
X185456600Y-125403000D01*
X185720600Y-125550000D02*
X185626600Y-125643000D01*
X187045600Y-122559000D02*
X187045600Y-130679000D01*
X177881600Y-125830000D02*
G75*
G03*
X177881647Y-127408089I1483995J-789000D01*
G01*
X180154600Y-125135000D02*
G75*
G03*
X178576511Y-125135047I-789000J-1483995D01*
G01*
X178576600Y-128102999D02*
G75*
G03*
X179394983Y-128299449I788998J1483994D01*
G01*
X179365600Y-128298999D02*
G75*
G03*
X180154312Y-128102351I0J1679999D01*
G01*
X180849600Y-127408000D02*
G75*
G03*
X180849552Y-125829911I-1484000J789000D01*
G01*
X186125600Y-126619000D02*
G75*
G03*
X186125600Y-126619000I-1680000J0D01*
G01*
%TO.C,C12*%
X113937600Y-98017000D02*
X113937600Y-95277000D01*
X113937600Y-98017000D02*
X106697600Y-98017000D01*
X113937600Y-95277000D02*
X106697600Y-95277000D01*
X106697600Y-98017000D02*
X106697600Y-95277000D01*
%TO.C,C2*%
X156942200Y-48957877D02*
X156942200Y-49957877D01*
X157442200Y-49457877D02*
X156442200Y-49457877D01*
X159147200Y-54437523D02*
X148987200Y-54437523D01*
X159147200Y-54477523D02*
X148987200Y-54477523D01*
X159147200Y-54517523D02*
X148987200Y-54517523D01*
X159146200Y-54557523D02*
X148988200Y-54557523D01*
X159145200Y-54597523D02*
X148989200Y-54597523D01*
X159144200Y-54637523D02*
X148990200Y-54637523D01*
X159142200Y-54677523D02*
X148992200Y-54677523D01*
X159140200Y-54717523D02*
X148994200Y-54717523D01*
X159137200Y-54757523D02*
X148997200Y-54757523D01*
X159135200Y-54797523D02*
X148999200Y-54797523D01*
X159132200Y-54837523D02*
X149002200Y-54837523D01*
X159129200Y-54877523D02*
X149005200Y-54877523D01*
X159125200Y-54917523D02*
X149009200Y-54917523D01*
X159121200Y-54957523D02*
X149013200Y-54957523D01*
X159117200Y-54997523D02*
X149017200Y-54997523D01*
X159112200Y-55037523D02*
X149022200Y-55037523D01*
X159107200Y-55077523D02*
X149027200Y-55077523D01*
X159102200Y-55117523D02*
X149032200Y-55117523D01*
X159097200Y-55158523D02*
X149037200Y-55158523D01*
X159091200Y-55198523D02*
X149043200Y-55198523D01*
X159085200Y-55238523D02*
X149049200Y-55238523D01*
X159078200Y-55278523D02*
X149056200Y-55278523D01*
X159071200Y-55318523D02*
X149063200Y-55318523D01*
X159064200Y-55358523D02*
X149070200Y-55358523D01*
X159057200Y-55398523D02*
X149077200Y-55398523D01*
X159049200Y-55438523D02*
X149085200Y-55438523D01*
X159041200Y-55478523D02*
X149093200Y-55478523D01*
X159032200Y-55518523D02*
X149102200Y-55518523D01*
X159023200Y-55558523D02*
X149111200Y-55558523D01*
X159014200Y-55598523D02*
X149120200Y-55598523D01*
X159005200Y-55638523D02*
X149129200Y-55638523D01*
X158995200Y-55678523D02*
X149139200Y-55678523D01*
X158985200Y-55718523D02*
X155308200Y-55718523D01*
X152826200Y-55718523D02*
X149149200Y-55718523D01*
X158974200Y-55758523D02*
X155308200Y-55758523D01*
X152826200Y-55758523D02*
X149160200Y-55758523D01*
X158964200Y-55798523D02*
X155308200Y-55798523D01*
X152826200Y-55798523D02*
X149170200Y-55798523D01*
X158952200Y-55838523D02*
X155308200Y-55838523D01*
X152826200Y-55838523D02*
X149182200Y-55838523D01*
X158941200Y-55878523D02*
X155308200Y-55878523D01*
X152826200Y-55878523D02*
X149193200Y-55878523D01*
X158929200Y-55918523D02*
X155308200Y-55918523D01*
X152826200Y-55918523D02*
X149205200Y-55918523D01*
X158917200Y-55958523D02*
X155308200Y-55958523D01*
X152826200Y-55958523D02*
X149217200Y-55958523D01*
X158904200Y-55998523D02*
X155308200Y-55998523D01*
X152826200Y-55998523D02*
X149230200Y-55998523D01*
X158891200Y-56038523D02*
X155308200Y-56038523D01*
X152826200Y-56038523D02*
X149243200Y-56038523D01*
X158878200Y-56078523D02*
X155308200Y-56078523D01*
X152826200Y-56078523D02*
X149256200Y-56078523D01*
X158864200Y-56118523D02*
X155308200Y-56118523D01*
X152826200Y-56118523D02*
X149270200Y-56118523D01*
X158850200Y-56158523D02*
X155308200Y-56158523D01*
X152826200Y-56158523D02*
X149284200Y-56158523D01*
X158835200Y-56198523D02*
X155308200Y-56198523D01*
X152826200Y-56198523D02*
X149299200Y-56198523D01*
X158821200Y-56238523D02*
X155308200Y-56238523D01*
X152826200Y-56238523D02*
X149313200Y-56238523D01*
X158805200Y-56278523D02*
X155308200Y-56278523D01*
X152826200Y-56278523D02*
X149329200Y-56278523D01*
X158790200Y-56318523D02*
X155308200Y-56318523D01*
X152826200Y-56318523D02*
X149344200Y-56318523D01*
X158774200Y-56358523D02*
X155308200Y-56358523D01*
X152826200Y-56358523D02*
X149360200Y-56358523D01*
X158757200Y-56398523D02*
X155308200Y-56398523D01*
X152826200Y-56398523D02*
X149377200Y-56398523D01*
X158741200Y-56438523D02*
X155308200Y-56438523D01*
X152826200Y-56438523D02*
X149393200Y-56438523D01*
X158724200Y-56478523D02*
X155308200Y-56478523D01*
X152826200Y-56478523D02*
X149410200Y-56478523D01*
X158706200Y-56518523D02*
X155308200Y-56518523D01*
X152826200Y-56518523D02*
X149428200Y-56518523D01*
X158688200Y-56558523D02*
X155308200Y-56558523D01*
X152826200Y-56558523D02*
X149446200Y-56558523D01*
X158670200Y-56598523D02*
X155308200Y-56598523D01*
X152826200Y-56598523D02*
X149464200Y-56598523D01*
X158651200Y-56638523D02*
X155308200Y-56638523D01*
X152826200Y-56638523D02*
X149483200Y-56638523D01*
X158631200Y-56678523D02*
X155308200Y-56678523D01*
X152826200Y-56678523D02*
X149503200Y-56678523D01*
X158612200Y-56718523D02*
X155308200Y-56718523D01*
X152826200Y-56718523D02*
X149522200Y-56718523D01*
X158592200Y-56758523D02*
X155308200Y-56758523D01*
X152826200Y-56758523D02*
X149542200Y-56758523D01*
X158571200Y-56798523D02*
X155308200Y-56798523D01*
X152826200Y-56798523D02*
X149563200Y-56798523D01*
X158550200Y-56838523D02*
X155308200Y-56838523D01*
X152826200Y-56838523D02*
X149584200Y-56838523D01*
X158529200Y-56878523D02*
X155308200Y-56878523D01*
X152826200Y-56878523D02*
X149605200Y-56878523D01*
X158507200Y-56918523D02*
X155308200Y-56918523D01*
X152826200Y-56918523D02*
X149627200Y-56918523D01*
X158484200Y-56958523D02*
X155308200Y-56958523D01*
X152826200Y-56958523D02*
X149650200Y-56958523D01*
X158462200Y-56998523D02*
X155308200Y-56998523D01*
X152826200Y-56998523D02*
X149672200Y-56998523D01*
X158438200Y-57038523D02*
X155308200Y-57038523D01*
X152826200Y-57038523D02*
X149696200Y-57038523D01*
X158414200Y-57078523D02*
X155308200Y-57078523D01*
X152826200Y-57078523D02*
X149720200Y-57078523D01*
X158390200Y-57118523D02*
X155308200Y-57118523D01*
X152826200Y-57118523D02*
X149744200Y-57118523D01*
X158365200Y-57158523D02*
X155308200Y-57158523D01*
X152826200Y-57158523D02*
X149769200Y-57158523D01*
X158340200Y-57198523D02*
X155308200Y-57198523D01*
X152826200Y-57198523D02*
X149794200Y-57198523D01*
X158314200Y-57238523D02*
X155308200Y-57238523D01*
X152826200Y-57238523D02*
X149820200Y-57238523D01*
X158288200Y-57278523D02*
X155308200Y-57278523D01*
X152826200Y-57278523D02*
X149846200Y-57278523D01*
X158261200Y-57318523D02*
X155308200Y-57318523D01*
X152826200Y-57318523D02*
X149873200Y-57318523D01*
X158233200Y-57358523D02*
X155308200Y-57358523D01*
X152826200Y-57358523D02*
X149901200Y-57358523D01*
X158205200Y-57398523D02*
X155308200Y-57398523D01*
X152826200Y-57398523D02*
X149929200Y-57398523D01*
X158177200Y-57438523D02*
X155308200Y-57438523D01*
X152826200Y-57438523D02*
X149957200Y-57438523D01*
X158147200Y-57478523D02*
X155308200Y-57478523D01*
X152826200Y-57478523D02*
X149987200Y-57478523D01*
X158117200Y-57518523D02*
X155308200Y-57518523D01*
X152826200Y-57518523D02*
X150017200Y-57518523D01*
X158087200Y-57558523D02*
X155308200Y-57558523D01*
X152826200Y-57558523D02*
X150047200Y-57558523D01*
X158056200Y-57598523D02*
X155308200Y-57598523D01*
X152826200Y-57598523D02*
X150078200Y-57598523D01*
X158024200Y-57638523D02*
X155308200Y-57638523D01*
X152826200Y-57638523D02*
X150110200Y-57638523D01*
X157992200Y-57678523D02*
X155308200Y-57678523D01*
X152826200Y-57678523D02*
X150142200Y-57678523D01*
X157959200Y-57718523D02*
X155308200Y-57718523D01*
X152826200Y-57718523D02*
X150175200Y-57718523D01*
X157925200Y-57758523D02*
X155308200Y-57758523D01*
X152826200Y-57758523D02*
X150209200Y-57758523D01*
X157891200Y-57798523D02*
X155308200Y-57798523D01*
X152826200Y-57798523D02*
X150243200Y-57798523D01*
X157856200Y-57838523D02*
X155308200Y-57838523D01*
X152826200Y-57838523D02*
X150278200Y-57838523D01*
X157820200Y-57878523D02*
X155308200Y-57878523D01*
X152826200Y-57878523D02*
X150314200Y-57878523D01*
X157783200Y-57918523D02*
X155308200Y-57918523D01*
X152826200Y-57918523D02*
X150351200Y-57918523D01*
X157746200Y-57958523D02*
X155308200Y-57958523D01*
X152826200Y-57958523D02*
X150388200Y-57958523D01*
X157707200Y-57998523D02*
X155308200Y-57998523D01*
X152826200Y-57998523D02*
X150427200Y-57998523D01*
X157668200Y-58038523D02*
X155308200Y-58038523D01*
X152826200Y-58038523D02*
X150466200Y-58038523D01*
X157628200Y-58078523D02*
X155308200Y-58078523D01*
X152826200Y-58078523D02*
X150506200Y-58078523D01*
X157587200Y-58118523D02*
X155308200Y-58118523D01*
X152826200Y-58118523D02*
X150547200Y-58118523D01*
X157545200Y-58158523D02*
X155308200Y-58158523D01*
X152826200Y-58158523D02*
X150589200Y-58158523D01*
X157503200Y-58198523D02*
X150631200Y-58198523D01*
X157459200Y-58238523D02*
X150675200Y-58238523D01*
X157414200Y-58278523D02*
X150720200Y-58278523D01*
X157368200Y-58318523D02*
X150766200Y-58318523D01*
X157321200Y-58358523D02*
X150813200Y-58358523D01*
X157273200Y-58398523D02*
X150861200Y-58398523D01*
X157223200Y-58438523D02*
X150911200Y-58438523D01*
X157173200Y-58478523D02*
X150961200Y-58478523D01*
X157121200Y-58518523D02*
X151013200Y-58518523D01*
X157067200Y-58558523D02*
X151067200Y-58558523D01*
X157012200Y-58598523D02*
X151122200Y-58598523D01*
X156956200Y-58638523D02*
X151178200Y-58638523D01*
X156897200Y-58678523D02*
X151237200Y-58678523D01*
X156837200Y-58718523D02*
X151297200Y-58718523D01*
X156776200Y-58758523D02*
X151358200Y-58758523D01*
X156712200Y-58798523D02*
X151422200Y-58798523D01*
X156646200Y-58838523D02*
X151488200Y-58838523D01*
X156577200Y-58878523D02*
X151557200Y-58878523D01*
X156506200Y-58918523D02*
X151628200Y-58918523D01*
X156432200Y-58958523D02*
X151702200Y-58958523D01*
X156356200Y-58998523D02*
X151778200Y-58998523D01*
X156276200Y-59038523D02*
X151858200Y-59038523D01*
X156192200Y-59078523D02*
X151942200Y-59078523D01*
X156104200Y-59118523D02*
X152030200Y-59118523D01*
X156011200Y-59158523D02*
X152123200Y-59158523D01*
X155913200Y-59198523D02*
X152221200Y-59198523D01*
X155809200Y-59238523D02*
X152325200Y-59238523D01*
X155697200Y-59278523D02*
X152437200Y-59278523D01*
X155577200Y-59318523D02*
X152557200Y-59318523D01*
X155445200Y-59358523D02*
X152689200Y-59358523D01*
X155297200Y-59398523D02*
X152837200Y-59398523D01*
X155129200Y-59438523D02*
X153005200Y-59438523D01*
X154929200Y-59478523D02*
X153205200Y-59478523D01*
X154666200Y-59518523D02*
X153468200Y-59518523D01*
X159187200Y-54437523D02*
G75*
G03*
X159187200Y-54437523I-5120000J0D01*
G01*
%TO.C,D11*%
X144617800Y-90990800D02*
X145637800Y-90990800D01*
X145637800Y-89520800D02*
X145637800Y-92460800D01*
X145637800Y-92460800D02*
X151077800Y-92460800D01*
X146417800Y-89520800D02*
X146417800Y-92460800D01*
X146537800Y-89520800D02*
X146537800Y-92460800D01*
X146657800Y-89520800D02*
X146657800Y-92460800D01*
X151077800Y-89520800D02*
X145637800Y-89520800D01*
X151077800Y-92460800D02*
X151077800Y-89520800D01*
X152097800Y-90990800D02*
X151077800Y-90990800D01*
%TO.C,D6*%
X159598200Y-91010200D02*
X160618200Y-91010200D01*
X160618200Y-89540200D02*
X160618200Y-92480200D01*
X160618200Y-92480200D02*
X166058200Y-92480200D01*
X161398200Y-89540200D02*
X161398200Y-92480200D01*
X161518200Y-89540200D02*
X161518200Y-92480200D01*
X161638200Y-89540200D02*
X161638200Y-92480200D01*
X166058200Y-89540200D02*
X160618200Y-89540200D01*
X166058200Y-92480200D02*
X166058200Y-89540200D01*
X167078200Y-91010200D02*
X166058200Y-91010200D01*
%TO.C,U7*%
X96951000Y-100186800D02*
X96951000Y-94986800D01*
X96951000Y-94986800D02*
X91651000Y-94986800D01*
X95301000Y-100186800D02*
X96951000Y-100186800D01*
X91651000Y-100186800D02*
X93301000Y-100186800D01*
X91651000Y-94986800D02*
X91651000Y-100186800D01*
X95301000Y-100186800D02*
G75*
G03*
X93301000Y-100186800I-1000000J0D01*
G01*
%TO.C,C8*%
X147055200Y-64172600D02*
X144315200Y-64172600D01*
X147055200Y-64172600D02*
X147055200Y-71412600D01*
X144315200Y-64172600D02*
X144315200Y-71412600D01*
X147055200Y-71412600D02*
X144315200Y-71412600D01*
%TO.C,U6*%
X91721800Y-80623280D02*
X91721800Y-85823280D01*
X91721800Y-85823280D02*
X97021800Y-85823280D01*
X93371800Y-80623280D02*
X91721800Y-80623280D01*
X97021800Y-80623280D02*
X95371800Y-80623280D01*
X97021800Y-85823280D02*
X97021800Y-80623280D01*
X93371800Y-80623280D02*
G75*
G03*
X95371800Y-80623280I1000000J0D01*
G01*
%TO.C,C16*%
X137184000Y-118952000D02*
X137184000Y-113712000D01*
X137184000Y-118952000D02*
X122444000Y-118952000D01*
X137184000Y-113712000D02*
X122444000Y-113712000D01*
X122444000Y-118952000D02*
X122444000Y-113712000D01*
%TO.C,D4*%
X177788400Y-91516200D02*
X178808400Y-91516200D01*
X178808400Y-90046200D02*
X178808400Y-92986200D01*
X178808400Y-92986200D02*
X184248400Y-92986200D01*
X179588400Y-90046200D02*
X179588400Y-92986200D01*
X179708400Y-90046200D02*
X179708400Y-92986200D01*
X179828400Y-90046200D02*
X179828400Y-92986200D01*
X184248400Y-90046200D02*
X178808400Y-90046200D01*
X184248400Y-92986200D02*
X184248400Y-90046200D01*
X185268400Y-91516200D02*
X184248400Y-91516200D01*
%TO.C,K1*%
X190199200Y-93570800D02*
X183699200Y-93570800D01*
X190199200Y-93570800D02*
X190199200Y-112770800D01*
X181299200Y-93570800D02*
X174799200Y-93570800D01*
X182499200Y-97670800D02*
X182499200Y-96770800D01*
X182499200Y-97670800D02*
X178799200Y-97670800D01*
X183999200Y-98570800D02*
X183999200Y-103570800D01*
X180999200Y-98570800D02*
X183999200Y-98570800D01*
X176499200Y-98770800D02*
X176499200Y-101070800D01*
X188499200Y-101070800D02*
X188499200Y-98770800D01*
X188499200Y-101070800D02*
X183999200Y-101070800D01*
X180999200Y-101070800D02*
X176499200Y-101070800D01*
X183999200Y-103570800D02*
X180999200Y-103570800D01*
X180999200Y-103570800D02*
X183999200Y-98570800D01*
X180999200Y-103570800D02*
X180999200Y-98570800D01*
X182499200Y-104570800D02*
X178799200Y-104570800D01*
X182499200Y-104570800D02*
X182499200Y-106070800D01*
X178799200Y-104570800D02*
X178799200Y-97670800D01*
X182499200Y-106070800D02*
X185199200Y-110570800D01*
X186799200Y-109270800D02*
X184499200Y-109270800D01*
X178199200Y-109270800D02*
X180499200Y-109270800D01*
X190199200Y-112770800D02*
X174799200Y-112770800D01*
X174799200Y-112770800D02*
X174799200Y-93570800D01*
%TO.C,C5*%
X206121000Y-93323400D02*
X206121000Y-91339400D01*
X206121000Y-93323400D02*
X198381000Y-93323400D01*
X206121000Y-90067400D02*
X206121000Y-88083400D01*
X206121000Y-88083400D02*
X198381000Y-88083400D01*
X198381000Y-93323400D02*
X198381000Y-91339400D01*
X198381000Y-90067400D02*
X198381000Y-88083400D01*
%TO.C,U2*%
X91721800Y-59093000D02*
X91721800Y-64293000D01*
X91721800Y-64293000D02*
X97021800Y-64293000D01*
X93371800Y-59093000D02*
X91721800Y-59093000D01*
X97021800Y-59093000D02*
X95371800Y-59093000D01*
X97021800Y-64293000D02*
X97021800Y-59093000D01*
X93371800Y-59093000D02*
G75*
G03*
X95371800Y-59093000I1000000J0D01*
G01*
%TO.C,C10*%
X133534800Y-88923800D02*
X133534800Y-86183800D01*
X133534800Y-88923800D02*
X126294800Y-88923800D01*
X133534800Y-86183800D02*
X126294800Y-86183800D01*
X126294800Y-88923800D02*
X126294800Y-86183800D01*
%TO.C,C6*%
X164316600Y-89002000D02*
X164316600Y-86262000D01*
X164316600Y-89002000D02*
X157076600Y-89002000D01*
X164316600Y-86262000D02*
X157076600Y-86262000D01*
X157076600Y-89002000D02*
X157076600Y-86262000D01*
%TO.C,C7*%
X156916800Y-62242077D02*
X156916800Y-63242077D01*
X157416800Y-62742077D02*
X156416800Y-62742077D01*
X159121800Y-67721723D02*
X148961800Y-67721723D01*
X159121800Y-67761723D02*
X148961800Y-67761723D01*
X159121800Y-67801723D02*
X148961800Y-67801723D01*
X159120800Y-67841723D02*
X148962800Y-67841723D01*
X159119800Y-67881723D02*
X148963800Y-67881723D01*
X159118800Y-67921723D02*
X148964800Y-67921723D01*
X159116800Y-67961723D02*
X148966800Y-67961723D01*
X159114800Y-68001723D02*
X148968800Y-68001723D01*
X159111800Y-68041723D02*
X148971800Y-68041723D01*
X159109800Y-68081723D02*
X148973800Y-68081723D01*
X159106800Y-68121723D02*
X148976800Y-68121723D01*
X159103800Y-68161723D02*
X148979800Y-68161723D01*
X159099800Y-68201723D02*
X148983800Y-68201723D01*
X159095800Y-68241723D02*
X148987800Y-68241723D01*
X159091800Y-68281723D02*
X148991800Y-68281723D01*
X159086800Y-68321723D02*
X148996800Y-68321723D01*
X159081800Y-68361723D02*
X149001800Y-68361723D01*
X159076800Y-68401723D02*
X149006800Y-68401723D01*
X159071800Y-68442723D02*
X149011800Y-68442723D01*
X159065800Y-68482723D02*
X149017800Y-68482723D01*
X159059800Y-68522723D02*
X149023800Y-68522723D01*
X159052800Y-68562723D02*
X149030800Y-68562723D01*
X159045800Y-68602723D02*
X149037800Y-68602723D01*
X159038800Y-68642723D02*
X149044800Y-68642723D01*
X159031800Y-68682723D02*
X149051800Y-68682723D01*
X159023800Y-68722723D02*
X149059800Y-68722723D01*
X159015800Y-68762723D02*
X149067800Y-68762723D01*
X159006800Y-68802723D02*
X149076800Y-68802723D01*
X158997800Y-68842723D02*
X149085800Y-68842723D01*
X158988800Y-68882723D02*
X149094800Y-68882723D01*
X158979800Y-68922723D02*
X149103800Y-68922723D01*
X158969800Y-68962723D02*
X149113800Y-68962723D01*
X158959800Y-69002723D02*
X155282800Y-69002723D01*
X152800800Y-69002723D02*
X149123800Y-69002723D01*
X158948800Y-69042723D02*
X155282800Y-69042723D01*
X152800800Y-69042723D02*
X149134800Y-69042723D01*
X158938800Y-69082723D02*
X155282800Y-69082723D01*
X152800800Y-69082723D02*
X149144800Y-69082723D01*
X158926800Y-69122723D02*
X155282800Y-69122723D01*
X152800800Y-69122723D02*
X149156800Y-69122723D01*
X158915800Y-69162723D02*
X155282800Y-69162723D01*
X152800800Y-69162723D02*
X149167800Y-69162723D01*
X158903800Y-69202723D02*
X155282800Y-69202723D01*
X152800800Y-69202723D02*
X149179800Y-69202723D01*
X158891800Y-69242723D02*
X155282800Y-69242723D01*
X152800800Y-69242723D02*
X149191800Y-69242723D01*
X158878800Y-69282723D02*
X155282800Y-69282723D01*
X152800800Y-69282723D02*
X149204800Y-69282723D01*
X158865800Y-69322723D02*
X155282800Y-69322723D01*
X152800800Y-69322723D02*
X149217800Y-69322723D01*
X158852800Y-69362723D02*
X155282800Y-69362723D01*
X152800800Y-69362723D02*
X149230800Y-69362723D01*
X158838800Y-69402723D02*
X155282800Y-69402723D01*
X152800800Y-69402723D02*
X149244800Y-69402723D01*
X158824800Y-69442723D02*
X155282800Y-69442723D01*
X152800800Y-69442723D02*
X149258800Y-69442723D01*
X158809800Y-69482723D02*
X155282800Y-69482723D01*
X152800800Y-69482723D02*
X149273800Y-69482723D01*
X158795800Y-69522723D02*
X155282800Y-69522723D01*
X152800800Y-69522723D02*
X149287800Y-69522723D01*
X158779800Y-69562723D02*
X155282800Y-69562723D01*
X152800800Y-69562723D02*
X149303800Y-69562723D01*
X158764800Y-69602723D02*
X155282800Y-69602723D01*
X152800800Y-69602723D02*
X149318800Y-69602723D01*
X158748800Y-69642723D02*
X155282800Y-69642723D01*
X152800800Y-69642723D02*
X149334800Y-69642723D01*
X158731800Y-69682723D02*
X155282800Y-69682723D01*
X152800800Y-69682723D02*
X149351800Y-69682723D01*
X158715800Y-69722723D02*
X155282800Y-69722723D01*
X152800800Y-69722723D02*
X149367800Y-69722723D01*
X158698800Y-69762723D02*
X155282800Y-69762723D01*
X152800800Y-69762723D02*
X149384800Y-69762723D01*
X158680800Y-69802723D02*
X155282800Y-69802723D01*
X152800800Y-69802723D02*
X149402800Y-69802723D01*
X158662800Y-69842723D02*
X155282800Y-69842723D01*
X152800800Y-69842723D02*
X149420800Y-69842723D01*
X158644800Y-69882723D02*
X155282800Y-69882723D01*
X152800800Y-69882723D02*
X149438800Y-69882723D01*
X158625800Y-69922723D02*
X155282800Y-69922723D01*
X152800800Y-69922723D02*
X149457800Y-69922723D01*
X158605800Y-69962723D02*
X155282800Y-69962723D01*
X152800800Y-69962723D02*
X149477800Y-69962723D01*
X158586800Y-70002723D02*
X155282800Y-70002723D01*
X152800800Y-70002723D02*
X149496800Y-70002723D01*
X158566800Y-70042723D02*
X155282800Y-70042723D01*
X152800800Y-70042723D02*
X149516800Y-70042723D01*
X158545800Y-70082723D02*
X155282800Y-70082723D01*
X152800800Y-70082723D02*
X149537800Y-70082723D01*
X158524800Y-70122723D02*
X155282800Y-70122723D01*
X152800800Y-70122723D02*
X149558800Y-70122723D01*
X158503800Y-70162723D02*
X155282800Y-70162723D01*
X152800800Y-70162723D02*
X149579800Y-70162723D01*
X158481800Y-70202723D02*
X155282800Y-70202723D01*
X152800800Y-70202723D02*
X149601800Y-70202723D01*
X158458800Y-70242723D02*
X155282800Y-70242723D01*
X152800800Y-70242723D02*
X149624800Y-70242723D01*
X158436800Y-70282723D02*
X155282800Y-70282723D01*
X152800800Y-70282723D02*
X149646800Y-70282723D01*
X158412800Y-70322723D02*
X155282800Y-70322723D01*
X152800800Y-70322723D02*
X149670800Y-70322723D01*
X158388800Y-70362723D02*
X155282800Y-70362723D01*
X152800800Y-70362723D02*
X149694800Y-70362723D01*
X158364800Y-70402723D02*
X155282800Y-70402723D01*
X152800800Y-70402723D02*
X149718800Y-70402723D01*
X158339800Y-70442723D02*
X155282800Y-70442723D01*
X152800800Y-70442723D02*
X149743800Y-70442723D01*
X158314800Y-70482723D02*
X155282800Y-70482723D01*
X152800800Y-70482723D02*
X149768800Y-70482723D01*
X158288800Y-70522723D02*
X155282800Y-70522723D01*
X152800800Y-70522723D02*
X149794800Y-70522723D01*
X158262800Y-70562723D02*
X155282800Y-70562723D01*
X152800800Y-70562723D02*
X149820800Y-70562723D01*
X158235800Y-70602723D02*
X155282800Y-70602723D01*
X152800800Y-70602723D02*
X149847800Y-70602723D01*
X158207800Y-70642723D02*
X155282800Y-70642723D01*
X152800800Y-70642723D02*
X149875800Y-70642723D01*
X158179800Y-70682723D02*
X155282800Y-70682723D01*
X152800800Y-70682723D02*
X149903800Y-70682723D01*
X158151800Y-70722723D02*
X155282800Y-70722723D01*
X152800800Y-70722723D02*
X149931800Y-70722723D01*
X158121800Y-70762723D02*
X155282800Y-70762723D01*
X152800800Y-70762723D02*
X149961800Y-70762723D01*
X158091800Y-70802723D02*
X155282800Y-70802723D01*
X152800800Y-70802723D02*
X149991800Y-70802723D01*
X158061800Y-70842723D02*
X155282800Y-70842723D01*
X152800800Y-70842723D02*
X150021800Y-70842723D01*
X158030800Y-70882723D02*
X155282800Y-70882723D01*
X152800800Y-70882723D02*
X150052800Y-70882723D01*
X157998800Y-70922723D02*
X155282800Y-70922723D01*
X152800800Y-70922723D02*
X150084800Y-70922723D01*
X157966800Y-70962723D02*
X155282800Y-70962723D01*
X152800800Y-70962723D02*
X150116800Y-70962723D01*
X157933800Y-71002723D02*
X155282800Y-71002723D01*
X152800800Y-71002723D02*
X150149800Y-71002723D01*
X157899800Y-71042723D02*
X155282800Y-71042723D01*
X152800800Y-71042723D02*
X150183800Y-71042723D01*
X157865800Y-71082723D02*
X155282800Y-71082723D01*
X152800800Y-71082723D02*
X150217800Y-71082723D01*
X157830800Y-71122723D02*
X155282800Y-71122723D01*
X152800800Y-71122723D02*
X150252800Y-71122723D01*
X157794800Y-71162723D02*
X155282800Y-71162723D01*
X152800800Y-71162723D02*
X150288800Y-71162723D01*
X157757800Y-71202723D02*
X155282800Y-71202723D01*
X152800800Y-71202723D02*
X150325800Y-71202723D01*
X157720800Y-71242723D02*
X155282800Y-71242723D01*
X152800800Y-71242723D02*
X150362800Y-71242723D01*
X157681800Y-71282723D02*
X155282800Y-71282723D01*
X152800800Y-71282723D02*
X150401800Y-71282723D01*
X157642800Y-71322723D02*
X155282800Y-71322723D01*
X152800800Y-71322723D02*
X150440800Y-71322723D01*
X157602800Y-71362723D02*
X155282800Y-71362723D01*
X152800800Y-71362723D02*
X150480800Y-71362723D01*
X157561800Y-71402723D02*
X155282800Y-71402723D01*
X152800800Y-71402723D02*
X150521800Y-71402723D01*
X157519800Y-71442723D02*
X155282800Y-71442723D01*
X152800800Y-71442723D02*
X150563800Y-71442723D01*
X157477800Y-71482723D02*
X150605800Y-71482723D01*
X157433800Y-71522723D02*
X150649800Y-71522723D01*
X157388800Y-71562723D02*
X150694800Y-71562723D01*
X157342800Y-71602723D02*
X150740800Y-71602723D01*
X157295800Y-71642723D02*
X150787800Y-71642723D01*
X157247800Y-71682723D02*
X150835800Y-71682723D01*
X157197800Y-71722723D02*
X150885800Y-71722723D01*
X157147800Y-71762723D02*
X150935800Y-71762723D01*
X157095800Y-71802723D02*
X150987800Y-71802723D01*
X157041800Y-71842723D02*
X151041800Y-71842723D01*
X156986800Y-71882723D02*
X151096800Y-71882723D01*
X156930800Y-71922723D02*
X151152800Y-71922723D01*
X156871800Y-71962723D02*
X151211800Y-71962723D01*
X156811800Y-72002723D02*
X151271800Y-72002723D01*
X156750800Y-72042723D02*
X151332800Y-72042723D01*
X156686800Y-72082723D02*
X151396800Y-72082723D01*
X156620800Y-72122723D02*
X151462800Y-72122723D01*
X156551800Y-72162723D02*
X151531800Y-72162723D01*
X156480800Y-72202723D02*
X151602800Y-72202723D01*
X156406800Y-72242723D02*
X151676800Y-72242723D01*
X156330800Y-72282723D02*
X151752800Y-72282723D01*
X156250800Y-72322723D02*
X151832800Y-72322723D01*
X156166800Y-72362723D02*
X151916800Y-72362723D01*
X156078800Y-72402723D02*
X152004800Y-72402723D01*
X155985800Y-72442723D02*
X152097800Y-72442723D01*
X155887800Y-72482723D02*
X152195800Y-72482723D01*
X155783800Y-72522723D02*
X152299800Y-72522723D01*
X155671800Y-72562723D02*
X152411800Y-72562723D01*
X155551800Y-72602723D02*
X152531800Y-72602723D01*
X155419800Y-72642723D02*
X152663800Y-72642723D01*
X155271800Y-72682723D02*
X152811800Y-72682723D01*
X155103800Y-72722723D02*
X152979800Y-72722723D01*
X154903800Y-72762723D02*
X153179800Y-72762723D01*
X154640800Y-72802723D02*
X153442800Y-72802723D01*
X159161800Y-67721723D02*
G75*
G03*
X159161800Y-67721723I-5120000J0D01*
G01*
%TO.C,J10*%
X71304800Y-84903000D02*
X72634800Y-84903000D01*
X71304800Y-86233000D02*
X71304800Y-84903000D01*
X71304800Y-87503000D02*
X71304800Y-95183000D01*
X71304800Y-87503000D02*
X73964800Y-87503000D01*
X71304800Y-95183000D02*
X73964800Y-95183000D01*
X73964800Y-87503000D02*
X73964800Y-95183000D01*
%TO.C,C3*%
X158028200Y-44626200D02*
X158028200Y-41886200D01*
X158028200Y-44626200D02*
X150788200Y-44626200D01*
X158028200Y-41886200D02*
X150788200Y-41886200D01*
X150788200Y-44626200D02*
X150788200Y-41886200D01*
%TO.C,U5*%
X91721800Y-73446520D02*
X91721800Y-78646520D01*
X91721800Y-78646520D02*
X97021800Y-78646520D01*
X93371800Y-73446520D02*
X91721800Y-73446520D01*
X97021800Y-73446520D02*
X95371800Y-73446520D01*
X97021800Y-78646520D02*
X97021800Y-73446520D01*
X93371800Y-73446520D02*
G75*
G03*
X95371800Y-73446520I1000000J0D01*
G01*
%TO.C,G\u002A\u002A\u002A*%
G36*
X124311969Y-61556749D02*
G01*
X124388810Y-61574535D01*
X124466905Y-61605455D01*
X124471382Y-61607595D01*
X124540508Y-61648277D01*
X124601626Y-61699311D01*
X124653820Y-61759552D01*
X124696173Y-61827856D01*
X124727769Y-61903080D01*
X124738925Y-61941627D01*
X124747647Y-61992351D01*
X124750923Y-62049000D01*
X124748884Y-62106731D01*
X124741662Y-62160702D01*
X124731972Y-62198731D01*
X124717410Y-62242629D01*
X124920187Y-62442814D01*
X125122965Y-62642999D01*
X125122965Y-63359605D01*
X125122965Y-64076210D01*
X125491032Y-64076210D01*
X125859099Y-64076210D01*
X125859099Y-63877748D01*
X125859099Y-63679286D01*
X125828450Y-63674690D01*
X125760302Y-63657941D01*
X125693683Y-63629166D01*
X125630405Y-63589844D01*
X125572280Y-63541454D01*
X125521120Y-63485473D01*
X125478736Y-63423382D01*
X125450792Y-63366483D01*
X125426732Y-63290077D01*
X125415446Y-63212417D01*
X125415826Y-63183431D01*
X125502910Y-63183431D01*
X125509601Y-63253877D01*
X125529574Y-63322554D01*
X125562913Y-63389840D01*
X125576600Y-63411410D01*
X125622210Y-63467823D01*
X125676482Y-63514822D01*
X125737736Y-63551673D01*
X125804289Y-63577649D01*
X125874461Y-63592017D01*
X125946569Y-63594049D01*
X125986813Y-63589583D01*
X126056321Y-63573124D01*
X126118583Y-63546886D01*
X126176113Y-63509571D01*
X126224467Y-63466891D01*
X126268407Y-63414293D01*
X126303584Y-63353546D01*
X126328756Y-63287628D01*
X126342680Y-63219515D01*
X126345118Y-63177992D01*
X126339058Y-63113832D01*
X126321800Y-63049279D01*
X126294724Y-62987078D01*
X126259212Y-62929972D01*
X126216644Y-62880703D01*
X126179891Y-62849807D01*
X126119537Y-62811994D01*
X126059802Y-62786119D01*
X125997543Y-62771147D01*
X125929616Y-62766042D01*
X125925390Y-62766027D01*
X125850631Y-62771392D01*
X125782857Y-62787898D01*
X125720592Y-62816156D01*
X125662357Y-62856780D01*
X125625739Y-62890335D01*
X125581086Y-62940964D01*
X125547957Y-62992578D01*
X125524579Y-63048538D01*
X125509417Y-63110842D01*
X125502910Y-63183431D01*
X125415826Y-63183431D01*
X125416461Y-63134896D01*
X125429304Y-63058906D01*
X125453504Y-62985837D01*
X125488588Y-62917081D01*
X125534083Y-62854031D01*
X125589518Y-62798078D01*
X125654420Y-62750614D01*
X125661193Y-62746518D01*
X125733876Y-62710604D01*
X125808654Y-62687157D01*
X125884329Y-62675655D01*
X125959704Y-62675576D01*
X126033580Y-62686400D01*
X126104760Y-62707603D01*
X126172047Y-62738665D01*
X126234242Y-62779064D01*
X126290149Y-62828278D01*
X126338570Y-62885786D01*
X126378307Y-62951066D01*
X126408162Y-63023596D01*
X126422476Y-63078092D01*
X126432172Y-63157665D01*
X126429090Y-63236243D01*
X126413957Y-63312513D01*
X126387499Y-63385165D01*
X126350440Y-63452889D01*
X126303509Y-63514374D01*
X126247430Y-63568309D01*
X126182929Y-63613382D01*
X126110733Y-63648284D01*
X126105603Y-63650240D01*
X126072675Y-63660897D01*
X126034556Y-63670645D01*
X125996051Y-63678473D01*
X125961966Y-63683367D01*
X125942924Y-63684506D01*
X125919881Y-63684506D01*
X125919881Y-63880030D01*
X125919881Y-64075553D01*
X126600298Y-64078123D01*
X126714545Y-64078559D01*
X126816193Y-64078978D01*
X126906150Y-64079423D01*
X126985325Y-64079933D01*
X127054625Y-64080548D01*
X127114958Y-64081309D01*
X127167233Y-64082256D01*
X127212358Y-64083429D01*
X127251240Y-64084869D01*
X127284789Y-64086616D01*
X127313910Y-64088710D01*
X127339514Y-64091192D01*
X127362508Y-64094102D01*
X127383800Y-64097480D01*
X127404298Y-64101366D01*
X127424911Y-64105801D01*
X127446546Y-64110826D01*
X127470111Y-64116479D01*
X127471385Y-64116786D01*
X127597589Y-64153924D01*
X127718324Y-64202874D01*
X127832888Y-64262934D01*
X127940577Y-64333402D01*
X128040690Y-64413576D01*
X128132522Y-64502754D01*
X128215371Y-64600233D01*
X128288534Y-64705312D01*
X128351308Y-64817287D01*
X128402991Y-64935457D01*
X128442879Y-65059120D01*
X128452346Y-65096782D01*
X128457896Y-65120688D01*
X128462800Y-65143009D01*
X128467097Y-65164705D01*
X128470829Y-65186739D01*
X128474034Y-65210073D01*
X128476753Y-65235670D01*
X128479027Y-65264491D01*
X128480896Y-65297499D01*
X128482399Y-65335656D01*
X128483577Y-65379925D01*
X128484471Y-65431267D01*
X128485120Y-65490644D01*
X128485564Y-65559019D01*
X128485845Y-65637354D01*
X128486001Y-65726611D01*
X128486073Y-65827753D01*
X128486096Y-65904558D01*
X128486219Y-66513894D01*
X128504792Y-66510909D01*
X128519930Y-66508680D01*
X128544069Y-66505344D01*
X128572813Y-66501505D01*
X128582888Y-66500188D01*
X128612266Y-66495869D01*
X128630057Y-66491829D01*
X128638154Y-66487485D01*
X128638791Y-66483014D01*
X128631905Y-66457299D01*
X128626623Y-66422335D01*
X128623811Y-66388018D01*
X128711963Y-66388018D01*
X128718411Y-66433190D01*
X128739310Y-66500608D01*
X128771951Y-66563695D01*
X128814865Y-66620921D01*
X128866582Y-66670759D01*
X128925630Y-66711680D01*
X128990540Y-66742156D01*
X129026501Y-66753468D01*
X129069514Y-66760945D01*
X129119796Y-66763681D01*
X129172000Y-66761760D01*
X129220776Y-66755261D01*
X129242750Y-66750172D01*
X129312291Y-66724226D01*
X129375313Y-66687117D01*
X129430570Y-66640007D01*
X129476820Y-66584059D01*
X129512819Y-66520436D01*
X129527269Y-66484139D01*
X129545284Y-66412376D01*
X129550439Y-66341158D01*
X129543364Y-66271723D01*
X129524687Y-66205310D01*
X129495040Y-66143157D01*
X129455049Y-66086501D01*
X129405347Y-66036581D01*
X129346561Y-65994634D01*
X129279321Y-65961898D01*
X129257802Y-65954128D01*
X129190459Y-65938559D01*
X129120702Y-65935185D01*
X129050598Y-65943464D01*
X128982218Y-65962851D01*
X128917630Y-65992801D01*
X128858905Y-66032770D01*
X128819538Y-66069436D01*
X128778562Y-66122657D01*
X128746555Y-66183866D01*
X128724278Y-66250323D01*
X128712493Y-66319287D01*
X128711963Y-66388018D01*
X128623811Y-66388018D01*
X128623344Y-66382325D01*
X128622466Y-66341475D01*
X128623228Y-66318808D01*
X128634402Y-66238992D01*
X128657808Y-66163377D01*
X128692528Y-66093078D01*
X128737644Y-66029213D01*
X128792237Y-65972896D01*
X128855390Y-65925243D01*
X128926185Y-65887370D01*
X128999487Y-65861519D01*
X129037825Y-65854237D01*
X129084835Y-65850038D01*
X129136041Y-65848923D01*
X129186964Y-65850890D01*
X129233126Y-65855940D01*
X129261034Y-65861519D01*
X129336733Y-65887605D01*
X129406090Y-65924769D01*
X129468200Y-65971772D01*
X129522160Y-66027377D01*
X129567066Y-66090346D01*
X129602015Y-66159442D01*
X129626101Y-66233426D01*
X129638421Y-66311062D01*
X129638966Y-66379023D01*
X129627694Y-66461274D01*
X129604302Y-66537586D01*
X129568682Y-66608204D01*
X129520722Y-66673372D01*
X129492742Y-66703331D01*
X129436610Y-66753760D01*
X129380402Y-66792359D01*
X129321511Y-66820248D01*
X129257332Y-66838548D01*
X129185257Y-66848378D01*
X129150822Y-66850292D01*
X129110374Y-66851314D01*
X129079257Y-66850888D01*
X129053340Y-66848698D01*
X129028495Y-66844428D01*
X129006231Y-66839204D01*
X128933819Y-66814783D01*
X128865511Y-66779851D01*
X128803243Y-66735900D01*
X128748950Y-66684424D01*
X128704568Y-66626918D01*
X128683536Y-66590209D01*
X128675700Y-66574915D01*
X128668507Y-66564387D01*
X128659575Y-66558120D01*
X128646519Y-66555608D01*
X128626956Y-66556345D01*
X128598504Y-66559824D01*
X128563885Y-66564800D01*
X128534980Y-66568940D01*
X128511179Y-66572257D01*
X128495583Y-66574326D01*
X128491285Y-66574799D01*
X128490107Y-66581367D01*
X128489087Y-66600018D01*
X128488221Y-66629334D01*
X128487506Y-66667899D01*
X128486939Y-66714295D01*
X128486517Y-66767103D01*
X128486238Y-66824907D01*
X128486098Y-66886288D01*
X128486094Y-66949830D01*
X128486223Y-67014114D01*
X128486484Y-67077722D01*
X128486871Y-67139238D01*
X128487384Y-67197244D01*
X128488018Y-67250322D01*
X128488771Y-67297053D01*
X128489640Y-67336022D01*
X128490621Y-67365810D01*
X128491713Y-67384999D01*
X128492912Y-67392172D01*
X128492976Y-67392190D01*
X128500736Y-67390509D01*
X128520176Y-67385703D01*
X128549923Y-67378128D01*
X128588605Y-67368139D01*
X128634851Y-67356091D01*
X128687289Y-67342339D01*
X128744546Y-67327240D01*
X128781689Y-67317404D01*
X128843137Y-67301107D01*
X128902201Y-67285446D01*
X128957238Y-67270857D01*
X129006604Y-67257774D01*
X129048656Y-67246634D01*
X129081749Y-67237872D01*
X129104241Y-67231924D01*
X129110920Y-67230161D01*
X129194884Y-67208034D01*
X129273879Y-67187207D01*
X129346980Y-67167925D01*
X129413260Y-67150434D01*
X129471792Y-67134977D01*
X129521648Y-67121799D01*
X129561903Y-67111147D01*
X129591629Y-67103263D01*
X129609900Y-67098394D01*
X129615482Y-67096880D01*
X129621927Y-67099331D01*
X129634856Y-67108866D01*
X129654723Y-67125903D01*
X129681977Y-67150857D01*
X129717071Y-67184146D01*
X129760456Y-67226187D01*
X129812584Y-67277395D01*
X129834037Y-67298610D01*
X129879157Y-67343028D01*
X129921134Y-67383832D01*
X129958988Y-67420105D01*
X129991742Y-67450931D01*
X130018415Y-67475393D01*
X130038028Y-67492576D01*
X130049603Y-67501563D01*
X130052102Y-67502694D01*
X130063572Y-67500582D01*
X130084120Y-67495805D01*
X130109804Y-67489295D01*
X130116587Y-67487499D01*
X130177111Y-67476448D01*
X130243601Y-67473128D01*
X130310936Y-67477552D01*
X130362666Y-67486841D01*
X130438847Y-67511699D01*
X130508517Y-67547492D01*
X130570903Y-67592988D01*
X130625230Y-67646960D01*
X130670725Y-67708178D01*
X130706615Y-67775413D01*
X130732124Y-67847434D01*
X130746480Y-67923013D01*
X130748908Y-68000920D01*
X130738636Y-68079926D01*
X130737950Y-68083093D01*
X130724312Y-68129162D01*
X130703582Y-68179699D01*
X130678176Y-68229759D01*
X130650511Y-68274399D01*
X130633415Y-68297026D01*
X130577291Y-68354261D01*
X130513600Y-68401202D01*
X130443897Y-68437517D01*
X130369736Y-68462875D01*
X130292671Y-68476944D01*
X130214257Y-68479393D01*
X130136048Y-68469889D01*
X130059599Y-68448101D01*
X130015132Y-68428951D01*
X129947256Y-68388376D01*
X129885933Y-68337148D01*
X129832663Y-68277084D01*
X129788942Y-68209998D01*
X129756269Y-68137707D01*
X129744847Y-68101310D01*
X129738258Y-68066535D01*
X129734227Y-68023493D01*
X129732774Y-67976528D01*
X129733679Y-67939713D01*
X129821308Y-67939713D01*
X129821371Y-68010534D01*
X129825541Y-68042201D01*
X129844635Y-68114436D01*
X129875412Y-68180886D01*
X129916873Y-68240418D01*
X129968020Y-68291897D01*
X130027854Y-68334186D01*
X130095377Y-68366153D01*
X130117195Y-68373627D01*
X130142214Y-68381114D01*
X130162897Y-68385965D01*
X130183285Y-68388619D01*
X130207420Y-68389513D01*
X130239343Y-68389085D01*
X130255642Y-68388628D01*
X130303517Y-68385649D01*
X130342378Y-68379516D01*
X130370452Y-68371711D01*
X130436868Y-68342690D01*
X130496755Y-68303330D01*
X130549017Y-68255110D01*
X130592558Y-68199513D01*
X130626282Y-68138017D01*
X130649093Y-68072103D01*
X130659894Y-68003252D01*
X130660637Y-67979746D01*
X130654155Y-67906183D01*
X130635397Y-67836573D01*
X130605301Y-67772081D01*
X130564809Y-67713876D01*
X130514860Y-67663124D01*
X130456393Y-67620993D01*
X130390349Y-67588649D01*
X130330753Y-67570144D01*
X130294199Y-67564635D01*
X130250049Y-67562652D01*
X130203347Y-67564024D01*
X130159136Y-67568582D01*
X130122463Y-67576155D01*
X130118682Y-67577299D01*
X130050126Y-67605534D01*
X129988872Y-67643818D01*
X129935753Y-67690829D01*
X129891604Y-67745246D01*
X129857258Y-67805747D01*
X129833548Y-67871010D01*
X129821308Y-67939713D01*
X129733679Y-67939713D01*
X129733918Y-67929983D01*
X129737680Y-67888202D01*
X129743716Y-67856812D01*
X129754434Y-67818297D01*
X129626991Y-67693039D01*
X129592745Y-67659621D01*
X129561472Y-67629562D01*
X129534505Y-67604106D01*
X129513174Y-67584497D01*
X129498812Y-67571977D01*
X129492818Y-67567781D01*
X129484700Y-67569446D01*
X129465351Y-67574133D01*
X129436590Y-67581378D01*
X129400235Y-67590719D01*
X129358105Y-67601694D01*
X129318764Y-67612053D01*
X129263623Y-67626624D01*
X129203946Y-67642362D01*
X129143771Y-67658203D01*
X129087134Y-67673085D01*
X129038071Y-67685947D01*
X129023124Y-67689856D01*
X128949333Y-67709194D01*
X128870361Y-67729989D01*
X128790177Y-67751190D01*
X128712749Y-67771746D01*
X128642045Y-67790608D01*
X128604406Y-67800700D01*
X128573533Y-67808955D01*
X128543988Y-67816782D01*
X128520741Y-67822866D01*
X128514922Y-67824363D01*
X128486219Y-67831690D01*
X128486165Y-67971565D01*
X128484203Y-68071230D01*
X128478100Y-68160872D01*
X128467401Y-68243463D01*
X128451655Y-68321972D01*
X128430407Y-68399372D01*
X128412974Y-68451792D01*
X128393711Y-68506225D01*
X128445236Y-68559653D01*
X128495599Y-68621299D01*
X128534818Y-68689361D01*
X128562650Y-68762281D01*
X128578852Y-68838500D01*
X128583182Y-68916459D01*
X128575396Y-68994601D01*
X128555252Y-69071365D01*
X128533218Y-69124378D01*
X128492649Y-69192866D01*
X128441428Y-69254339D01*
X128381222Y-69307329D01*
X128313694Y-69350365D01*
X128241848Y-69381526D01*
X128161436Y-69401908D01*
X128079885Y-69409085D01*
X127998443Y-69403145D01*
X127918357Y-69384177D01*
X127842467Y-69353072D01*
X127809795Y-69334710D01*
X127775317Y-69312079D01*
X127742533Y-69287770D01*
X127714942Y-69264372D01*
X127696421Y-69244960D01*
X127683102Y-69228029D01*
X127619150Y-69251986D01*
X127552066Y-69275308D01*
X127486416Y-69294117D01*
X127419578Y-69308853D01*
X127348929Y-69319956D01*
X127271848Y-69327868D01*
X127185714Y-69333028D01*
X127124600Y-69335091D01*
X126961730Y-69339251D01*
X126954909Y-69366930D01*
X126950994Y-69382087D01*
X126944181Y-69407696D01*
X126935164Y-69441187D01*
X126924633Y-69479991D01*
X126913281Y-69521538D01*
X126912901Y-69522926D01*
X126896142Y-69584144D01*
X126878653Y-69648207D01*
X126861146Y-69712496D01*
X126844333Y-69774392D01*
X126828925Y-69831274D01*
X126815634Y-69880522D01*
X126805172Y-69919516D01*
X126804673Y-69921384D01*
X126797398Y-69948462D01*
X126787980Y-69983254D01*
X126777859Y-70020452D01*
X126771711Y-70042948D01*
X126761711Y-70079463D01*
X126751300Y-70117478D01*
X126742001Y-70151437D01*
X126737497Y-70167888D01*
X126728609Y-70200523D01*
X126718396Y-70238284D01*
X126709000Y-70273241D01*
X126708616Y-70274676D01*
X126693604Y-70330813D01*
X126788252Y-70423254D01*
X126819913Y-70454129D01*
X126850460Y-70483831D01*
X126877735Y-70510269D01*
X126899582Y-70531351D01*
X126913422Y-70544590D01*
X126943944Y-70573485D01*
X127000897Y-70559833D01*
X127081310Y-70547068D01*
X127161030Y-70546852D01*
X127238745Y-70558535D01*
X127313143Y-70581465D01*
X127382912Y-70614995D01*
X127446739Y-70658473D01*
X127503312Y-70711250D01*
X127551318Y-70772675D01*
X127589447Y-70842100D01*
X127594504Y-70853814D01*
X127620521Y-70933084D01*
X127633152Y-71013199D01*
X127632420Y-71093398D01*
X127618351Y-71172920D01*
X127590968Y-71251003D01*
X127581039Y-71272261D01*
X127538983Y-71342697D01*
X127486856Y-71404373D01*
X127425318Y-71456728D01*
X127355031Y-71499204D01*
X127276655Y-71531242D01*
X127273962Y-71532107D01*
X127230405Y-71542301D01*
X127178644Y-71548651D01*
X127123345Y-71551040D01*
X127069178Y-71549350D01*
X127020812Y-71543465D01*
X127000444Y-71538962D01*
X126920102Y-71510893D01*
X126847320Y-71471858D01*
X126782787Y-71422516D01*
X126727191Y-71363530D01*
X126681220Y-71295560D01*
X126645564Y-71219269D01*
X126634686Y-71187670D01*
X126625694Y-71148101D01*
X126620089Y-71100587D01*
X126617926Y-71049435D01*
X126617955Y-71048344D01*
X126703289Y-71048344D01*
X126705692Y-71082475D01*
X126712100Y-71122911D01*
X126721310Y-71163770D01*
X126732119Y-71199171D01*
X126736265Y-71209665D01*
X126770304Y-71272149D01*
X126815011Y-71328414D01*
X126868504Y-71376935D01*
X126928901Y-71416188D01*
X126994320Y-71444647D01*
X127042000Y-71457311D01*
X127079087Y-71462017D01*
X127122361Y-71463558D01*
X127166239Y-71462026D01*
X127205137Y-71457514D01*
X127220203Y-71454367D01*
X127289600Y-71430452D01*
X127352551Y-71396237D01*
X127408186Y-71353042D01*
X127455635Y-71302189D01*
X127494028Y-71244998D01*
X127522497Y-71182789D01*
X127540170Y-71116885D01*
X127546179Y-71048605D01*
X127539654Y-70979270D01*
X127538117Y-70971557D01*
X127516606Y-70900754D01*
X127483642Y-70835527D01*
X127440467Y-70777154D01*
X127388322Y-70726913D01*
X127328447Y-70686085D01*
X127262084Y-70655947D01*
X127219880Y-70643577D01*
X127153882Y-70634468D01*
X127084375Y-70636592D01*
X127014570Y-70649465D01*
X126947676Y-70672604D01*
X126912649Y-70689884D01*
X126875466Y-70715143D01*
X126836834Y-70749307D01*
X126800217Y-70788697D01*
X126769076Y-70829636D01*
X126749205Y-70863501D01*
X126731013Y-70907805D01*
X126716395Y-70957165D01*
X126706703Y-71006132D01*
X126703289Y-71048344D01*
X126617955Y-71048344D01*
X126619259Y-70998949D01*
X126624145Y-70953436D01*
X126631279Y-70921390D01*
X126643585Y-70881353D01*
X126433888Y-70671510D01*
X126390040Y-70627623D01*
X126349167Y-70586699D01*
X126312251Y-70549721D01*
X126280276Y-70517676D01*
X126254225Y-70491550D01*
X126235081Y-70472327D01*
X126223827Y-70460993D01*
X126221177Y-70458289D01*
X126221813Y-70450941D01*
X126225568Y-70432938D01*
X126231891Y-70406629D01*
X126240234Y-70374359D01*
X126244918Y-70356986D01*
X126255612Y-70317785D01*
X126266236Y-70278735D01*
X126275715Y-70243790D01*
X126282976Y-70216905D01*
X126284351Y-70211786D01*
X126290223Y-70189991D01*
X126298818Y-70158223D01*
X126309307Y-70119538D01*
X126320861Y-70076995D01*
X126331959Y-70036194D01*
X126344832Y-69988765D01*
X126358416Y-69938476D01*
X126371571Y-69889566D01*
X126383156Y-69846273D01*
X126390117Y-69820081D01*
X126400592Y-69780824D01*
X126411642Y-69739961D01*
X126421908Y-69702490D01*
X126429614Y-69674881D01*
X126436695Y-69649542D01*
X126446351Y-69614489D01*
X126457670Y-69573059D01*
X126469741Y-69528587D01*
X126480376Y-69489159D01*
X126491219Y-69448883D01*
X126501027Y-69412559D01*
X126509199Y-69382404D01*
X126515135Y-69360635D01*
X126518232Y-69349472D01*
X126518363Y-69349023D01*
X126518499Y-69346579D01*
X126516691Y-69344495D01*
X126511953Y-69342745D01*
X126503296Y-69341299D01*
X126489733Y-69340127D01*
X126470277Y-69339202D01*
X126443940Y-69338495D01*
X126409736Y-69337976D01*
X126366676Y-69337617D01*
X126313772Y-69337389D01*
X126250039Y-69337264D01*
X126174487Y-69337212D01*
X126113071Y-69337205D01*
X125704289Y-69337205D01*
X125697660Y-69362530D01*
X125687768Y-69400800D01*
X125678822Y-69436293D01*
X125671400Y-69466637D01*
X125666078Y-69489457D01*
X125663433Y-69502380D01*
X125663247Y-69504074D01*
X125668928Y-69509623D01*
X125683845Y-69518559D01*
X125704806Y-69528976D01*
X125705456Y-69529274D01*
X125775031Y-69568005D01*
X125836991Y-69616424D01*
X125890536Y-69673104D01*
X125934867Y-69736618D01*
X125969185Y-69805539D01*
X125992692Y-69878440D01*
X126004587Y-69953895D01*
X126004072Y-70030476D01*
X126000886Y-70056793D01*
X125982042Y-70138142D01*
X125951497Y-70213565D01*
X125910106Y-70282117D01*
X125858725Y-70342854D01*
X125798208Y-70394830D01*
X125729409Y-70437100D01*
X125653183Y-70468721D01*
X125619351Y-70478549D01*
X125574001Y-70486859D01*
X125521581Y-70491242D01*
X125467316Y-70491623D01*
X125416428Y-70487930D01*
X125381248Y-70481896D01*
X125303968Y-70457008D01*
X125232166Y-70420651D01*
X125167120Y-70373986D01*
X125110104Y-70318174D01*
X125062392Y-70254376D01*
X125025261Y-70183754D01*
X125010405Y-70144251D01*
X124998681Y-70096904D01*
X124991226Y-70042376D01*
X124989508Y-70009180D01*
X125077681Y-70009180D01*
X125088159Y-70084625D01*
X125110557Y-70154461D01*
X125144128Y-70217771D01*
X125188126Y-70273640D01*
X125241804Y-70321149D01*
X125304417Y-70359383D01*
X125375217Y-70387425D01*
X125388797Y-70391326D01*
X125432952Y-70399420D01*
X125484083Y-70402624D01*
X125537181Y-70401070D01*
X125587238Y-70394894D01*
X125627228Y-70384930D01*
X125694630Y-70355178D01*
X125755565Y-70314737D01*
X125808639Y-70265052D01*
X125852458Y-70207567D01*
X125885627Y-70143725D01*
X125899987Y-70102445D01*
X125911180Y-70043888D01*
X125913798Y-69980257D01*
X125907954Y-69916819D01*
X125894839Y-69862055D01*
X125865663Y-69794190D01*
X125826026Y-69733841D01*
X125777233Y-69681887D01*
X125720587Y-69639209D01*
X125657393Y-69606685D01*
X125588955Y-69585196D01*
X125516576Y-69575620D01*
X125470771Y-69576022D01*
X125400228Y-69585212D01*
X125337251Y-69604143D01*
X125279437Y-69633902D01*
X125224382Y-69675575D01*
X125199932Y-69698442D01*
X125150448Y-69755042D01*
X125113943Y-69814570D01*
X125090030Y-69878011D01*
X125078320Y-69946351D01*
X125077681Y-70009180D01*
X124989508Y-70009180D01*
X124988283Y-69985516D01*
X124990093Y-69931174D01*
X124996898Y-69884199D01*
X124997348Y-69882240D01*
X125022782Y-69801604D01*
X125059341Y-69728266D01*
X125106521Y-69662873D01*
X125163816Y-69606072D01*
X125230722Y-69558510D01*
X125264110Y-69540153D01*
X125307542Y-69520009D01*
X125348020Y-69505668D01*
X125389411Y-69496304D01*
X125435582Y-69491093D01*
X125490397Y-69489209D01*
X125503046Y-69489159D01*
X125602857Y-69489159D01*
X125609021Y-69465521D01*
X125613709Y-69447332D01*
X125620345Y-69421321D01*
X125627583Y-69392763D01*
X125628396Y-69389544D01*
X125641606Y-69337205D01*
X125053051Y-69337135D01*
X124951719Y-69337039D01*
X124855591Y-69336784D01*
X124765586Y-69336379D01*
X124682621Y-69335834D01*
X124607615Y-69335157D01*
X124541486Y-69334360D01*
X124485151Y-69333450D01*
X124439529Y-69332440D01*
X124405538Y-69331336D01*
X124384095Y-69330151D01*
X124383454Y-69330097D01*
X124249379Y-69311992D01*
X124119330Y-69281283D01*
X123994035Y-69238338D01*
X123887662Y-69189675D01*
X127770346Y-69189675D01*
X127775147Y-69195987D01*
X127787639Y-69207950D01*
X127802425Y-69220708D01*
X127865381Y-69264646D01*
X127932524Y-69295814D01*
X128003292Y-69314082D01*
X128077120Y-69319324D01*
X128153446Y-69311412D01*
X128178934Y-69305929D01*
X128247611Y-69282540D01*
X128310472Y-69247697D01*
X128366247Y-69202667D01*
X128413665Y-69148715D01*
X128451456Y-69087107D01*
X128478351Y-69019110D01*
X128482741Y-69003175D01*
X128489251Y-68965431D01*
X128492382Y-68920277D01*
X128492047Y-68873403D01*
X128488159Y-68830500D01*
X128485611Y-68815827D01*
X128472969Y-68773392D01*
X128452747Y-68727067D01*
X128427542Y-68681847D01*
X128399949Y-68642725D01*
X128389085Y-68630180D01*
X128352902Y-68591307D01*
X128334176Y-68628268D01*
X128282535Y-68717918D01*
X128219508Y-68806802D01*
X128147151Y-68892831D01*
X128067519Y-68973917D01*
X127982670Y-69047973D01*
X127894659Y-69112911D01*
X127805541Y-69166642D01*
X127802312Y-69168355D01*
X127784498Y-69178517D01*
X127772893Y-69186595D01*
X127770346Y-69189675D01*
X123887662Y-69189675D01*
X123874219Y-69183525D01*
X123760608Y-69117210D01*
X123653927Y-69039762D01*
X123554904Y-68951549D01*
X123481697Y-68873486D01*
X123399771Y-68769298D01*
X123329824Y-68659656D01*
X123271562Y-68543931D01*
X123224690Y-68421497D01*
X123188915Y-68291723D01*
X123173328Y-68213950D01*
X123171517Y-68202179D01*
X123169899Y-68188183D01*
X123168458Y-68171137D01*
X123167181Y-68150212D01*
X123166051Y-68124583D01*
X123165053Y-68093420D01*
X123164173Y-68055899D01*
X123163395Y-68011190D01*
X123162703Y-67958467D01*
X123162083Y-67896903D01*
X123161520Y-67825670D01*
X123160998Y-67743942D01*
X123160502Y-67650891D01*
X123160337Y-67615191D01*
X123881122Y-67615191D01*
X123881129Y-67732012D01*
X123881199Y-67838753D01*
X123881342Y-67935902D01*
X123881564Y-68023950D01*
X123881876Y-68103385D01*
X123882285Y-68174697D01*
X123882800Y-68238375D01*
X123883430Y-68294910D01*
X123884183Y-68344790D01*
X123885068Y-68388505D01*
X123886093Y-68426544D01*
X123887267Y-68459397D01*
X123888599Y-68487553D01*
X123890096Y-68511502D01*
X123891768Y-68531733D01*
X123893623Y-68548736D01*
X123895669Y-68563000D01*
X123897916Y-68575015D01*
X123900372Y-68585270D01*
X123903045Y-68594254D01*
X123905944Y-68602457D01*
X123909077Y-68610369D01*
X123912453Y-68618478D01*
X123916052Y-68627204D01*
X123943583Y-68685838D01*
X123976758Y-68737236D01*
X124018897Y-68786379D01*
X124029067Y-68796750D01*
X124089270Y-68849203D01*
X124153484Y-68889484D01*
X124223951Y-68918814D01*
X124282151Y-68934335D01*
X124308260Y-68938158D01*
X124345309Y-68941199D01*
X124390752Y-68943455D01*
X124442045Y-68944923D01*
X124496641Y-68945601D01*
X124551997Y-68945485D01*
X124605567Y-68944573D01*
X124654806Y-68942861D01*
X124697169Y-68940348D01*
X124730111Y-68937030D01*
X124743364Y-68934846D01*
X124817001Y-68914999D01*
X124882405Y-68886618D01*
X124942544Y-68848097D01*
X125000388Y-68797829D01*
X125004840Y-68793417D01*
X125033949Y-68762831D01*
X125056021Y-68735365D01*
X125074759Y-68705944D01*
X125091017Y-68675230D01*
X125100234Y-68657040D01*
X125108364Y-68641023D01*
X125115478Y-68626259D01*
X125121647Y-68611824D01*
X125126941Y-68596797D01*
X125131432Y-68580257D01*
X125135189Y-68561279D01*
X125138284Y-68538944D01*
X125140787Y-68512328D01*
X125142770Y-68480509D01*
X125144302Y-68442565D01*
X125145455Y-68397575D01*
X125146298Y-68344615D01*
X125146904Y-68282765D01*
X125147342Y-68211101D01*
X125147683Y-68128702D01*
X125147999Y-68034645D01*
X125148359Y-67928009D01*
X125148361Y-67927407D01*
X125149753Y-67539617D01*
X126500726Y-67539617D01*
X126500731Y-67670396D01*
X126500751Y-67788945D01*
X126500796Y-67895901D01*
X126500873Y-67991902D01*
X126500990Y-68077587D01*
X126501154Y-68153594D01*
X126501374Y-68220561D01*
X126501656Y-68279127D01*
X126502009Y-68329928D01*
X126502441Y-68373604D01*
X126502958Y-68410793D01*
X126503570Y-68442133D01*
X126504283Y-68468262D01*
X126505105Y-68489818D01*
X126506044Y-68507439D01*
X126507109Y-68521764D01*
X126508305Y-68533430D01*
X126509642Y-68543076D01*
X126511127Y-68551341D01*
X126512768Y-68558861D01*
X126514572Y-68566275D01*
X126514929Y-68567705D01*
X126527307Y-68607956D01*
X126544334Y-68650710D01*
X126564032Y-68691748D01*
X126584425Y-68726849D01*
X126598589Y-68746271D01*
X126627768Y-68778930D01*
X126658989Y-68810294D01*
X126688678Y-68836923D01*
X126708872Y-68852467D01*
X126749242Y-68876729D01*
X126796366Y-68899517D01*
X126845101Y-68918656D01*
X126890307Y-68931973D01*
X126903324Y-68934675D01*
X126932295Y-68938400D01*
X126971841Y-68941334D01*
X127019331Y-68943473D01*
X127072137Y-68944814D01*
X127127628Y-68945352D01*
X127183175Y-68945085D01*
X127236148Y-68944009D01*
X127283919Y-68942120D01*
X127323856Y-68939415D01*
X127353332Y-68935889D01*
X127356652Y-68935296D01*
X127435802Y-68913712D01*
X127509083Y-68880534D01*
X127575388Y-68836619D01*
X127633612Y-68782824D01*
X127682646Y-68720007D01*
X127718832Y-68654680D01*
X127724501Y-68642609D01*
X127729678Y-68631770D01*
X127734384Y-68621531D01*
X127738640Y-68611260D01*
X127742467Y-68600327D01*
X127745888Y-68588098D01*
X127748922Y-68573943D01*
X127751593Y-68557231D01*
X127753920Y-68537329D01*
X127755925Y-68513606D01*
X127757630Y-68485430D01*
X127759057Y-68452171D01*
X127760225Y-68413196D01*
X127761158Y-68367874D01*
X127761875Y-68315573D01*
X127762399Y-68255662D01*
X127762751Y-68187509D01*
X127762952Y-68110482D01*
X127763024Y-68023951D01*
X127762988Y-67927283D01*
X127762865Y-67819847D01*
X127762676Y-67701011D01*
X127762444Y-67570144D01*
X127762189Y-67426615D01*
X127762101Y-67375306D01*
X127760216Y-66247468D01*
X127742297Y-66194927D01*
X127709651Y-66119433D01*
X127666240Y-66051252D01*
X127613196Y-65991319D01*
X127551646Y-65940565D01*
X127482721Y-65899925D01*
X127407549Y-65870330D01*
X127328207Y-65852844D01*
X127299963Y-65850119D01*
X127261186Y-65848063D01*
X127214834Y-65846676D01*
X127163865Y-65845960D01*
X127111236Y-65845916D01*
X127059906Y-65846546D01*
X127012831Y-65847850D01*
X126972970Y-65849831D01*
X126943281Y-65852489D01*
X126941840Y-65852676D01*
X126887615Y-65862598D01*
X126834392Y-65877211D01*
X126787537Y-65894960D01*
X126774679Y-65901092D01*
X126708066Y-65942005D01*
X126648402Y-65992780D01*
X126597108Y-66051653D01*
X126555605Y-66116858D01*
X126525315Y-66186632D01*
X126514437Y-66224259D01*
X126512676Y-66231827D01*
X126511073Y-66239584D01*
X126509621Y-66248169D01*
X126508312Y-66258221D01*
X126507139Y-66270378D01*
X126506094Y-66285278D01*
X126505170Y-66303561D01*
X126504360Y-66325865D01*
X126503655Y-66352828D01*
X126503049Y-66385089D01*
X126502533Y-66423287D01*
X126502101Y-66468060D01*
X126501745Y-66520047D01*
X126501458Y-66579887D01*
X126501232Y-66648217D01*
X126501059Y-66725677D01*
X126500933Y-66812905D01*
X126500845Y-66910540D01*
X126500788Y-67019220D01*
X126500755Y-67139583D01*
X126500738Y-67272270D01*
X126500731Y-67395969D01*
X126500726Y-67539617D01*
X125149753Y-67539617D01*
X125150524Y-67324655D01*
X125462602Y-67324607D01*
X125536692Y-67324558D01*
X125598638Y-67324402D01*
X125649805Y-67324090D01*
X125691556Y-67323573D01*
X125725255Y-67322804D01*
X125752264Y-67321732D01*
X125773949Y-67320311D01*
X125791672Y-67318490D01*
X125806798Y-67316220D01*
X125820689Y-67313455D01*
X125829104Y-67311511D01*
X125884321Y-67296377D01*
X125930895Y-67278966D01*
X125973684Y-67257275D01*
X126000139Y-67240997D01*
X126065570Y-67190733D01*
X126120281Y-67132326D01*
X126164080Y-67066095D01*
X126196770Y-66992362D01*
X126218157Y-66911449D01*
X126224302Y-66870580D01*
X126227158Y-66835902D01*
X126228895Y-66792814D01*
X126229579Y-66743994D01*
X126229276Y-66692120D01*
X126228054Y-66639868D01*
X126225980Y-66589918D01*
X126223120Y-66544946D01*
X126219541Y-66507630D01*
X126215309Y-66480649D01*
X126214481Y-66477088D01*
X126188366Y-66399080D01*
X126151107Y-66327263D01*
X126103708Y-66262821D01*
X126047178Y-66206939D01*
X125982522Y-66160804D01*
X125918855Y-66128858D01*
X125896742Y-66119995D01*
X125876078Y-66112540D01*
X125855480Y-66106371D01*
X125833566Y-66101368D01*
X125808950Y-66097410D01*
X125780252Y-66094374D01*
X125746086Y-66092141D01*
X125705072Y-66090588D01*
X125655824Y-66089595D01*
X125596961Y-66089041D01*
X125527098Y-66088803D01*
X125461230Y-66088760D01*
X125150587Y-66088760D01*
X125148311Y-65486008D01*
X125146706Y-65061156D01*
X126488104Y-65061156D01*
X126488407Y-65112168D01*
X126489967Y-65155199D01*
X126492730Y-65187589D01*
X126492935Y-65189158D01*
X126509663Y-65264269D01*
X126538367Y-65335314D01*
X126577814Y-65401047D01*
X126626771Y-65460225D01*
X126684006Y-65511605D01*
X126748285Y-65553941D01*
X126818375Y-65585991D01*
X126893044Y-65606510D01*
X126909272Y-65609250D01*
X126933710Y-65611677D01*
X126968867Y-65613488D01*
X127012206Y-65614698D01*
X127061189Y-65615326D01*
X127113279Y-65615389D01*
X127165939Y-65614904D01*
X127216631Y-65613888D01*
X127262817Y-65612360D01*
X127301960Y-65610336D01*
X127331523Y-65607834D01*
X127342686Y-65606277D01*
X127414600Y-65587327D01*
X127484883Y-65556873D01*
X127550611Y-65516625D01*
X127608861Y-65468295D01*
X127644190Y-65429871D01*
X127673678Y-65387971D01*
X127700849Y-65339113D01*
X127723245Y-65288337D01*
X127738406Y-65240679D01*
X127740019Y-65233572D01*
X127743880Y-65206962D01*
X127746828Y-65169824D01*
X127748858Y-65125056D01*
X127749968Y-65075556D01*
X127750154Y-65024224D01*
X127749414Y-64973957D01*
X127747743Y-64927654D01*
X127745139Y-64888214D01*
X127741599Y-64858535D01*
X127740435Y-64852346D01*
X127720551Y-64787415D01*
X127689400Y-64722995D01*
X127648953Y-64662275D01*
X127601183Y-64608441D01*
X127575151Y-64585091D01*
X127530068Y-64552795D01*
X127477806Y-64523284D01*
X127423128Y-64498874D01*
X127370796Y-64481880D01*
X127355970Y-64478516D01*
X127325321Y-64474172D01*
X127283874Y-64470866D01*
X127234298Y-64468585D01*
X127179262Y-64467319D01*
X127121435Y-64467053D01*
X127063484Y-64467777D01*
X127008079Y-64469478D01*
X126957888Y-64472145D01*
X126915580Y-64475763D01*
X126883823Y-64480323D01*
X126882071Y-64480675D01*
X126809222Y-64502178D01*
X126739969Y-64535159D01*
X126676152Y-64578166D01*
X126619607Y-64629747D01*
X126572173Y-64688452D01*
X126535689Y-64752827D01*
X126534735Y-64754939D01*
X126520667Y-64788140D01*
X126509965Y-64818667D01*
X126502099Y-64849426D01*
X126496537Y-64883323D01*
X126492748Y-64923266D01*
X126490203Y-64972162D01*
X126489114Y-65004820D01*
X126488104Y-65061156D01*
X125146706Y-65061156D01*
X125146034Y-64883256D01*
X125130306Y-64832605D01*
X125099160Y-64753365D01*
X125057847Y-64682384D01*
X125007106Y-64620333D01*
X124947675Y-64567884D01*
X124880290Y-64525707D01*
X124805690Y-64494474D01*
X124740266Y-64477618D01*
X124713344Y-64474057D01*
X124675557Y-64471262D01*
X124629526Y-64469234D01*
X124577871Y-64467972D01*
X124523214Y-64467477D01*
X124468175Y-64467748D01*
X124415373Y-64468786D01*
X124367431Y-64470591D01*
X124326969Y-64473162D01*
X124296606Y-64476500D01*
X124290030Y-64477618D01*
X124210090Y-64499472D01*
X124136732Y-64532829D01*
X124070700Y-64577009D01*
X124012741Y-64631333D01*
X123963599Y-64695121D01*
X123924022Y-64767694D01*
X123899101Y-64833694D01*
X123883739Y-64883256D01*
X123881929Y-66675155D01*
X123881736Y-66862740D01*
X123881555Y-67037308D01*
X123881395Y-67199347D01*
X123881263Y-67349348D01*
X123881169Y-67487799D01*
X123881122Y-67615191D01*
X123160337Y-67615191D01*
X123160017Y-67545690D01*
X123159705Y-67471544D01*
X123156925Y-66791126D01*
X122958079Y-66791126D01*
X122759232Y-66791126D01*
X122759132Y-66823206D01*
X122753485Y-66876465D01*
X122737121Y-66935968D01*
X122710444Y-67000289D01*
X122707073Y-67007239D01*
X122691187Y-67037881D01*
X122675769Y-67062872D01*
X122657908Y-67086136D01*
X122634689Y-67111601D01*
X122614350Y-67132179D01*
X122586922Y-67158130D01*
X122558567Y-67182780D01*
X122532784Y-67203205D01*
X122514447Y-67215688D01*
X122444456Y-67249199D01*
X122368857Y-67271666D01*
X122290071Y-67282907D01*
X122210517Y-67282739D01*
X122132616Y-67270981D01*
X122064119Y-67249622D01*
X121991537Y-67213782D01*
X121927303Y-67168395D01*
X121871896Y-67114745D01*
X121825795Y-67054117D01*
X121789480Y-66987797D01*
X121763429Y-66917069D01*
X121748122Y-66843220D01*
X121744635Y-66778594D01*
X121834099Y-66778594D01*
X121840638Y-66853436D01*
X121859414Y-66923841D01*
X121889577Y-66988705D01*
X121930274Y-67046923D01*
X121980655Y-67097391D01*
X122039867Y-67139005D01*
X122107060Y-67170660D01*
X122146024Y-67183132D01*
X122200271Y-67192756D01*
X122260299Y-67194871D01*
X122320796Y-67189678D01*
X122376453Y-67177379D01*
X122386671Y-67174037D01*
X122448456Y-67147846D01*
X122502019Y-67114357D01*
X122551894Y-67070710D01*
X122554055Y-67068532D01*
X122601163Y-67011513D01*
X122636432Y-66948169D01*
X122659620Y-66879101D01*
X122670487Y-66804906D01*
X122671336Y-66777350D01*
X122665245Y-66705418D01*
X122647503Y-66638418D01*
X122619296Y-66577070D01*
X122581806Y-66522097D01*
X122536218Y-66474218D01*
X122483716Y-66434156D01*
X122425484Y-66402631D01*
X122362705Y-66380366D01*
X122296565Y-66368080D01*
X122228245Y-66366495D01*
X122158932Y-66376333D01*
X122089808Y-66398314D01*
X122066309Y-66408803D01*
X122002885Y-66446518D01*
X121948298Y-66493774D01*
X121903378Y-66549250D01*
X121868954Y-66611627D01*
X121845853Y-66679585D01*
X121834906Y-66751804D01*
X121834099Y-66778594D01*
X121744635Y-66778594D01*
X121744038Y-66767534D01*
X121751657Y-66691296D01*
X121771457Y-66615792D01*
X121801825Y-66546219D01*
X121843862Y-66480844D01*
X121896749Y-66421801D01*
X121958725Y-66370583D01*
X122028028Y-66328686D01*
X122089323Y-66302249D01*
X122112490Y-66294197D01*
X122131730Y-66288519D01*
X122150248Y-66284806D01*
X122171251Y-66282649D01*
X122197946Y-66281637D01*
X122233538Y-66281361D01*
X122252718Y-66281367D01*
X122293287Y-66281557D01*
X122323577Y-66282290D01*
X122346814Y-66283982D01*
X122366226Y-66287049D01*
X122385038Y-66291909D01*
X122406479Y-66298979D01*
X122416566Y-66302537D01*
X122448786Y-66315050D01*
X122481532Y-66329497D01*
X122508866Y-66343218D01*
X122514294Y-66346304D01*
X122543346Y-66366488D01*
X122576748Y-66394520D01*
X122611434Y-66427335D01*
X122644339Y-66461872D01*
X122672400Y-66495068D01*
X122692549Y-66523858D01*
X122693359Y-66525239D01*
X122713161Y-66564299D01*
X122731417Y-66609080D01*
X122746166Y-66654174D01*
X122755449Y-66694178D01*
X122756086Y-66698265D01*
X122760766Y-66730345D01*
X122959228Y-66730345D01*
X123157690Y-66730345D01*
X123157690Y-66372408D01*
X123157690Y-66014471D01*
X122429998Y-66014413D01*
X121702306Y-66014354D01*
X121499086Y-65811727D01*
X121295867Y-65609101D01*
X121269467Y-65618317D01*
X121207353Y-65634190D01*
X121138987Y-65641606D01*
X121068666Y-65640540D01*
X121000690Y-65630970D01*
X120959418Y-65620053D01*
X120891288Y-65593463D01*
X120831280Y-65559620D01*
X120775466Y-65516099D01*
X120746408Y-65488445D01*
X120718014Y-65458729D01*
X120696816Y-65433314D01*
X120679641Y-65407838D01*
X120663319Y-65377942D01*
X120657468Y-65366133D01*
X120632682Y-65310154D01*
X120616089Y-65259143D01*
X120606549Y-65208306D01*
X120602921Y-65152848D01*
X120602820Y-65138534D01*
X120692754Y-65138534D01*
X120699175Y-65212123D01*
X120717419Y-65280943D01*
X120746371Y-65344088D01*
X120784910Y-65400657D01*
X120831921Y-65449746D01*
X120886285Y-65490451D01*
X120946884Y-65521870D01*
X121012601Y-65543099D01*
X121082319Y-65553235D01*
X121154918Y-65551375D01*
X121195624Y-65544921D01*
X121266068Y-65523882D01*
X121330386Y-65491819D01*
X121387550Y-65449979D01*
X121436528Y-65399611D01*
X121476291Y-65341961D01*
X121505807Y-65278277D01*
X121524047Y-65209806D01*
X121529991Y-65140159D01*
X121523517Y-65065994D01*
X121505053Y-64996476D01*
X121475619Y-64932615D01*
X121436233Y-64875422D01*
X121387914Y-64825905D01*
X121331679Y-64785075D01*
X121268549Y-64753940D01*
X121199540Y-64733511D01*
X121125673Y-64724797D01*
X121110671Y-64724548D01*
X121045226Y-64728782D01*
X120985275Y-64742232D01*
X120927139Y-64766026D01*
X120873502Y-64797101D01*
X120817294Y-64841637D01*
X120770136Y-64896061D01*
X120733831Y-64957094D01*
X120713463Y-65003938D01*
X120700700Y-65047336D01*
X120694246Y-65093013D01*
X120692754Y-65138534D01*
X120602820Y-65138534D01*
X120602806Y-65136513D01*
X120609496Y-65053877D01*
X120628839Y-64975511D01*
X120660517Y-64902174D01*
X120704214Y-64834624D01*
X120750804Y-64782094D01*
X120789619Y-64746594D01*
X120827517Y-64718473D01*
X120869968Y-64693963D01*
X120899772Y-64679482D01*
X120965773Y-64654775D01*
X121035508Y-64640454D01*
X121111471Y-64635872D01*
X121195494Y-64642204D01*
X121274712Y-64661141D01*
X121348932Y-64692593D01*
X121417963Y-64736469D01*
X121481611Y-64792678D01*
X121508878Y-64822474D01*
X121531897Y-64854011D01*
X121555466Y-64894373D01*
X121577427Y-64939152D01*
X121595623Y-64983941D01*
X121607895Y-65024332D01*
X121608069Y-65025080D01*
X121616167Y-65076708D01*
X121619071Y-65134803D01*
X121616795Y-65193389D01*
X121609352Y-65246490D01*
X121607557Y-65254615D01*
X121595372Y-65306357D01*
X121739819Y-65450921D01*
X121884266Y-65595486D01*
X122520079Y-65595685D01*
X123155892Y-65595883D01*
X123159697Y-65435422D01*
X123163107Y-65343093D01*
X123168969Y-65261400D01*
X123177741Y-65187618D01*
X123189882Y-65119023D01*
X123205851Y-65052892D01*
X123226107Y-64986500D01*
X123243700Y-64936745D01*
X123263964Y-64882178D01*
X123226784Y-64849399D01*
X123170746Y-64791481D01*
X123125822Y-64727239D01*
X123092060Y-64658068D01*
X123069510Y-64585360D01*
X123058218Y-64510508D01*
X123058230Y-64450538D01*
X123144916Y-64450538D01*
X123147906Y-64521445D01*
X123163146Y-64590935D01*
X123190112Y-64657109D01*
X123228282Y-64718064D01*
X123256827Y-64751853D01*
X123276106Y-64772035D01*
X123291695Y-64787876D01*
X123301457Y-64797229D01*
X123303611Y-64798837D01*
X123307666Y-64793310D01*
X123315852Y-64778865D01*
X123325694Y-64760004D01*
X123344745Y-64726496D01*
X123371058Y-64686107D01*
X123402517Y-64641679D01*
X123437005Y-64596052D01*
X123472406Y-64552066D01*
X123506603Y-64512561D01*
X123523859Y-64494055D01*
X123602976Y-64417594D01*
X123685322Y-64349678D01*
X123774543Y-64287504D01*
X123854970Y-64239073D01*
X123874619Y-64227128D01*
X123885541Y-64216985D01*
X123887331Y-64206565D01*
X123879586Y-64193790D01*
X123861899Y-64176582D01*
X123839010Y-64157137D01*
X123776600Y-64113595D01*
X123709128Y-64082098D01*
X123637973Y-64062986D01*
X123564513Y-64056601D01*
X123490127Y-64063281D01*
X123473062Y-64066695D01*
X123404029Y-64088654D01*
X123340215Y-64122144D01*
X123283014Y-64165793D01*
X123233821Y-64218229D01*
X123194030Y-64278078D01*
X123165035Y-64343967D01*
X123154698Y-64380119D01*
X123144916Y-64450538D01*
X123058230Y-64450538D01*
X123058233Y-64434907D01*
X123069603Y-64359949D01*
X123092377Y-64287027D01*
X123126602Y-64217535D01*
X123172327Y-64152866D01*
X123201604Y-64120656D01*
X123265038Y-64065169D01*
X123333046Y-64022363D01*
X123406017Y-63992073D01*
X123484344Y-63974137D01*
X123566278Y-63968388D01*
X123650003Y-63974845D01*
X123729696Y-63994164D01*
X123805107Y-64026271D01*
X123850405Y-64053097D01*
X123871664Y-64068684D01*
X123895525Y-64088569D01*
X123919725Y-64110547D01*
X123942000Y-64132415D01*
X123960087Y-64151969D01*
X123971723Y-64167005D01*
X123974866Y-64174278D01*
X123979485Y-64177463D01*
X123994019Y-64174323D01*
X124013699Y-64167035D01*
X124111317Y-64133408D01*
X124218237Y-64107598D01*
X124334954Y-64089523D01*
X124461966Y-64079106D01*
X124582221Y-64076210D01*
X124697622Y-64076210D01*
X124697424Y-63449223D01*
X124697226Y-62822235D01*
X124552068Y-62678634D01*
X124508480Y-62635758D01*
X124473393Y-62601844D01*
X124445940Y-62576122D01*
X124425251Y-62557823D01*
X124410459Y-62546180D01*
X124400696Y-62540422D01*
X124395182Y-62539746D01*
X124369161Y-62547395D01*
X124334089Y-62553896D01*
X124294407Y-62558713D01*
X124254558Y-62561315D01*
X124218982Y-62561166D01*
X124217610Y-62561089D01*
X124136396Y-62550105D01*
X124060369Y-62527615D01*
X123990312Y-62494670D01*
X123927008Y-62452323D01*
X123871240Y-62401624D01*
X123823791Y-62343626D01*
X123785443Y-62279380D01*
X123756980Y-62209938D01*
X123739185Y-62136351D01*
X123732840Y-62059672D01*
X123734478Y-62037772D01*
X123823625Y-62037772D01*
X123825959Y-62108900D01*
X123840740Y-62178090D01*
X123842110Y-62182376D01*
X123870967Y-62250100D01*
X123910141Y-62310279D01*
X123958273Y-62362166D01*
X124014005Y-62405010D01*
X124075980Y-62438062D01*
X124142839Y-62460572D01*
X124213226Y-62471791D01*
X124285781Y-62470969D01*
X124346310Y-62460694D01*
X124413846Y-62437445D01*
X124476684Y-62402463D01*
X124532936Y-62357228D01*
X124580717Y-62303217D01*
X124613311Y-62251417D01*
X124634802Y-62206472D01*
X124648972Y-62165548D01*
X124657542Y-62122634D01*
X124661488Y-62083352D01*
X124660013Y-62012588D01*
X124646204Y-61943321D01*
X124620991Y-61877459D01*
X124585304Y-61816909D01*
X124540075Y-61763581D01*
X124486234Y-61719382D01*
X124482901Y-61717162D01*
X124413832Y-61679180D01*
X124342310Y-61654444D01*
X124268665Y-61643007D01*
X124193229Y-61644925D01*
X124123444Y-61658283D01*
X124070197Y-61678387D01*
X124016537Y-61709169D01*
X123965589Y-61748270D01*
X123920475Y-61793332D01*
X123888236Y-61835811D01*
X123855070Y-61898922D01*
X123833431Y-61967011D01*
X123823625Y-62037772D01*
X123734478Y-62037772D01*
X123738729Y-61980952D01*
X123748895Y-61931473D01*
X123774587Y-61857775D01*
X123811886Y-61788824D01*
X123859376Y-61726140D01*
X123915641Y-61671243D01*
X123979263Y-61625653D01*
X124048827Y-61590890D01*
X124075164Y-61581282D01*
X124156528Y-61560215D01*
X124235002Y-61552007D01*
X124311969Y-61556749D01*
G37*
%TO.C,J2*%
X145258200Y-128679000D02*
X145258200Y-130919000D01*
X145258200Y-130919000D02*
X147258200Y-130919000D01*
X145498200Y-122559000D02*
X145498200Y-130679000D01*
X145498200Y-122559000D02*
X176098200Y-122559000D01*
X145498200Y-124619000D02*
X176098200Y-124619000D01*
X145498200Y-128619000D02*
X176098200Y-128619000D01*
X145498200Y-130679000D02*
X176098200Y-130679000D01*
X151998200Y-127595000D02*
X151904200Y-127688000D01*
X152168200Y-127835000D02*
X152109200Y-127893000D01*
X154248200Y-125344000D02*
X154189200Y-125403000D01*
X154453200Y-125550000D02*
X154359200Y-125643000D01*
X157078200Y-127595000D02*
X156984200Y-127688000D01*
X157248200Y-127835000D02*
X157189200Y-127893000D01*
X159328200Y-125344000D02*
X159269200Y-125403000D01*
X159533200Y-125550000D02*
X159439200Y-125643000D01*
X162158200Y-127595000D02*
X162064200Y-127688000D01*
X162328200Y-127835000D02*
X162269200Y-127893000D01*
X164408200Y-125344000D02*
X164349200Y-125403000D01*
X164613200Y-125550000D02*
X164519200Y-125643000D01*
X167238200Y-127595000D02*
X167144200Y-127688000D01*
X167408200Y-127835000D02*
X167349200Y-127893000D01*
X169488200Y-125344000D02*
X169429200Y-125403000D01*
X169693200Y-125550000D02*
X169599200Y-125643000D01*
X172318200Y-127595000D02*
X172224200Y-127688000D01*
X172488200Y-127835000D02*
X172429200Y-127893000D01*
X174568200Y-125344000D02*
X174509200Y-125403000D01*
X174773200Y-125550000D02*
X174679200Y-125643000D01*
X176098200Y-122559000D02*
X176098200Y-130679000D01*
X146614200Y-125830000D02*
G75*
G03*
X146614247Y-127408089I1483995J-789000D01*
G01*
X148887200Y-125135000D02*
G75*
G03*
X147309111Y-125135047I-789000J-1483995D01*
G01*
X147309200Y-128102999D02*
G75*
G03*
X148127583Y-128299449I788998J1483994D01*
G01*
X148098200Y-128298999D02*
G75*
G03*
X148886912Y-128102351I0J1679999D01*
G01*
X149582200Y-127408000D02*
G75*
G03*
X149582152Y-125829911I-1484000J789000D01*
G01*
X154858200Y-126619000D02*
G75*
G03*
X154858200Y-126619000I-1680000J0D01*
G01*
X159938200Y-126619000D02*
G75*
G03*
X159938200Y-126619000I-1680000J0D01*
G01*
X165018200Y-126619000D02*
G75*
G03*
X165018200Y-126619000I-1680000J0D01*
G01*
X170098200Y-126619000D02*
G75*
G03*
X170098200Y-126619000I-1680000J0D01*
G01*
X175178200Y-126619000D02*
G75*
G03*
X175178200Y-126619000I-1680000J0D01*
G01*
%TO.C,U4*%
X102751600Y-59072000D02*
X102751600Y-82172000D01*
X102751600Y-82172000D02*
X113251600Y-82172000D01*
X105751600Y-59132000D02*
X105751600Y-82112000D01*
X105751600Y-82112000D02*
X110251600Y-82112000D01*
X107001600Y-59132000D02*
X105751600Y-59132000D01*
X110251600Y-59132000D02*
X109001600Y-59132000D01*
X110251600Y-82112000D02*
X110251600Y-59132000D01*
X113251600Y-59072000D02*
X102751600Y-59072000D01*
X113251600Y-82172000D02*
X113251600Y-59072000D01*
X107001600Y-59132000D02*
G75*
G03*
X109001600Y-59132000I1000000J0D01*
G01*
%TO.C,J4*%
X84196600Y-128679000D02*
X84196600Y-130919000D01*
X84196600Y-130919000D02*
X86196600Y-130919000D01*
X84436600Y-122559000D02*
X84436600Y-130679000D01*
X84436600Y-122559000D02*
X115036600Y-122559000D01*
X84436600Y-124619000D02*
X115036600Y-124619000D01*
X84436600Y-128619000D02*
X115036600Y-128619000D01*
X84436600Y-130679000D02*
X115036600Y-130679000D01*
X90936600Y-127595000D02*
X90842600Y-127688000D01*
X91106600Y-127835000D02*
X91047600Y-127893000D01*
X93186600Y-125344000D02*
X93127600Y-125403000D01*
X93391600Y-125550000D02*
X93297600Y-125643000D01*
X96016600Y-127595000D02*
X95922600Y-127688000D01*
X96186600Y-127835000D02*
X96127600Y-127893000D01*
X98266600Y-125344000D02*
X98207600Y-125403000D01*
X98471600Y-125550000D02*
X98377600Y-125643000D01*
X101096600Y-127595000D02*
X101002600Y-127688000D01*
X101266600Y-127835000D02*
X101207600Y-127893000D01*
X103346600Y-125344000D02*
X103287600Y-125403000D01*
X103551600Y-125550000D02*
X103457600Y-125643000D01*
X106176600Y-127595000D02*
X106082600Y-127688000D01*
X106346600Y-127835000D02*
X106287600Y-127893000D01*
X108426600Y-125344000D02*
X108367600Y-125403000D01*
X108631600Y-125550000D02*
X108537600Y-125643000D01*
X111256600Y-127595000D02*
X111162600Y-127688000D01*
X111426600Y-127835000D02*
X111367600Y-127893000D01*
X113506600Y-125344000D02*
X113447600Y-125403000D01*
X113711600Y-125550000D02*
X113617600Y-125643000D01*
X115036600Y-122559000D02*
X115036600Y-130679000D01*
X85552600Y-125830000D02*
G75*
G03*
X85552647Y-127408089I1483995J-789000D01*
G01*
X87825600Y-125135000D02*
G75*
G03*
X86247511Y-125135047I-789000J-1483995D01*
G01*
X86247600Y-128102999D02*
G75*
G03*
X87065983Y-128299449I788998J1483994D01*
G01*
X87036600Y-128298999D02*
G75*
G03*
X87825312Y-128102351I0J1679999D01*
G01*
X88520600Y-127408000D02*
G75*
G03*
X88520552Y-125829911I-1484000J789000D01*
G01*
X93796600Y-126619000D02*
G75*
G03*
X93796600Y-126619000I-1680000J0D01*
G01*
X98876600Y-126619000D02*
G75*
G03*
X98876600Y-126619000I-1680000J0D01*
G01*
X103956600Y-126619000D02*
G75*
G03*
X103956600Y-126619000I-1680000J0D01*
G01*
X109036600Y-126619000D02*
G75*
G03*
X109036600Y-126619000I-1680000J0D01*
G01*
X114116600Y-126619000D02*
G75*
G03*
X114116600Y-126619000I-1680000J0D01*
G01*
%TO.C,C14*%
X113796000Y-89609600D02*
X113796000Y-86869600D01*
X113796000Y-89609600D02*
X106556000Y-89609600D01*
X113796000Y-86869600D02*
X106556000Y-86869600D01*
X106556000Y-89609600D02*
X106556000Y-86869600D01*
%TO.C,D2*%
X165718000Y-62626000D02*
X165718000Y-63826000D01*
X164418000Y-62626000D02*
X165718000Y-62626000D01*
X165528000Y-62816000D02*
X160483000Y-62816000D01*
X160483000Y-62816000D02*
X160483000Y-77766000D01*
X164408000Y-65186000D02*
X165528000Y-65186000D01*
X161608000Y-65186000D02*
X160483000Y-65186000D01*
X165528000Y-77756000D02*
X165528000Y-62816000D01*
X160483000Y-77766000D02*
X165528000Y-77756000D01*
%TO.C,C15*%
X155138000Y-118952000D02*
X155138000Y-113712000D01*
X155138000Y-118952000D02*
X140398000Y-118952000D01*
X155138000Y-113712000D02*
X140398000Y-113712000D01*
X140398000Y-118952000D02*
X140398000Y-113712000D01*
%TO.C,RN1*%
X84865200Y-57955200D02*
X82065200Y-57955200D01*
X82065200Y-57955200D02*
X82065200Y-83695200D01*
X84865200Y-60665200D02*
X82065200Y-60665200D01*
X84865200Y-83695200D02*
X84865200Y-57955200D01*
X82065200Y-83695200D02*
X84865200Y-83695200D01*
%TO.C,C1*%
X139461426Y-43838000D02*
X140061426Y-43838000D01*
X139761426Y-43538000D02*
X139761426Y-44138000D01*
X145921175Y-45593000D02*
G75*
G03*
X145921175Y-45593000I-3120000J0D01*
G01*
%TO.C,J5*%
X62784400Y-128679000D02*
X62784400Y-130919000D01*
X62784400Y-130919000D02*
X64784400Y-130919000D01*
X63024400Y-122559000D02*
X63024400Y-130679000D01*
X63024400Y-122559000D02*
X83464400Y-122559000D01*
X63024400Y-124619000D02*
X83464400Y-124619000D01*
X63024400Y-128619000D02*
X83464400Y-128619000D01*
X63024400Y-130679000D02*
X83464400Y-130679000D01*
X69524400Y-127595000D02*
X69430400Y-127688000D01*
X69694400Y-127835000D02*
X69635400Y-127893000D01*
X71774400Y-125344000D02*
X71715400Y-125403000D01*
X71979400Y-125550000D02*
X71885400Y-125643000D01*
X74604400Y-127595000D02*
X74510400Y-127688000D01*
X74774400Y-127835000D02*
X74715400Y-127893000D01*
X76854400Y-125344000D02*
X76795400Y-125403000D01*
X77059400Y-125550000D02*
X76965400Y-125643000D01*
X79684400Y-127595000D02*
X79590400Y-127688000D01*
X79854400Y-127835000D02*
X79795400Y-127893000D01*
X81934400Y-125344000D02*
X81875400Y-125403000D01*
X82139400Y-125550000D02*
X82045400Y-125643000D01*
X83464400Y-122559000D02*
X83464400Y-130679000D01*
X64140400Y-125830000D02*
G75*
G03*
X64140447Y-127408089I1483995J-789000D01*
G01*
X66413400Y-125135000D02*
G75*
G03*
X64835311Y-125135047I-789000J-1483995D01*
G01*
X64835400Y-128102999D02*
G75*
G03*
X65653783Y-128299449I788998J1483994D01*
G01*
X65624400Y-128298999D02*
G75*
G03*
X66413112Y-128102351I0J1679999D01*
G01*
X67108400Y-127408000D02*
G75*
G03*
X67108352Y-125829911I-1484000J789000D01*
G01*
X72384400Y-126619000D02*
G75*
G03*
X72384400Y-126619000I-1680000J0D01*
G01*
X77464400Y-126619000D02*
G75*
G03*
X77464400Y-126619000I-1680000J0D01*
G01*
X82544400Y-126619000D02*
G75*
G03*
X82544400Y-126619000I-1680000J0D01*
G01*
%TO.C,U8*%
X96951000Y-93010040D02*
X96951000Y-87810040D01*
X96951000Y-87810040D02*
X91651000Y-87810040D01*
X95301000Y-93010040D02*
X96951000Y-93010040D01*
X91651000Y-93010040D02*
X93301000Y-93010040D01*
X91651000Y-87810040D02*
X91651000Y-93010040D01*
X95301000Y-93010040D02*
G75*
G03*
X93301000Y-93010040I-1000000J0D01*
G01*
%TO.C,K2*%
X172830932Y-92915600D02*
X166330932Y-92915600D01*
X172830932Y-92915600D02*
X172830932Y-112115600D01*
X163930932Y-92915600D02*
X157430932Y-92915600D01*
X165130932Y-97015600D02*
X165130932Y-96115600D01*
X165130932Y-97015600D02*
X161430932Y-97015600D01*
X166630932Y-97915600D02*
X166630932Y-102915600D01*
X163630932Y-97915600D02*
X166630932Y-97915600D01*
X159130932Y-98115600D02*
X159130932Y-100415600D01*
X171130932Y-100415600D02*
X171130932Y-98115600D01*
X171130932Y-100415600D02*
X166630932Y-100415600D01*
X163630932Y-100415600D02*
X159130932Y-100415600D01*
X166630932Y-102915600D02*
X163630932Y-102915600D01*
X163630932Y-102915600D02*
X166630932Y-97915600D01*
X163630932Y-102915600D02*
X163630932Y-97915600D01*
X165130932Y-103915600D02*
X161430932Y-103915600D01*
X165130932Y-103915600D02*
X165130932Y-105415600D01*
X161430932Y-103915600D02*
X161430932Y-97015600D01*
X165130932Y-105415600D02*
X167830932Y-109915600D01*
X169430932Y-108615600D02*
X167130932Y-108615600D01*
X160830932Y-108615600D02*
X163130932Y-108615600D01*
X172830932Y-112115600D02*
X157430932Y-112115600D01*
X157430932Y-112115600D02*
X157430932Y-92915600D01*
%TO.C,D15*%
X165718000Y-42186000D02*
X165718000Y-43386000D01*
X164418000Y-42186000D02*
X165718000Y-42186000D01*
X165528000Y-42376000D02*
X160483000Y-42376000D01*
X160483000Y-42376000D02*
X160483000Y-57326000D01*
X164408000Y-44746000D02*
X165528000Y-44746000D01*
X161608000Y-44746000D02*
X160483000Y-44746000D01*
X165528000Y-57316000D02*
X165528000Y-42376000D01*
X160483000Y-57326000D02*
X165528000Y-57316000D01*
%TO.C,J3*%
X114778200Y-128679000D02*
X114778200Y-130919000D01*
X114778200Y-130919000D02*
X116778200Y-130919000D01*
X115018200Y-122559000D02*
X115018200Y-130679000D01*
X115018200Y-122559000D02*
X145618200Y-122559000D01*
X115018200Y-124619000D02*
X145618200Y-124619000D01*
X115018200Y-128619000D02*
X145618200Y-128619000D01*
X115018200Y-130679000D02*
X145618200Y-130679000D01*
X121518200Y-127595000D02*
X121424200Y-127688000D01*
X121688200Y-127835000D02*
X121629200Y-127893000D01*
X123768200Y-125344000D02*
X123709200Y-125403000D01*
X123973200Y-125550000D02*
X123879200Y-125643000D01*
X126598200Y-127595000D02*
X126504200Y-127688000D01*
X126768200Y-127835000D02*
X126709200Y-127893000D01*
X128848200Y-125344000D02*
X128789200Y-125403000D01*
X129053200Y-125550000D02*
X128959200Y-125643000D01*
X131678200Y-127595000D02*
X131584200Y-127688000D01*
X131848200Y-127835000D02*
X131789200Y-127893000D01*
X133928200Y-125344000D02*
X133869200Y-125403000D01*
X134133200Y-125550000D02*
X134039200Y-125643000D01*
X136758200Y-127595000D02*
X136664200Y-127688000D01*
X136928200Y-127835000D02*
X136869200Y-127893000D01*
X139008200Y-125344000D02*
X138949200Y-125403000D01*
X139213200Y-125550000D02*
X139119200Y-125643000D01*
X141838200Y-127595000D02*
X141744200Y-127688000D01*
X142008200Y-127835000D02*
X141949200Y-127893000D01*
X144088200Y-125344000D02*
X144029200Y-125403000D01*
X144293200Y-125550000D02*
X144199200Y-125643000D01*
X145618200Y-122559000D02*
X145618200Y-130679000D01*
X116134200Y-125830000D02*
G75*
G03*
X116134247Y-127408089I1483995J-789000D01*
G01*
X118407200Y-125135000D02*
G75*
G03*
X116829111Y-125135047I-789000J-1483995D01*
G01*
X116829200Y-128102999D02*
G75*
G03*
X117647583Y-128299449I788998J1483994D01*
G01*
X117618200Y-128298999D02*
G75*
G03*
X118406912Y-128102351I0J1679999D01*
G01*
X119102200Y-127408000D02*
G75*
G03*
X119102152Y-125829911I-1484000J789000D01*
G01*
X124378200Y-126619000D02*
G75*
G03*
X124378200Y-126619000I-1680000J0D01*
G01*
X129458200Y-126619000D02*
G75*
G03*
X129458200Y-126619000I-1680000J0D01*
G01*
X134538200Y-126619000D02*
G75*
G03*
X134538200Y-126619000I-1680000J0D01*
G01*
X139618200Y-126619000D02*
G75*
G03*
X139618200Y-126619000I-1680000J0D01*
G01*
X144698200Y-126619000D02*
G75*
G03*
X144698200Y-126619000I-1680000J0D01*
G01*
%TO.C,C11*%
X189856000Y-118952000D02*
X189856000Y-113712000D01*
X189856000Y-118952000D02*
X175116000Y-118952000D01*
X189856000Y-113712000D02*
X175116000Y-113712000D01*
X175116000Y-118952000D02*
X175116000Y-113712000D01*
%TO.C,U1*%
X147125200Y-56050800D02*
X147125200Y-51109800D01*
X147125200Y-56050800D02*
X136625200Y-56050800D01*
X147125200Y-53290800D02*
X145518200Y-53290800D01*
X147125200Y-51109800D02*
X136625200Y-51109800D01*
X143725200Y-56050800D02*
X143725200Y-54032800D01*
X143312200Y-53290800D02*
X142977200Y-53290800D01*
X140772200Y-53290800D02*
X140437200Y-53290800D01*
X140024200Y-56050800D02*
X140024200Y-54032800D01*
X138232200Y-53290800D02*
X136625200Y-53290800D01*
X136625200Y-56050800D02*
X136625200Y-51109800D01*
%TO.C,F2*%
X201514800Y-116273600D02*
X203114800Y-116273600D01*
X207914800Y-116273600D02*
X206314800Y-116273600D01*
X201514800Y-109973600D02*
X201514800Y-116273600D01*
X201514800Y-109973600D02*
X203114800Y-109973600D01*
X207914800Y-109973600D02*
X207914800Y-116273600D01*
X207914800Y-109973600D02*
X206314800Y-109973600D01*
X201514800Y-102233600D02*
X203114800Y-102233600D01*
X202214800Y-102233600D02*
X202214800Y-109973600D01*
X207214800Y-102233600D02*
X207214800Y-109973600D01*
X207914800Y-102233600D02*
X206314800Y-102233600D01*
X207914800Y-102233600D02*
X207914800Y-95933600D01*
X201514800Y-95933600D02*
X201514800Y-102233600D01*
X203114800Y-95933600D02*
X201514800Y-95933600D01*
X206314800Y-95933600D02*
X207914800Y-95933600D01*
%TO.C,J7*%
X77978000Y-104029200D02*
X77978000Y-105359200D01*
X76648000Y-104029200D02*
X77978000Y-104029200D01*
X75378000Y-104029200D02*
X62618000Y-104029200D01*
X75378000Y-104029200D02*
X75378000Y-106689200D01*
X62618000Y-104029200D02*
X62618000Y-106689200D01*
X75378000Y-106689200D02*
X62618000Y-106689200D01*
%TO.C,K3*%
X155615066Y-93045400D02*
X149115066Y-93045400D01*
X155615066Y-93045400D02*
X155615066Y-112245400D01*
X146715066Y-93045400D02*
X140215066Y-93045400D01*
X147915066Y-97145400D02*
X147915066Y-96245400D01*
X147915066Y-97145400D02*
X144215066Y-97145400D01*
X149415066Y-98045400D02*
X149415066Y-103045400D01*
X146415066Y-98045400D02*
X149415066Y-98045400D01*
X141915066Y-98245400D02*
X141915066Y-100545400D01*
X153915066Y-100545400D02*
X153915066Y-98245400D01*
X153915066Y-100545400D02*
X149415066Y-100545400D01*
X146415066Y-100545400D02*
X141915066Y-100545400D01*
X149415066Y-103045400D02*
X146415066Y-103045400D01*
X146415066Y-103045400D02*
X149415066Y-98045400D01*
X146415066Y-103045400D02*
X146415066Y-98045400D01*
X147915066Y-104045400D02*
X144215066Y-104045400D01*
X147915066Y-104045400D02*
X147915066Y-105545400D01*
X144215066Y-104045400D02*
X144215066Y-97145400D01*
X147915066Y-105545400D02*
X150615066Y-110045400D01*
X152215066Y-108745400D02*
X149915066Y-108745400D01*
X143615066Y-108745400D02*
X145915066Y-108745400D01*
X155615066Y-112245400D02*
X140215066Y-112245400D01*
X140215066Y-112245400D02*
X140215066Y-93045400D01*
%TO.C,D3*%
X152569000Y-75895000D02*
X152569000Y-78985000D01*
X158118999Y-77440462D02*
G75*
G03*
X152569001Y-75895170I-2989999J462D01*
G01*
X152569000Y-78984830D02*
G75*
G03*
X158119000Y-77439538I2560000J1544830D01*
G01*
X157629000Y-77440000D02*
G75*
G03*
X157629000Y-77440000I-2500000J0D01*
G01*
%TO.C,J6*%
X78054200Y-112004800D02*
X78054200Y-113334800D01*
X76724200Y-112004800D02*
X78054200Y-112004800D01*
X75454200Y-112004800D02*
X62694200Y-112004800D01*
X75454200Y-112004800D02*
X75454200Y-114664800D01*
X62694200Y-112004800D02*
X62694200Y-114664800D01*
X75454200Y-114664800D02*
X62694200Y-114664800D01*
%TO.C,J8*%
X55937800Y-75403400D02*
X55937800Y-93303400D01*
X55937800Y-75403400D02*
X58537800Y-75403400D01*
X55937800Y-93303400D02*
X61137800Y-93303400D01*
X58537800Y-75403400D02*
X58537800Y-78003400D01*
X58537800Y-78003400D02*
X61137800Y-78003400D01*
X59807800Y-75403400D02*
X61137800Y-75403400D01*
X61137800Y-75403400D02*
X61137800Y-76733400D01*
X61137800Y-78003400D02*
X61137800Y-93303400D01*
%TO.C,T1*%
X167424200Y-86355000D02*
X217564200Y-86355000D01*
X167424200Y-86355000D02*
X167424200Y-44015000D01*
X217564200Y-44015000D02*
X217564200Y-86355000D01*
X217564200Y-44015000D02*
X167424200Y-44015000D01*
%TD*%
M02*
