%TF.GenerationSoftware,KiCad,Pcbnew,7.0.2*%
%TF.CreationDate,2024-03-07T12:51:37+05:30*%
%TF.ProjectId,helix2403,68656c69-7832-4343-9033-2e6b69636164,rev?*%
%TF.SameCoordinates,Original*%
%TF.FileFunction,Soldermask,Bot*%
%TF.FilePolarity,Negative*%
%FSLAX46Y46*%
G04 Gerber Fmt 4.6, Leading zero omitted, Abs format (unit mm)*
G04 Created by KiCad (PCBNEW 7.0.2) date 2024-03-07 12:51:37*
%MOMM*%
%LPD*%
G01*
G04 APERTURE LIST*
G04 Aperture macros list*
%AMRoundRect*
0 Rectangle with rounded corners*
0 $1 Rounding radius*
0 $2 $3 $4 $5 $6 $7 $8 $9 X,Y pos of 4 corners*
0 Add a 4 corners polygon primitive as box body*
4,1,4,$2,$3,$4,$5,$6,$7,$8,$9,$2,$3,0*
0 Add four circle primitives for the rounded corners*
1,1,$1+$1,$2,$3*
1,1,$1+$1,$4,$5*
1,1,$1+$1,$6,$7*
1,1,$1+$1,$8,$9*
0 Add four rect primitives between the rounded corners*
20,1,$1+$1,$2,$3,$4,$5,0*
20,1,$1+$1,$4,$5,$6,$7,0*
20,1,$1+$1,$6,$7,$8,$9,0*
20,1,$1+$1,$8,$9,$2,$3,0*%
G04 Aperture macros list end*
%ADD10C,0.200000*%
%ADD11C,2.000000*%
%ADD12R,1.600000X1.600000*%
%ADD13O,1.600000X1.600000*%
%ADD14R,3.000000X3.000000*%
%ADD15C,3.000000*%
%ADD16C,1.600000*%
%ADD17R,1.700000X1.700000*%
%ADD18O,1.700000X1.700000*%
%ADD19R,2.200000X2.200000*%
%ADD20O,2.200000X2.200000*%
%ADD21R,2.500000X2.500000*%
%ADD22C,2.500000*%
%ADD23R,2.000000X2.000000*%
%ADD24O,5.500000X8.000000*%
%ADD25R,2.400000X1.600000*%
%ADD26O,2.400000X1.600000*%
%ADD27C,2.200000*%
%ADD28R,1.905000X2.000000*%
%ADD29O,1.905000X2.000000*%
%ADD30RoundRect,0.675000X0.675000X-0.675000X0.675000X0.675000X-0.675000X0.675000X-0.675000X-0.675000X0*%
%ADD31C,2.700000*%
%ADD32R,1.800000X1.800000*%
%ADD33C,1.800000*%
%ADD34R,3.200000X3.200000*%
%ADD35RoundRect,0.250000X0.625000X-0.400000X0.625000X0.400000X-0.625000X0.400000X-0.625000X-0.400000X0*%
%ADD36O,1.800000X2.400000*%
%ADD37RoundRect,0.190000X-0.285000X-0.685000X0.285000X-0.685000X0.285000X0.685000X-0.285000X0.685000X0*%
%ADD38RoundRect,0.250000X0.400000X0.625000X-0.400000X0.625000X-0.400000X-0.625000X0.400000X-0.625000X0*%
%ADD39RoundRect,0.249999X-0.450001X-1.425001X0.450001X-1.425001X0.450001X1.425001X-0.450001X1.425001X0*%
%ADD40RoundRect,0.249999X-1.425001X0.450001X-1.425001X-0.450001X1.425001X-0.450001X1.425001X0.450001X0*%
%ADD41RoundRect,0.250000X-0.400000X-0.625000X0.400000X-0.625000X0.400000X0.625000X-0.400000X0.625000X0*%
G04 APERTURE END LIST*
D10*
X94326400Y-55473600D02*
X93818400Y-102920800D01*
D11*
%TO.C,C13*%
X170294000Y-116332000D03*
X160294000Y-116332000D03*
%TD*%
D12*
%TO.C,U3*%
X90561800Y-67599760D03*
D13*
X90561800Y-70139760D03*
X98181800Y-70139760D03*
X98181800Y-67599760D03*
%TD*%
D14*
%TO.C,K4*%
X129982400Y-94410400D03*
D15*
X135982400Y-108610400D03*
X123982400Y-108610400D03*
X123982400Y-96410400D03*
X135982400Y-96410400D03*
%TD*%
D16*
%TO.C,C9*%
X151532400Y-87542600D03*
X146532400Y-87542600D03*
%TD*%
D17*
%TO.C,J9*%
X72609400Y-59740800D03*
D18*
X72609400Y-62280800D03*
X72609400Y-64820800D03*
X72609400Y-67360800D03*
X72609400Y-69900800D03*
X72609400Y-72440800D03*
X72609400Y-74980800D03*
X72609400Y-77520800D03*
X72609400Y-80060800D03*
X72609400Y-82600800D03*
%TD*%
D19*
%TO.C,D12*%
X124586400Y-90855800D03*
D20*
X134746400Y-90855800D03*
%TD*%
D16*
%TO.C,C4*%
X184841200Y-88163400D03*
X179841200Y-88163400D03*
%TD*%
D21*
%TO.C,J1*%
X179365600Y-126619000D03*
D22*
X184445600Y-126619000D03*
%TD*%
D16*
%TO.C,C12*%
X112817600Y-96647000D03*
X107817600Y-96647000D03*
%TD*%
D23*
%TO.C,C2*%
X154067200Y-51937523D03*
D11*
X154067200Y-56937523D03*
%TD*%
D19*
%TO.C,D11*%
X143277800Y-90990800D03*
D20*
X153437800Y-90990800D03*
%TD*%
D19*
%TO.C,D6*%
X158258200Y-91010200D03*
D20*
X168418200Y-91010200D03*
%TD*%
D12*
%TO.C,U7*%
X98111000Y-98856800D03*
D13*
X98111000Y-96316800D03*
X90491000Y-96316800D03*
X90491000Y-98856800D03*
%TD*%
D16*
%TO.C,C8*%
X145685200Y-65292600D03*
X145685200Y-70292600D03*
%TD*%
D12*
%TO.C,U6*%
X90561800Y-81953280D03*
D13*
X90561800Y-84493280D03*
X98181800Y-84493280D03*
X98181800Y-81953280D03*
%TD*%
D11*
%TO.C,C16*%
X134814000Y-116332000D03*
X124814000Y-116332000D03*
%TD*%
D24*
%TO.C,REF\u002A\u002A*%
X219142000Y-61163200D03*
%TD*%
D19*
%TO.C,D4*%
X176448400Y-91516200D03*
D20*
X186608400Y-91516200D03*
%TD*%
D14*
%TO.C,K1*%
X182499200Y-95070800D03*
D15*
X188499200Y-109270800D03*
X176499200Y-109270800D03*
X176499200Y-97070800D03*
X188499200Y-97070800D03*
%TD*%
D14*
%TO.C,C5*%
X207251000Y-90703400D03*
X197251000Y-90703400D03*
%TD*%
D12*
%TO.C,U2*%
X90561800Y-60423000D03*
D13*
X90561800Y-62963000D03*
X98181800Y-62963000D03*
X98181800Y-60423000D03*
%TD*%
D16*
%TO.C,C10*%
X132414800Y-87553800D03*
X127414800Y-87553800D03*
%TD*%
%TO.C,C6*%
X163196600Y-87632000D03*
X158196600Y-87632000D03*
%TD*%
D23*
%TO.C,C7*%
X154041800Y-65221723D03*
D11*
X154041800Y-70221723D03*
%TD*%
D17*
%TO.C,J10*%
X72634800Y-86233000D03*
D18*
X72634800Y-88773000D03*
X72634800Y-91313000D03*
X72634800Y-93853000D03*
%TD*%
D16*
%TO.C,C3*%
X156908200Y-43256200D03*
X151908200Y-43256200D03*
%TD*%
D12*
%TO.C,U5*%
X90561800Y-74776520D03*
D13*
X90561800Y-77316520D03*
X98181800Y-77316520D03*
X98181800Y-74776520D03*
%TD*%
D21*
%TO.C,J2*%
X148098200Y-126619000D03*
D22*
X153178200Y-126619000D03*
X158258200Y-126619000D03*
X163338200Y-126619000D03*
X168418200Y-126619000D03*
X173498200Y-126619000D03*
%TD*%
D25*
%TO.C,U4*%
X104191600Y-60462000D03*
D26*
X104191600Y-63002000D03*
X104191600Y-65542000D03*
X104191600Y-68082000D03*
X104191600Y-70622000D03*
X104191600Y-73162000D03*
X104191600Y-75702000D03*
X104191600Y-78242000D03*
X104191600Y-80782000D03*
X111811600Y-80782000D03*
X111811600Y-78242000D03*
X111811600Y-75702000D03*
X111811600Y-73162000D03*
X111811600Y-70622000D03*
X111811600Y-68082000D03*
X111811600Y-65542000D03*
X111811600Y-63002000D03*
X111811600Y-60462000D03*
%TD*%
D21*
%TO.C,J4*%
X87036600Y-126619000D03*
D22*
X92116600Y-126619000D03*
X97196600Y-126619000D03*
X102276600Y-126619000D03*
X107356600Y-126619000D03*
X112436600Y-126619000D03*
%TD*%
D16*
%TO.C,C14*%
X112676000Y-88239600D03*
X107676000Y-88239600D03*
%TD*%
D19*
%TO.C,D2*%
X163008000Y-64516000D03*
D27*
X163008000Y-68366000D03*
X163008000Y-72216000D03*
X163008000Y-76066000D03*
%TD*%
D11*
%TO.C,C15*%
X152768000Y-116332000D03*
X142768000Y-116332000D03*
%TD*%
D12*
%TO.C,RN1*%
X83465200Y-59395200D03*
D13*
X83465200Y-61935200D03*
X83465200Y-64475200D03*
X83465200Y-67015200D03*
X83465200Y-69555200D03*
X83465200Y-72095200D03*
X83465200Y-74635200D03*
X83465200Y-77175200D03*
X83465200Y-79715200D03*
X83465200Y-82255200D03*
%TD*%
D12*
%TO.C,C1*%
X141551175Y-45593000D03*
D16*
X144051175Y-45593000D03*
%TD*%
D21*
%TO.C,J5*%
X65624400Y-126619000D03*
D22*
X70704400Y-126619000D03*
X75784400Y-126619000D03*
X80864400Y-126619000D03*
%TD*%
D12*
%TO.C,U8*%
X98111000Y-91680040D03*
D13*
X98111000Y-89140040D03*
X90491000Y-89140040D03*
X90491000Y-91680040D03*
%TD*%
D24*
%TO.C,REF\u002A\u002A*%
X50359000Y-118186200D03*
%TD*%
%TO.C,REF\u002A\u002A*%
X218049800Y-118262400D03*
%TD*%
D14*
%TO.C,K2*%
X165130932Y-94415600D03*
D15*
X171130932Y-108615600D03*
X159130932Y-108615600D03*
X159130932Y-96415600D03*
X171130932Y-96415600D03*
%TD*%
D19*
%TO.C,D15*%
X163008000Y-44076000D03*
D27*
X163008000Y-47926000D03*
X163008000Y-51776000D03*
X163008000Y-55626000D03*
%TD*%
D24*
%TO.C,REF\u002A\u002A*%
X49343000Y-61010800D03*
%TD*%
D21*
%TO.C,J3*%
X117618200Y-126619000D03*
D22*
X122698200Y-126619000D03*
X127778200Y-126619000D03*
X132858200Y-126619000D03*
X137938200Y-126619000D03*
X143018200Y-126619000D03*
%TD*%
D11*
%TO.C,C11*%
X187486000Y-116332000D03*
X177486000Y-116332000D03*
%TD*%
D28*
%TO.C,U1*%
X144415200Y-52882800D03*
D29*
X141875200Y-52882800D03*
X139335200Y-52882800D03*
%TD*%
D30*
%TO.C,F2*%
X204714800Y-116503600D03*
X204714800Y-109743600D03*
D31*
X204714800Y-102463600D03*
X204714800Y-95703600D03*
%TD*%
D17*
%TO.C,J7*%
X76648000Y-105359200D03*
D18*
X74108000Y-105359200D03*
X71568000Y-105359200D03*
X69028000Y-105359200D03*
X66488000Y-105359200D03*
X63948000Y-105359200D03*
%TD*%
D14*
%TO.C,K3*%
X147915066Y-94545400D03*
D15*
X153915066Y-108745400D03*
X141915066Y-108745400D03*
X141915066Y-96545400D03*
X153915066Y-96545400D03*
%TD*%
D32*
%TO.C,D3*%
X153859000Y-77440000D03*
D33*
X156399000Y-77440000D03*
%TD*%
D17*
%TO.C,J6*%
X76724200Y-113334800D03*
D18*
X74184200Y-113334800D03*
X71644200Y-113334800D03*
X69104200Y-113334800D03*
X66564200Y-113334800D03*
X64024200Y-113334800D03*
%TD*%
D17*
%TO.C,J8*%
X59807800Y-76733400D03*
D18*
X57267800Y-76733400D03*
X59807800Y-79273400D03*
X57267800Y-79273400D03*
X59807800Y-81813400D03*
X57267800Y-81813400D03*
X59807800Y-84353400D03*
X57267800Y-84353400D03*
X59807800Y-86893400D03*
X57267800Y-86893400D03*
X59807800Y-89433400D03*
X57267800Y-89433400D03*
X59807800Y-91973400D03*
X57267800Y-91973400D03*
%TD*%
D34*
%TO.C,T1*%
X199994200Y-78935000D03*
X204994200Y-78935000D03*
X194994200Y-78935000D03*
X189994200Y-78935000D03*
X184994200Y-78935000D03*
X179944200Y-78935000D03*
X179994200Y-51435000D03*
X184994200Y-51435000D03*
X189994200Y-51435000D03*
X194994200Y-51435000D03*
X199994200Y-51435000D03*
X204994200Y-51435000D03*
%TD*%
D35*
%TO.C,R13*%
X76978200Y-53314600D03*
X76978200Y-50214600D03*
%TD*%
%TO.C,R15*%
X74311200Y-53314600D03*
X74311200Y-50214600D03*
%TD*%
D32*
%TO.C,D5*%
X123887000Y-47020000D03*
D33*
X126427000Y-47020000D03*
%TD*%
D36*
%TO.C,D19*%
X124882000Y-50038000D03*
D37*
X123332000Y-50038000D03*
X126432000Y-50038000D03*
%TD*%
D35*
%TO.C,R5*%
X111446000Y-56388000D03*
X111446000Y-53288000D03*
%TD*%
D36*
%TO.C,D20*%
X117770000Y-50038000D03*
D37*
X116220000Y-50038000D03*
X119320000Y-50038000D03*
%TD*%
D36*
%TO.C,D8*%
X76114000Y-47752000D03*
D37*
X74564000Y-47752000D03*
X77664000Y-47752000D03*
%TD*%
D32*
%TO.C,D10*%
X101535000Y-47020000D03*
D33*
X104075000Y-47020000D03*
%TD*%
D32*
%TO.C,D1*%
X134047000Y-47096200D03*
D33*
X136587000Y-47096200D03*
%TD*%
D35*
%TO.C,R3*%
X126584400Y-56388000D03*
X126584400Y-53288000D03*
%TD*%
D38*
%TO.C,R17*%
X104639400Y-88061800D03*
X101539400Y-88061800D03*
%TD*%
D32*
%TO.C,D9*%
X109155000Y-47020000D03*
D33*
X111695000Y-47020000D03*
%TD*%
D36*
%TO.C,D18*%
X155616000Y-80264000D03*
D37*
X154066000Y-80264000D03*
X157166000Y-80264000D03*
%TD*%
D38*
%TO.C,R16*%
X104487000Y-92334600D03*
X101387000Y-92334600D03*
%TD*%
D39*
%TO.C,R7*%
X183582000Y-113284000D03*
X189682000Y-113284000D03*
%TD*%
D32*
%TO.C,D13*%
X82485000Y-45216600D03*
D33*
X85025000Y-45216600D03*
%TD*%
D36*
%TO.C,D16*%
X83988000Y-48006000D03*
D37*
X82438000Y-48006000D03*
X85538000Y-48006000D03*
%TD*%
D36*
%TO.C,D22*%
X103090000Y-50038000D03*
D37*
X101540000Y-50038000D03*
X104640000Y-50038000D03*
%TD*%
D35*
%TO.C,R9*%
X82439200Y-53594000D03*
X82439200Y-50494000D03*
%TD*%
D38*
%TO.C,R10*%
X104537800Y-100660200D03*
X101437800Y-100660200D03*
%TD*%
D35*
%TO.C,R1*%
X133848800Y-56388000D03*
X133848800Y-53288000D03*
%TD*%
D32*
%TO.C,D14*%
X74611000Y-45288200D03*
D33*
X77151000Y-45288200D03*
%TD*%
D36*
%TO.C,D21*%
X110456000Y-50038000D03*
D37*
X108906000Y-50038000D03*
X112006000Y-50038000D03*
%TD*%
D40*
%TO.C,R18*%
X132172400Y-105662000D03*
X132172400Y-111762000D03*
%TD*%
D38*
%TO.C,R12*%
X104487000Y-96322400D03*
X101387000Y-96322400D03*
%TD*%
D35*
%TO.C,R6*%
X104080000Y-56388000D03*
X104080000Y-53288000D03*
%TD*%
%TO.C,R8*%
X84979200Y-53594000D03*
X84979200Y-50494000D03*
%TD*%
D39*
%TO.C,R11*%
X166052000Y-113284000D03*
X172152000Y-113284000D03*
%TD*%
D35*
%TO.C,R4*%
X119040600Y-56388000D03*
X119040600Y-53288000D03*
%TD*%
D41*
%TO.C,R2*%
X148631000Y-73863200D03*
X151731000Y-73863200D03*
%TD*%
D39*
%TO.C,R14*%
X148780000Y-113030000D03*
X154880000Y-113030000D03*
%TD*%
D32*
%TO.C,D7*%
X116521000Y-47020000D03*
D33*
X119061000Y-47020000D03*
%TD*%
D36*
%TO.C,D17*%
X134814000Y-50038000D03*
D37*
X133264000Y-50038000D03*
X136364000Y-50038000D03*
%TD*%
M02*
