M48
; DRILL file {KiCad 7.0.2} date Thu Mar  7 12:51:41 2024
; FORMAT={-:-/ absolute / metric / decimal}
; #@! TF.CreationDate,2024-03-07T12:51:41+05:30
; #@! TF.GenerationSoftware,Kicad,Pcbnew,7.0.2
; #@! TF.FileFunction,Plated,1,2,PTH
FMAT,2
METRIC
; #@! TA.AperFunction,Plated,PTH,ViaDrill
T1C0.800
; #@! TA.AperFunction,Plated,PTH,ComponentDrill
T2C0.800
; #@! TA.AperFunction,Plated,PTH,ComponentDrill
T3C0.900
; #@! TA.AperFunction,Plated,PTH,ComponentDrill
T4C1.000
; #@! TA.AperFunction,Plated,PTH,ComponentDrill
T5C1.100
; #@! TA.AperFunction,Plated,PTH,ComponentDrill
T6C1.200
; #@! TA.AperFunction,Plated,PTH,ComponentDrill
T7C1.300
; #@! TA.AperFunction,Plated,PTH,ComponentDrill
T8C1.500
; #@! TA.AperFunction,Plated,PTH,ComponentDrill
T9C1.700
; #@! TA.AperFunction,Plated,PTH,ComponentDrill
T10C1.800
%
G90
G05
T1
X76.953Y-55.626
X82.312Y-55.372
T2
X83.465Y-59.395
X83.465Y-61.935
X83.465Y-64.475
X83.465Y-67.015
X83.465Y-69.555
X83.465Y-72.095
X83.465Y-74.635
X83.465Y-77.175
X83.465Y-79.715
X83.465Y-82.255
X90.491Y-89.14
X90.491Y-91.68
X90.491Y-96.317
X90.491Y-98.857
X90.562Y-60.423
X90.562Y-62.963
X90.562Y-67.6
X90.562Y-70.14
X90.562Y-74.777
X90.562Y-77.317
X90.562Y-81.953
X90.562Y-84.493
X98.111Y-89.14
X98.111Y-91.68
X98.111Y-96.317
X98.111Y-98.857
X98.182Y-60.423
X98.182Y-62.963
X98.182Y-67.6
X98.182Y-70.14
X98.182Y-74.777
X98.182Y-77.317
X98.182Y-81.953
X98.182Y-84.493
X104.192Y-60.462
X104.192Y-63.002
X104.192Y-65.542
X104.192Y-68.082
X104.192Y-70.622
X104.192Y-73.162
X104.192Y-75.702
X104.192Y-78.242
X104.192Y-80.782
X107.676Y-88.24
X107.818Y-96.647
X111.812Y-60.462
X111.812Y-63.002
X111.812Y-65.542
X111.812Y-68.082
X111.812Y-70.622
X111.812Y-73.162
X111.812Y-75.702
X111.812Y-78.242
X111.812Y-80.782
X112.676Y-88.24
X112.818Y-96.647
X127.415Y-87.554
X132.415Y-87.554
X141.551Y-45.593
X144.051Y-45.593
X145.685Y-65.293
X145.685Y-70.293
X146.532Y-87.543
X151.532Y-87.543
X151.908Y-43.256
X156.908Y-43.256
X158.197Y-87.632
X163.197Y-87.632
X179.841Y-88.163
X184.841Y-88.163
T3
X74.611Y-45.288
X77.151Y-45.288
X82.485Y-45.217
X85.025Y-45.217
X101.535Y-47.02
X104.075Y-47.02
X109.155Y-47.02
X111.695Y-47.02
X116.521Y-47.02
X119.061Y-47.02
X123.887Y-47.02
X126.427Y-47.02
X134.047Y-47.096
X136.587Y-47.096
X153.859Y-77.44
X156.399Y-77.44
T4
X57.268Y-76.733
X57.268Y-79.273
X57.268Y-81.813
X57.268Y-84.353
X57.268Y-86.893
X57.268Y-89.433
X57.268Y-91.973
X59.808Y-76.733
X59.808Y-79.273
X59.808Y-81.813
X59.808Y-84.353
X59.808Y-86.893
X59.808Y-89.433
X59.808Y-91.973
X63.948Y-105.359
X64.024Y-113.335
X66.488Y-105.359
X66.564Y-113.335
X69.028Y-105.359
X69.104Y-113.335
X71.568Y-105.359
X71.644Y-113.335
X72.609Y-59.741
X72.609Y-62.281
X72.609Y-64.821
X72.609Y-67.361
X72.609Y-69.901
X72.609Y-72.441
X72.609Y-74.981
X72.609Y-77.521
X72.609Y-80.061
X72.609Y-82.601
X72.635Y-86.233
X72.635Y-88.773
X72.635Y-91.313
X72.635Y-93.853
X74.108Y-105.359
X74.184Y-113.335
X76.648Y-105.359
X76.724Y-113.335
X124.814Y-116.332
X134.814Y-116.332
X142.768Y-116.332
X152.768Y-116.332
X154.042Y-65.222
X154.042Y-70.222
X154.067Y-51.938
X154.067Y-56.938
X160.294Y-116.332
X170.294Y-116.332
X177.486Y-116.332
X187.486Y-116.332
T5
X124.586Y-90.856
X134.746Y-90.856
X143.278Y-90.991
X153.438Y-90.991
X158.258Y-91.01
X168.418Y-91.01
X176.448Y-91.516
X186.608Y-91.516
T6
X139.335Y-52.883
X141.875Y-52.883
X144.415Y-52.883
X163.008Y-44.076
X163.008Y-47.926
X163.008Y-51.776
X163.008Y-55.626
X163.008Y-64.516
X163.008Y-68.366
X163.008Y-72.216
X163.008Y-76.066
T7
X65.624Y-126.619
X70.704Y-126.619
X75.784Y-126.619
X80.864Y-126.619
X87.037Y-126.619
X92.117Y-126.619
X97.197Y-126.619
X102.277Y-126.619
X107.357Y-126.619
X112.437Y-126.619
X117.618Y-126.619
X122.698Y-126.619
X123.982Y-96.41
X123.982Y-108.61
X127.778Y-126.619
X132.858Y-126.619
X135.982Y-96.41
X135.982Y-108.61
X137.938Y-126.619
X141.915Y-96.545
X141.915Y-108.745
X143.018Y-126.619
X148.098Y-126.619
X153.178Y-126.619
X153.915Y-96.545
X153.915Y-108.745
X158.258Y-126.619
X159.131Y-96.416
X159.131Y-108.616
X163.338Y-126.619
X168.418Y-126.619
X171.131Y-96.416
X171.131Y-108.616
X173.498Y-126.619
X176.499Y-97.071
X176.499Y-109.271
X179.366Y-126.619
X184.446Y-126.619
X188.499Y-97.071
X188.499Y-109.271
T8
X129.982Y-94.41
X147.915Y-94.545
X165.131Y-94.416
X182.499Y-95.071
X197.251Y-90.703
X207.251Y-90.703
T9
X204.715Y-95.704
X204.715Y-102.464
X204.715Y-109.744
X204.715Y-116.504
T10
X179.944Y-78.935
X179.994Y-51.435
X184.994Y-51.435
X184.994Y-78.935
X189.994Y-51.435
X189.994Y-78.935
X194.994Y-51.435
X194.994Y-78.935
X199.994Y-51.435
X199.994Y-78.935
X199.994Y-78.935
X204.994Y-51.435
X204.994Y-78.935
T0
M30
